<svg width="504" height="600" viewBox="0 0 504 600" fill="none" xmlns="http://www.w3.org/2000/svg">
<rect x="4.66602" y="89.3431" width="410" height="515" rx="24" transform="rotate(-8 4.66602 89.3431)" fill="#001818"/>
<rect x="23.2378" y="66.2195" width="410" height="515" rx="16" transform="rotate(-8 23.2378 66.2195)" fill="#D57F1D"/>
<path d="M24.212 73.1514C22.9822 64.4009 29.079 56.3102 37.8295 55.0804L412.151 2.47294C420.901 1.24313 428.992 7.3399 430.222 16.0905L497.442 494.39C498.672 503.14 492.576 511.231 483.825 512.461L461.039 515.663C458.932 515.959 456.784 515.736 454.784 515.013V515.013C451.579 513.854 448.048 513.995 444.945 515.404L439.014 518.099C437.619 518.732 436.141 519.163 434.623 519.376L418.831 521.595C416.953 521.859 415.043 521.787 413.19 521.382L407.717 520.187C403.981 519.37 400.077 519.919 396.711 521.733L391.779 524.391C390.109 525.291 388.293 525.887 386.415 526.151L152.693 558.998C150.076 559.366 147.418 558.721 145.26 557.196V557.196C141.582 554.595 136.646 554.665 133.043 557.369L129.139 560.298C126.977 561.921 124.439 562.969 121.762 563.346L109.504 565.068C100.753 566.298 92.6624 560.201 91.4326 551.451L24.212 73.1514Z" fill="#E1DAC2"/>
<rect opacity="0.3" x="37.4196" y="70.1268" width="383" height="486" rx="9.5" transform="rotate(-8 37.4196 70.1268)" stroke="#DB7704" stroke-width="3"/>
<path d="M141.294 89.564L147.419 134.145L134.61 135.905L130.29 104.461L128.595 104.693L126.258 137.053L105.662 139.882L94.7137 109.348L93.0494 109.577L97.3696 141.022L84.5599 142.782L78.4348 98.2004L103.846 94.7091L113.199 124.433L114.655 124.233L115.883 93.0553L141.294 89.564ZM163.302 86.5404L169.427 131.122L153.972 133.245L147.847 88.6638L163.302 86.5404ZM216.712 110.483C217.382 115.358 215.967 119.317 212.469 122.361C208.988 125.383 203.384 127.425 195.656 128.487C190.842 129.148 186.715 129.16 183.276 128.522C179.837 127.884 177.19 126.764 175.335 125.162C173.477 123.54 172.395 121.619 172.09 119.4C172.044 119.063 172.043 118.69 172.088 118.28L187.022 113.472C186.965 113.642 186.955 113.865 186.993 114.143C187.083 114.796 187.366 115.313 187.842 115.691C188.318 116.07 189.138 116.311 190.303 116.413C191.465 116.496 193.067 116.397 195.108 116.116C196.99 115.858 198.434 115.569 199.44 115.249C200.446 114.929 201.139 114.541 201.521 114.085C201.919 113.606 202.067 112.99 201.963 112.237C201.852 111.425 201.443 110.875 200.738 110.589C200.049 110.28 198.757 110.134 196.862 110.152C194.964 110.15 191.794 110.293 187.352 110.581C183.173 110.872 179.898 110.767 177.527 110.265C175.174 109.74 173.408 108.711 172.228 107.178C171.068 105.641 170.283 103.377 169.871 100.385C169.417 97.0761 169.874 94.1568 171.242 91.627C172.63 89.0944 174.849 87.0232 177.898 85.4131C180.965 83.7806 184.747 82.6553 189.244 82.0374C195.307 81.2044 200.357 81.3686 204.392 82.5301C208.428 83.6916 211.001 85.9625 212.112 89.3428C212.287 89.884 212.407 90.3924 212.473 90.8679L198.075 97.6003C198.102 97.3543 198.11 97.1917 198.099 97.1125C197.941 95.9633 197.164 95.2322 195.769 94.9192C194.373 94.6063 192.447 94.6186 189.99 94.9562C188.345 95.1821 187.061 95.4595 186.137 95.7883C185.213 96.1171 184.582 96.5168 184.243 96.9873C183.901 97.438 183.776 98.0002 183.869 98.6739C183.97 99.407 184.443 99.9173 185.29 100.205C186.157 100.489 187.789 100.608 190.185 100.562C192.598 100.493 196.328 100.243 201.377 99.8114C205.748 99.453 209.254 100.132 211.892 101.849C214.55 103.563 216.157 106.441 216.712 110.483ZM263.659 104.033C264.329 108.907 262.915 112.867 259.416 115.911C255.935 118.933 250.331 120.975 242.604 122.037C237.789 122.698 233.662 122.71 230.223 122.072C226.784 121.434 224.137 120.314 222.282 118.712C220.424 117.09 219.342 115.169 219.038 112.95C218.991 112.613 218.99 112.24 219.035 111.83L233.97 107.022C233.912 107.192 233.903 107.415 233.941 107.692C234.03 108.346 234.313 108.863 234.789 109.241C235.265 109.62 236.086 109.861 237.25 109.963C238.413 110.046 240.014 109.947 242.055 109.666C243.937 109.408 245.381 109.118 246.387 108.799C247.393 108.479 248.086 108.091 248.468 107.635C248.866 107.156 249.014 106.54 248.911 105.787C248.799 104.975 248.39 104.425 247.685 104.139C246.996 103.829 245.704 103.684 243.809 103.702C241.911 103.7 238.741 103.843 234.299 104.13C230.12 104.422 226.845 104.317 224.475 103.815C222.121 103.29 220.355 102.261 219.175 100.727C218.015 99.1909 217.23 96.9268 216.819 93.9349C216.364 90.626 216.821 87.7066 218.189 85.1768C219.578 82.6443 221.796 80.573 224.846 78.963C227.912 77.3304 231.694 76.2052 236.192 75.5872C242.255 74.7542 247.304 74.9184 251.34 76.08C255.375 77.2415 257.948 79.5124 259.059 82.8927C259.234 83.4339 259.354 83.9422 259.42 84.4177L245.022 91.1501C245.049 90.9042 245.057 90.7416 245.046 90.6623C244.888 89.5131 244.111 88.782 242.716 88.4691C241.32 88.1561 239.394 88.1684 236.937 88.506C235.292 88.7319 234.008 89.0093 233.084 89.3381C232.161 89.6669 231.529 90.0666 231.19 90.5371C230.848 90.9879 230.724 91.5501 230.816 92.2237C230.917 92.9568 231.391 93.4671 232.238 93.7545C233.104 94.0391 234.736 94.1582 237.132 94.1116C239.545 94.0426 243.276 93.7924 248.324 93.3613C252.696 93.0029 256.201 93.6821 258.839 95.399C261.497 97.1131 263.104 99.9912 263.659 104.033ZM278.718 70.6832L284.843 115.264L269.388 117.388L263.263 72.8065L278.718 70.6832ZM326.022 97.4334L321.539 64.7999L334.646 62.9992L340.771 107.58L314.438 111.198L301.633 79.7082L299.968 79.9368L304.452 112.57L291.375 114.367L285.25 69.7858L311.523 66.176L324.328 97.6661L326.022 97.4334ZM365.662 79.2083L389.677 75.9089L393.041 100.399L378.716 102.367L379.319 93.5327L377.661 93.3668C377.223 95.9101 376.489 97.9894 375.46 99.6045C374.43 101.22 373.057 102.468 371.341 103.35C369.625 104.232 367.459 104.852 364.844 105.212C360.901 105.753 357.349 105.394 354.188 104.132C351.047 102.868 348.434 100.673 346.349 97.5478C344.284 94.4197 342.914 90.3988 342.239 85.485C341.465 79.8578 341.992 75.0918 343.817 71.187C345.643 67.2822 348.288 64.2742 351.753 62.1629C355.218 60.0516 359.09 58.702 363.37 58.114C369.69 57.2456 374.96 57.5411 379.178 59.0006C383.415 60.4574 386.182 63.1861 387.479 67.1868C387.585 67.5155 387.679 67.8356 387.762 68.1472L371.78 75.2487L371.727 74.8623C371.403 72.5045 369.309 71.591 365.446 72.1218C362.83 72.4811 360.883 73.5158 359.604 75.2258C358.325 76.9359 357.951 79.7227 358.481 83.5864C358.99 87.2916 360.132 89.8702 361.906 91.3223C363.697 92.7518 366.03 93.2691 368.903 92.8744C370.943 92.594 372.606 91.9821 373.889 91.0386C375.173 90.0951 375.723 88.9596 375.541 87.6321L375.41 86.681L367.325 88.0038L365.662 79.2083Z" fill="#004C4C"/>
<path d="M152.182 506.043C152.263 506.631 152.382 507.13 152.539 507.539C152.695 507.941 152.902 508.296 153.16 508.604L153.202 508.911L148.447 509.565C148.277 509.305 148.131 508.959 148.011 508.524C147.89 508.083 147.783 507.523 147.689 506.842C147.614 506.294 147.454 505.892 147.211 505.636C146.966 505.374 146.639 505.22 146.229 505.176C145.819 505.131 145.277 505.155 144.604 505.248L141.968 505.61L142.622 510.365L138.223 510.969L136.181 496.109L143.829 495.058C145.916 494.771 147.609 494.922 148.908 495.511C150.206 496.093 150.96 497.144 151.168 498.663C151.265 499.363 151.239 499.962 151.092 500.46C150.951 500.95 150.649 501.375 150.187 501.735C149.725 502.094 149.067 502.394 148.211 502.632L148.283 503.157C149.495 503.112 150.417 503.355 151.048 503.888C151.679 504.413 152.057 505.132 152.182 506.043ZM141.084 499.17L141.53 502.42L144.086 502.068C145.004 501.942 145.687 501.724 146.136 501.413C146.584 501.096 146.767 500.647 146.688 500.066C146.626 499.617 146.486 499.286 146.269 499.073C146.058 498.86 145.785 498.736 145.45 498.701C145.115 498.66 144.696 498.674 144.194 498.743L141.084 499.17ZM170.933 506.475L157.618 508.305L155.576 493.444L168.862 491.619L169.35 495.175L160.464 496.396L160.818 498.972L168.832 497.871L169.19 500.477L161.176 501.578L161.529 504.154L170.446 502.929L170.933 506.475ZM191.829 499.89L192.448 488.378L196.906 487.766L195.689 503.074L188.982 503.995L185.734 493.873L185.06 493.966L184.642 504.592L177.975 505.508L172.615 491.103L177.093 490.488L180.823 501.402L181.477 501.312L181.996 489.814L187.574 489.048L191.195 499.977L191.829 499.89ZM217.721 500.047L212.926 500.706L212.033 498.547L206.278 499.338L206.001 501.657L201.325 502.3L203.523 486.857L211.449 485.768L217.721 500.047ZM207.528 488.971L206.696 495.848L210.689 495.3L208.033 488.902L207.528 488.971ZM235.761 494.56C235.842 495.148 235.961 495.647 236.118 496.056C236.274 496.458 236.481 496.813 236.739 497.121L236.781 497.428L232.026 498.082C231.856 497.822 231.71 497.476 231.59 497.041C231.469 496.6 231.362 496.04 231.268 495.359C231.193 494.811 231.033 494.409 230.79 494.153C230.545 493.891 230.218 493.737 229.808 493.693C229.398 493.648 228.856 493.672 228.182 493.765L225.547 494.127L226.201 498.882L221.802 499.486L219.76 484.626L227.408 483.575C229.495 483.288 231.188 483.439 232.487 484.028C233.785 484.61 234.539 485.661 234.747 487.18C234.843 487.88 234.818 488.479 234.671 488.977C234.53 489.467 234.228 489.892 233.766 490.252C233.304 490.611 232.645 490.91 231.79 491.149L231.862 491.674C233.074 491.629 233.996 491.872 234.627 492.405C235.258 492.93 235.636 493.649 235.761 494.56ZM224.662 487.687L225.109 490.937L227.665 490.585C228.583 490.459 229.266 490.241 229.715 489.93C230.162 489.613 230.346 489.164 230.267 488.583C230.205 488.133 230.065 487.803 229.848 487.59C229.637 487.377 229.364 487.253 229.029 487.218C228.694 487.177 228.275 487.191 227.773 487.26L224.662 487.687ZM244.594 481.214C246.873 480.901 248.729 480.918 250.163 481.266C251.596 481.608 252.692 482.288 253.452 483.308C254.21 484.321 254.711 485.712 254.954 487.482C255.177 489.107 254.991 490.519 254.395 491.718C253.806 492.916 252.914 493.866 251.718 494.568C250.523 495.271 249.136 495.731 247.557 495.948L241.197 496.822L239.155 481.961L244.594 481.214ZM247.067 492.159C247.827 492.055 248.46 491.867 248.968 491.595C249.482 491.323 249.863 490.907 250.109 490.348C250.354 489.783 250.414 489.041 250.288 488.123C250.159 487.185 249.902 486.464 249.516 485.958C249.129 485.446 248.616 485.116 247.977 484.968C247.343 484.813 246.554 484.8 245.61 484.93L244.074 485.141L245.076 492.433L247.067 492.159ZM273.871 491.293C272.009 491.549 270.56 491.293 269.527 490.527C268.493 489.761 267.846 488.436 267.588 486.554C267.426 485.378 267.532 484.358 267.904 483.492C268.283 482.626 268.842 481.947 269.582 481.455C270.321 480.956 271.156 480.643 272.088 480.515C273.944 480.26 275.389 480.519 276.424 481.292C277.458 482.059 278.105 483.393 278.367 485.295C278.527 486.464 278.421 487.478 278.048 488.337C277.674 489.195 277.118 489.871 276.378 490.363C275.638 490.855 274.802 491.165 273.871 491.293ZM305.933 483.335C306.279 485.851 304.657 487.541 301.068 488.404L301.277 489.93L299.979 490.108L299.782 488.671C299.625 488.7 299.381 488.737 299.05 488.782C298.813 488.815 298.634 488.836 298.514 488.846L298.711 490.282L297.414 490.46L297.205 488.945C296.04 488.984 295.038 488.889 294.199 488.661C293.367 488.432 292.719 488.101 292.255 487.667C291.791 487.226 291.518 486.711 291.438 486.124C291.415 485.958 291.404 485.758 291.406 485.522L295.699 484.155C295.662 484.322 295.654 484.484 295.676 484.643C295.731 485.046 296.001 485.322 296.486 485.47C296.97 485.612 297.789 485.604 298.945 485.445C299.659 485.347 300.222 485.233 300.634 485.102C301.046 484.965 301.336 484.801 301.505 484.609C301.68 484.41 301.748 484.169 301.709 483.885C301.665 483.568 301.513 483.346 301.254 483.22C301 483.087 300.532 483.013 299.851 482.999C299.169 482.985 298.066 483.016 296.542 483.09C295.154 483.174 294.067 483.121 293.281 482.933C292.493 482.738 291.906 482.382 291.518 481.863C291.137 481.337 290.879 480.585 290.744 479.607C290.575 478.372 290.866 477.313 291.62 476.429C292.38 475.544 293.541 474.886 295.104 474.456L294.893 472.92L296.19 472.742L296.386 474.169C296.511 474.145 296.702 474.115 296.96 474.08C297.27 474.037 297.502 474.009 297.655 473.994L297.459 472.568L298.756 472.39L298.965 473.905C300.452 473.856 301.661 474.036 302.592 474.447C303.522 474.85 304.114 475.506 304.366 476.413C304.418 476.642 304.454 476.856 304.475 477.055L300.349 478.984C300.372 478.813 300.376 478.668 300.36 478.549C300.292 478.053 299.979 477.736 299.421 477.597C298.871 477.458 298.12 477.453 297.169 477.584C296.257 477.709 295.613 477.895 295.237 478.142C294.86 478.389 294.699 478.714 294.755 479.117C294.796 479.414 294.943 479.629 295.197 479.763C295.451 479.896 295.912 479.974 296.582 479.996C297.251 480.019 298.27 479.993 299.64 479.919C300.965 479.818 302.068 479.865 302.949 480.06C303.831 480.255 304.517 480.622 305.008 481.16C305.499 481.692 305.807 482.417 305.933 483.335ZM318.344 486.545C316.607 486.784 315.139 486.703 313.94 486.302C312.747 485.894 311.797 485.15 311.09 484.07C310.388 482.982 309.91 481.53 309.653 479.714C309.427 478.07 309.566 476.631 310.07 475.398C310.572 474.158 311.343 473.177 312.381 472.456C313.425 471.727 314.637 471.268 316.017 471.078C317.787 470.835 319.272 470.917 320.472 471.324C321.672 471.731 322.623 472.479 323.324 473.567C324.024 474.648 324.499 476.097 324.749 477.913C324.974 479.551 324.844 480.985 324.361 482.216C323.877 483.447 323.113 484.426 322.07 485.155C321.026 485.884 319.784 486.347 318.344 486.545ZM317.854 482.686C318.435 482.606 318.917 482.436 319.298 482.175C319.685 481.906 319.96 481.481 320.122 480.901C320.29 480.312 320.307 479.526 320.172 478.542C319.976 477.115 319.554 476.13 318.908 475.586C318.267 475.035 317.477 474.824 316.539 474.953C315.971 475.031 315.497 475.204 315.117 475.471C314.736 475.739 314.462 476.167 314.294 476.755C314.125 477.337 314.107 478.113 314.24 479.084C314.445 480.523 314.864 481.515 315.497 482.061C316.137 482.606 316.923 482.814 317.854 482.686ZM331.398 484.812C330.843 484.888 330.398 484.886 330.064 484.804C329.731 484.728 329.472 484.562 329.289 484.305C329.112 484.046 328.991 483.676 328.924 483.194C328.859 482.718 328.877 482.336 328.979 482.046C329.086 481.748 329.29 481.519 329.59 481.356C329.89 481.187 330.317 481.064 330.872 480.988C331.434 480.911 331.881 480.913 332.216 480.995C332.556 481.07 332.814 481.233 332.99 481.485C333.172 481.735 333.296 482.102 333.363 482.584C333.43 483.073 333.41 483.466 333.303 483.763C333.201 484.053 332.997 484.28 332.689 484.443C332.39 484.612 331.959 484.735 331.398 484.812ZM344.693 482.925C342.956 483.164 341.488 483.083 340.289 482.682C339.095 482.274 338.145 481.53 337.438 480.449C336.737 479.361 336.258 477.91 336.002 476.094C335.776 474.45 335.915 473.011 336.418 471.778C336.921 470.538 337.691 469.557 338.729 468.836C339.773 468.107 340.985 467.648 342.366 467.458C344.136 467.215 345.621 467.297 346.821 467.704C348.021 468.111 348.971 468.858 349.672 469.946C350.373 471.028 350.848 472.477 351.097 474.293C351.322 475.931 351.193 477.365 350.709 478.596C350.226 479.826 349.462 480.806 348.418 481.535C347.374 482.264 346.132 482.727 344.693 482.925ZM344.203 479.066C344.784 478.986 345.265 478.816 345.647 478.555C346.034 478.286 346.308 477.861 346.471 477.28C346.639 476.692 346.655 475.906 346.52 474.922C346.324 473.495 345.903 472.51 345.256 471.966C344.615 471.415 343.826 471.204 342.888 471.333C342.32 471.411 341.846 471.584 341.465 471.851C341.085 472.119 340.811 472.547 340.642 473.135C340.473 473.717 340.456 474.493 340.589 475.464C340.793 476.903 341.212 477.895 341.846 478.441C342.486 478.985 343.272 479.194 344.203 479.066ZM363.798 480.3C362.06 480.539 360.592 480.458 359.393 480.057C358.2 479.649 357.25 478.905 356.543 477.825C355.842 476.737 355.363 475.285 355.107 473.47C354.881 471.825 355.02 470.386 355.523 469.153C356.026 467.913 356.796 466.932 357.834 466.211C358.878 465.482 360.09 465.023 361.471 464.833C363.241 464.59 364.726 464.672 365.925 465.079C367.125 465.486 368.076 466.234 368.777 467.322C369.478 468.403 369.953 469.852 370.202 471.668C370.427 473.306 370.298 474.74 369.814 475.971C369.331 477.202 368.567 478.181 367.523 478.91C366.479 479.639 365.237 480.102 363.798 480.3ZM363.308 476.441C363.889 476.361 364.37 476.191 364.752 475.93C365.139 475.661 365.413 475.236 365.576 474.656C365.744 474.067 365.76 473.281 365.625 472.297C365.429 470.87 365.008 469.885 364.361 469.342C363.72 468.79 362.931 468.579 361.993 468.708C361.425 468.786 360.951 468.959 360.57 469.226C360.19 469.494 359.915 469.922 359.747 470.51C359.578 471.092 359.56 471.868 359.694 472.839C359.898 474.278 360.317 475.27 360.951 475.816C361.591 476.361 362.376 476.569 363.308 476.441ZM382.902 477.675C381.165 477.914 379.697 477.833 378.498 477.433C377.305 477.025 376.355 476.28 375.648 475.2C374.947 474.112 374.468 472.66 374.212 470.845C373.986 469.2 374.125 467.761 374.628 466.528C375.131 465.288 375.901 464.307 376.939 463.586C377.983 462.857 379.195 462.398 380.575 462.208C382.346 461.965 383.83 462.047 385.03 462.454C386.23 462.861 387.181 463.609 387.882 464.697C388.583 465.778 389.058 467.227 389.307 469.043C389.532 470.681 389.403 472.115 388.919 473.346C388.435 474.577 387.672 475.556 386.628 476.285C385.584 477.014 384.342 477.478 382.902 477.675ZM382.413 473.816C382.994 473.736 383.475 473.566 383.856 473.305C384.243 473.036 384.518 472.612 384.681 472.031C384.849 471.442 384.865 470.656 384.73 469.672C384.534 468.246 384.113 467.26 383.466 466.717C382.825 466.165 382.036 465.954 381.098 466.083C380.53 466.161 380.056 466.334 379.675 466.602C379.295 466.869 379.02 467.297 378.852 467.886C378.683 468.467 378.665 469.244 378.799 470.214C379.003 471.653 379.422 472.646 380.056 473.191C380.696 473.736 381.481 473.944 382.413 473.816ZM402.007 475.051C400.27 475.289 398.802 475.208 397.603 474.808C396.41 474.4 395.46 473.655 394.753 472.575C394.052 471.487 393.573 470.035 393.317 468.22C393.091 466.575 393.229 465.136 393.733 463.903C394.236 462.663 395.006 461.682 396.044 460.961C397.088 460.232 398.3 459.773 399.68 459.583C401.45 459.34 402.935 459.422 404.135 459.829C405.335 460.236 406.286 460.984 406.987 462.072C407.687 463.153 408.162 464.602 408.412 466.418C408.637 468.056 408.508 469.491 408.024 470.721C407.54 471.952 406.777 472.932 405.733 473.66C404.689 474.389 403.447 474.853 402.007 475.051ZM401.517 471.191C402.099 471.111 402.58 470.941 402.961 470.68C403.348 470.411 403.623 469.987 403.786 469.406C403.954 468.818 403.97 468.031 403.835 467.047C403.639 465.621 403.218 464.636 402.571 464.092C401.93 463.541 401.141 463.329 400.203 463.458C399.635 463.536 399.16 463.709 398.78 463.977C398.4 464.244 398.125 464.672 397.957 465.261C397.788 465.842 397.77 466.619 397.904 467.59C398.108 469.029 398.527 470.021 399.16 470.566C399.801 471.111 400.586 471.319 401.517 471.191ZM421.112 472.426C419.375 472.664 417.907 472.583 416.708 472.183C415.515 471.775 414.565 471.031 413.858 469.95C413.156 468.862 412.678 467.41 412.422 465.595C412.196 463.95 412.334 462.511 412.838 461.278C413.34 460.038 414.111 459.058 415.149 458.336C416.193 457.607 417.405 457.148 418.785 456.958C420.555 456.715 422.04 456.797 423.24 457.204C424.44 457.611 425.391 458.359 426.092 459.447C426.792 460.528 427.267 461.977 427.517 463.794C427.742 465.432 427.613 466.866 427.129 468.096C426.645 469.327 425.882 470.307 424.838 471.036C423.794 471.764 422.552 472.228 421.112 472.426ZM420.622 468.566C421.204 468.487 421.685 468.316 422.066 468.055C422.453 467.787 422.728 467.362 422.89 466.781C423.059 466.193 423.075 465.406 422.94 464.422C422.744 462.996 422.323 462.011 421.676 461.467C421.035 460.916 420.245 460.705 419.308 460.833C418.74 460.911 418.265 461.084 417.885 461.352C417.504 461.619 417.23 462.047 417.062 462.636C416.893 463.218 416.875 463.994 417.008 464.965C417.213 466.404 417.632 467.396 418.265 467.941C418.905 468.486 419.691 468.694 420.622 468.566ZM440.292 469.467L435.884 470.073L434.765 461.93L434.853 457.719L434.315 457.702C434.242 458.734 434.109 459.527 433.915 460.078C433.727 460.622 433.428 461.037 433.016 461.322C432.61 461.6 432.011 461.817 431.218 461.973L430.608 457.535C431.328 457.436 431.906 457.309 432.343 457.155C432.778 456.994 433.12 456.762 433.367 456.459C433.615 456.156 433.763 455.742 433.812 455.217L438.251 454.607L440.292 469.467Z" fill="#D57F1D"/>
<path d="M179.178 404.249L180.555 414.275L170.682 415.632L173.796 438.299L162.463 439.856L159.348 417.189L149.497 418.542L148.119 408.516L179.178 404.249ZM204.507 406.254C207.587 405.831 210.097 406.641 212.035 408.684C213.972 410.713 215.281 414.204 215.962 419.159L217.762 432.258L206.559 433.797L204.846 421.33C204.59 419.471 204.1 418.161 203.374 417.402C202.66 416.627 201.715 416.32 200.538 416.482C199.724 416.594 199.021 416.92 198.429 417.46C197.852 417.998 197.436 418.692 197.183 419.541C196.944 420.388 196.892 421.305 197.028 422.294L198.756 434.869L187.575 436.406L182.994 403.059L194.174 401.523L194.863 406.536L195.071 416.456L196.2 416.589C196.304 414.221 196.659 412.329 197.263 410.914C197.883 409.496 198.773 408.434 199.935 407.726C201.094 407.005 202.618 406.514 204.507 406.254ZM224.315 405.42C222.586 405.658 221.222 405.697 220.223 405.538C219.222 405.365 218.464 404.966 217.949 404.341C217.432 403.701 217.088 402.764 216.919 401.529C216.749 400.294 216.828 399.306 217.156 398.565C217.481 397.81 218.102 397.214 219.02 396.777C219.951 396.338 221.274 396.001 222.989 395.765C224.689 395.531 226.039 395.501 227.04 395.675C228.041 395.848 228.8 396.255 229.317 396.894C229.833 397.519 230.175 398.449 230.345 399.684C230.514 400.919 230.436 401.915 230.111 402.67C229.783 403.411 229.161 404 228.244 404.436C227.339 404.857 226.03 405.185 224.315 405.42ZM218.985 408.484C219.577 408.699 220.365 408.835 221.35 408.892C222.333 408.935 223.471 408.867 224.764 408.69C227.235 408.35 229.042 407.769 230.188 406.945L233.374 430.135L222.171 431.675L218.985 408.484ZM262.478 417.432C262.895 420.469 262.091 422.918 260.067 424.78C258.041 426.628 254.791 427.859 250.315 428.474C245.491 429.137 241.978 428.887 239.775 427.724C237.587 426.559 236.389 424.791 236.182 422.421L245.79 419.458C245.789 419.562 245.8 419.693 245.822 419.853C245.87 420.202 246.001 420.458 246.216 420.621C246.446 420.782 246.836 420.876 247.388 420.904C247.937 420.917 248.742 420.851 249.803 420.705C250.878 420.558 251.621 420.359 252.031 420.111C252.455 419.86 252.63 419.458 252.554 418.906C252.49 418.441 252.229 418.107 251.772 417.903C251.315 417.7 250.611 417.589 249.661 417.572C248.711 417.554 247.326 417.596 245.504 417.699C242.941 417.903 240.907 417.856 239.4 417.56C237.908 417.262 236.764 416.634 235.966 415.678C235.181 414.705 234.662 413.296 234.408 411.451C234.125 409.387 234.468 407.578 235.439 406.024C236.41 404.469 237.816 403.225 239.656 402.291C241.495 401.343 243.569 400.71 245.88 400.392C254.264 399.24 259.051 400.951 260.242 405.525L250.428 409.738L250.404 409.564C250.287 408.929 249.912 408.514 249.278 408.32C248.657 408.109 247.795 408.079 246.69 408.231C244.671 408.508 243.726 409.119 243.855 410.064C243.921 410.543 244.137 410.876 244.503 411.063C244.884 411.248 245.417 411.352 246.101 411.376C246.785 411.401 247.945 411.382 249.58 411.32L250.993 411.26C253.64 411.133 255.759 411.256 257.35 411.63C258.941 412.003 260.134 412.661 260.93 413.603C261.738 414.528 262.254 415.804 262.478 417.432ZM291.683 388.792C294.691 388.379 297.408 388.487 299.833 389.116C302.259 389.745 304.254 390.958 305.819 392.757C307.396 394.539 308.387 396.905 308.792 399.854C309.409 404.344 308.461 407.842 305.948 410.349C303.448 412.839 299.343 414.476 293.632 415.261L289.273 415.86L290.16 422.311L278.826 423.868L274.334 391.176L291.683 388.792ZM292.708 405.95C294.365 405.723 295.561 405.27 296.297 404.591C297.045 403.896 297.323 402.851 297.132 401.456C296.99 400.425 296.728 399.646 296.345 399.122C295.962 398.597 295.465 398.265 294.853 398.127C294.257 397.987 293.523 397.977 292.651 398.097L286.94 398.881L288.001 406.597L292.708 405.95ZM324.12 389.643C328.973 388.976 332.679 389.496 335.237 391.202C337.796 392.908 339.364 395.861 339.941 400.06L342.019 415.186L331.339 416.654L331.034 410.389L329.961 410.336C329.748 412.882 328.89 414.829 327.387 416.175C325.899 417.519 324.029 418.346 321.777 418.656C316.735 419.348 313.941 417.711 313.396 413.745C313.135 411.841 313.537 410.298 314.603 409.115C315.67 407.933 317.311 407.004 319.528 406.329C322.173 405.536 324.129 404.905 325.397 404.435C326.677 403.948 327.575 403.477 328.089 403.021C328.617 402.549 328.837 401.993 328.749 401.354L328.746 401.332C328.608 400.329 328.242 399.662 327.649 399.329C327.07 398.994 326.286 398.894 325.298 399.03C324.165 399.186 323.283 399.558 322.654 400.148C322.024 400.738 321.766 401.447 321.88 402.275C321.956 402.827 322.104 403.259 322.324 403.569L310.982 403.284C310.836 402.653 310.747 402.221 310.715 401.988C310.458 400.114 310.738 398.328 311.556 396.632C312.389 394.934 313.844 393.46 315.923 392.212C318.016 390.963 320.749 390.106 324.12 389.643ZM325.201 410.768C325.971 410.662 326.716 410.427 327.436 410.062C328.153 409.682 328.909 409.097 329.704 408.306L329.231 404.863L329.066 404.797C328.396 405.303 327.255 405.889 325.644 406.555C324.831 406.889 324.208 407.204 323.775 407.5C323.356 407.794 323.072 408.093 322.921 408.395C322.784 408.695 322.744 409.048 322.8 409.455C322.948 410.53 323.748 410.968 325.201 410.768ZM371.602 400.64C372.577 401.38 373.396 402.326 374.057 403.478C374.734 404.629 375.162 405.858 375.341 407.166C375.625 409.229 375.168 411.024 373.971 412.551C372.775 414.077 371.021 415.317 368.709 416.272C366.412 417.224 363.716 417.912 360.621 418.338C357.482 418.769 354.734 418.806 352.375 418.449C350.031 418.09 348.166 417.34 346.781 416.198C345.41 415.054 344.588 413.545 344.316 411.673C344.242 411.135 344.215 410.51 344.236 409.796L351.791 407.248L351.653 406.246L347.838 406.437L347.398 403.233L351.026 402.49L350.856 401.248C348.41 401.332 346.499 400.84 345.123 399.77C343.762 398.699 342.946 397.175 342.674 395.199C342.427 393.397 342.716 391.84 343.543 390.527C344.367 389.2 345.59 388.136 347.212 387.336C348.849 386.534 350.779 385.98 353.002 385.675C355.022 385.397 356.656 385.439 357.905 385.8C359.166 386.145 360.125 386.82 360.781 387.826C361.438 388.831 361.887 390.22 362.131 391.993C362.235 392.748 362.305 393.583 362.342 394.496L363.459 394.386C363.481 391.852 363.654 389.881 363.979 388.475C364.317 387.051 364.875 385.998 365.655 385.313C366.432 384.614 367.54 384.166 368.978 383.968C369.763 383.86 370.74 383.808 371.91 383.81L373.443 394.969L373.029 395.026C371.896 395.181 370.7 395.583 369.442 396.229C368.181 396.861 366.8 397.688 365.297 398.709C364.266 399.398 363.139 399.975 361.915 400.439C360.69 400.903 359.181 401.34 357.387 401.749L357.578 403.144L371.602 400.64ZM354.756 391.652C352.925 391.903 352.105 392.719 352.294 394.099C352.422 395.029 352.809 395.635 353.454 395.916C354.1 396.198 354.924 396.27 355.927 396.132C356.842 396.006 357.491 395.776 357.875 395.442C358.273 395.106 358.416 394.532 358.304 393.718C358.075 392.047 356.892 391.358 354.756 391.652ZM360.077 410.174C361.689 409.952 362.759 409.657 363.286 409.289C363.811 408.906 364.035 408.438 363.959 407.886C363.891 407.392 363.638 407.005 363.2 406.724C362.76 406.43 361.921 406.249 360.683 406.182C359.443 406.101 357.662 406.175 355.34 406.405C355.242 407.1 355.244 407.647 355.343 408.048C355.475 408.903 355.945 409.52 356.752 409.898C357.573 410.273 358.682 410.365 360.077 410.174ZM406.27 395.81C406.368 396.197 406.442 396.572 406.492 396.935C406.755 398.853 406.445 400.635 405.561 402.281C404.689 403.911 403.193 405.308 401.073 406.473C398.952 407.623 396.227 408.427 392.9 408.884C387.814 409.583 383.87 408.948 381.068 406.979C378.264 404.995 376.526 401.555 375.853 396.659C375.446 393.694 375.759 391.075 376.794 388.801C377.829 386.527 379.328 384.723 381.291 383.387C383.269 382.049 385.42 381.221 387.745 380.901C391.915 380.328 395.357 380.759 398.07 382.192C400.797 383.609 402.547 386.166 403.322 389.864L387.616 397.907C388.012 398.845 388.541 399.468 389.205 399.776C389.882 400.068 390.714 400.146 391.703 400.01C392.967 399.837 393.871 399.468 394.415 398.905C394.972 398.325 395.192 397.606 395.074 396.749C395.058 396.633 395.002 396.493 394.905 396.328L406.27 395.81ZM389.228 389.114C388.24 389.25 387.534 389.768 387.111 390.671C386.687 391.573 386.618 393.063 386.903 395.14L386.954 395.511L392.498 392.706C392.368 391.436 391.994 390.496 391.377 389.884C390.773 389.257 390.057 389 389.228 389.114Z" fill="#004C4C"/>
<path d="M114.176 397.127L432.181 352.434L431.068 344.512L113.063 389.205L114.176 397.127ZM441.339 417.594L123.334 462.286L124.447 470.209L442.452 425.516L441.339 417.594Z" fill="#004C4C" fill-opacity="0.2" mask="url(#path-7-inside-1_2484_16628)"/>
<circle cx="105.869" cy="194.309" r="5" transform="rotate(-8 105.869 194.309)" fill="#D47F1D"/>
<circle cx="121.713" cy="192.082" r="5" transform="rotate(-8 121.713 192.082)" fill="#D47F1D"/>
<circle cx="137.557" cy="189.856" r="5" transform="rotate(-8 137.557 189.856)" fill="#D47F1D"/>
<path opacity="0.5" fill-rule="evenodd" clip-rule="evenodd" d="M96.7274 183.12C97.6638 182.568 98.7244 182.185 99.8782 182.023L105.876 181.18C107.517 180.95 108.66 179.433 108.429 177.792C108.199 176.151 106.682 175.008 105.041 175.239L99.0431 176.082C97.0947 176.356 95.284 177.006 93.6801 177.952C92.2528 178.793 91.778 180.632 92.6194 182.06C93.4609 183.487 95.3001 183.962 96.7274 183.12ZM117.036 173.553C115.396 173.783 114.253 175.3 114.483 176.941C114.714 178.582 116.231 179.725 117.872 179.494L129.867 177.809C131.508 177.578 132.651 176.061 132.42 174.42C132.19 172.78 130.673 171.636 129.032 171.867L117.036 173.553ZM141.028 170.181C139.387 170.412 138.244 171.929 138.474 173.569C138.705 175.21 140.222 176.353 141.863 176.123L153.858 174.437C155.499 174.206 156.642 172.689 156.412 171.049C156.181 169.408 154.664 168.265 153.023 168.495L141.028 170.181ZM165.019 166.809C163.378 167.04 162.235 168.557 162.466 170.198C162.696 171.838 164.213 172.982 165.854 172.751L177.849 171.065C179.49 170.835 180.633 169.318 180.403 167.677C180.172 166.036 178.655 164.893 177.014 165.124L165.019 166.809ZM189.01 163.438C187.369 163.668 186.226 165.185 186.457 166.826C186.687 168.467 188.204 169.61 189.845 169.379L201.841 167.693C203.481 167.463 204.624 165.946 204.394 164.305C204.163 162.664 202.646 161.521 201.006 161.752L189.01 163.438ZM213.001 160.066C211.36 160.297 210.217 161.814 210.448 163.454C210.678 165.095 212.195 166.238 213.836 166.008L225.832 164.322C227.473 164.091 228.616 162.574 228.385 160.933C228.154 159.293 226.637 158.149 224.997 158.38L213.001 160.066ZM236.992 156.694C235.352 156.925 234.208 158.442 234.439 160.083C234.67 161.723 236.187 162.866 237.827 162.636L249.823 160.95C251.464 160.719 252.607 159.202 252.376 157.562C252.146 155.921 250.629 154.778 248.988 155.008L236.992 156.694ZM260.983 153.322C259.343 153.553 258.2 155.07 258.43 156.711C258.661 158.352 260.178 159.495 261.819 159.264L273.814 157.578C275.455 157.348 276.598 155.831 276.367 154.19C276.137 152.549 274.62 151.406 272.979 151.637L260.983 153.322ZM284.975 149.951C283.334 150.181 282.191 151.698 282.421 153.339C282.652 154.98 284.169 156.123 285.81 155.892L297.805 154.206C299.446 153.976 300.589 152.459 300.359 150.818C300.128 149.177 298.611 148.034 296.97 148.265L284.975 149.951ZM308.966 146.579C307.325 146.81 306.182 148.327 306.412 149.967C306.643 151.608 308.16 152.751 309.801 152.521L321.796 150.835C323.437 150.604 324.58 149.087 324.35 147.446C324.119 145.806 322.602 144.663 320.961 144.893L308.966 146.579ZM332.957 143.207C331.316 143.438 330.173 144.955 330.404 146.596C330.634 148.236 332.151 149.379 333.792 149.149L345.788 147.463C347.428 147.232 348.571 145.715 348.341 144.075C348.11 142.434 346.593 141.291 344.953 141.521L332.957 143.207ZM356.948 139.836C355.307 140.066 354.164 141.583 354.395 143.224C354.625 144.865 356.142 146.008 357.783 145.777L369.779 144.091C371.419 143.861 372.563 142.344 372.332 140.703C372.101 139.062 370.584 137.919 368.944 138.15L356.948 139.836ZM380.939 136.464C379.298 136.694 378.155 138.211 378.386 139.852C378.617 141.493 380.134 142.636 381.774 142.405L387.772 141.562C388.926 141.4 390.051 141.476 391.103 141.748C392.707 142.164 394.344 141.2 394.76 139.597C395.175 137.993 394.212 136.356 392.608 135.94C390.805 135.473 388.886 135.347 386.937 135.621L380.939 136.464ZM401.503 142.643C400.661 141.216 398.822 140.741 397.395 141.582C395.967 142.424 395.493 144.263 396.334 145.69C396.886 146.627 397.269 147.687 397.431 148.841L398.335 155.276C398.566 156.916 400.083 158.06 401.724 157.829C403.364 157.598 404.508 156.081 404.277 154.441L403.373 148.006C403.099 146.057 402.448 144.247 401.503 142.643ZM92.7856 188.351C93.2011 186.747 92.2377 185.11 90.6338 184.695C89.0299 184.279 87.3928 185.243 86.9773 186.847C86.5104 188.649 86.3842 190.569 86.658 192.517L87.5624 198.952C87.793 200.593 89.31 201.736 90.9507 201.505C92.5914 201.275 93.7346 199.758 93.504 198.117L92.5997 191.682C92.4375 190.528 92.513 189.403 92.7856 188.351ZM405.755 166.301C405.175 165.229 403.974 164.577 402.697 164.757C401.057 164.987 399.913 166.504 400.144 168.145L401.953 181.015C402.183 182.655 403.7 183.798 405.341 183.568C406.982 183.337 408.125 181.82 407.894 180.179L406.086 167.31C406.059 167.119 406.015 166.935 405.955 166.759L405.888 166.282L405.755 166.301ZM94.9816 209.977C94.4025 208.906 93.2009 208.254 91.9244 208.433C90.2836 208.664 89.1405 210.181 89.3711 211.821L91.1798 224.691C91.4103 226.332 92.9273 227.475 94.5681 227.244C96.2088 227.014 97.3519 225.497 97.1214 223.856L95.7238 213.912L96.4595 213.808L95.9028 209.847L94.9816 209.977ZM409.703 193.049C409.472 191.408 407.955 190.265 406.315 190.496C404.674 190.726 403.531 192.243 403.761 193.884L405.57 206.753C405.801 208.394 407.318 209.537 408.958 209.307C410.599 209.076 411.742 207.559 411.512 205.918L409.703 193.049ZM98.93 236.725C98.6995 235.084 97.1824 233.941 95.5417 234.172C93.901 234.403 92.7578 235.92 92.9884 237.56L94.7971 250.43C95.0277 252.07 96.5447 253.214 98.1854 252.983C99.8262 252.752 100.969 251.235 100.739 249.595L98.93 236.725ZM102.547 262.464C102.317 260.823 100.8 259.68 99.1591 259.911C97.5183 260.141 96.3752 261.658 96.6058 263.299L98.4145 276.169C98.6451 277.809 100.162 278.952 101.803 278.722C103.444 278.491 104.587 276.974 104.356 275.333L102.547 262.464ZM413.32 218.788C413.09 217.147 411.573 216.004 409.932 216.234C408.291 216.465 407.148 217.982 407.379 219.623L409.187 232.492C409.418 234.133 410.935 235.276 412.576 235.046C414.216 234.815 415.36 233.298 415.129 231.657L413.32 218.788ZM416.938 244.527C416.707 242.886 415.19 241.743 413.549 241.973C411.909 242.204 410.766 243.721 410.996 245.362L412.805 258.231C413.035 259.872 414.552 261.015 416.193 260.784C417.834 260.554 418.977 259.037 418.746 257.396L416.938 244.527ZM106.165 288.203C105.934 286.562 104.417 285.419 102.776 285.65C101.136 285.88 99.9926 287.397 100.223 289.038L102.032 301.907C102.262 303.548 103.779 304.691 105.42 304.461C107.061 304.23 108.204 302.713 107.973 301.072L106.165 288.203ZM420.555 270.265C420.324 268.625 418.807 267.482 417.167 267.712C415.526 267.943 414.383 269.46 414.613 271.101L416.422 283.97C416.653 285.611 418.17 286.754 419.81 286.523C421.451 286.293 422.594 284.776 422.364 283.135L420.555 270.265ZM109.782 313.942C109.552 312.301 108.035 311.158 106.394 311.388C104.753 311.619 103.61 313.136 103.841 314.777L105.649 327.646C105.88 329.287 107.397 330.43 109.038 330.2C110.678 329.969 111.821 328.452 111.591 326.811L109.782 313.942ZM424.172 296.004C423.942 294.364 422.425 293.22 420.784 293.451C419.143 293.682 418 295.199 418.231 296.839L419.135 303.274C419.297 304.428 419.222 305.553 418.949 306.605C418.534 308.209 419.497 309.846 421.101 310.262C422.705 310.677 424.342 309.714 424.757 308.11C425.224 306.307 425.351 304.388 425.077 302.439L424.172 296.004ZM113.399 339.681C113.169 338.04 111.652 336.897 110.011 337.127C108.37 337.358 107.227 338.875 107.458 340.516L108.362 346.95C108.636 348.899 109.287 350.709 110.232 352.313C111.074 353.741 112.913 354.216 114.34 353.374C115.767 352.533 116.242 350.693 115.401 349.266C114.849 348.33 114.466 347.269 114.304 346.115L113.399 339.681ZM120.632 353.208C119.028 352.792 117.391 353.756 116.975 355.36C116.56 356.964 117.523 358.601 119.127 359.016C120.929 359.483 122.849 359.609 124.798 359.335L130.796 358.493C132.436 358.262 133.579 356.745 133.349 355.104C133.118 353.463 131.601 352.32 129.961 352.551L123.963 353.394C122.809 353.556 121.684 353.481 120.632 353.208ZM418.055 317.005C419.482 316.163 419.957 314.324 419.115 312.897C418.274 311.469 416.435 310.995 415.007 311.836C414.071 312.388 413.01 312.771 411.857 312.933L405.859 313.776C404.218 314.007 403.075 315.524 403.306 317.164C403.536 318.805 405.053 319.948 406.694 319.718L412.692 318.875C414.64 318.601 416.451 317.95 418.055 317.005ZM141.956 350.865C140.315 351.096 139.172 352.613 139.403 354.253C139.633 355.894 141.15 357.037 142.791 356.807L154.787 355.121C156.427 354.89 157.571 353.373 157.34 351.732C157.109 350.092 155.592 348.949 153.952 349.179L141.956 350.865ZM165.947 347.493C164.307 347.724 163.163 349.241 163.394 350.882C163.625 352.522 165.142 353.666 166.782 353.435L178.778 351.749C180.419 351.518 181.562 350.001 181.331 348.361C181.101 346.72 179.584 345.577 177.943 345.807L165.947 347.493ZM189.938 344.122C188.298 344.352 187.155 345.869 187.385 347.51C187.616 349.151 189.133 350.294 190.773 350.063L202.769 348.377C204.41 348.147 205.553 346.63 205.322 344.989C205.092 343.348 203.575 342.205 201.934 342.436L189.938 344.122ZM213.93 340.75C212.289 340.98 211.146 342.497 211.376 344.138C211.607 345.779 213.124 346.922 214.765 346.691L226.76 345.006C228.401 344.775 229.544 343.258 229.314 341.617C229.083 339.977 227.566 338.833 225.925 339.064L213.93 340.75ZM237.921 337.378C236.28 337.609 235.137 339.126 235.367 340.766C235.598 342.407 237.115 343.55 238.756 343.32L250.751 341.634C252.392 341.403 253.535 339.886 253.305 338.246C253.074 336.605 251.557 335.462 249.916 335.692L237.921 337.378ZM261.912 334.006C260.271 334.237 259.128 335.754 259.359 337.395C259.589 339.035 261.106 340.179 262.747 339.948L274.743 338.262C276.383 338.032 277.526 336.515 277.296 334.874C277.065 333.233 275.548 332.09 273.907 332.32L261.912 334.006ZM285.903 330.635C284.262 330.865 283.119 332.382 283.35 334.023C283.58 335.664 285.097 336.807 286.738 336.576L298.734 334.89C300.374 334.66 301.518 333.143 301.287 331.502C301.056 329.861 299.539 328.718 297.899 328.949L285.903 330.635ZM309.894 327.263C308.254 327.493 307.11 329.01 307.341 330.651C307.572 332.292 309.089 333.435 310.729 333.204L322.725 331.519C324.366 331.288 325.509 329.771 325.278 328.13C325.048 326.49 323.531 325.346 321.89 325.577L309.894 327.263ZM333.885 323.891C332.245 324.122 331.102 325.639 331.332 327.279C331.563 328.92 333.08 330.063 334.72 329.833L346.716 328.147C348.357 327.916 349.5 326.399 349.269 324.759C349.039 323.118 347.522 321.975 345.881 322.205L333.885 323.891ZM357.877 320.519C356.236 320.75 355.093 322.267 355.323 323.908C355.554 325.548 357.071 326.692 358.712 326.461L370.707 324.775C372.348 324.545 373.491 323.028 373.26 321.387C373.03 319.746 371.513 318.603 369.872 318.834L357.877 320.519ZM381.868 317.148C380.227 317.378 379.084 318.895 379.314 320.536C379.545 322.177 381.062 323.32 382.703 323.089L394.698 321.403C396.339 321.173 397.482 319.656 397.252 318.015C397.021 316.374 395.504 315.231 393.863 315.462L381.868 317.148ZM106.3 212.425L116.141 211.042L115.584 207.081L105.744 208.464L106.3 212.425ZM125.982 209.659L135.823 208.276L135.266 204.315L125.425 205.698L125.982 209.659ZM145.663 206.893L155.504 205.51L154.948 201.549L145.107 202.932L145.663 206.893ZM165.345 204.127L175.186 202.744L174.629 198.783L164.788 200.166L165.345 204.127ZM185.027 201.361L194.867 199.978L194.311 196.017L184.47 197.4L185.027 201.361ZM204.708 198.595L214.549 197.212L213.992 193.251L204.151 194.634L204.708 198.595ZM224.39 195.829L234.231 194.446L233.674 190.485L223.833 191.868L224.39 195.829ZM244.071 193.063L253.912 191.68L253.355 187.719L243.515 189.102L244.071 193.063ZM263.753 190.297L273.594 188.914L273.037 184.953L263.196 186.336L263.753 190.297ZM283.435 187.531L293.275 186.148L292.719 182.187L282.878 183.57L283.435 187.531ZM303.116 184.765L312.957 183.382L312.4 179.421L302.559 180.804L303.116 184.765ZM322.798 181.999L332.638 180.616L332.082 176.655L322.241 178.038L322.798 181.999ZM342.479 179.233L352.32 177.85L351.763 173.888L341.923 175.272L342.479 179.233ZM362.161 176.467L372.002 175.083L371.445 171.122L361.604 172.505L362.161 176.467ZM381.842 173.7L391.683 172.317L391.126 168.356L381.286 169.739L381.842 173.7Z" fill="#D47F1D"/>
<rect x="121.06" y="230.548" width="122" height="95" rx="15" transform="rotate(-8 121.06 230.548)" fill="#D47F1D"/>
<rect x="258.707" y="211.203" width="122" height="11" rx="5.5" transform="rotate(-8 258.707 211.203)" fill="#D47F1D" fill-opacity="0.5"/>
<rect x="261.491" y="231.008" width="94" height="11" rx="5.5" transform="rotate(-8 261.491 231.008)" fill="#D47F1D" fill-opacity="0.5"/>
<rect x="269.145" y="285.473" width="63" height="20" rx="10" transform="rotate(-8 269.145 285.473)" fill="#D47F1D"/>
<path d="M165.669 260.546C165.181 257.074 165.658 254.034 167.099 251.424C168.541 248.815 170.746 246.711 173.716 245.114C176.708 243.513 180.254 242.425 184.353 241.849C188.061 241.328 191.562 241.426 194.857 242.143C198.151 242.86 200.924 244.287 203.173 246.425C205.423 248.563 206.797 251.403 207.294 254.943C207.72 257.975 207.573 260.438 206.853 262.333C206.153 264.201 205.159 265.651 203.871 266.681C202.584 267.712 200.687 268.922 198.182 270.313C196.822 270.999 195.759 271.621 194.992 272.177C194.244 272.707 193.664 273.343 193.252 274.085C192.859 274.801 192.723 275.67 192.843 276.692C192.879 276.946 193.015 277.411 193.25 278.086C192.678 277.859 191.896 277.721 190.903 277.672C189.932 277.62 188.779 277.687 187.444 277.875C184.864 278.238 183 278.842 181.851 279.688C181.353 278.318 181.036 277.147 180.899 276.175C180.629 274.255 180.744 272.646 181.242 271.348C181.741 270.051 182.514 268.951 183.562 268.049C184.632 267.143 186.142 266.105 188.091 264.934L188.772 264.52C190.287 263.599 191.426 262.849 192.19 262.27C192.954 261.69 193.539 261.006 193.945 260.218C194.347 259.406 194.471 258.445 194.315 257.334C194.061 255.529 193.204 254.363 191.745 253.837C190.305 253.284 188.526 253.156 186.407 253.454C180.949 254.221 178.467 256.364 178.962 259.881C179.03 260.367 179.159 260.868 179.349 261.384C179.539 261.9 179.79 262.349 180.102 262.73L166.169 262.352C165.94 261.888 165.773 261.286 165.669 260.546ZM190.039 296.59C188.104 296.862 186.553 296.856 185.386 296.572C184.222 296.31 183.319 295.729 182.675 294.829C182.055 293.925 181.626 292.628 181.389 290.939C181.155 289.272 181.213 287.931 181.563 286.914C181.933 285.871 182.642 285.063 183.688 284.491C184.732 283.896 186.221 283.463 188.156 283.191C190.113 282.916 191.675 282.921 192.843 283.205C194.03 283.463 194.932 284.032 195.549 284.913C196.189 285.791 196.627 287.074 196.865 288.764C197.105 290.476 197.041 291.854 196.671 292.897C196.32 293.914 195.61 294.71 194.54 295.285C193.497 295.88 191.996 296.315 190.039 296.59Z" fill="#E1DAC2"/>
</svg>
