<svg width="480" height="340" viewBox="0 0 480 340" fill="none" xmlns="http://www.w3.org/2000/svg">
<g clip-path="url(#clip0_1783_7967)">
<path d="M96 266.819C96 225.95 129.131 192.819 170 192.819H309C364.228 192.819 409 237.591 409 292.819V340.819H170C129.131 340.819 96 307.688 96 266.819V266.819Z" fill="#E1DAC2"/>
<rect y="73.8193" width="289" height="240" rx="120" fill="#E1DAC2"/>
<path fill-rule="evenodd" clip-rule="evenodd" d="M108.08 57.8273C96.7926 63.1248 89.5847 74.4697 89.5847 86.9385V95.5808C89.5847 98.1118 88.2459 100.454 86.065 101.738L69.7992 111.318C64.347 114.529 61 120.385 61 126.712V179.41C61 188.588 67.9542 196.273 77.0864 197.187L83.1501 197.793C86.803 198.159 89.5847 201.233 89.5847 204.904V205.83C89.5847 220.76 99.8607 233.727 114.396 237.138L146.703 244.719C149.111 245.284 151.576 245.569 154.05 245.569H346.847C364.607 245.569 379.005 231.172 379.005 213.411V70.158C379.005 52.3977 364.607 38.0002 346.847 38.0002H157.498C152.775 38.0002 148.111 39.0404 143.836 41.0467L108.08 57.8273Z" fill="#001818"/>
<rect x="180.698" y="231.315" width="70.5684" height="24.9439" fill="#001818"/>
<rect x="216.429" y="231.315" width="70.5684" height="24.9439" fill="#005656"/>
<rect x="125.316" y="38" width="253.689" height="207.569" rx="32.1578" fill="#DB7704"/>
<mask id="mask0_1783_7967" style="mask-type:alpha" maskUnits="userSpaceOnUse" x="151" y="61" width="206" height="144">
<rect x="151.22" y="61.1626" width="205.452" height="143.427" rx="14.2923" fill="black"/>
</mask>
<g mask="url(#mask0_1783_7967)">
<rect x="151.22" y="61.1626" width="205.452" height="143.427" rx="14.2923" fill="#003D3D"/>
<path d="M330.321 182.319L358.459 206.817H149.434V182.319H330.321Z" fill="#005656"/>
<path d="M330.321 82.9888L358.459 54.036H149.434V82.9888H330.321Z" fill="#001818"/>
</g>
<path d="M151.22 87.9266C151.22 80.0332 157.619 73.6343 165.513 73.6343H328.088C335.982 73.6343 342.38 80.0332 342.38 87.9266V177.826C342.38 185.719 335.982 192.118 328.088 192.118H165.513C157.619 192.118 151.22 185.719 151.22 177.826V87.9266Z" fill="#012727"/>
<rect width="51" height="29" transform="translate(225 118)" fill="#F2F0EA"/>
<circle cx="250" cy="131" r="45" fill="#005656"/>
<path fill-rule="evenodd" clip-rule="evenodd" d="M261.002 143.525C257.228 132.96 242.287 132.96 238.514 143.525L243.579 145.334C245.653 139.529 253.863 139.529 255.936 145.334L261.002 143.525Z" fill="#F2F0EA"/>
<path fill-rule="evenodd" clip-rule="evenodd" d="M240.603 119.803L228.901 131.506L225.097 127.702L236.8 116L240.603 119.803Z" fill="#F2F0EA"/>
<path fill-rule="evenodd" clip-rule="evenodd" d="M225 119.803L236.702 131.506L240.506 127.702L228.803 116L225 119.803Z" fill="#F2F0EA"/>
<path fill-rule="evenodd" clip-rule="evenodd" d="M275.71 119.803L264.008 131.506L260.204 127.702L271.907 116L275.71 119.803Z" fill="#F2F0EA"/>
<path fill-rule="evenodd" clip-rule="evenodd" d="M260.107 119.803L271.809 131.506L275.613 127.702L263.91 116L260.107 119.803Z" fill="#F2F0EA"/>
<rect x="173.552" y="219.735" width="42.877" height="7.12683" rx="1.78654" fill="#012727"/>
<ellipse cx="157.473" cy="223.298" rx="6.2529" ry="6.23598" fill="#012727"/>
<path d="M134.248 263.405C134.248 259.459 137.448 256.259 141.394 256.259H325.408C329.355 256.259 332.555 259.459 332.555 263.405V279.402C332.555 283.349 329.355 286.548 325.408 286.548H141.394C137.448 286.548 134.248 283.349 134.248 279.402V263.405Z" fill="#001818"/>
<path d="M186.951 263.405C186.951 259.459 190.151 256.259 194.097 256.259H325.408C329.355 256.259 332.555 259.459 332.555 263.405V279.402C332.555 283.349 329.355 286.548 325.408 286.548H194.097C190.151 286.548 186.951 283.349 186.951 279.402V263.405Z" fill="#DB7704"/>
<rect x="199.457" y="265.168" width="69.6752" height="13.3628" rx="2.67981" fill="#012727"/>
<path d="M199.457 269.623H263.773V274.077H199.457V269.623Z" fill="#005656"/>
<path d="M83.281 304.492C87.6284 293.653 98.1326 286.548 109.811 286.548H357.885C369.563 286.548 380.068 293.653 384.415 304.492L398.657 340H69.0394L83.281 304.492Z" fill="#001818"/>
<path d="M166.981 291.548H357.885C367.521 291.548 376.187 297.41 379.774 306.353L391.264 335H133.601L145.091 306.353C148.678 297.41 157.345 291.548 166.981 291.548Z" fill="#012727" stroke="#004C4C" stroke-width="10"/>
<path d="M136.881 340L143.184 324.542L264.803 325.041V340H136.881Z" fill="#012727"/>
<ellipse cx="299.504" cy="276.749" rx="2.67981" ry="2.67256" fill="#012727"/>
<ellipse cx="309.329" cy="276.749" rx="2.67981" ry="2.67256" fill="#012727"/>
<ellipse cx="319.156" cy="276.749" rx="2.67981" ry="2.67256" fill="#012727"/>
<path d="M235 312.239C235 308.136 238.326 304.81 242.429 304.81H422.688C424.489 304.81 426.229 305.465 427.584 306.652L455.071 330.74H242.429C238.326 330.74 235 327.414 235 323.311V312.239Z" fill="#DB7704"/>
<path fill-rule="evenodd" clip-rule="evenodd" d="M242.429 304.81C238.326 304.81 235 308.136 235 312.239V330.739V330.74V332.571C235 336.674 238.326 340 242.429 340H448.571C452.674 340 456 336.674 456 332.571V332.571C456 331.56 455.18 330.739 454.168 330.739H297.097C294.179 330.739 291.359 329.682 289.161 327.763L266.268 307.786C264.069 305.867 261.249 304.81 258.331 304.81H242.429Z" fill="#001818"/>
<path d="M285.143 314.822C285.143 312.361 287.138 310.365 289.6 310.365H290.9C293.362 310.365 295.357 312.361 295.357 314.822V314.822C295.357 315.438 294.858 315.937 294.243 315.937H286.257C285.642 315.937 285.143 315.438 285.143 314.822V314.822Z" fill="#001818"/>
<path d="M300.929 314.822C300.929 312.361 302.924 310.365 305.386 310.365H306.686C309.147 310.365 311.143 312.361 311.143 314.822V314.822C311.143 315.438 310.644 315.937 310.029 315.937H302.043C301.427 315.937 300.929 315.438 300.929 314.822V314.822Z" fill="#001818"/>
<path d="M316.714 314.822C316.714 312.361 318.71 310.365 321.171 310.365H322.471C324.933 310.365 326.929 312.361 326.929 314.822V314.822C326.929 315.438 326.43 315.937 325.814 315.937H317.829C317.213 315.937 316.714 315.438 316.714 314.822V314.822Z" fill="#001818"/>
<path d="M332.5 314.822C332.5 312.361 334.496 310.365 336.957 310.365H338.257C340.719 310.365 342.714 312.361 342.714 314.822V314.822C342.714 315.438 342.215 315.937 341.6 315.937H333.614C332.999 315.937 332.5 315.438 332.5 314.822V314.822Z" fill="#001818"/>
<path d="M348.286 314.822C348.286 312.361 350.281 310.365 352.743 310.365H354.043C356.504 310.365 358.5 312.361 358.5 314.822V314.822C358.5 315.438 358.001 315.937 357.386 315.937H349.4C348.785 315.937 348.286 315.438 348.286 314.822V314.822Z" fill="#001818"/>
<path d="M364.071 314.822C364.071 312.361 366.067 310.365 368.529 310.365H369.829C372.29 310.365 374.286 312.361 374.286 314.822V314.822C374.286 315.438 373.787 315.937 373.171 315.937H365.186C364.57 315.937 364.071 315.438 364.071 314.822V314.822Z" fill="#001818"/>
<path d="M379.857 314.822C379.857 312.361 381.853 310.365 384.314 310.365H385.614C388.076 310.365 390.071 312.361 390.071 314.822V314.822C390.071 315.438 389.572 315.937 388.957 315.937H380.971C380.356 315.937 379.857 315.438 379.857 314.822V314.822Z" fill="#001818"/>
<path d="M395.643 314.822C395.643 312.361 397.638 310.365 400.1 310.365H401.4C403.862 310.365 405.857 312.361 405.857 314.822V314.822C405.857 315.438 405.358 315.937 404.743 315.937H396.757C396.142 315.937 395.643 315.438 395.643 314.822V314.822Z" fill="#001818"/>
<path d="M411.429 314.822C411.429 312.361 413.424 310.365 415.886 310.365H417.186C419.647 310.365 421.643 312.361 421.643 314.822V314.822C421.643 315.438 421.144 315.937 420.529 315.937H412.543C411.927 315.937 411.429 315.438 411.429 314.822V314.822Z" fill="#001818"/>
<path d="M293.5 324.084C293.5 321.622 295.496 319.626 297.957 319.626H299.257C301.719 319.626 303.714 321.622 303.714 324.084V324.084C303.714 324.699 303.215 325.198 302.6 325.198H294.614C293.999 325.198 293.5 324.699 293.5 324.084V324.084Z" fill="#001818"/>
<path d="M309.286 324.084C309.286 321.622 311.281 319.626 313.743 319.626H315.043C317.505 319.626 319.5 321.622 319.5 324.084V324.084C319.5 324.699 319.001 325.198 318.386 325.198H310.4C309.785 325.198 309.286 324.699 309.286 324.084V324.084Z" fill="#001818"/>
<path d="M325.071 324.084C325.071 321.622 327.067 319.626 329.529 319.626H382.829C385.29 319.626 387.286 321.622 387.286 324.084V324.084C387.286 324.699 386.787 325.198 386.171 325.198H326.186C325.57 325.198 325.071 324.699 325.071 324.084V324.084Z" fill="#001818"/>
<path d="M392.857 324.084C392.857 321.622 394.853 319.626 397.314 319.626H398.614C401.076 319.626 403.071 321.622 403.071 324.084V324.084C403.071 324.699 402.573 325.198 401.957 325.198H393.971C393.356 325.198 392.857 324.699 392.857 324.084V324.084Z" fill="#001818"/>
<path d="M408.643 324.084C408.643 321.622 410.638 319.626 413.1 319.626H414.4C416.862 319.626 418.857 321.622 418.857 324.084V324.084C418.857 324.699 418.358 325.198 417.743 325.198H409.757C409.142 325.198 408.643 324.699 408.643 324.084V324.084Z" fill="#001818"/>
<path d="M424.429 324.084C424.429 321.622 426.424 319.626 428.886 319.626H430.186C432.647 319.626 434.643 321.622 434.643 324.084V324.084C434.643 324.699 434.144 325.198 433.529 325.198H425.543C424.927 325.198 424.429 324.699 424.429 324.084V324.084Z" fill="#001818"/>
<rect x="244.286" y="327.961" width="13.9286" height="3.70423" rx="1.85212" fill="#005656"/>
<path d="M262.857 329.813C262.857 328.79 263.686 327.961 264.709 327.961H271.219C272.242 327.961 273.071 328.79 273.071 329.813V329.813C273.071 330.836 272.242 331.665 271.219 331.665H264.709C263.686 331.665 262.857 330.836 262.857 329.813V329.813Z" fill="#005656"/>
<path d="M57.7036 228.955C57.8799 228.387 58.4053 228 59 228V228C59.5947 228 60.1201 228.387 60.2964 228.955L66.036 247.449C67.5073 252.19 63.9641 257 59 257V257C54.0359 257 50.4927 252.19 51.964 247.449L57.7036 228.955Z" fill="#012727"/>
<path d="M414.704 176.955C414.88 176.387 415.405 176 416 176V176C416.595 176 417.12 176.387 417.296 176.955L423.036 195.449C424.507 200.19 420.964 205 416 205V205C411.036 205 407.493 200.19 408.964 195.449L414.704 176.955Z" fill="#DB7704"/>
<path d="M37.961 203.763C38.1032 203.309 38.524 203 39 203V203C39.476 203 39.8968 203.309 40.039 203.763L44.61 218.365C45.7952 222.151 42.9671 226 39 226V226C35.0329 226 32.2048 222.151 33.39 218.365L37.961 203.763Z" fill="#012727"/>
<path d="M437.961 156.763C438.103 156.309 438.524 156 439 156V156C439.476 156 439.897 156.309 440.039 156.763L444.61 171.365C445.795 175.151 442.967 179 439 179V179C435.033 179 432.205 175.151 433.39 171.365L437.961 156.763Z" fill="#DB7704"/>
<path d="M437.961 242.763C438.103 242.309 438.524 242 439 242V242C439.476 242 439.897 242.309 440.039 242.763L444.61 257.365C445.795 261.151 442.967 265 439 265V265C435.033 265 432.205 261.151 433.39 257.365L437.961 242.763Z" fill="#F2F0EA"/>
<path d="M420.961 73.7635C421.103 73.3092 421.524 73 422 73V73C422.476 73 422.897 73.3092 423.039 73.7635L427.61 88.3654C428.795 92.1513 425.967 96 422 96V96C418.033 96 415.205 92.1513 416.39 88.3653L420.961 73.7635Z" fill="#F2F0EA"/>
</g>
<defs>
<clipPath id="clip0_1783_7967">
<rect width="480" height="340" fill="white"/>
</clipPath>
</defs>
</svg>
