<svg width="504" height="600" viewBox="0 0 504 600" fill="none" xmlns="http://www.w3.org/2000/svg">
<rect x="4.66602" y="89.3431" width="410" height="515" rx="24" transform="rotate(-8 4.66602 89.3431)" fill="#001818"/>
<rect x="23.2378" y="66.2196" width="410" height="515" rx="16" transform="rotate(-8 23.2378 66.2196)" fill="#D57F1D"/>
<path d="M24.212 73.1514C22.9822 64.4009 29.079 56.3102 37.8295 55.0804L412.151 2.47295C420.901 1.24314 428.992 7.33991 430.222 16.0905L497.442 494.39C498.672 503.14 492.575 511.231 483.825 512.461L461.039 515.663C458.932 515.959 456.784 515.736 454.784 515.013V515.013C451.579 513.854 448.048 513.995 444.945 515.404L439.014 518.099C437.619 518.732 436.141 519.163 434.623 519.376L418.831 521.595C416.953 521.859 415.043 521.787 413.19 521.382L407.717 520.187C403.981 519.37 400.077 519.919 396.711 521.733L391.779 524.391C390.109 525.291 388.293 525.887 386.415 526.151L152.693 558.998C150.076 559.366 147.418 558.721 145.26 557.196V557.196C141.582 554.595 136.646 554.665 133.043 557.369L129.139 560.298C126.977 561.921 124.439 562.969 121.762 563.346L109.504 565.068C100.753 566.298 92.6624 560.201 91.4326 551.451L24.212 73.1514Z" fill="#E1DAC2"/>
<rect opacity="0.3" x="37.4196" y="70.1269" width="383" height="486" rx="9.5" transform="rotate(-8 37.4196 70.1269)" stroke="#DB7704" stroke-width="3"/>
<path d="M141.284 89.8517L147.547 134.414L134.743 136.213L130.326 104.782L128.632 105.02L126.395 137.386L105.807 140.28L94.7651 109.78L93.1014 110.014L97.5188 141.445L84.7146 143.244L78.4518 98.6822L103.852 95.1124L113.297 124.807L114.752 124.602L115.884 93.4214L141.284 89.8517ZM163.282 86.7601L169.545 131.322L154.097 133.493L147.834 88.9312L163.282 86.7601ZM216.766 110.538C217.451 115.41 216.049 119.374 212.56 122.429C209.088 125.462 203.491 127.521 195.766 128.606C190.954 129.283 186.827 129.307 183.386 128.68C179.945 128.053 177.295 126.941 175.435 125.344C173.571 123.728 172.484 121.811 172.172 119.592C172.125 119.256 172.123 118.882 172.166 118.472L187.086 113.619C187.029 113.788 187.02 114.012 187.059 114.289C187.151 114.942 187.435 115.458 187.913 115.835C188.39 116.212 189.211 116.45 190.376 116.549C191.538 116.628 193.139 116.524 195.179 116.238C197.061 115.973 198.504 115.68 199.509 115.357C200.514 115.034 201.206 114.643 201.586 114.186C201.983 113.706 202.129 113.09 202.023 112.337C201.909 111.525 201.499 110.977 200.792 110.693C200.103 110.386 198.811 110.244 196.915 110.268C195.018 110.272 191.848 110.425 187.407 110.726C183.228 111.03 179.953 110.935 177.581 110.44C175.226 109.923 173.457 108.9 172.272 107.369C171.108 105.837 170.315 103.575 169.895 100.584C169.43 97.2768 169.878 94.3561 171.238 91.822C172.619 89.2852 174.831 87.2071 177.875 85.5877C180.937 83.9457 184.715 82.8087 189.211 82.1769C195.271 81.3251 200.321 81.4738 204.36 82.6228C208.4 83.7718 210.98 86.0348 212.101 89.4117C212.278 89.9523 212.399 90.4603 212.466 90.9356L198.089 97.7124C198.115 97.4664 198.123 97.3038 198.112 97.2246C197.95 96.0758 197.171 95.3472 195.775 95.0385C194.378 94.7299 192.452 94.7481 189.996 95.0933C188.352 95.3243 187.069 95.6057 186.146 95.9373C185.223 96.269 184.593 96.6706 184.255 97.1422C183.915 97.594 183.792 98.1565 183.887 98.8299C183.99 99.5627 184.465 100.072 185.313 100.356C186.181 100.638 187.812 100.752 190.208 100.698C192.621 100.622 196.351 100.36 201.398 99.9134C205.769 99.5415 209.276 100.21 211.919 101.919C214.583 103.625 216.198 106.498 216.766 110.538ZM263.693 103.943C264.378 108.815 262.976 112.779 259.487 115.834C256.016 118.867 250.418 120.926 242.694 122.011C237.881 122.688 233.754 122.712 230.313 122.085C226.873 121.458 224.222 120.346 222.362 118.749C220.499 117.133 219.411 115.215 219.099 112.997C219.052 112.66 219.05 112.287 219.093 111.877L234.013 107.023C233.956 107.193 233.947 107.416 233.986 107.694C234.078 108.347 234.363 108.863 234.84 109.24C235.317 109.617 236.138 109.855 237.303 109.954C238.465 110.033 240.066 109.929 242.106 109.643C243.988 109.378 245.431 109.084 246.436 108.761C247.441 108.438 248.133 108.048 248.513 107.591C248.91 107.111 249.056 106.495 248.95 105.742C248.836 104.93 248.426 104.382 247.719 104.097C247.03 103.79 245.738 103.649 243.842 103.673C241.945 103.677 238.775 103.83 234.334 104.131C230.155 104.435 226.88 104.34 224.508 103.845C222.153 103.328 220.384 102.304 219.199 100.774C218.035 99.2415 217.242 96.9797 216.822 93.9891C216.357 90.6816 216.805 87.7609 218.165 85.2269C219.546 82.6901 221.758 80.6119 224.802 78.9925C227.864 77.3505 231.642 76.2136 236.138 75.5817C242.198 74.73 247.248 74.8786 251.287 76.0276C255.327 77.1767 257.907 79.4396 259.028 82.8165C259.205 83.3571 259.326 83.8651 259.393 84.3404L245.017 91.1172C245.043 90.8712 245.05 90.7086 245.039 90.6294C244.877 89.4807 244.098 88.752 242.702 88.4434C241.305 88.1347 239.379 88.153 236.923 88.4981C235.279 88.7291 233.996 89.0105 233.073 89.3421C232.15 89.6738 231.52 90.0754 231.183 90.547C230.842 90.9988 230.719 91.5614 230.814 92.2347C230.917 92.9675 231.392 93.4763 232.24 93.7611C233.108 94.0431 234.74 94.1571 237.135 94.1031C239.548 94.0266 243.278 93.7649 248.325 93.3182C252.696 92.9463 256.203 93.6147 258.847 95.3234C261.51 97.0293 263.125 99.9025 263.693 103.943ZM278.649 70.5463L284.912 115.108L269.464 117.279L263.201 72.7174L278.649 70.5463ZM326.036 97.1502L321.452 64.5308L334.553 62.6895L340.816 107.252L314.494 110.951L301.592 79.5005L299.928 79.7343L304.512 112.354L291.441 114.191L285.178 69.6287L311.44 65.9378L324.343 97.3882L326.036 97.1502ZM365.619 78.8028L389.623 75.4292L393.064 99.9086L378.744 101.921L379.32 93.0849L377.662 92.9242C377.232 95.4688 376.504 97.5503 375.48 99.1687C374.455 100.787 373.086 102.04 371.373 102.927C369.659 103.814 367.496 104.441 364.881 104.809C360.94 105.362 357.387 105.014 354.222 103.762C351.077 102.507 348.457 100.321 346.362 97.2018C344.288 94.0802 342.905 90.0635 342.215 85.1518C341.425 79.527 341.936 74.7595 343.749 70.849C345.563 66.9386 348.199 63.9224 351.657 61.8004C355.115 59.6785 358.984 58.3169 363.261 57.7157C369.579 56.8277 374.85 57.107 379.072 58.5534C383.314 59.9971 386.09 62.7173 387.399 66.714C387.505 67.0423 387.601 67.3622 387.685 67.6735L371.725 74.8243L371.671 74.4381C371.339 72.0812 369.243 71.1742 365.381 71.717C362.766 72.0844 360.822 73.1251 359.548 74.8391C358.275 76.553 357.909 79.341 358.452 83.2031C358.972 86.9067 360.122 89.4818 361.901 90.9283C363.696 92.3522 366.03 92.8624 368.902 92.4588C370.942 92.1721 372.602 91.555 373.883 90.6076C375.163 89.6602 375.71 88.523 375.524 87.196L375.39 86.2453L367.309 87.5931L365.619 78.8028Z" fill="#004C4C"/>
<path d="M152.262 506.463C152.345 507.05 152.465 507.548 152.624 507.957C152.781 508.359 152.989 508.713 153.248 509.02L153.291 509.327L148.538 509.995C148.367 509.737 148.221 509.39 148.099 508.956C147.976 508.516 147.867 507.955 147.772 507.275C147.695 506.728 147.534 506.326 147.289 506.071C147.044 505.809 146.716 505.657 146.306 505.613C145.896 505.57 145.355 505.596 144.681 505.69L142.047 506.06L142.715 510.814L138.318 511.432L136.231 496.578L143.876 495.503C145.962 495.21 147.655 495.356 148.956 495.94C150.256 496.518 151.012 497.567 151.226 499.085C151.324 499.785 151.3 500.384 151.155 500.882C151.015 501.373 150.715 501.799 150.254 502.16C149.793 502.521 149.135 502.822 148.281 503.064L148.354 503.589C149.566 503.539 150.488 503.78 151.122 504.31C151.754 504.834 152.134 505.552 152.262 506.463ZM141.142 499.624L141.599 502.872L144.154 502.513C145.071 502.384 145.754 502.163 146.202 501.851C146.648 501.533 146.831 501.083 146.749 500.502C146.686 500.053 146.545 499.723 146.327 499.511C146.116 499.298 145.842 499.175 145.508 499.141C145.172 499.101 144.754 499.116 144.252 499.187L141.142 499.624ZM171.014 506.836L157.705 508.707L155.617 493.853L168.897 491.987L169.397 495.542L160.514 496.79L160.876 499.365L168.887 498.239L169.253 500.843L161.242 501.969L161.604 504.544L170.516 503.291L171.014 506.836ZM191.89 500.186L192.474 488.673L196.93 488.047L195.759 503.359L189.055 504.301L185.776 494.189L185.103 494.284L184.718 504.911L178.053 505.847L172.648 491.459L177.124 490.83L180.888 501.733L181.542 501.641L182.026 490.141L187.601 489.358L191.256 500.275L191.89 500.186ZM217.782 500.264L212.989 500.937L212.09 498.781L206.337 499.59L206.067 501.91L201.393 502.567L203.544 487.117L211.466 486.004L217.782 500.264ZM207.555 489.22L206.745 496.099L210.735 495.538L208.06 489.149L207.555 489.22ZM235.805 494.721C235.888 495.309 236.008 495.807 236.167 496.216C236.324 496.618 236.532 496.972 236.791 497.279L236.834 497.586L232.081 498.254C231.91 497.995 231.764 497.649 231.642 497.215C231.519 496.775 231.41 496.214 231.315 495.534C231.238 494.986 231.077 494.585 230.833 494.33C230.587 494.068 230.259 493.915 229.849 493.872C229.439 493.829 228.898 493.854 228.224 493.949L225.59 494.319L226.258 499.072L221.861 499.69L219.774 484.836L227.419 483.762C229.505 483.469 231.198 483.614 232.499 484.199C233.799 484.777 234.555 485.825 234.769 487.344C234.867 488.044 234.843 488.643 234.698 489.141C234.558 489.632 234.258 490.058 233.797 490.419C233.336 490.78 232.678 491.081 231.824 491.322L231.897 491.847C233.109 491.798 234.031 492.039 234.665 492.569C235.297 493.093 235.677 493.81 235.805 494.721ZM224.685 487.882L225.142 491.131L227.697 490.771C228.614 490.642 229.297 490.422 229.745 490.11C230.191 489.791 230.374 489.342 230.292 488.761C230.229 488.312 230.088 487.981 229.87 487.77C229.659 487.557 229.385 487.434 229.051 487.4C228.715 487.36 228.297 487.375 227.795 487.445L224.685 487.882ZM244.597 481.348C246.875 481.028 248.731 481.039 250.166 481.383C251.6 481.72 252.699 482.397 253.461 483.414C254.222 484.425 254.727 485.815 254.976 487.584C255.204 489.208 255.022 490.62 254.43 491.821C253.845 493.021 252.956 493.974 251.762 494.68C250.569 495.386 249.183 495.851 247.606 496.072L241.248 496.966L239.16 482.112L244.597 481.348ZM247.104 492.285C247.863 492.179 248.496 491.989 249.003 491.715C249.516 491.441 249.895 491.024 250.14 490.465C250.383 489.899 250.441 489.157 250.312 488.239C250.18 487.302 249.921 486.581 249.533 486.077C249.145 485.566 248.631 485.237 247.991 485.092C247.357 484.938 246.568 484.928 245.624 485.061L244.089 485.277L245.113 492.565L247.104 492.285ZM273.905 491.336C272.043 491.598 270.594 491.347 269.558 490.584C268.522 489.82 267.871 488.498 267.607 486.617C267.442 485.441 267.544 484.421 267.914 483.554C268.29 482.687 268.847 482.006 269.586 481.512C270.323 481.011 271.157 480.695 272.088 480.564C273.943 480.303 275.389 480.558 276.427 481.328C277.463 482.091 278.115 483.423 278.382 485.324C278.546 486.493 278.443 487.507 278.072 488.367C277.702 489.227 277.147 489.904 276.409 490.398C275.671 490.893 274.836 491.205 273.905 491.336ZM305.942 483.279C306.296 485.794 304.679 487.489 301.092 488.363L301.307 489.888L300.01 490.071L299.808 488.635C299.65 488.664 299.406 488.701 299.076 488.748C298.839 488.781 298.66 488.803 298.54 488.813L298.742 490.249L297.445 490.431L297.232 488.916C296.066 488.959 295.064 488.867 294.224 488.642C293.391 488.416 292.743 488.086 292.278 487.653C291.812 487.214 291.538 486.7 291.455 486.113C291.432 485.948 291.421 485.747 291.421 485.511L295.711 484.131C295.674 484.298 295.667 484.46 295.689 484.619C295.745 485.022 296.016 485.297 296.501 485.444C296.986 485.584 297.806 485.574 298.961 485.411C299.674 485.311 300.237 485.195 300.649 485.063C301.06 484.924 301.35 484.759 301.518 484.567C301.692 484.368 301.759 484.126 301.719 483.842C301.675 483.525 301.523 483.304 301.263 483.179C301.008 483.047 300.54 482.974 299.859 482.962C299.177 482.951 298.074 482.984 296.551 483.064C295.163 483.151 294.075 483.102 293.288 482.916C292.501 482.724 291.912 482.369 291.523 481.852C291.14 481.327 290.879 480.576 290.742 479.599C290.568 478.364 290.857 477.304 291.608 476.417C292.365 475.53 293.524 474.869 295.085 474.434L294.87 472.899L296.167 472.717L296.367 474.143C296.492 474.118 296.683 474.088 296.94 474.052C297.251 474.008 297.482 473.979 297.635 473.964L297.434 472.538L298.732 472.356L298.945 473.871C300.432 473.817 301.641 473.994 302.574 474.401C303.505 474.802 304.099 475.456 304.354 476.363C304.406 476.591 304.443 476.804 304.464 477.003L300.345 478.946C300.368 478.774 300.371 478.629 300.354 478.51C300.284 478.015 299.971 477.699 299.413 477.562C298.862 477.424 298.111 477.422 297.16 477.555C296.249 477.683 295.606 477.871 295.23 478.12C294.854 478.368 294.694 478.693 294.751 479.096C294.793 479.393 294.941 479.608 295.195 479.74C295.449 479.873 295.911 479.949 296.58 479.97C297.25 479.99 298.269 479.961 299.638 479.883C300.963 479.778 302.066 479.821 302.949 480.014C303.831 480.206 304.518 480.571 305.011 481.107C305.503 481.637 305.813 482.361 305.942 483.279ZM318.363 486.451C316.627 486.695 315.158 486.619 313.958 486.222C312.764 485.818 311.811 485.076 311.101 483.998C310.396 482.912 309.913 481.462 309.651 479.647C309.42 478.003 309.555 476.564 310.054 475.329C310.553 474.088 311.32 473.105 312.356 472.38C313.398 471.648 314.609 471.185 315.988 470.991C317.758 470.742 319.243 470.82 320.444 471.223C321.645 471.627 322.598 472.371 323.303 473.457C324.006 474.536 324.486 475.984 324.741 477.799C324.971 479.436 324.846 480.871 324.366 482.103C323.886 483.335 323.126 484.317 322.084 485.05C321.043 485.782 319.802 486.249 318.363 486.451ZM317.861 482.593C318.442 482.512 318.923 482.34 319.304 482.078C319.69 481.808 319.963 481.382 320.124 480.801C320.29 480.212 320.304 479.426 320.166 478.442C319.966 477.016 319.541 476.032 318.893 475.491C318.25 474.941 317.46 474.733 316.523 474.864C315.955 474.944 315.481 475.119 315.101 475.387C314.722 475.656 314.449 476.085 314.283 476.674C314.115 477.256 314.1 478.032 314.236 479.003C314.445 480.441 314.867 481.432 315.502 481.976C316.144 482.518 316.93 482.724 317.861 482.593ZM331.411 484.678C330.857 484.756 330.412 484.754 330.078 484.673C329.744 484.599 329.485 484.434 329.301 484.177C329.123 483.919 329.001 483.549 328.933 483.067C328.866 482.592 328.883 482.209 328.984 481.919C329.09 481.621 329.293 481.391 329.593 481.227C329.893 481.057 330.319 480.933 330.874 480.855C331.435 480.777 331.883 480.778 332.217 480.858C332.558 480.932 332.816 481.094 332.993 481.345C333.176 481.596 333.302 481.962 333.369 482.444C333.438 482.932 333.419 483.325 333.313 483.623C333.212 483.913 333.009 484.14 332.702 484.305C332.403 484.475 331.972 484.599 331.411 484.678ZM344.7 482.75C342.964 482.994 341.496 482.917 340.296 482.52C339.101 482.116 338.149 481.375 337.438 480.296C336.734 479.211 336.25 477.76 335.989 475.946C335.758 474.302 335.892 472.863 336.392 471.628C336.89 470.386 337.658 469.403 338.694 468.679C339.735 467.947 340.946 467.484 342.326 467.29C344.095 467.041 345.58 467.118 346.781 467.522C347.982 467.925 348.935 468.67 349.64 469.756C350.344 470.835 350.823 472.282 351.078 474.098C351.308 475.735 351.183 477.17 350.704 478.402C350.224 479.634 349.463 480.616 348.421 481.348C347.38 482.08 346.139 482.547 344.7 482.75ZM344.199 478.892C344.779 478.81 345.26 478.638 345.641 478.376C346.027 478.106 346.3 477.681 346.461 477.1C346.627 476.511 346.641 475.724 346.503 474.741C346.303 473.315 345.878 472.331 345.23 471.789C344.587 471.24 343.797 471.031 342.86 471.163C342.292 471.243 341.818 471.417 341.439 471.686C341.059 471.955 340.786 472.383 340.62 472.972C340.453 473.555 340.437 474.331 340.574 475.301C340.782 476.74 341.204 477.731 341.84 478.274C342.481 478.817 343.268 479.023 344.199 478.892ZM363.797 480.066C362.061 480.31 360.592 480.233 359.392 479.837C358.198 479.432 357.245 478.691 356.535 477.613C355.83 476.527 355.347 475.077 355.085 473.262C354.854 471.618 354.989 470.179 355.488 468.944C355.987 467.702 356.754 466.719 357.79 465.995C358.832 465.263 360.042 464.8 361.422 464.606C363.192 464.357 364.677 464.435 365.878 464.838C367.079 465.241 368.032 465.986 368.737 467.072C369.44 468.151 369.92 469.598 370.175 471.414C370.405 473.051 370.28 474.486 369.8 475.718C369.32 476.95 368.56 477.932 367.518 478.664C366.477 479.396 365.236 479.864 363.797 480.066ZM363.295 476.208C363.876 476.126 364.357 475.954 364.737 475.692C365.124 475.423 365.397 474.997 365.558 474.416C365.724 473.827 365.738 473.041 365.6 472.057C365.399 470.631 364.975 469.647 364.327 469.105C363.684 468.556 362.894 468.347 361.957 468.479C361.389 468.559 360.915 468.733 360.535 469.002C360.156 469.271 359.883 469.7 359.717 470.289C359.549 470.871 359.534 471.647 359.67 472.618C359.879 474.056 360.301 475.047 360.936 475.59C361.578 476.133 362.364 476.339 363.295 476.208ZM382.894 477.382C381.157 477.626 379.689 477.55 378.489 477.153C377.294 476.748 376.342 476.007 375.632 474.929C374.927 473.843 374.444 472.393 374.182 470.578C373.951 468.934 374.085 467.495 374.585 466.26C375.084 465.019 375.851 464.035 376.887 463.311C377.928 462.579 379.139 462.116 380.519 461.922C382.288 461.673 383.773 461.751 384.975 462.154C386.176 462.558 387.129 463.302 387.833 464.388C388.537 465.467 389.016 466.915 389.272 468.73C389.502 470.367 389.377 471.802 388.897 473.034C388.417 474.266 387.656 475.248 386.615 475.98C385.573 476.712 384.333 477.18 382.894 477.382ZM382.392 473.524C382.973 473.443 383.454 473.271 383.834 473.008C384.22 472.739 384.494 472.313 384.654 471.732C384.821 471.143 384.835 470.357 384.697 469.373C384.496 467.947 384.072 466.963 383.423 466.422C382.781 465.872 381.991 465.664 381.053 465.795C380.485 465.875 380.012 466.049 379.632 466.318C379.253 466.587 378.98 467.016 378.813 467.605C378.646 468.187 378.631 468.963 378.767 469.934C378.976 471.372 379.398 472.363 380.033 472.906C380.675 473.449 381.461 473.655 382.392 473.524ZM401.99 474.698C400.254 474.942 398.786 474.866 397.586 474.469C396.391 474.064 395.439 473.323 394.728 472.245C394.024 471.159 393.54 469.709 393.279 467.894C393.048 466.25 393.182 464.811 393.682 463.576C394.18 462.335 394.948 461.352 395.984 460.627C397.025 459.895 398.236 459.432 399.616 459.238C401.385 458.989 402.87 459.067 404.071 459.47C405.272 459.874 406.225 460.618 406.93 461.704C407.634 462.783 408.113 464.231 408.368 466.046C408.598 467.683 408.474 469.118 407.994 470.35C407.514 471.582 406.753 472.564 405.712 473.297C404.67 474.029 403.43 474.496 401.99 474.698ZM401.489 470.84C402.07 470.759 402.55 470.587 402.931 470.325C403.317 470.055 403.591 469.629 403.751 469.048C403.917 468.459 403.932 467.673 403.793 466.689C403.593 465.263 403.168 464.279 402.52 463.738C401.877 463.188 401.087 462.98 400.15 463.111C399.582 463.191 399.108 463.366 398.729 463.634C398.349 463.903 398.076 464.332 397.91 464.921C397.743 465.503 397.727 466.279 397.864 467.25C398.072 468.688 398.494 469.679 399.13 470.223C399.771 470.765 400.558 470.971 401.489 470.84ZM421.087 472.014C419.351 472.258 417.883 472.182 416.682 471.785C415.488 471.381 414.535 470.639 413.825 469.561C413.12 468.475 412.637 467.025 412.375 465.21C412.144 463.567 412.279 462.127 412.778 460.892C413.277 459.651 414.044 458.668 415.08 457.943C416.122 457.211 417.333 456.748 418.712 456.554C420.482 456.306 421.967 456.383 423.168 456.786C424.369 457.19 425.322 457.934 426.027 459.02C426.73 460.099 427.21 461.547 427.465 463.362C427.695 465 427.57 466.434 427.09 467.666C426.611 468.898 425.85 469.881 424.808 470.613C423.767 471.345 422.526 471.812 421.087 472.014ZM420.585 468.156C421.166 468.075 421.647 467.903 422.028 467.641C422.414 467.371 422.687 466.945 422.848 466.364C423.014 465.775 423.028 464.989 422.89 464.005C422.69 462.579 422.265 461.595 421.617 461.054C420.974 460.505 420.184 460.296 419.247 460.428C418.679 460.507 418.205 460.682 417.826 460.95C417.446 461.219 417.173 461.648 417.007 462.237C416.839 462.819 416.824 463.596 416.96 464.566C417.169 466.004 417.591 466.995 418.226 467.539C418.868 468.081 419.654 468.287 420.585 468.156ZM440.258 468.997L435.851 469.616L434.707 461.476L434.782 457.265L434.245 457.249C434.174 458.282 434.043 459.075 433.852 459.627C433.666 460.172 433.367 460.587 432.957 460.874C432.551 461.153 431.953 461.372 431.16 461.53L430.537 457.094C431.257 456.993 431.834 456.864 432.27 456.709C432.705 456.547 433.046 456.314 433.293 456.01C433.54 455.706 433.687 455.291 433.734 454.766L438.17 454.143L440.258 468.997Z" fill="#D57F1D"/>
<path d="M406.337 397.461C406.436 397.847 406.511 398.222 406.562 398.585C406.831 400.502 406.526 402.285 405.647 403.934C404.781 405.567 403.289 406.968 401.173 408.14C399.055 409.296 396.333 410.108 393.007 410.576C387.923 411.29 383.977 410.667 381.169 408.707C378.359 406.732 376.61 403.298 375.922 398.403C375.506 395.44 375.811 392.82 376.839 390.543C377.867 388.266 379.36 386.456 381.319 385.115C383.293 383.771 385.441 382.936 387.765 382.609C391.934 382.023 395.377 382.443 398.095 383.868C400.826 385.276 402.584 387.828 403.37 391.524L387.689 399.615C388.088 400.552 388.619 401.173 389.284 401.479C389.962 401.769 390.795 401.845 391.782 401.706C393.046 401.528 393.949 401.157 394.492 400.592C395.047 400.011 395.264 399.291 395.144 398.434C395.127 398.318 395.071 398.178 394.973 398.014L406.337 397.461ZM389.274 390.817C388.287 390.956 387.582 391.477 387.161 392.38C386.74 393.284 386.676 394.774 386.968 396.851L387.02 397.221L392.555 394.399C392.421 393.13 392.044 392.19 391.426 391.581C390.819 390.955 390.102 390.701 389.274 390.817Z" fill="#004C4C"/>
<path d="M371.684 402.398C372.661 403.134 373.483 404.078 374.148 405.229C374.828 406.377 375.259 407.605 375.443 408.912C375.733 410.975 375.282 412.771 374.09 414.301C372.898 415.831 371.148 417.077 368.839 418.038C366.545 418.997 363.851 419.694 360.757 420.129C357.62 420.57 354.872 420.616 352.512 420.266C350.167 419.914 348.3 419.17 346.911 418.032C345.536 416.892 344.71 415.386 344.432 413.515C344.356 412.977 344.328 412.352 344.346 411.639L351.893 409.067L351.753 408.065L347.938 408.268L347.488 405.065L351.114 404.311L350.939 403.069C348.494 403.161 346.581 402.675 345.202 401.61C343.838 400.543 343.017 399.021 342.739 397.046C342.486 395.245 342.771 393.687 343.593 392.372C344.413 391.042 345.633 389.975 347.253 389.169C348.887 388.362 350.815 387.802 353.038 387.49C355.056 387.206 356.691 387.243 357.941 387.601C359.203 387.942 360.164 388.614 360.823 389.617C361.483 390.62 361.937 392.008 362.186 393.78C362.292 394.535 362.365 395.369 362.404 396.282L363.522 396.169C363.536 393.635 363.703 391.663 364.023 390.256C364.356 388.832 364.912 387.776 365.689 387.089C366.464 386.388 367.571 385.936 369.009 385.734C369.793 385.624 370.77 385.568 371.94 385.566L373.507 396.721L373.094 396.779C371.961 396.938 370.766 397.343 369.51 397.994C368.251 398.63 366.872 399.46 365.372 400.486C364.344 401.178 363.218 401.758 361.996 402.227C360.773 402.695 359.265 403.136 357.472 403.551L357.668 404.945L371.684 402.398ZM354.81 393.461C352.98 393.719 352.162 394.537 352.356 395.917C352.486 396.846 352.875 397.451 353.521 397.73C354.168 398.01 354.992 398.079 355.994 397.938C356.909 397.809 357.558 397.578 357.941 397.242C358.338 396.905 358.479 396.33 358.365 395.517C358.13 393.846 356.945 393.161 354.81 393.461ZM360.188 411.967C361.8 411.74 362.869 411.442 363.394 411.072C363.918 410.687 364.141 410.219 364.063 409.667C363.994 409.173 363.74 408.787 363.301 408.508C362.86 408.215 362.02 408.036 360.782 407.973C359.542 407.896 357.761 407.976 355.439 408.213C355.344 408.908 355.347 409.456 355.448 409.856C355.583 410.711 356.054 411.326 356.862 411.701C357.685 412.074 358.793 412.163 360.188 411.967Z" fill="#004C4C"/>
<path d="M324.168 391.547C329.019 390.866 332.726 391.374 335.29 393.072C337.854 394.771 339.431 397.718 340.021 401.916L342.146 417.035L331.471 418.536L331.146 412.272L330.072 412.223C329.868 414.769 329.016 416.718 327.517 418.069C326.033 419.418 324.166 420.251 321.914 420.567C316.875 421.276 314.076 419.647 313.519 415.682C313.251 413.78 313.649 412.235 314.712 411.049C315.774 409.863 317.413 408.929 319.628 408.248C322.27 407.447 324.224 406.809 325.49 406.335C326.769 405.844 327.665 405.37 328.179 404.913C328.705 404.439 328.923 403.883 328.833 403.244L328.83 403.222C328.689 402.22 328.321 401.553 327.727 401.222C327.147 400.889 326.363 400.792 325.375 400.931C324.242 401.09 323.362 401.465 322.734 402.057C322.107 402.649 321.851 403.359 321.967 404.187C322.045 404.738 322.194 405.169 322.415 405.479L311.072 405.229C310.924 404.598 310.834 404.166 310.801 403.934C310.538 402.06 310.813 400.274 311.626 398.575C312.453 396.874 313.904 395.396 315.979 394.142C318.068 392.886 320.798 392.021 324.168 391.547ZM325.314 412.669C326.084 412.561 326.828 412.323 327.547 411.956C328.263 411.574 329.017 410.986 329.809 410.194L329.326 406.751L329.161 406.686C328.492 407.194 327.353 407.784 325.744 408.454C324.932 408.791 324.31 409.108 323.878 409.405C323.461 409.701 323.177 410 323.027 410.303C322.891 410.603 322.852 410.957 322.909 411.363C323.06 412.438 323.862 412.873 325.314 412.669Z" fill="#004C4C"/>
<path d="M291.729 390.797C294.735 390.374 297.452 390.474 299.88 391.095C302.307 391.717 304.306 392.924 305.876 394.718C307.459 396.495 308.457 398.858 308.872 401.806C309.503 406.294 308.565 409.795 306.06 412.309C303.568 414.807 299.467 416.457 293.759 417.259L289.402 417.872L290.309 424.32L278.98 425.913L274.387 393.234L291.729 390.797ZM292.807 407.952C294.462 407.719 295.657 407.262 296.391 406.581C297.137 405.884 297.412 404.838 297.216 403.444C297.071 402.413 296.807 401.635 296.422 401.112C296.037 400.588 295.539 400.258 294.928 400.122C294.331 399.984 293.596 399.976 292.725 400.098L287.017 400.901L288.101 408.613L292.807 407.952Z" fill="#004C4C"/>
<path d="M262.612 419.527C263.038 422.562 262.242 425.014 260.224 426.882C258.204 428.736 254.957 429.978 250.484 430.606C245.662 431.284 242.147 431.045 239.941 429.888C237.749 428.73 236.546 426.967 236.332 424.597L245.93 421.604C245.93 421.708 245.941 421.84 245.964 422C246.013 422.348 246.145 422.604 246.36 422.766C246.59 422.926 246.981 423.019 247.533 423.045C248.082 423.057 248.887 422.988 249.947 422.839C251.022 422.688 251.764 422.488 252.173 422.238C252.597 421.986 252.77 421.584 252.693 421.032C252.627 420.567 252.366 420.233 251.908 420.031C251.45 419.829 250.746 419.72 249.796 419.706C248.846 419.691 247.46 419.738 245.639 419.846C243.077 420.058 241.042 420.018 239.535 419.726C238.042 419.432 236.895 418.809 236.095 417.855C235.307 416.884 234.783 415.477 234.524 413.632C234.234 411.57 234.572 409.76 235.538 408.202C236.504 406.645 237.906 405.396 239.744 404.456C241.579 403.502 243.652 402.863 245.961 402.538C254.342 401.361 259.134 403.057 260.339 407.627L250.539 411.87L250.514 411.696C250.395 411.061 250.019 410.647 249.384 410.455C248.763 410.246 247.9 410.219 246.796 410.375C244.777 410.658 243.834 411.272 243.967 412.216C244.034 412.696 244.251 413.028 244.618 413.213C244.999 413.397 245.532 413.5 246.216 413.522C246.901 413.544 248.06 413.522 249.695 413.455L251.108 413.39C253.755 413.255 255.874 413.372 257.466 413.74C259.058 414.109 260.254 414.763 261.052 415.702C261.863 416.625 262.383 417.9 262.612 419.527Z" fill="#004C4C"/>
<path d="M224.412 407.633C222.684 407.876 221.32 407.92 220.321 407.764C219.319 407.593 218.56 407.197 218.043 406.573C217.524 405.935 217.177 404.999 217.004 403.764C216.83 402.53 216.906 401.542 217.232 400.8C217.555 400.044 218.174 399.446 219.09 399.006C220.02 398.564 221.342 398.223 223.056 397.982C224.755 397.743 226.106 397.709 227.107 397.879C228.109 398.049 228.869 398.453 229.388 399.091C229.905 399.715 230.251 400.644 230.424 401.878C230.598 403.113 230.523 404.108 230.2 404.865C229.874 405.607 229.254 406.197 228.338 406.637C227.435 407.06 226.126 407.392 224.412 407.633ZM219.091 410.714C219.684 410.926 220.473 411.06 221.458 411.114C222.441 411.154 223.579 411.083 224.872 410.901C227.341 410.554 229.147 409.967 230.289 409.14L233.547 432.32L222.349 433.894L219.091 410.714Z" fill="#004C4C"/>
<path d="M204.607 408.528C207.686 408.095 210.198 408.898 212.143 410.935C214.086 412.957 215.405 416.445 216.101 421.398L217.942 434.491L206.744 436.065L204.992 423.603C204.731 421.744 204.236 420.436 203.508 419.68C202.792 418.906 201.846 418.602 200.669 418.768C199.856 418.882 199.154 419.21 198.564 419.752C197.988 420.292 197.575 420.987 197.324 421.837C197.088 422.685 197.039 423.603 197.178 424.59L198.944 437.161L187.768 438.732L183.084 405.399L194.26 403.828L194.964 408.839L195.203 418.759L196.332 418.889C196.429 416.52 196.777 414.627 197.378 413.21C197.993 411.79 198.88 410.725 200.039 410.014C201.196 409.289 202.718 408.794 204.607 408.528Z" fill="#004C4C"/>
<path d="M179.271 406.601L180.68 416.623L170.811 418.01L173.995 440.667L162.666 442.259L159.482 419.602L149.635 420.986L148.226 410.965L179.271 406.601Z" fill="#004C4C"/>
<circle cx="105.729" cy="193.319" r="5" transform="rotate(-8 105.729 193.319)" fill="#D47F1D"/>
<circle cx="121.574" cy="191.092" r="5" transform="rotate(-8 121.574 191.092)" fill="#D47F1D"/>
<circle cx="137.418" cy="188.865" r="5" transform="rotate(-8 137.418 188.865)" fill="#D47F1D"/>
<path opacity="0.5" fill-rule="evenodd" clip-rule="evenodd" d="M96.5882 182.13C97.5247 181.578 98.5852 181.195 99.739 181.033L105.737 180.19C107.378 179.959 108.521 178.442 108.29 176.802C108.059 175.161 106.542 174.018 104.902 174.248L98.904 175.091C96.9555 175.365 95.1449 176.016 93.5409 176.961C92.1137 177.803 91.6388 179.642 92.4803 181.069C93.3218 182.497 95.161 182.971 96.5882 182.13ZM116.897 172.563C115.257 172.793 114.113 174.31 114.344 175.951C114.575 177.592 116.092 178.735 117.732 178.504L129.728 176.818C131.369 176.588 132.512 175.071 132.281 173.43C132.051 171.789 130.534 170.646 128.893 170.877L116.897 172.563ZM140.888 169.191C139.248 169.421 138.105 170.938 138.335 172.579C138.566 174.22 140.083 175.363 141.724 175.132L153.719 173.447C155.36 173.216 156.503 171.699 156.272 170.058C156.042 168.418 154.525 167.274 152.884 167.505L140.888 169.191ZM164.88 165.819C163.239 166.05 162.096 167.567 162.326 169.207C162.557 170.848 164.074 171.991 165.715 171.761L177.71 170.075C179.351 169.844 180.494 168.327 180.264 166.687C180.033 165.046 178.516 163.903 176.875 164.133L164.88 165.819ZM188.871 162.447C187.23 162.678 186.087 164.195 186.318 165.836C186.548 167.476 188.065 168.62 189.706 168.389L201.701 166.703C203.342 166.473 204.485 164.956 204.255 163.315C204.024 161.674 202.507 160.531 200.866 160.762L188.871 162.447ZM212.862 159.076C211.221 159.306 210.078 160.823 210.309 162.464C210.539 164.105 212.056 165.248 213.697 165.017L225.693 163.331C227.333 163.101 228.476 161.584 228.246 159.943C228.015 158.302 226.498 157.159 224.858 157.39L212.862 159.076ZM236.853 155.704C235.212 155.934 234.069 157.452 234.3 159.092C234.53 160.733 236.047 161.876 237.688 161.646L249.684 159.96C251.324 159.729 252.468 158.212 252.237 156.571C252.006 154.931 250.489 153.787 248.849 154.018L236.853 155.704ZM260.844 152.332C259.204 152.563 258.06 154.08 258.291 155.72C258.522 157.361 260.039 158.504 261.679 158.274L273.675 156.588C275.316 156.357 276.459 154.84 276.228 153.2C275.998 151.559 274.481 150.416 272.84 150.646L260.844 152.332ZM284.835 148.96C283.195 149.191 282.052 150.708 282.282 152.349C282.513 153.989 284.03 155.133 285.67 154.902L297.666 153.216C299.307 152.986 300.45 151.469 300.219 149.828C299.989 148.187 298.472 147.044 296.831 147.275L284.835 148.96ZM308.827 145.589C307.186 145.819 306.043 147.336 306.273 148.977C306.504 150.618 308.021 151.761 309.662 151.53L321.657 149.844C323.298 149.614 324.441 148.097 324.21 146.456C323.98 144.815 322.463 143.672 320.822 143.903L308.827 145.589ZM332.818 142.217C331.177 142.448 330.034 143.965 330.264 145.605C330.495 147.246 332.012 148.389 333.653 148.159L345.648 146.473C347.289 146.242 348.432 144.725 348.202 143.084C347.971 141.444 346.454 140.301 344.813 140.531L332.818 142.217ZM356.809 138.845C355.168 139.076 354.025 140.593 354.256 142.234C354.486 143.874 356.003 145.017 357.644 144.787L369.64 143.101C371.28 142.87 372.423 141.353 372.193 139.713C371.962 138.072 370.445 136.929 368.804 137.159L356.809 138.845ZM380.8 135.473C379.159 135.704 378.016 137.221 378.247 138.862C378.477 140.503 379.994 141.646 381.635 141.415L387.633 140.572C388.787 140.41 389.912 140.486 390.964 140.758C392.568 141.174 394.205 140.21 394.62 138.606C395.036 137.002 394.073 135.365 392.469 134.95C390.666 134.483 388.746 134.357 386.798 134.631L380.8 135.473ZM401.363 141.653C400.522 140.225 398.683 139.75 397.256 140.592C395.828 141.433 395.353 143.273 396.195 144.7C396.747 145.636 397.13 146.697 397.292 147.851L398.196 154.285C398.427 155.926 399.944 157.069 401.584 156.839C403.225 156.608 404.368 155.091 404.138 153.45L403.233 147.016C402.96 145.067 402.309 143.257 401.363 141.653ZM92.6465 187.361C93.0619 185.757 92.0985 184.12 90.4946 183.704C88.8907 183.289 87.2537 184.252 86.8382 185.856C86.3713 187.659 86.2451 189.579 86.5189 191.527L87.4232 197.962C87.6538 199.602 89.1708 200.746 90.8116 200.515C92.4523 200.284 93.5954 198.767 93.3648 197.127L92.4605 190.692C92.2983 189.538 92.3738 188.413 92.6465 187.361ZM405.615 165.31C405.036 164.239 403.835 163.587 402.558 163.766C400.917 163.997 399.774 165.514 400.005 167.155L401.814 180.024C402.044 181.665 403.561 182.808 405.202 182.578C406.843 182.347 407.986 180.83 407.755 179.189L405.946 166.32C405.92 166.129 405.875 165.945 405.816 165.769L405.748 165.292L405.615 165.31ZM94.8425 208.987C94.2633 207.915 93.0617 207.263 91.7852 207.443C90.1445 207.673 89.0013 209.19 89.2319 210.831L91.0406 223.701C91.2712 225.341 92.7882 226.484 94.4289 226.254C96.0696 226.023 97.2128 224.506 96.9822 222.865L95.5847 212.922L96.3204 212.818L95.7637 208.857L94.8425 208.987ZM409.564 192.059C409.333 190.418 407.816 189.275 406.175 189.505C404.535 189.736 403.392 191.253 403.622 192.894L405.431 205.763C405.661 207.404 407.178 208.547 408.819 208.316C410.46 208.086 411.603 206.569 411.372 204.928L409.564 192.059ZM98.7909 235.735C98.5603 234.094 97.0433 232.951 95.4026 233.182C93.7618 233.412 92.6187 234.929 92.8493 236.57L94.658 249.439C94.8885 251.08 96.4055 252.223 98.0463 251.993C99.687 251.762 100.83 250.245 100.6 248.604L98.7909 235.735ZM102.408 261.474C102.178 259.833 100.661 258.69 99.0199 258.92C97.3792 259.151 96.236 260.668 96.4666 262.309L98.2753 275.178C98.5059 276.819 100.023 277.962 101.664 277.732C103.304 277.501 104.448 275.984 104.217 274.343L102.408 261.474ZM413.181 217.797C412.951 216.157 411.434 215.014 409.793 215.244C408.152 215.475 407.009 216.992 407.24 218.633L409.048 231.502C409.279 233.143 410.796 234.286 412.437 234.055C414.077 233.825 415.22 232.308 414.99 230.667L413.181 217.797ZM416.799 243.536C416.568 241.896 415.051 240.752 413.41 240.983C411.769 241.214 410.626 242.731 410.857 244.371L412.666 257.241C412.896 258.882 414.413 260.025 416.054 259.794C417.695 259.563 418.838 258.046 418.607 256.406L416.799 243.536ZM106.026 287.213C105.795 285.572 104.278 284.429 102.637 284.659C100.997 284.89 99.8534 286.407 100.084 288.048L101.893 300.917C102.123 302.558 103.64 303.701 105.281 303.47C106.922 303.24 108.065 301.723 107.834 300.082L106.026 287.213ZM420.416 269.275C420.185 267.634 418.668 266.491 417.028 266.722C415.387 266.952 414.244 268.47 414.474 270.11L416.283 282.98C416.514 284.62 418.031 285.764 419.671 285.533C421.312 285.302 422.455 283.785 422.225 282.145L420.416 269.275ZM109.643 312.951C109.412 311.311 107.895 310.168 106.255 310.398C104.614 310.629 103.471 312.146 103.701 313.787L105.51 326.656C105.741 328.297 107.258 329.44 108.898 329.209C110.539 328.979 111.682 327.462 111.452 325.821L109.643 312.951ZM424.033 295.014C423.803 293.373 422.286 292.23 420.645 292.461C419.004 292.691 417.861 294.208 418.092 295.849L418.996 302.284C419.158 303.438 419.083 304.563 418.81 305.615C418.395 307.219 419.358 308.856 420.962 309.271C422.566 309.687 424.203 308.723 424.618 307.119C425.085 305.317 425.211 303.397 424.938 301.449L424.033 295.014ZM113.26 338.69C113.03 337.05 111.513 335.906 109.872 336.137C108.231 336.368 107.088 337.885 107.319 339.525L108.223 345.96C108.497 347.909 109.147 349.719 110.093 351.323C110.935 352.75 112.774 353.225 114.201 352.384C115.628 351.542 116.103 349.703 115.262 348.276C114.709 347.339 114.327 346.279 114.165 345.125L113.26 338.69ZM120.492 352.218C118.889 351.802 117.252 352.766 116.836 354.369C116.421 355.973 117.384 357.61 118.988 358.026C120.79 358.493 122.71 358.619 124.659 358.345L130.656 357.502C132.297 357.272 133.44 355.755 133.21 354.114C132.979 352.473 131.462 351.33 129.821 351.561L123.824 352.404C122.67 352.566 121.545 352.49 120.492 352.218ZM417.916 316.014C419.343 315.173 419.818 313.334 418.976 311.906C418.135 310.479 416.296 310.004 414.868 310.846C413.932 311.398 412.871 311.781 411.718 311.943L405.72 312.786C404.079 313.016 402.936 314.533 403.166 316.174C403.397 317.815 404.914 318.958 406.555 318.727L412.553 317.884C414.501 317.61 416.312 316.96 417.916 316.014ZM141.817 349.875C140.176 350.105 139.033 351.622 139.264 353.263C139.494 354.904 141.011 356.047 142.652 355.816L154.648 354.13C156.288 353.9 157.431 352.383 157.201 350.742C156.97 349.101 155.453 347.958 153.813 348.189L141.817 349.875ZM165.808 346.503C164.167 346.734 163.024 348.251 163.255 349.891C163.485 351.532 165.002 352.675 166.643 352.445L178.639 350.759C180.279 350.528 181.423 349.011 181.192 347.37C180.961 345.73 179.444 344.587 177.804 344.817L165.808 346.503ZM189.799 343.131C188.159 343.362 187.015 344.879 187.246 346.52C187.477 348.16 188.994 349.303 190.634 349.073L202.63 347.387C204.271 347.156 205.414 345.639 205.183 343.999C204.953 342.358 203.436 341.215 201.795 341.445L189.799 343.131ZM213.79 339.76C212.15 339.99 211.007 341.507 211.237 343.148C211.468 344.789 212.985 345.932 214.625 345.701L226.621 344.015C228.262 343.785 229.405 342.268 229.174 340.627C228.944 338.986 227.427 337.843 225.786 338.074L213.79 339.76ZM237.782 336.388C236.141 336.618 234.998 338.135 235.228 339.776C235.459 341.417 236.976 342.56 238.617 342.329L250.612 340.644C252.253 340.413 253.396 338.896 253.165 337.255C252.935 335.614 251.418 334.471 249.777 334.702L237.782 336.388ZM261.773 333.016C260.132 333.247 258.989 334.764 259.219 336.404C259.45 338.045 260.967 339.188 262.608 338.958L274.603 337.272C276.244 337.041 277.387 335.524 277.157 333.883C276.926 332.243 275.409 331.1 273.768 331.33L261.773 333.016ZM285.764 329.644C284.123 329.875 282.98 331.392 283.211 333.033C283.441 334.673 284.958 335.817 286.599 335.586L298.594 333.9C300.235 333.669 301.378 332.152 301.148 330.512C300.917 328.871 299.4 327.728 297.759 327.958L285.764 329.644ZM309.755 326.273C308.114 326.503 306.971 328.02 307.202 329.661C307.432 331.302 308.949 332.445 310.59 332.214L322.586 330.528C324.226 330.298 325.37 328.781 325.139 327.14C324.908 325.499 323.391 324.356 321.751 324.587L309.755 326.273ZM333.746 322.901C332.105 323.131 330.962 324.648 331.193 326.289C331.424 327.93 332.941 329.073 334.581 328.842L346.577 327.157C348.218 326.926 349.361 325.409 349.13 323.768C348.9 322.128 347.383 320.984 345.742 321.215L333.746 322.901ZM357.737 319.529C356.097 319.76 354.954 321.277 355.184 322.917C355.415 324.558 356.932 325.701 358.572 325.471L370.568 323.785C372.209 323.554 373.352 322.037 373.121 320.397C372.891 318.756 371.374 317.613 369.733 317.843L357.737 319.529ZM381.729 316.157C380.088 316.388 378.945 317.905 379.175 319.546C379.406 321.186 380.923 322.33 382.564 322.099L394.559 320.413C396.2 320.183 397.343 318.666 397.112 317.025C396.882 315.384 395.365 314.241 393.724 314.472L381.729 316.157ZM106.161 211.435L116.002 210.052L115.445 206.091L105.604 207.474L106.161 211.435ZM125.843 208.669L135.684 207.286L135.127 203.325L125.286 204.708L125.843 208.669ZM145.524 205.903L155.365 204.52L154.808 200.559L144.968 201.942L145.524 205.903ZM165.206 203.137L175.047 201.754L174.49 197.793L164.649 199.176L165.206 203.137ZM184.887 200.371L194.728 198.988L194.172 195.027L184.331 196.41L184.887 200.371ZM204.569 197.605L214.41 196.222L213.853 192.261L204.012 193.644L204.569 197.605ZM224.251 194.839L234.091 193.456L233.535 189.495L223.694 190.878L224.251 194.839ZM243.932 192.073L253.773 190.69L253.216 186.729L243.375 188.112L243.932 192.073ZM263.614 189.307L273.455 187.924L272.898 183.962L263.057 185.345L263.614 189.307ZM283.295 186.54L293.136 185.157L292.579 181.196L282.739 182.579L283.295 186.54ZM302.977 183.774L312.818 182.391L312.261 178.43L302.42 179.813L302.977 183.774ZM322.658 181.008L332.499 179.625L331.943 175.664L322.102 177.047L322.658 181.008ZM342.34 178.242L352.181 176.859L351.624 172.898L341.783 174.281L342.34 178.242ZM362.022 175.476L371.862 174.093L371.306 170.132L361.465 171.515L362.022 175.476ZM381.703 172.71L391.544 171.327L390.987 167.366L381.147 168.749L381.703 172.71Z" fill="#D47F1D"/>
<rect x="120.921" y="229.557" width="122" height="95" rx="15" transform="rotate(-8 120.921 229.557)" fill="#D47F1D"/>
<rect x="258.568" y="210.212" width="122" height="11" rx="5.5" transform="rotate(-8 258.568 210.212)" fill="#D47F1D" fill-opacity="0.5"/>
<rect x="261.351" y="230.018" width="94" height="11" rx="5.5" transform="rotate(-8 261.351 230.018)" fill="#D47F1D" fill-opacity="0.5"/>
<rect x="269.006" y="284.482" width="63" height="20" rx="10" transform="rotate(-8 269.006 284.482)" fill="#D47F1D"/>
<path d="M165.53 259.555C165.042 256.084 165.519 253.044 166.96 250.434C168.402 247.824 170.607 245.721 173.577 244.123C176.569 242.523 180.115 241.435 184.214 240.859C187.922 240.337 191.423 240.435 194.718 241.152C198.012 241.869 200.784 243.297 203.034 245.435C205.284 247.573 206.657 250.412 207.155 253.953C207.581 256.985 207.434 259.448 206.714 261.343C206.014 263.211 205.02 264.66 203.732 265.691C202.444 266.722 200.548 267.932 198.043 269.323C196.683 270.009 195.62 270.631 194.852 271.187C194.105 271.717 193.525 272.353 193.113 273.095C192.72 273.811 192.584 274.68 192.704 275.701C192.74 275.956 192.876 276.42 193.111 277.095C192.539 276.869 191.757 276.731 190.763 276.682C189.793 276.629 188.64 276.697 187.305 276.885C184.725 277.247 182.861 277.852 181.712 278.697C181.214 277.328 180.897 276.157 180.76 275.185C180.49 273.264 180.605 271.655 181.103 270.358C181.602 269.061 182.375 267.961 183.422 267.059C184.493 266.153 186.003 265.115 187.952 263.944L188.633 263.53C190.148 262.609 191.287 261.859 192.051 261.28C192.815 260.7 193.4 260.016 193.806 259.228C194.208 258.416 194.332 257.455 194.175 256.344C193.922 254.539 193.065 253.373 191.606 252.846C190.166 252.294 188.387 252.166 186.268 252.464C180.81 253.231 178.328 255.373 178.822 258.891C178.891 259.377 179.02 259.878 179.21 260.394C179.4 260.91 179.651 261.359 179.962 261.74L166.03 261.361C165.801 260.898 165.634 260.296 165.53 259.555ZM189.9 295.6C187.965 295.872 186.414 295.866 185.247 295.581C184.083 295.32 183.179 294.739 182.536 293.838C181.916 292.934 181.487 291.638 181.25 289.948C181.016 288.282 181.074 286.941 181.424 285.924C181.794 284.881 182.502 284.073 183.549 283.501C184.593 282.906 186.082 282.473 188.016 282.201C189.974 281.926 191.536 281.93 192.704 282.215C193.891 282.473 194.792 283.042 195.409 283.923C196.049 284.8 196.488 286.084 196.726 287.773C196.966 289.486 196.902 290.864 196.532 291.907C196.181 292.924 195.471 293.72 194.401 294.295C193.358 294.89 191.857 295.325 189.9 295.6Z" fill="#E1DAC2"/>
<path opacity="0.2" d="M115.878 394.868L430.784 350.611" stroke="#004C4C" stroke-width="4" stroke-linecap="round"/>
<path opacity="0.2" d="M126.177 468.148L441.082 423.891" stroke="#004C4C" stroke-width="4" stroke-linecap="round"/>
</svg>
