<svg width="496" height="599" viewBox="0 0 496 599" fill="none" xmlns="http://www.w3.org/2000/svg">
<rect x="0.155029" y="88.6375" width="410" height="515" rx="24" transform="rotate(-8 0.155029 88.6375)" fill="#D57F1D"/>
<rect x="17.7366" y="65.653" width="410" height="515" rx="16" transform="rotate(-8 17.7366 65.653)" fill="#001818"/>
<path d="M18.7108 72.5849C17.481 63.8343 23.5777 55.7436 32.3283 54.5138L406.65 1.9064C415.4 0.676593 423.491 6.77336 424.721 15.5239L491.941 493.823C493.171 502.574 487.074 510.665 478.324 511.894L455.538 515.097C453.431 515.393 451.283 515.17 449.282 514.446V514.446C446.078 513.288 442.547 513.428 439.444 514.838L433.513 517.532C432.118 518.166 430.639 518.596 429.122 518.809L413.33 521.029C411.452 521.293 409.542 521.221 407.689 520.816L402.215 519.62C398.48 518.804 394.575 519.353 391.209 521.167L386.278 523.825C384.608 524.725 382.792 525.321 380.913 525.585L147.192 558.432C144.575 558.8 141.917 558.155 139.759 556.629V556.629C136.081 554.028 131.145 554.098 127.542 556.802L123.638 559.732C121.476 561.354 118.938 562.403 116.261 562.779L104.002 564.502C95.2519 565.732 87.1612 559.635 85.9314 550.884L18.7108 72.5849Z" fill="#E1DAC2"/>
<rect opacity="0.3" x="31.9184" y="69.5603" width="383" height="486" rx="9.5" transform="rotate(-8 31.9184 69.5603)" stroke="#DB7704" stroke-width="3"/>
<path d="M135.793 88.9975L141.918 133.579L129.109 135.339L124.788 103.894L123.094 104.127L120.757 136.486L100.16 139.316L89.2125 108.782L87.5481 109.01L91.8684 140.455L79.0587 142.215L72.9336 97.6338L98.3449 94.1425L107.698 123.866L109.154 123.666L110.382 92.4888L135.793 88.9975ZM157.8 85.9738L163.926 130.555L148.471 132.678L142.346 88.0972L157.8 85.9738ZM211.211 109.917C211.88 114.791 210.466 118.75 206.968 121.795C203.487 124.817 197.883 126.859 190.155 127.92C185.34 128.582 181.214 128.594 177.775 127.956C174.336 127.318 171.689 126.198 169.834 124.595C167.975 122.973 166.894 121.053 166.589 118.833C166.543 118.497 166.542 118.123 166.587 117.713L181.521 112.906C181.464 113.075 181.454 113.299 181.492 113.576C181.582 114.23 181.865 114.746 182.341 115.125C182.817 115.504 183.637 115.744 184.802 115.847C185.964 115.929 187.566 115.83 189.606 115.55C191.489 115.291 192.933 115.002 193.939 114.682C194.944 114.362 195.638 113.974 196.019 113.518C196.418 113.039 196.566 112.424 196.462 111.671C196.351 110.858 195.942 110.309 195.236 110.022C194.548 109.713 193.256 109.567 191.361 109.586C189.463 109.584 186.293 109.727 181.851 110.014C177.671 110.306 174.397 110.2 172.026 109.698C169.673 109.174 167.906 108.145 166.727 106.611C165.567 105.075 164.781 102.81 164.37 99.8185C163.916 96.5095 164.373 93.5902 165.741 91.0604C167.129 88.5279 169.348 86.4566 172.397 84.8466C175.463 83.214 179.245 82.0887 183.743 81.4708C189.806 80.6378 194.856 80.802 198.891 81.9635C202.927 83.125 205.5 85.3959 206.61 88.7763C206.786 89.3174 206.906 89.8258 206.971 90.3013L192.574 97.0337C192.6 96.7877 192.608 96.6252 192.597 96.5459C192.44 95.3967 191.663 94.6656 190.267 94.3527C188.872 94.0397 186.945 94.052 184.489 94.3896C182.844 94.6155 181.56 94.8929 180.636 95.2217C179.712 95.5505 179.081 95.9502 178.742 96.4207C178.4 96.8714 178.275 97.4336 178.368 98.1073C178.468 98.8404 178.942 99.3507 179.789 99.6381C180.656 99.9227 182.287 100.042 184.683 99.9952C187.096 99.9261 190.827 99.676 195.875 99.2449C200.247 98.8864 203.752 99.5657 206.391 101.283C209.049 102.997 210.655 105.875 211.211 109.917ZM258.158 103.467C258.828 108.341 257.413 112.3 253.915 115.345C250.434 118.367 244.83 120.408 237.102 121.47C232.288 122.132 228.161 122.143 224.722 121.506C221.283 120.868 218.636 119.748 216.781 118.145C214.923 116.523 213.841 114.602 213.536 112.383C213.49 112.046 213.489 111.673 213.534 111.263L228.468 106.456C228.411 106.625 228.401 106.848 228.439 107.126C228.529 107.78 228.812 108.296 229.288 108.675C229.764 109.053 230.584 109.294 231.749 109.396C232.911 109.479 234.513 109.38 236.554 109.1C238.436 108.841 239.88 108.552 240.886 108.232C241.892 107.912 242.585 107.524 242.967 107.068C243.365 106.589 243.513 105.973 243.409 105.22C243.298 104.408 242.889 103.859 242.184 103.572C241.495 103.263 240.203 103.117 238.308 103.135C236.41 103.134 233.24 103.277 228.798 103.564C224.619 103.855 221.344 103.75 218.974 103.248C216.62 102.724 214.854 101.694 213.674 100.161C212.514 98.6243 211.729 96.3602 211.317 93.3683C210.863 90.0594 211.32 87.14 212.688 84.6102C214.076 82.0777 216.295 80.0064 219.344 78.3964C222.411 76.7638 226.193 75.6386 230.69 75.0206C236.753 74.1876 241.803 74.3519 245.838 75.5134C249.874 76.6749 252.447 78.9458 253.558 82.3261C253.733 82.8673 253.853 83.3756 253.919 83.8512L239.521 90.5835C239.548 90.3376 239.556 90.175 239.545 90.0957C239.387 88.9465 238.61 88.2155 237.215 87.9025C235.819 87.5895 233.893 87.6018 231.436 87.9394C229.791 88.1653 228.507 88.4427 227.583 88.7715C226.659 89.1003 226.028 89.5 225.689 89.9705C225.347 90.4213 225.222 90.9835 225.315 91.6571C225.416 92.3903 225.889 92.9005 226.736 93.1879C227.603 93.4726 229.235 93.5916 231.631 93.5451C234.044 93.476 237.774 93.2258 242.823 92.7947C247.195 92.4363 250.7 93.1155 253.338 94.8324C255.996 96.5466 257.603 99.4246 258.158 103.467ZM273.217 70.1166L279.342 114.698L263.887 116.821L257.762 72.2399L273.217 70.1166ZM320.521 96.8668L316.038 64.2334L329.145 62.4326L335.27 107.014L308.937 110.632L296.132 79.1416L294.467 79.3702L298.951 112.004L285.874 113.8L279.749 69.2192L306.022 65.6095L318.827 97.0995L320.521 96.8668ZM360.161 78.6417L384.175 75.3423L387.54 99.8322L373.215 101.8L373.818 92.9661L372.16 92.8003C371.722 95.3435 370.988 97.4228 369.958 99.038C368.929 100.653 367.556 101.902 365.84 102.783C364.124 103.665 361.958 104.286 359.343 104.645C355.4 105.187 351.848 104.827 348.687 103.565C345.545 102.301 342.932 100.107 340.848 96.9812C338.783 93.8531 337.413 89.8322 336.737 84.9184C335.964 79.2912 336.49 74.5252 338.316 70.6204C340.141 66.7156 342.787 63.7076 346.251 61.5963C349.716 59.4851 353.589 58.1354 357.868 57.5474C364.189 56.679 369.458 56.9745 373.676 58.434C377.914 59.8908 380.681 62.6195 381.978 66.6203C382.084 66.9489 382.178 67.269 382.261 67.5806L366.279 74.6821L366.226 74.2957C365.902 71.9379 363.808 71.0244 359.944 71.5552C357.329 71.9146 355.382 72.9492 354.103 74.6593C352.823 76.3693 352.449 79.1561 352.98 83.0198C353.489 86.725 354.631 89.3036 356.405 90.7557C358.196 92.1852 360.528 92.7026 363.401 92.3078C365.442 92.0274 367.104 91.4155 368.388 90.472C369.671 89.5285 370.222 88.393 370.04 87.0655L369.909 86.1144L361.824 87.4372L360.161 78.6417Z" fill="#004C4C"/>
<path d="M146.959 507.457C147.04 508.045 147.159 508.544 147.316 508.953C147.473 509.355 147.679 509.71 147.937 510.018L147.979 510.325L143.224 510.979C143.054 510.719 142.909 510.373 142.788 509.938C142.667 509.497 142.56 508.937 142.466 508.256C142.391 507.708 142.232 507.306 141.988 507.05C141.743 506.788 141.416 506.634 141.006 506.59C140.596 506.545 140.054 506.569 139.381 506.662L136.745 507.024L137.399 511.779L133 512.383L130.958 497.523L138.606 496.472C140.694 496.185 142.387 496.336 143.685 496.925C144.983 497.507 145.737 498.558 145.945 500.077C146.042 500.777 146.016 501.376 145.869 501.874C145.728 502.364 145.426 502.789 144.964 503.149C144.502 503.508 143.844 503.807 142.988 504.046L143.06 504.571C144.272 504.526 145.194 504.769 145.825 505.302C146.456 505.827 146.834 506.546 146.959 507.457ZM135.861 500.584L136.307 503.834L138.863 503.482C139.781 503.356 140.464 503.138 140.913 502.827C141.361 502.51 141.545 502.061 141.465 501.48C141.403 501.031 141.263 500.7 141.046 500.487C140.835 500.274 140.562 500.15 140.227 500.115C139.892 500.074 139.473 500.088 138.971 500.157L135.861 500.584ZM165.71 507.889L152.395 509.719L150.353 494.858L163.639 493.033L164.127 496.589L155.241 497.81L155.595 500.386L163.609 499.285L163.967 501.891L155.953 502.992L156.307 505.568L165.223 504.342L165.71 507.889ZM186.606 501.304L187.225 489.792L191.683 489.18L190.466 504.488L183.759 505.409L180.511 495.287L179.837 495.38L179.42 506.006L172.752 506.922L167.392 492.517L171.87 491.902L175.6 502.816L176.254 502.726L176.774 491.228L182.351 490.462L185.972 501.391L186.606 501.304ZM212.498 501.461L207.703 502.12L206.81 499.961L201.055 500.752L200.778 503.071L196.102 503.714L198.3 488.271L206.226 487.182L212.498 501.461ZM202.305 490.385L201.474 497.262L205.466 496.714L202.81 490.316L202.305 490.385ZM230.538 495.974C230.619 496.562 230.738 497.061 230.895 497.47C231.051 497.872 231.258 498.227 231.516 498.535L231.558 498.842L226.803 499.496C226.633 499.236 226.487 498.889 226.367 498.455C226.246 498.014 226.139 497.454 226.045 496.773C225.97 496.225 225.81 495.823 225.567 495.567C225.322 495.305 224.995 495.151 224.585 495.107C224.175 495.062 223.633 495.086 222.959 495.178L220.324 495.541L220.978 500.296L216.579 500.9L214.537 486.04L222.185 484.989C224.272 484.702 225.965 484.853 227.264 485.442C228.562 486.024 229.316 487.075 229.524 488.594C229.62 489.294 229.595 489.893 229.448 490.391C229.307 490.881 229.005 491.306 228.543 491.666C228.081 492.025 227.423 492.324 226.567 492.563L226.639 493.088C227.851 493.043 228.773 493.286 229.404 493.819C230.035 494.344 230.413 495.063 230.538 495.974ZM219.44 489.101L219.886 492.351L222.442 491.999C223.36 491.873 224.043 491.655 224.492 491.344C224.94 491.027 225.123 490.578 225.044 489.997C224.982 489.547 224.842 489.217 224.625 489.004C224.414 488.791 224.141 488.667 223.806 488.632C223.471 488.591 223.052 488.605 222.55 488.674L219.44 489.101ZM239.371 482.628C241.65 482.315 243.506 482.332 244.94 482.68C246.373 483.022 247.47 483.702 248.229 484.722C248.987 485.735 249.488 487.126 249.731 488.896C249.954 490.521 249.768 491.933 249.172 493.132C248.583 494.33 247.691 495.28 246.495 495.982C245.3 496.685 243.913 497.145 242.334 497.362L235.974 498.235L233.932 483.375L239.371 482.628ZM241.844 493.573C242.604 493.469 243.237 493.281 243.745 493.009C244.259 492.737 244.64 492.321 244.886 491.762C245.131 491.197 245.191 490.455 245.065 489.537C244.936 488.599 244.679 487.878 244.293 487.372C243.906 486.86 243.393 486.53 242.754 486.382C242.12 486.227 241.331 486.214 240.387 486.344L238.851 486.555L239.853 493.847L241.844 493.573ZM268.648 492.707C266.786 492.963 265.338 492.707 264.304 491.941C263.27 491.174 262.623 489.85 262.365 487.968C262.203 486.792 262.309 485.772 262.681 484.906C263.06 484.04 263.619 483.361 264.359 482.869C265.098 482.37 265.933 482.057 266.865 481.929C268.721 481.674 270.166 481.933 271.201 482.706C272.235 483.473 272.882 484.807 273.144 486.709C273.304 487.878 273.198 488.892 272.825 489.751C272.452 490.609 271.895 491.285 271.155 491.777C270.415 492.269 269.58 492.579 268.648 492.707ZM300.71 484.749C301.056 487.265 299.434 488.955 295.845 489.818L296.054 491.344L294.757 491.522L294.559 490.085C294.402 490.114 294.158 490.151 293.827 490.196C293.59 490.229 293.411 490.25 293.291 490.26L293.488 491.696L292.191 491.874L291.982 490.359C290.817 490.398 289.815 490.303 288.976 490.075C288.144 489.846 287.496 489.515 287.032 489.081C286.568 488.64 286.295 488.125 286.215 487.538C286.192 487.372 286.181 487.172 286.183 486.936L290.476 485.569C290.439 485.736 290.431 485.898 290.453 486.057C290.508 486.46 290.778 486.736 291.263 486.884C291.747 487.026 292.566 487.018 293.722 486.859C294.436 486.761 294.999 486.647 295.411 486.516C295.823 486.379 296.113 486.215 296.282 486.023C296.457 485.824 296.525 485.583 296.486 485.299C296.442 484.982 296.29 484.76 296.031 484.634C295.777 484.501 295.309 484.427 294.628 484.413C293.946 484.399 292.843 484.43 291.319 484.504C289.931 484.588 288.844 484.535 288.058 484.347C287.27 484.152 286.683 483.796 286.296 483.277C285.914 482.751 285.656 481.999 285.521 481.021C285.352 479.786 285.643 478.727 286.397 477.843C287.157 476.958 288.318 476.3 289.881 475.87L289.67 474.334L290.968 474.156L291.164 475.583C291.288 475.559 291.479 475.529 291.737 475.494C292.047 475.451 292.279 475.423 292.432 475.408L292.236 473.982L293.533 473.804L293.742 475.319C295.229 475.27 296.438 475.45 297.369 475.861C298.299 476.264 298.891 476.92 299.143 477.827C299.195 478.056 299.231 478.27 299.252 478.469L295.126 480.398C295.149 480.227 295.153 480.082 295.137 479.963C295.069 479.467 294.756 479.15 294.199 479.011C293.648 478.872 292.897 478.867 291.946 478.998C291.034 479.123 290.39 479.309 290.014 479.556C289.637 479.803 289.477 480.128 289.532 480.531C289.573 480.828 289.72 481.043 289.974 481.177C290.228 481.31 290.689 481.388 291.359 481.41C292.028 481.433 293.047 481.407 294.417 481.333C295.742 481.232 296.845 481.279 297.727 481.474C298.608 481.669 299.294 482.036 299.785 482.574C300.276 483.106 300.584 483.831 300.71 484.749ZM313.121 487.959C311.384 488.198 309.916 488.117 308.717 487.716C307.524 487.308 306.574 486.564 305.867 485.484C305.165 484.396 304.687 482.944 304.43 481.128C304.205 479.484 304.343 478.045 304.847 476.812C305.349 475.572 306.12 474.591 307.158 473.87C308.202 473.141 309.414 472.682 310.794 472.492C312.564 472.249 314.049 472.331 315.249 472.738C316.449 473.145 317.4 473.893 318.101 474.981C318.801 476.062 319.276 477.511 319.526 479.327C319.751 480.965 319.622 482.399 319.138 483.63C318.654 484.861 317.89 485.84 316.847 486.569C315.803 487.298 314.561 487.761 313.121 487.959ZM312.631 484.1C313.212 484.02 313.694 483.85 314.075 483.589C314.462 483.32 314.737 482.895 314.899 482.315C315.068 481.726 315.084 480.94 314.949 479.956C314.753 478.529 314.331 477.544 313.685 477C313.044 476.449 312.254 476.238 311.316 476.367C310.748 476.445 310.274 476.618 309.894 476.885C309.513 477.153 309.239 477.581 309.071 478.169C308.902 478.751 308.884 479.527 309.017 480.498C309.222 481.937 309.641 482.929 310.274 483.475C310.914 484.02 311.7 484.228 312.631 484.1ZM326.175 486.226C325.62 486.302 325.175 486.3 324.841 486.218C324.508 486.142 324.249 485.976 324.066 485.719C323.889 485.46 323.768 485.09 323.701 484.608C323.636 484.132 323.654 483.75 323.756 483.46C323.863 483.162 324.067 482.933 324.367 482.77C324.667 482.601 325.095 482.478 325.649 482.402C326.211 482.325 326.659 482.327 326.993 482.409C327.333 482.484 327.591 482.647 327.767 482.899C327.949 483.149 328.073 483.516 328.14 483.998C328.207 484.487 328.187 484.88 328.08 485.177C327.978 485.467 327.774 485.694 327.466 485.857C327.167 486.026 326.736 486.149 326.175 486.226ZM339.47 484.339C337.733 484.578 336.265 484.497 335.066 484.096C333.872 483.688 332.922 482.944 332.215 481.863C331.514 480.775 331.035 479.324 330.779 477.508C330.553 475.864 330.692 474.425 331.195 473.192C331.698 471.952 332.468 470.971 333.506 470.25C334.55 469.521 335.762 469.061 337.143 468.872C338.913 468.629 340.398 468.711 341.598 469.118C342.798 469.525 343.748 470.272 344.449 471.36C345.15 472.442 345.625 473.891 345.874 475.707C346.099 477.345 345.97 478.779 345.486 480.01C345.003 481.24 344.239 482.22 343.195 482.949C342.151 483.678 340.909 484.141 339.47 484.339ZM338.98 480.48C339.561 480.4 340.042 480.23 340.424 479.969C340.811 479.7 341.085 479.275 341.248 478.694C341.416 478.106 341.433 477.32 341.297 476.336C341.101 474.909 340.68 473.924 340.033 473.38C339.392 472.829 338.603 472.618 337.665 472.747C337.097 472.825 336.623 472.998 336.242 473.265C335.862 473.533 335.588 473.961 335.419 474.549C335.25 475.131 335.233 475.907 335.366 476.878C335.57 478.317 335.989 479.309 336.623 479.855C337.263 480.399 338.049 480.608 338.98 480.48ZM358.575 481.714C356.838 481.953 355.37 481.872 354.171 481.471C352.977 481.063 352.027 480.319 351.32 479.239C350.619 478.151 350.14 476.699 349.884 474.884C349.658 473.239 349.797 471.8 350.3 470.567C350.803 469.327 351.573 468.346 352.611 467.625C353.655 466.896 354.867 466.437 356.248 466.247C358.018 466.004 359.503 466.086 360.703 466.493C361.902 466.9 362.853 467.648 363.554 468.736C364.255 469.817 364.73 471.266 364.979 473.082C365.204 474.72 365.075 476.154 364.591 477.385C364.108 478.616 363.344 479.595 362.3 480.324C361.256 481.053 360.014 481.516 358.575 481.714ZM358.085 477.855C358.666 477.775 359.147 477.605 359.529 477.344C359.916 477.075 360.19 476.65 360.353 476.07C360.521 475.481 360.537 474.695 360.402 473.711C360.206 472.284 359.785 471.299 359.138 470.756C358.497 470.204 357.708 469.993 356.77 470.122C356.202 470.2 355.728 470.373 355.347 470.64C354.967 470.908 354.692 471.336 354.524 471.924C354.355 472.506 354.337 473.282 354.471 474.253C354.675 475.692 355.094 476.684 355.728 477.23C356.368 477.775 357.153 477.983 358.085 477.855ZM377.679 479.089C375.942 479.328 374.474 479.247 373.275 478.847C372.082 478.438 371.132 477.694 370.425 476.614C369.724 475.526 369.245 474.074 368.989 472.259C368.763 470.614 368.902 469.175 369.405 467.942C369.908 466.702 370.678 465.721 371.716 465C372.76 464.271 373.972 463.812 375.353 463.622C377.123 463.379 378.608 463.461 379.807 463.868C381.007 464.275 381.958 465.023 382.659 466.111C383.36 467.192 383.835 468.641 384.084 470.457C384.309 472.095 384.18 473.529 383.696 474.76C383.213 475.991 382.449 476.97 381.405 477.699C380.361 478.428 379.119 478.892 377.679 479.089ZM377.19 475.23C377.771 475.15 378.252 474.98 378.633 474.719C379.021 474.45 379.295 474.026 379.458 473.445C379.626 472.856 379.642 472.07 379.507 471.086C379.311 469.66 378.89 468.674 378.243 468.131C377.602 467.579 376.813 467.368 375.875 467.497C375.307 467.575 374.833 467.748 374.452 468.016C374.072 468.283 373.797 468.711 373.629 469.3C373.46 469.881 373.442 470.658 373.576 471.628C373.78 473.067 374.199 474.06 374.833 474.605C375.473 475.15 376.258 475.358 377.19 475.23ZM396.784 476.464C395.047 476.703 393.579 476.622 392.38 476.222C391.187 475.814 390.237 475.069 389.53 473.989C388.829 472.901 388.35 471.449 388.094 469.634C387.868 467.989 388.007 466.55 388.51 465.317C389.013 464.077 389.783 463.096 390.821 462.375C391.865 461.646 393.077 461.187 394.457 460.997C396.227 460.754 397.712 460.836 398.912 461.243C400.112 461.65 401.063 462.398 401.764 463.486C402.465 464.567 402.94 466.016 403.189 467.832C403.414 469.47 403.285 470.905 402.801 472.135C402.317 473.366 401.554 474.346 400.51 475.074C399.466 475.803 398.224 476.267 396.784 476.464ZM396.295 472.605C396.876 472.525 397.357 472.355 397.738 472.094C398.125 471.825 398.4 471.401 398.563 470.82C398.731 470.232 398.747 469.445 398.612 468.461C398.416 467.035 397.995 466.049 397.348 465.506C396.707 464.955 395.918 464.743 394.98 464.872C394.412 464.95 393.938 465.123 393.557 465.391C393.177 465.658 392.902 466.086 392.734 466.675C392.565 467.256 392.547 468.033 392.681 469.004C392.885 470.443 393.304 471.435 393.938 471.98C394.578 472.525 395.363 472.733 396.295 472.605ZM415.889 473.84C414.152 474.078 412.684 473.997 411.485 473.597C410.292 473.189 409.342 472.445 408.635 471.364C407.934 470.276 407.455 468.824 407.199 467.009C406.973 465.364 407.111 463.925 407.615 462.692C408.118 461.452 408.888 460.472 409.926 459.75C410.97 459.021 412.182 458.562 413.562 458.372C415.332 458.129 416.817 458.211 418.017 458.618C419.217 459.025 420.168 459.773 420.869 460.861C421.569 461.942 422.044 463.391 422.294 465.208C422.519 466.845 422.39 468.28 421.906 469.51C421.422 470.741 420.659 471.721 419.615 472.45C418.571 473.178 417.329 473.642 415.889 473.84ZM415.399 469.98C415.981 469.901 416.462 469.73 416.843 469.469C417.23 469.201 417.505 468.776 417.668 468.195C417.836 467.607 417.852 466.82 417.717 465.836C417.521 464.41 417.1 463.425 416.453 462.881C415.812 462.33 415.022 462.119 414.085 462.247C413.517 462.325 413.042 462.498 412.662 462.766C412.282 463.033 412.007 463.461 411.839 464.05C411.67 464.632 411.652 465.408 411.786 466.379C411.99 467.818 412.409 468.81 413.042 469.355C413.683 469.9 414.468 470.108 415.399 469.98ZM435.07 470.881L430.661 471.487L429.542 463.344L429.63 459.133L429.092 459.115C429.019 460.148 428.886 460.941 428.692 461.492C428.504 462.036 428.205 462.451 427.793 462.736C427.387 463.014 426.788 463.231 425.995 463.387L425.385 458.949C426.105 458.85 426.683 458.723 427.12 458.569C427.555 458.408 427.897 458.176 428.144 457.873C428.392 457.57 428.54 457.156 428.59 456.631L433.028 456.021L435.07 470.881Z" fill="#D57F1D"/>
<path d="M174.094 406.654L175.471 416.679L165.598 418.036L168.712 440.703L157.379 442.26L154.265 419.593L144.413 420.947L143.036 410.921L174.094 406.654ZM199.423 408.659C202.503 408.235 205.013 409.045 206.952 411.088C208.889 413.117 210.197 416.609 210.878 421.564L212.678 434.662L201.475 436.202L199.762 423.735C199.507 421.875 199.016 420.565 198.29 419.807C197.576 419.031 196.631 418.724 195.454 418.886C194.64 418.998 193.938 419.324 193.346 419.864C192.768 420.402 192.353 421.096 192.099 421.945C191.86 422.792 191.809 423.71 191.944 424.698L193.672 437.274L182.491 438.81L177.91 405.463L189.091 403.927L189.779 408.94L189.988 418.86L191.116 418.993C191.22 416.625 191.575 414.733 192.18 413.318C192.799 411.9 193.69 410.838 194.851 410.131C196.01 409.409 197.534 408.918 199.423 408.659ZM219.232 407.825C217.502 408.062 216.138 408.102 215.14 407.943C214.139 407.769 213.381 407.37 212.865 406.745C212.348 406.106 212.005 405.168 211.835 403.933C211.665 402.698 211.744 401.71 212.072 400.969C212.397 400.214 213.019 399.618 213.936 399.181C214.867 398.742 216.19 398.405 217.905 398.169C219.605 397.936 220.956 397.906 221.956 398.079C222.957 398.252 223.716 398.659 224.234 399.298C224.749 399.923 225.091 400.854 225.261 402.089C225.431 403.324 225.353 404.319 225.027 405.074C224.7 405.815 224.077 406.404 223.16 406.841C222.256 407.261 220.946 407.589 219.232 407.825ZM213.901 410.889C214.493 411.103 215.282 411.239 216.267 411.297C217.249 411.339 218.388 411.272 219.681 411.094C222.151 410.755 223.959 410.173 225.104 409.35L228.29 432.54L217.087 434.079L213.901 410.889ZM257.394 419.836C257.811 422.873 257.008 425.322 254.984 427.184C252.958 429.032 249.707 430.263 245.232 430.878C240.408 431.541 236.894 431.291 234.691 430.128C232.503 428.963 231.305 427.196 231.098 424.826L240.706 421.862C240.706 421.966 240.716 422.098 240.738 422.258C240.786 422.606 240.918 422.862 241.133 423.025C241.362 423.186 241.752 423.28 242.304 423.308C242.854 423.322 243.659 423.255 244.719 423.11C245.795 422.962 246.537 422.764 246.947 422.515C247.372 422.264 247.546 421.863 247.47 421.311C247.406 420.846 247.146 420.511 246.688 420.308C246.231 420.104 245.527 419.993 244.578 419.976C243.628 419.958 242.242 420.001 240.42 420.103C237.857 420.307 235.823 420.261 234.316 419.964C232.825 419.666 231.68 419.039 230.882 418.082C230.097 417.109 229.578 415.7 229.324 413.855C229.041 411.792 229.385 409.983 230.355 408.428C231.326 406.874 232.732 405.629 234.573 404.695C236.411 403.747 238.486 403.114 240.796 402.797C249.18 401.645 253.967 403.356 255.158 407.93L245.344 412.143L245.32 411.968C245.204 411.333 244.828 410.918 244.195 410.724C243.574 410.513 242.711 410.484 241.606 410.635C239.587 410.913 238.642 411.524 238.772 412.468C238.837 412.948 239.053 413.281 239.42 413.467C239.8 413.652 240.333 413.756 241.017 413.781C241.702 413.805 242.861 413.786 244.496 413.725L245.909 413.664C248.556 413.537 250.675 413.66 252.266 414.034C253.857 414.408 255.051 415.065 255.846 416.007C256.654 416.932 257.17 418.209 257.394 419.836ZM286.6 391.196C289.607 390.783 292.324 390.891 294.749 391.52C297.175 392.149 299.17 393.363 300.735 395.161C302.312 396.943 303.303 399.309 303.709 402.258C304.325 406.748 303.377 410.246 300.865 412.753C298.364 415.243 294.259 416.881 288.548 417.665L284.189 418.264L285.076 424.716L273.742 426.273L269.251 393.58L286.6 391.196ZM287.625 408.354C289.281 408.127 290.477 407.674 291.213 406.995C291.961 406.3 292.24 405.255 292.048 403.86C291.906 402.829 291.644 402.051 291.261 401.526C290.878 401.001 290.381 400.67 289.77 400.532C289.173 400.391 288.439 400.381 287.567 400.501L281.857 401.286L282.917 409.001L287.625 408.354ZM319.036 392.047C323.889 391.38 327.595 391.9 330.154 393.606C332.712 395.313 334.28 398.265 334.857 402.465L336.935 417.591L326.256 419.058L325.95 412.793L324.877 412.741C324.664 415.287 323.806 417.233 322.304 418.579C320.815 419.924 318.945 420.751 316.693 421.06C311.651 421.753 308.858 420.116 308.313 416.149C308.051 414.246 308.453 412.702 309.52 411.52C310.586 410.337 312.228 409.408 314.444 408.733C317.089 407.941 319.045 407.309 320.313 406.839C321.593 406.352 322.491 405.881 323.006 405.425C323.533 404.953 323.753 404.397 323.665 403.758L323.662 403.736C323.524 402.734 323.159 402.066 322.565 401.733C321.986 401.398 321.203 401.298 320.215 401.434C319.081 401.59 318.2 401.963 317.57 402.552C316.941 403.142 316.683 403.851 316.796 404.68C316.872 405.232 317.02 405.663 317.241 405.973L305.898 405.688C305.752 405.057 305.663 404.625 305.631 404.393C305.374 402.518 305.654 400.733 306.472 399.036C307.305 397.338 308.761 395.865 310.839 394.617C312.933 393.367 315.665 392.51 319.036 392.047ZM320.117 413.173C320.887 413.067 321.632 412.831 322.352 412.466C323.07 412.086 323.826 411.501 324.62 410.711L324.147 407.267L323.983 407.201C323.312 407.708 322.171 408.294 320.56 408.959C319.747 409.293 319.124 409.608 318.691 409.904C318.273 410.199 317.988 410.497 317.837 410.799C317.701 411.099 317.66 411.452 317.716 411.859C317.864 412.934 318.664 413.372 320.117 413.173ZM366.518 403.044C367.493 403.784 368.312 404.73 368.974 405.883C369.65 407.033 370.078 408.263 370.257 409.57C370.541 411.634 370.084 413.428 368.888 414.955C367.691 416.481 365.937 417.722 363.625 418.676C361.328 419.628 358.632 420.317 355.537 420.742C352.399 421.173 349.65 421.21 347.291 420.853C344.947 420.494 343.083 419.744 341.697 418.602C340.326 417.458 339.504 415.95 339.232 414.077C339.158 413.54 339.132 412.914 339.152 412.201L346.707 409.653L346.57 408.65L342.754 408.841L342.314 405.637L345.943 404.894L345.772 403.652C343.326 403.736 341.415 403.244 340.04 402.174C338.678 401.103 337.862 399.579 337.591 397.603C337.343 395.802 337.632 394.244 338.459 392.932C339.283 391.604 340.506 390.541 342.129 389.74C343.765 388.938 345.695 388.384 347.918 388.079C349.938 387.801 351.572 387.843 352.821 388.205C354.082 388.55 355.041 389.225 355.698 390.23C356.354 391.235 356.804 392.624 357.047 394.397C357.151 395.153 357.221 395.987 357.258 396.9L358.375 396.791C358.397 394.256 358.571 392.285 358.896 390.879C359.233 389.456 359.791 388.402 360.571 387.717C361.348 387.018 362.456 386.57 363.895 386.372C364.679 386.265 365.657 386.212 366.826 386.214L368.36 397.373L367.946 397.43C366.812 397.586 365.616 397.987 364.358 398.633C363.098 399.266 361.716 400.092 360.213 401.113C359.182 401.802 358.055 402.379 356.831 402.843C355.607 403.307 354.097 403.744 352.303 404.154L352.495 405.549L366.518 403.044ZM349.672 394.056C347.841 394.307 347.021 395.123 347.21 396.504C347.338 397.434 347.725 398.039 348.371 398.321C349.016 398.602 349.84 398.674 350.843 398.536C351.758 398.41 352.408 398.181 352.791 397.847C353.189 397.511 353.332 396.936 353.22 396.122C352.991 394.451 351.808 393.762 349.672 394.056ZM354.993 412.578C356.606 412.356 357.675 412.061 358.202 411.693C358.727 411.31 358.951 410.842 358.876 410.29C358.808 409.796 358.555 409.409 358.116 409.129C357.676 408.834 356.837 408.653 355.599 408.586C354.359 408.505 352.578 408.579 350.256 408.81C350.159 409.504 350.16 410.052 350.259 410.452C350.392 411.308 350.861 411.924 351.668 412.302C352.49 412.678 353.598 412.77 354.993 412.578ZM401.187 398.215C401.284 398.601 401.358 398.976 401.408 399.339C401.671 401.257 401.361 403.039 400.477 404.686C399.605 406.315 398.11 407.713 395.99 408.877C393.868 410.028 391.143 410.831 387.816 411.288C382.73 411.987 378.786 411.352 375.984 409.383C373.18 407.4 371.442 403.96 370.769 399.063C370.362 396.099 370.676 393.48 371.71 391.206C372.745 388.932 374.244 387.127 376.207 385.791C378.185 384.453 380.336 383.625 382.661 383.306C386.831 382.733 390.273 383.163 392.987 384.596C395.713 386.013 397.463 388.57 398.238 392.269L382.532 400.311C382.928 401.249 383.458 401.872 384.122 402.18C384.798 402.472 385.631 402.55 386.619 402.415C387.883 402.241 388.787 401.873 389.332 401.309C389.888 400.729 390.108 400.011 389.99 399.153C389.974 399.037 389.918 398.897 389.821 398.733L401.187 398.215ZM384.145 391.518C383.157 391.654 382.451 392.173 382.027 393.075C381.603 393.977 381.534 395.467 381.819 397.545L381.87 397.915L387.414 395.11C387.284 393.84 386.91 392.9 386.294 392.289C385.689 391.661 384.973 391.404 384.145 391.518Z" fill="#004C4C"/>
<path d="M109.092 399.531L427.097 354.838L425.984 346.916L107.979 391.609L109.092 399.531ZM436.255 419.998L118.25 464.691L119.363 472.613L437.368 427.92L436.255 419.998Z" fill="#004C4C" fill-opacity="0.2" mask="url(#path-7-inside-1_2484_16628)"/>
<circle cx="100.646" cy="195.723" r="5" transform="rotate(-8 100.646 195.723)" fill="#D47F1D"/>
<circle cx="116.49" cy="193.496" r="5" transform="rotate(-8 116.49 193.496)" fill="#D47F1D"/>
<circle cx="132.334" cy="191.27" r="5" transform="rotate(-8 132.334 191.27)" fill="#D47F1D"/>
<path opacity="0.5" fill-rule="evenodd" clip-rule="evenodd" d="M91.5045 184.534C92.4409 183.982 93.5015 183.599 94.6553 183.437L100.653 182.594C102.294 182.364 103.437 180.847 103.206 179.206C102.976 177.565 101.459 176.422 99.818 176.653L93.8202 177.496C91.8718 177.77 90.0611 178.42 88.4572 179.366C87.0299 180.207 86.5551 182.046 87.3965 183.474C88.238 184.901 90.0772 185.376 91.5045 184.534ZM111.814 174.967C110.173 175.197 109.03 176.714 109.26 178.355C109.491 179.996 111.008 181.139 112.649 180.908L124.644 179.223C126.285 178.992 127.428 177.475 127.197 175.834C126.967 174.194 125.45 173.05 123.809 173.281L111.814 174.967ZM135.805 171.595C134.164 171.826 133.021 173.343 133.251 174.983C133.482 176.624 134.999 177.767 136.64 177.537L148.635 175.851C150.276 175.62 151.419 174.103 151.189 172.463C150.958 170.822 149.441 169.679 147.8 169.909L135.805 171.595ZM159.796 168.223C158.155 168.454 157.012 169.971 157.243 171.612C157.473 173.252 158.99 174.396 160.631 174.165L172.627 172.479C174.267 172.249 175.41 170.732 175.18 169.091C174.949 167.45 173.432 166.307 171.791 166.538L159.796 168.223ZM183.787 164.852C182.146 165.082 181.003 166.599 181.234 168.24C181.464 169.881 182.981 171.024 184.622 170.793L196.618 169.107C198.258 168.877 199.402 167.36 199.171 165.719C198.94 164.078 197.423 162.935 195.783 163.166L183.787 164.852ZM207.778 161.48C206.138 161.711 204.994 163.228 205.225 164.868C205.456 166.509 206.973 167.652 208.613 167.422L220.609 165.736C222.25 165.505 223.393 163.988 223.162 162.347C222.932 160.707 221.415 159.563 219.774 159.794L207.778 161.48ZM231.769 158.108C230.129 158.339 228.986 159.856 229.216 161.496C229.447 163.137 230.964 164.28 232.604 164.05L244.6 162.364C246.241 162.133 247.384 160.616 247.153 158.976C246.923 157.335 245.406 156.192 243.765 156.422L231.769 158.108ZM255.761 154.736C254.12 154.967 252.977 156.484 253.207 158.125C253.438 159.765 254.955 160.909 256.596 160.678L268.591 158.992C270.232 158.762 271.375 157.245 271.144 155.604C270.914 153.963 269.397 152.82 267.756 153.051L255.761 154.736ZM279.752 151.365C278.111 151.595 276.968 153.112 277.198 154.753C277.429 156.394 278.946 157.537 280.587 157.306L292.582 155.62C294.223 155.39 295.366 153.873 295.136 152.232C294.905 150.591 293.388 149.448 291.747 149.679L279.752 151.365ZM303.743 147.993C302.102 148.224 300.959 149.741 301.19 151.381C301.42 153.022 302.937 154.165 304.578 153.935L316.573 152.249C318.214 152.018 319.357 150.501 319.127 148.86C318.896 147.22 317.379 146.077 315.738 146.307L303.743 147.993ZM327.734 144.621C326.093 144.852 324.95 146.369 325.181 148.01C325.411 149.65 326.928 150.793 328.569 150.563L340.565 148.877C342.205 148.646 343.349 147.129 343.118 145.489C342.887 143.848 341.37 142.705 339.73 142.935L327.734 144.621ZM351.725 141.249C350.084 141.48 348.941 142.997 349.172 144.638C349.402 146.279 350.919 147.422 352.56 147.191L364.556 145.505C366.197 145.275 367.34 143.758 367.109 142.117C366.878 140.476 365.361 139.333 363.721 139.564L351.725 141.249ZM375.716 137.878C374.076 138.108 372.932 139.625 373.163 141.266C373.394 142.907 374.911 144.05 376.551 143.819L382.549 142.976C383.703 142.814 384.828 142.89 385.88 143.162C387.484 143.578 389.121 142.614 389.537 141.011C389.952 139.407 388.989 137.77 387.385 137.354C385.582 136.887 383.663 136.761 381.714 137.035L375.716 137.878ZM396.28 144.057C395.438 142.63 393.599 142.155 392.172 142.996C390.745 143.838 390.27 145.677 391.111 147.104C391.663 148.041 392.046 149.101 392.208 150.255L393.112 156.69C393.343 158.33 394.86 159.474 396.501 159.243C398.141 159.012 399.285 157.495 399.054 155.855L398.15 149.42C397.876 147.471 397.225 145.661 396.28 144.057ZM87.5627 189.765C87.9782 188.161 87.0148 186.524 85.4109 186.109C83.807 185.693 82.1699 186.657 81.7544 188.26C81.2875 190.063 81.1613 191.983 81.4351 193.931L82.3395 200.366C82.5701 202.007 84.0871 203.15 85.7278 202.919C87.3685 202.689 88.5117 201.172 88.2811 199.531L87.3768 193.096C87.2146 191.942 87.2901 190.817 87.5627 189.765ZM400.532 167.714C399.953 166.643 398.751 165.991 397.474 166.171C395.834 166.401 394.691 167.918 394.921 169.559L396.73 182.428C396.96 184.069 398.477 185.212 400.118 184.982C401.759 184.751 402.902 183.234 402.671 181.593L400.863 168.724C400.836 168.533 400.792 168.349 400.732 168.173L400.665 167.696L400.532 167.714ZM89.7587 211.391C89.1796 210.32 87.978 209.668 86.7015 209.847C85.0607 210.078 83.9176 211.595 84.1482 213.235L85.9569 226.105C86.1874 227.746 87.7044 228.889 89.3452 228.658C90.9859 228.427 92.129 226.91 91.8985 225.27L90.5009 215.326L91.2366 215.222L90.6799 211.261L89.7587 211.391ZM404.48 194.463C404.249 192.822 402.733 191.679 401.092 191.91C399.451 192.14 398.308 193.657 398.538 195.298L400.347 208.167C400.578 209.808 402.095 210.951 403.735 210.721C405.376 210.49 406.519 208.973 406.289 207.332L404.48 194.463ZM93.7071 238.139C93.4766 236.498 91.9595 235.355 90.3188 235.586C88.6781 235.816 87.5349 237.333 87.7655 238.974L89.5742 251.844C89.8048 253.484 91.3218 254.628 92.9625 254.397C94.6033 254.166 95.7464 252.649 95.5158 251.009L93.7071 238.139ZM97.3245 263.878C97.0939 262.237 95.5769 261.094 93.9362 261.325C92.2954 261.555 91.1523 263.072 91.3829 264.713L93.1916 277.583C93.4222 279.223 94.9392 280.366 96.5799 280.136C98.2206 279.905 99.3638 278.388 99.1332 276.747L97.3245 263.878ZM408.097 220.202C407.867 218.561 406.35 217.418 404.709 217.648C403.068 217.879 401.925 219.396 402.156 221.037L403.965 233.906C404.195 235.547 405.712 236.69 407.353 236.46C408.994 236.229 410.137 234.712 409.906 233.071L408.097 220.202ZM411.715 245.941C411.484 244.3 409.967 243.157 408.326 243.387C406.686 243.618 405.543 245.135 405.773 246.776L407.582 259.645C407.812 261.286 409.329 262.429 410.97 262.198C412.611 261.968 413.754 260.451 413.523 258.81L411.715 245.941ZM100.942 289.617C100.711 287.976 99.1943 286.833 97.5535 287.064C95.9128 287.294 94.7697 288.811 95.0003 290.452L96.8089 303.321C97.0395 304.962 98.5565 306.105 100.197 305.875C101.838 305.644 102.981 304.127 102.751 302.486L100.942 289.617ZM415.332 271.679C415.102 270.039 413.585 268.896 411.944 269.126C410.303 269.357 409.16 270.874 409.391 272.515L411.199 285.384C411.43 287.025 412.947 288.168 414.588 287.937C416.228 287.707 417.371 286.19 417.141 284.549L415.332 271.679ZM104.559 315.356C104.329 313.715 102.812 312.572 101.171 312.802C99.5302 313.033 98.387 314.55 98.6176 316.191L100.426 329.06C100.657 330.701 102.174 331.844 103.815 331.614C105.455 331.383 106.598 329.866 106.368 328.225L104.559 315.356ZM418.95 297.418C418.719 295.778 417.202 294.634 415.561 294.865C413.92 295.096 412.777 296.613 413.008 298.253L413.912 304.688C414.074 305.842 413.999 306.967 413.726 308.019C413.311 309.623 414.274 311.26 415.878 311.676C417.482 312.091 419.119 311.128 419.535 309.524C420.002 307.721 420.128 305.801 419.854 303.853L418.95 297.418ZM108.177 341.095C107.946 339.454 106.429 338.311 104.788 338.541C103.148 338.772 102.004 340.289 102.235 341.93L103.139 348.364C103.413 350.313 104.064 352.123 105.009 353.727C105.851 355.155 107.69 355.63 109.117 354.788C110.544 353.947 111.019 352.107 110.178 350.68C109.626 349.744 109.243 348.683 109.081 347.529L108.177 341.095ZM115.409 354.622C113.805 354.206 112.168 355.17 111.752 356.774C111.337 358.378 112.3 360.015 113.904 360.43C115.707 360.897 117.626 361.023 119.575 360.749L125.573 359.907C127.213 359.676 128.357 358.159 128.126 356.518C127.895 354.877 126.378 353.734 124.738 353.965L118.74 354.808C117.586 354.97 116.461 354.894 115.409 354.622ZM412.832 318.419C414.259 317.577 414.734 315.738 413.892 314.311C413.051 312.883 411.212 312.409 409.785 313.25C408.848 313.802 407.788 314.185 406.634 314.347L400.636 315.19C398.995 315.421 397.852 316.938 398.083 318.578C398.313 320.219 399.83 321.362 401.471 321.132L407.469 320.289C409.417 320.015 411.228 319.364 412.832 318.419ZM136.733 352.279C135.093 352.51 133.949 354.027 134.18 355.667C134.411 357.308 135.928 358.451 137.568 358.221L149.564 356.535C151.205 356.304 152.348 354.787 152.117 353.146C151.887 351.506 150.37 350.363 148.729 350.593L136.733 352.279ZM160.724 348.907C159.084 349.138 157.941 350.655 158.171 352.296C158.402 353.936 159.919 355.079 161.559 354.849L173.555 353.163C175.196 352.932 176.339 351.415 176.108 349.775C175.878 348.134 174.361 346.991 172.72 347.221L160.724 348.907ZM184.716 345.536C183.075 345.766 181.932 347.283 182.162 348.924C182.393 350.565 183.91 351.708 185.551 351.477L197.546 349.791C199.187 349.561 200.33 348.044 200.099 346.403C199.869 344.762 198.352 343.619 196.711 343.85L184.716 345.536ZM208.707 342.164C207.066 342.394 205.923 343.911 206.153 345.552C206.384 347.193 207.901 348.336 209.542 348.105L221.537 346.42C223.178 346.189 224.321 344.672 224.091 343.031C223.86 341.39 222.343 340.247 220.702 340.478L208.707 342.164ZM232.698 338.792C231.057 339.023 229.914 340.54 230.145 342.18C230.375 343.821 231.892 344.964 233.533 344.734L245.528 343.048C247.169 342.817 248.312 341.3 248.082 339.66C247.851 338.019 246.334 336.876 244.693 337.106L232.698 338.792ZM256.689 335.42C255.048 335.651 253.905 337.168 254.136 338.809C254.366 340.449 255.883 341.593 257.524 341.362L269.52 339.676C271.16 339.445 272.303 337.928 272.073 336.288C271.842 334.647 270.325 333.504 268.685 333.734L256.689 335.42ZM280.68 332.049C279.039 332.279 277.896 333.796 278.127 335.437C278.357 337.078 279.874 338.221 281.515 337.99L293.511 336.304C295.152 336.074 296.295 334.557 296.064 332.916C295.833 331.275 294.316 330.132 292.676 330.363L280.68 332.049ZM304.671 328.677C303.031 328.907 301.887 330.424 302.118 332.065C302.349 333.706 303.866 334.849 305.506 334.618L317.502 332.933C319.143 332.702 320.286 331.185 320.055 329.544C319.825 327.904 318.308 326.76 316.667 326.991L304.671 328.677ZM328.663 325.305C327.022 325.536 325.879 327.053 326.109 328.693C326.34 330.334 327.857 331.477 329.498 331.247L341.493 329.561C343.134 329.33 344.277 327.813 344.046 326.173C343.816 324.532 342.299 323.389 340.658 323.619L328.663 325.305ZM352.654 321.933C351.013 322.164 349.87 323.681 350.1 325.322C350.331 326.962 351.848 328.106 353.489 327.875L365.484 326.189C367.125 325.959 368.268 324.442 368.038 322.801C367.807 321.16 366.29 320.017 364.649 320.248L352.654 321.933ZM376.645 318.562C375.004 318.792 373.861 320.309 374.092 321.95C374.322 323.591 375.839 324.734 377.48 324.503L389.475 322.817C391.116 322.587 392.259 321.07 392.029 319.429C391.798 317.788 390.281 316.645 388.64 316.876L376.645 318.562ZM101.077 213.839L110.918 212.456L110.361 208.495L100.521 209.878L101.077 213.839ZM120.759 211.073L130.6 209.69L130.043 205.729L120.202 207.112L120.759 211.073ZM140.441 208.307L150.281 206.924L149.725 202.963L139.884 204.346L140.441 208.307ZM160.122 205.541L169.963 204.158L169.406 200.197L159.565 201.58L160.122 205.541ZM179.804 202.775L189.645 201.392L189.088 197.431L179.247 198.814L179.804 202.775ZM199.485 200.009L209.326 198.626L208.769 194.665L198.929 196.048L199.485 200.009ZM219.167 197.243L229.008 195.86L228.451 191.899L218.61 193.282L219.167 197.243ZM238.848 194.477L248.689 193.094L248.133 189.133L238.292 190.516L238.848 194.477ZM258.53 191.711L268.371 190.328L267.814 186.367L257.973 187.75L258.53 191.711ZM278.212 188.945L288.052 187.562L287.496 183.601L277.655 184.984L278.212 188.945ZM297.893 186.179L307.734 184.796L307.177 180.835L297.336 182.218L297.893 186.179ZM317.575 183.413L327.416 182.03L326.859 178.069L317.018 179.452L317.575 183.413ZM337.256 180.647L347.097 179.264L346.54 175.302L336.7 176.686L337.256 180.647ZM356.938 177.881L366.779 176.497L366.222 172.536L356.381 173.919L356.938 177.881ZM376.619 175.114L386.46 173.731L385.904 169.77L376.063 171.153L376.619 175.114Z" fill="#D47F1D"/>
<rect x="115.837" y="231.962" width="122" height="95" rx="15" transform="rotate(-8 115.837 231.962)" fill="#D47F1D"/>
<rect x="253.484" y="212.617" width="122" height="11" rx="5.5" transform="rotate(-8 253.484 212.617)" fill="#D47F1D" fill-opacity="0.5"/>
<rect x="256.268" y="232.422" width="94" height="11" rx="5.5" transform="rotate(-8 256.268 232.422)" fill="#D47F1D" fill-opacity="0.5"/>
<rect x="263.922" y="286.887" width="63" height="20" rx="10" transform="rotate(-8 263.922 286.887)" fill="#D47F1D"/>
<path d="M160.446 261.96C159.958 258.488 160.435 255.448 161.876 252.838C163.318 250.229 165.523 248.125 168.493 246.528C171.485 244.927 175.031 243.839 179.13 243.263C182.838 242.742 186.339 242.84 189.634 243.557C192.929 244.273 195.701 245.701 197.95 247.839C200.2 249.977 201.574 252.817 202.071 256.357C202.497 259.389 202.35 261.852 201.63 263.747C200.93 265.615 199.936 267.065 198.648 268.095C197.361 269.126 195.464 270.336 192.959 271.727C191.599 272.413 190.536 273.035 189.769 273.591C189.021 274.121 188.441 274.757 188.029 275.499C187.636 276.215 187.5 277.084 187.62 278.105C187.656 278.36 187.792 278.825 188.028 279.5C187.456 279.273 186.673 279.135 185.68 279.086C184.709 279.034 183.557 279.101 182.221 279.289C179.642 279.652 177.777 280.256 176.628 281.102C176.13 279.732 175.813 278.561 175.676 277.589C175.406 275.669 175.521 274.06 176.02 272.762C176.518 271.465 177.291 270.365 178.339 269.463C179.409 268.557 180.919 267.519 182.868 266.348L183.55 265.934C185.064 265.013 186.203 264.263 186.967 263.684C187.731 263.104 188.316 262.42 188.722 261.632C189.125 260.82 189.248 259.859 189.092 258.748C188.838 256.943 187.981 255.777 186.522 255.251C185.082 254.698 183.303 254.57 181.184 254.868C175.726 255.635 173.244 257.778 173.739 261.295C173.807 261.781 173.936 262.282 174.126 262.798C174.316 263.314 174.567 263.763 174.879 264.144L160.946 263.766C160.717 263.302 160.55 262.7 160.446 261.96ZM184.816 298.004C182.881 298.276 181.331 298.27 180.163 297.986C178.999 297.724 178.096 297.143 177.452 296.243C176.832 295.339 176.403 294.042 176.166 292.353C175.932 290.686 175.99 289.345 176.34 288.328C176.71 287.285 177.419 286.477 178.466 285.905C179.509 285.31 180.998 284.877 182.933 284.605C184.89 284.33 186.453 284.335 187.62 284.619C188.807 284.877 189.709 285.446 190.326 286.327C190.966 287.205 191.404 288.488 191.642 290.178C191.883 291.89 191.818 293.268 191.448 294.311C191.098 295.328 190.387 296.124 189.318 296.699C188.274 297.294 186.773 297.729 184.816 298.004Z" fill="#E1DAC2"/>
</svg>
