<svg width="604" height="637" viewBox="0 0 604 637" fill="none" xmlns="http://www.w3.org/2000/svg">
<mask id="mask0_2516_21947" style="mask-type:alpha" maskUnits="userSpaceOnUse" x="0" y="33" width="604" height="604">
<circle cx="302" cy="335" r="302" fill="#DB7704"/>
</mask>
<g mask="url(#mask0_2516_21947)">
<circle cx="302" cy="335" r="302" fill="#DB7704"/>
<path opacity="0.1" fill-rule="evenodd" clip-rule="evenodd" d="M-56.7248 139.931C-55.8058 142.454 -54.8612 145.016 -53.8907 147.621C-52.9371 150.181 -49.6692 158.914 -49.2224 160.111C-23.8991 227.946 -14.3913 270.395 -14.3913 343.552C-14.3913 416.131 -23.0116 452.103 -49.1646 517.584C-51.8619 524.338 -54.379 530.793 -56.7248 537.018L-56.7248 581.007C-51.5703 563.264 -44.7935 544.693 -36.0627 522.833C-9.29884 455.822 -0.280182 418.187 -0.280178 343.552C-0.280175 268.467 -10.1395 224.449 -36.0048 155.162C-36.455 153.956 -39.7206 145.229 -40.6698 142.681C-47.1846 125.194 -52.4876 109.748 -56.7248 95.1687L-56.7248 139.931ZM84.3867 139.931C63.9824 83.9199 56.1644 47.3111 56.1644 -9.76123L70.2756 -9.76123C70.2756 30.8268 74.328 60.558 84.3867 95.1687L84.3867 139.931ZM84.3867 537.018C63.4568 592.557 56.1644 629.752 56.1644 696.865L70.2755 696.865C70.2755 648.516 74.101 616.412 84.3867 581.007L84.3867 537.018ZM-14.3913 -9.76123C-14.3913 49.8816 -5.85328 87.1761 16.665 147.621C17.6186 150.181 20.8866 158.914 21.3333 160.111C46.6566 227.946 56.1644 270.395 56.1644 343.552C56.1644 416.131 47.5441 452.103 21.3912 517.584C-5.37268 584.595 -14.3913 622.23 -14.3913 696.865L-0.280194 696.865C-0.280191 624.287 8.34009 588.314 34.493 522.833C61.2569 455.822 70.2756 418.187 70.2756 343.552C70.2756 268.467 60.4162 224.449 34.5509 155.162C34.1008 153.956 30.8352 145.229 29.8859 142.681C7.9055 83.6797 -0.280165 47.9243 -0.280163 -9.76123L-14.3913 -9.76123Z" fill="black"/>
<path opacity="0.1" fill-rule="evenodd" clip-rule="evenodd" d="M240.464 139.931C241.39 142.454 242.342 145.016 243.32 147.621C244.28 150.181 247.573 158.914 248.023 160.111C273.538 227.946 283.118 270.395 283.118 343.552C283.118 416.131 274.433 452.103 248.081 517.584C245.364 524.338 242.828 530.793 240.464 537.018L240.464 581.007C245.658 563.264 252.486 544.693 261.283 522.833C288.249 455.822 297.336 418.187 297.336 343.552C297.336 268.467 287.402 224.449 261.341 155.162C260.887 153.956 257.597 145.229 256.641 142.681C250.076 125.194 244.733 109.748 240.464 95.1687L240.464 139.931ZM382.645 139.931C362.086 83.9199 354.208 47.3111 354.208 -9.76123L368.426 -9.76123C368.426 30.8268 372.51 60.558 382.645 95.1687L382.645 139.931ZM382.645 537.018C361.556 592.557 354.208 629.752 354.208 696.865L368.426 696.865C368.426 648.516 372.281 616.412 382.645 581.007L382.645 537.018ZM283.118 -9.76123C283.118 49.8816 291.721 87.1761 314.41 147.621C315.371 150.181 318.663 158.914 319.113 160.111C344.629 227.946 354.208 270.395 354.208 343.552C354.208 416.131 345.523 452.103 319.172 517.584C292.205 584.595 283.118 622.23 283.118 696.865L297.336 696.865C297.336 624.287 306.022 588.314 332.373 522.833C359.339 455.822 368.426 418.187 368.426 343.552C368.426 268.467 358.492 224.449 332.431 155.162C331.978 153.956 328.687 145.229 327.731 142.681C305.584 83.6797 297.336 47.9243 297.336 -9.76123L283.118 -9.76123Z" fill="black"/>
<path opacity="0.1" fill-rule="evenodd" clip-rule="evenodd" d="M83.3162 139.931C84.2561 142.454 85.2221 145.016 86.2146 147.621C87.1899 150.181 90.5321 158.914 90.9891 160.111C116.888 227.946 126.612 270.395 126.612 343.552C126.612 416.131 117.796 452.103 91.0482 517.584C88.2896 524.338 85.7153 530.793 83.3162 537.018L83.3162 581.007C88.5878 563.264 95.5186 544.693 104.448 522.833C131.82 455.822 141.044 418.187 141.044 343.552C141.044 268.467 130.96 224.449 104.507 155.162C104.047 153.956 100.707 145.229 99.736 142.681C93.0732 125.194 87.6497 109.748 83.3162 95.1687L83.3162 139.931ZM227.635 139.931C206.767 83.9199 198.771 47.3111 198.771 -9.76123L213.203 -9.76123C213.203 30.8268 217.347 60.558 227.635 95.1687L227.635 139.931ZM227.635 537.018C206.229 592.557 198.771 629.752 198.771 696.865L213.203 696.865C213.203 648.516 217.115 616.412 227.635 581.007L227.635 537.018ZM126.612 -9.76123C126.612 49.8816 135.344 87.1761 158.374 147.621C159.349 150.181 162.691 158.914 163.148 160.111C189.047 227.946 198.771 270.395 198.771 343.552C198.771 416.131 189.955 452.103 163.207 517.584C135.835 584.595 126.612 622.23 126.612 696.865L141.044 696.865C141.044 624.287 149.86 588.314 176.607 522.833C203.979 455.822 213.203 418.187 213.203 343.552C213.203 268.467 203.119 224.449 176.666 155.162C176.206 153.956 172.866 145.229 171.895 142.681C149.415 83.6797 141.044 47.9243 141.044 -9.76123L126.612 -9.76123Z" fill="black"/>
<path opacity="0.1" fill-rule="evenodd" clip-rule="evenodd" d="M381.576 139.931C382.504 142.454 383.459 145.016 384.439 147.621C385.402 150.181 388.703 158.914 389.154 160.111C414.733 227.946 424.337 270.395 424.337 343.552C424.337 416.131 415.63 452.103 389.213 517.584C386.488 524.338 383.946 530.793 381.576 537.018L381.576 581.007C386.783 563.264 393.628 544.693 402.447 522.833C429.481 455.822 438.591 418.187 438.591 343.552C438.591 268.467 428.632 224.449 402.505 155.162C402.051 153.956 398.752 145.229 397.793 142.681C391.213 125.194 385.856 109.748 381.576 95.1687L381.576 139.931ZM424.337 -9.76123C424.337 49.8816 432.962 87.1761 455.707 147.621C456.671 150.181 459.971 158.914 460.423 160.111C486.002 227.946 495.606 270.395 495.606 343.552C495.606 416.131 486.898 452.103 460.481 517.584C433.447 584.595 424.337 622.23 424.337 696.865L438.591 696.865C438.591 624.287 447.298 588.314 473.715 522.833C500.75 455.822 509.859 418.187 509.859 343.552C509.859 268.467 499.9 224.449 473.774 155.162C473.319 153.956 470.021 145.229 469.062 142.681C446.859 83.6797 438.591 47.9243 438.591 -9.76123L424.337 -9.76123Z" fill="black"/>
<path opacity="0.1" fill-rule="evenodd" clip-rule="evenodd" d="M588.449 142.296C568.045 86.1998 560.227 49.5356 560.227 -7.62305L574.338 -7.62305C574.338 33.0264 578.391 62.8026 588.449 97.4656L588.449 142.296ZM588.449 539.983C567.519 595.606 560.227 632.858 560.227 700.073L574.338 700.073C574.338 651.65 578.164 619.497 588.449 584.039L588.449 539.983ZM489.671 -7.62305C489.671 52.11 498.209 89.461 520.728 149.998C521.681 152.561 524.949 161.308 525.396 162.506C550.719 230.444 560.227 272.957 560.227 346.225C560.227 418.913 551.607 454.94 525.454 520.52C498.69 587.633 489.671 625.324 489.671 700.073L503.782 700.073C503.782 627.384 512.403 591.357 538.556 525.777C565.319 458.665 574.338 420.973 574.338 346.225C574.338 271.026 564.479 226.941 538.613 157.55C538.163 156.342 534.898 147.602 533.948 145.05C511.968 85.9592 503.782 50.1497 503.782 -7.62305L489.671 -7.62305Z" fill="black"/>
<rect x="65.6641" y="92.3433" width="410" height="515" rx="24" transform="rotate(-8 65.6641 92.3433)" fill="#001818"/>
</g>
<rect x="86.2363" y="66.2197" width="410" height="515" rx="16" transform="rotate(-8 86.2363 66.2197)" fill="#D57F1D"/>
<path d="M87.2111 73.1514C85.9813 64.4009 92.0781 56.3102 100.829 55.0804L475.15 2.47293C483.9 1.24312 491.991 7.33989 493.221 16.0904L560.442 494.39C561.671 503.14 555.575 511.231 546.824 512.461L524.038 515.663C521.931 515.959 519.784 515.736 517.783 515.013V515.013C514.578 513.854 511.047 513.995 507.945 515.404L502.014 518.099C500.618 518.732 499.14 519.163 497.622 519.376L481.831 521.595C479.952 521.859 478.042 521.787 476.189 521.382L470.716 520.187C466.98 519.37 463.076 519.919 459.71 521.733L454.778 524.391C453.108 525.291 451.292 525.887 449.414 526.151L215.693 558.998C213.076 559.366 210.417 558.721 208.259 557.196V557.196C204.581 554.595 199.645 554.665 196.042 557.369L192.138 560.298C189.976 561.921 187.438 562.969 184.761 563.346L172.503 565.068C163.752 566.298 155.662 560.201 154.432 551.451L87.2111 73.1514Z" fill="#E1DAC2"/>
<rect opacity="0.3" x="100.417" y="70.1272" width="383" height="486" rx="9.5" transform="rotate(-8 100.417 70.1272)" stroke="#DB7704" stroke-width="3"/>
<path d="M205.282 93.8517L211.545 138.414L198.741 140.213L194.323 108.782L192.63 109.02L190.393 141.387L169.805 144.28L158.763 113.78L157.099 114.014L161.516 145.445L148.712 147.244L142.45 102.682L167.85 99.1125L177.294 128.807L178.75 128.602L179.882 97.4215L205.282 93.8517ZM227.28 90.7601L233.543 135.322L218.094 137.493L211.832 92.9312L227.28 90.7601ZM280.764 114.538C281.449 119.41 280.047 123.374 276.558 126.429C273.086 129.462 267.488 131.521 259.764 132.606C254.951 133.283 250.825 133.307 247.384 132.68C243.943 132.053 241.293 130.941 239.432 129.344C237.569 127.728 236.482 125.811 236.17 123.592C236.123 123.256 236.121 122.882 236.164 122.472L251.084 117.619C251.027 117.788 251.018 118.012 251.057 118.289C251.149 118.942 251.433 119.458 251.91 119.835C252.387 120.212 253.209 120.45 254.374 120.549C255.536 120.628 257.137 120.524 259.177 120.238C261.059 119.973 262.502 119.68 263.507 119.357C264.511 119.034 265.204 118.643 265.584 118.186C265.981 117.706 266.127 117.09 266.021 116.337C265.907 115.525 265.496 114.977 264.79 114.693C264.1 114.386 262.808 114.244 260.913 114.268C259.015 114.272 255.846 114.425 251.404 114.726C247.226 115.03 243.951 114.935 241.579 114.441C239.224 113.923 237.454 112.9 236.27 111.37C235.105 109.837 234.313 107.575 233.892 104.584C233.428 101.277 233.875 98.3561 235.236 95.8221C236.616 93.2853 238.829 91.2072 241.873 89.5877C244.934 87.9457 248.713 86.8088 253.209 86.1769C259.269 85.3252 264.319 85.4738 268.358 86.6229C272.397 87.7719 274.977 90.0349 276.098 93.4117C276.275 93.9524 276.397 94.4603 276.464 94.9357L262.087 101.712C262.113 101.466 262.121 101.304 262.109 101.225C261.948 100.076 261.169 99.3472 259.772 99.0386C258.376 98.7299 256.45 98.7482 253.994 99.0933C252.35 99.3244 251.067 99.6057 250.144 99.9374C249.221 100.269 248.591 100.671 248.253 101.142C247.913 101.594 247.79 102.157 247.884 102.83C247.987 103.563 248.463 104.072 249.311 104.356C250.178 104.638 251.81 104.752 254.206 104.698C256.619 104.622 260.349 104.36 265.396 103.913C269.766 103.542 273.274 104.21 275.917 105.919C278.58 107.625 280.196 110.498 280.764 114.538ZM327.691 107.943C328.376 112.815 326.974 116.779 323.485 119.834C320.013 122.867 314.415 124.926 306.691 126.011C301.879 126.688 297.752 126.712 294.311 126.085C290.87 125.458 288.22 124.346 286.359 122.749C284.496 121.133 283.409 119.215 283.097 116.997C283.05 116.661 283.048 116.287 283.091 115.877L298.011 111.023C297.954 111.193 297.945 111.416 297.984 111.694C298.076 112.347 298.36 112.863 298.837 113.24C299.315 113.617 300.136 113.855 301.301 113.954C302.463 114.033 304.064 113.929 306.104 113.643C307.986 113.378 309.429 113.084 310.434 112.761C311.438 112.438 312.131 112.048 312.511 111.591C312.908 111.111 313.054 110.495 312.948 109.742C312.834 108.93 312.423 108.382 311.717 108.097C311.028 107.79 309.735 107.649 307.84 107.673C305.942 107.677 302.773 107.83 298.331 108.131C294.153 108.435 290.878 108.34 288.506 107.845C286.151 107.328 284.381 106.304 283.197 104.774C282.032 103.242 281.24 100.98 280.82 97.9892C280.355 94.6817 280.803 91.7609 282.163 89.2269C283.543 86.6901 285.756 84.612 288.8 82.9926C291.861 81.3505 295.64 80.2136 300.136 79.5818C306.196 78.73 311.246 78.8787 315.285 80.0277C319.324 81.1767 321.904 83.4397 323.025 86.8165C323.202 87.3572 323.324 87.8652 323.391 88.3405L309.014 95.1173C309.04 94.8713 309.048 94.7087 309.037 94.6294C308.875 93.4807 308.096 92.7521 306.7 92.4434C305.303 92.1348 303.377 92.153 300.921 92.4982C299.277 92.7292 297.994 93.0105 297.071 93.3422C296.148 93.6739 295.518 94.0755 295.18 94.5471C294.84 94.9988 294.717 95.5614 294.812 96.2348C294.915 96.9676 295.39 97.4764 296.238 97.7612C297.106 98.0431 298.737 98.1572 301.133 98.1032C303.546 98.0267 307.276 97.765 312.323 97.3183C316.693 96.9464 320.201 97.6148 322.844 99.3235C325.508 101.029 327.123 103.903 327.691 107.943ZM342.647 74.5463L348.91 119.108L333.461 121.28L327.199 76.7174L342.647 74.5463ZM390.034 101.15L385.449 68.5309L398.55 66.6896L404.813 111.252L378.492 114.951L365.589 83.5005L363.926 83.7343L368.51 116.354L355.438 118.191L349.176 73.6288L375.438 69.9379L388.34 101.388L390.034 101.15ZM429.617 82.8028L453.621 79.4293L457.061 103.909L442.742 105.921L443.318 97.085L441.659 96.9242C441.229 99.4689 440.502 101.55 439.477 103.169C438.452 104.787 437.083 106.04 435.37 106.927C433.657 107.814 431.493 108.441 428.879 108.809C424.938 109.362 421.385 109.014 418.22 107.762C415.074 106.507 412.455 104.321 410.36 101.202C408.285 98.0802 406.903 94.0636 406.213 89.1518C405.422 83.5271 405.934 78.7595 407.747 74.8491C409.56 70.9387 412.196 67.9225 415.655 65.8005C419.113 63.6785 422.981 62.317 427.259 61.7157C433.577 60.8278 438.847 61.1071 443.07 62.5535C447.312 63.9971 450.087 66.7173 451.396 70.714C451.503 71.0424 451.599 71.3622 451.683 71.6735L435.723 78.8243L435.668 78.4381C435.337 76.0813 433.24 75.1743 429.378 75.717C426.764 76.0845 424.82 77.1252 423.546 78.8391C422.272 80.5531 421.907 83.3411 422.45 87.2031C422.97 90.9067 424.12 93.4818 425.898 94.9284C427.694 96.3523 430.028 96.8625 432.899 96.4589C434.939 96.1722 436.6 95.5551 437.88 94.6077C439.161 93.6602 439.708 92.523 439.521 91.1961L439.388 90.2454L431.307 91.5932L429.617 82.8028Z" fill="#004C4C"/>
<path d="M215.261 506.463C215.344 507.05 215.464 507.548 215.623 507.957C215.78 508.359 215.988 508.714 216.247 509.021L216.29 509.328L211.537 509.996C211.366 509.737 211.219 509.391 211.098 508.957C210.975 508.516 210.866 507.956 210.771 507.276C210.694 506.728 210.533 506.326 210.288 506.071C210.043 505.809 209.715 505.657 209.305 505.613C208.895 505.57 208.353 505.596 207.68 505.69L205.046 506.061L205.714 510.814L201.317 511.432L199.229 496.578L206.874 495.503C208.96 495.21 210.654 495.356 211.955 495.941C213.254 496.519 214.011 497.567 214.224 499.085C214.323 499.785 214.299 500.384 214.154 500.883C214.014 501.374 213.714 501.799 213.253 502.16C212.792 502.521 212.134 502.823 211.279 503.064L211.353 503.589C212.565 503.54 213.487 503.78 214.121 504.311C214.753 504.834 215.133 505.552 215.261 506.463ZM204.141 499.624L204.598 502.872L207.153 502.513C208.07 502.384 208.753 502.163 209.2 501.851C209.647 501.533 209.83 501.083 209.748 500.502C209.685 500.053 209.544 499.723 209.326 499.511C209.114 499.299 208.841 499.175 208.507 499.142C208.171 499.101 207.752 499.116 207.251 499.187L204.141 499.624ZM234.013 506.837L220.704 508.707L218.616 493.853L231.896 491.987L232.395 495.542L223.513 496.79L223.875 499.365L231.886 498.239L232.252 500.843L224.241 501.969L224.602 504.544L233.515 503.292L234.013 506.837ZM254.889 500.187L255.472 488.673L259.929 488.047L258.758 503.359L252.054 504.301L248.775 494.189L248.101 494.284L247.717 504.911L241.052 505.847L235.647 491.46L240.123 490.831L243.887 501.733L244.541 501.641L245.025 490.142L250.6 489.358L254.255 500.276L254.889 500.187ZM280.78 500.264L275.988 500.938L275.089 498.782L269.335 499.59L269.066 501.91L264.392 502.567L266.542 487.118L274.464 486.004L280.78 500.264ZM270.554 489.22L269.743 496.1L273.734 495.539L271.059 489.149L270.554 489.22ZM298.804 494.722C298.887 495.309 299.007 495.807 299.166 496.216C299.323 496.618 299.531 496.972 299.79 497.279L299.833 497.586L295.08 498.254C294.909 497.996 294.762 497.649 294.641 497.215C294.518 496.775 294.409 496.214 294.314 495.534C294.237 494.987 294.076 494.585 293.831 494.33C293.586 494.068 293.258 493.916 292.848 493.872C292.438 493.829 291.896 493.855 291.223 493.949L288.589 494.319L289.257 499.073L284.86 499.691L282.772 484.837L290.417 483.762C292.503 483.469 294.197 483.615 295.498 484.199C296.797 484.777 297.554 485.826 297.767 487.344C297.866 488.044 297.842 488.643 297.697 489.141C297.557 489.632 297.257 490.058 296.796 490.419C296.335 490.78 295.677 491.081 294.822 491.323L294.896 491.848C296.108 491.798 297.03 492.039 297.664 492.569C298.296 493.093 298.676 493.811 298.804 494.722ZM287.684 487.883L288.141 491.131L290.696 490.772C291.613 490.643 292.296 490.422 292.743 490.11C293.19 489.792 293.373 489.342 293.291 488.761C293.228 488.312 293.087 487.982 292.869 487.77C292.657 487.557 292.384 487.434 292.05 487.4C291.714 487.36 291.295 487.375 290.794 487.446L287.684 487.883ZM307.596 481.348C309.873 481.028 311.73 481.04 313.165 481.383C314.599 481.72 315.697 482.397 316.46 483.414C317.221 484.425 317.726 485.815 317.975 487.584C318.203 489.208 318.021 490.621 317.429 491.821C316.844 493.021 315.954 493.974 314.761 494.68C313.568 495.387 312.182 495.851 310.604 496.072L304.247 496.966L302.159 482.112L307.596 481.348ZM310.102 492.285C310.862 492.179 311.495 491.989 312.002 491.716C312.515 491.442 312.894 491.025 313.139 490.465C313.382 489.899 313.44 489.157 313.311 488.24C313.179 487.302 312.919 486.581 312.532 486.077C312.144 485.566 311.63 485.238 310.99 485.092C310.356 484.939 309.567 484.928 308.623 485.061L307.088 485.277L308.112 492.565L310.102 492.285ZM336.904 491.336C335.042 491.598 333.593 491.347 332.557 490.584C331.521 489.821 330.87 488.498 330.606 486.617C330.441 485.442 330.543 484.421 330.912 483.554C331.289 482.687 331.846 482.006 332.584 481.512C333.322 481.011 334.156 480.695 335.087 480.564C336.942 480.304 338.388 480.558 339.425 481.328C340.462 482.091 341.114 483.423 341.381 485.325C341.545 486.493 341.442 487.507 341.071 488.367C340.701 489.227 340.146 489.904 339.408 490.399C338.669 490.893 337.835 491.205 336.904 491.336ZM368.941 483.279C369.294 485.794 367.678 487.489 364.091 488.364L364.306 489.889L363.008 490.071L362.807 488.635C362.649 488.664 362.405 488.701 362.075 488.748C361.837 488.781 361.659 488.803 361.539 488.813L361.741 490.249L360.444 490.431L360.231 488.916C359.065 488.959 358.063 488.867 357.223 488.642C356.39 488.416 355.741 488.086 355.277 487.653C354.811 487.214 354.537 486.7 354.454 486.113C354.431 485.948 354.42 485.747 354.42 485.512L358.71 484.131C358.673 484.298 358.665 484.461 358.688 484.619C358.744 485.022 359.015 485.297 359.5 485.444C359.985 485.585 360.804 485.574 361.96 485.411C362.673 485.311 363.235 485.195 363.648 485.063C364.059 484.925 364.349 484.759 364.517 484.567C364.691 484.368 364.758 484.126 364.718 483.842C364.674 483.525 364.521 483.304 364.261 483.179C364.007 483.047 363.539 482.975 362.858 482.963C362.176 482.951 361.073 482.985 359.55 483.064C358.161 483.151 357.074 483.102 356.287 482.917C355.499 482.724 354.911 482.37 354.522 481.852C354.138 481.327 353.878 480.576 353.741 479.599C353.567 478.364 353.856 477.304 354.606 476.417C355.364 475.53 356.523 474.869 358.084 474.434L357.868 472.899L359.166 472.717L359.366 474.143C359.491 474.119 359.682 474.088 359.939 474.052C360.249 474.009 360.481 473.979 360.634 473.965L360.433 472.539L361.731 472.356L361.943 473.871C363.43 473.817 364.64 473.994 365.573 474.402C366.504 474.802 367.097 475.456 367.353 476.363C367.405 476.591 367.442 476.805 367.463 477.004L363.343 478.946C363.366 478.774 363.369 478.629 363.353 478.51C363.283 478.015 362.969 477.699 362.412 477.562C361.86 477.424 361.109 477.422 360.159 477.556C359.248 477.684 358.604 477.872 358.229 478.12C357.853 478.368 357.693 478.693 357.75 479.096C357.791 479.393 357.939 479.608 358.194 479.74C358.448 479.873 358.91 479.949 359.579 479.97C360.249 479.99 361.268 479.961 362.637 479.883C363.962 479.778 365.065 479.822 365.947 480.014C366.829 480.206 367.517 480.571 368.01 481.108C368.501 481.638 368.812 482.361 368.941 483.279ZM381.362 486.451C379.626 486.695 378.157 486.619 376.957 486.222C375.762 485.818 374.81 485.076 374.1 483.998C373.395 482.912 372.912 481.462 372.65 479.648C372.419 478.004 372.553 476.564 373.053 475.329C373.552 474.088 374.319 473.105 375.355 472.38C376.397 471.648 377.607 471.185 378.987 470.991C380.756 470.743 382.242 470.82 383.443 471.224C384.644 471.627 385.597 472.372 386.301 473.457C387.005 474.537 387.485 475.984 387.74 477.799C387.97 479.437 387.845 480.871 387.365 482.104C386.885 483.336 386.125 484.318 385.083 485.05C384.041 485.782 382.801 486.249 381.362 486.451ZM380.86 482.594C381.441 482.512 381.922 482.34 382.302 482.078C382.689 481.808 382.962 481.383 383.123 480.801C383.289 480.212 383.303 479.426 383.165 478.442C382.964 477.016 382.54 476.033 381.892 475.491C381.249 474.942 380.459 474.733 379.521 474.865C378.954 474.945 378.48 475.119 378.1 475.388C377.721 475.656 377.448 476.085 377.281 476.674C377.114 477.256 377.099 478.033 377.235 479.003C377.444 480.441 377.866 481.432 378.501 481.976C379.143 482.519 379.929 482.724 380.86 482.594ZM394.41 484.678C393.855 484.756 393.411 484.755 393.076 484.674C392.743 484.599 392.484 484.434 392.3 484.177C392.122 483.919 391.999 483.549 391.932 483.067C391.865 482.592 391.882 482.209 391.982 481.919C392.089 481.621 392.292 481.391 392.592 481.228C392.891 481.058 393.318 480.934 393.873 480.856C394.434 480.777 394.882 480.778 395.216 480.859C395.556 480.932 395.815 481.094 395.992 481.346C396.175 481.596 396.3 481.962 396.368 482.444C396.437 482.932 396.418 483.326 396.312 483.623C396.211 483.913 396.007 484.141 395.701 484.305C395.401 484.475 394.971 484.599 394.41 484.678ZM407.699 482.75C405.963 482.994 404.495 482.917 403.294 482.521C402.1 482.116 401.147 481.375 400.437 480.297C399.732 479.211 399.249 477.761 398.987 475.946C398.756 474.302 398.891 472.863 399.39 471.628C399.889 470.386 400.656 469.403 401.692 468.679C402.734 467.947 403.945 467.484 405.324 467.29C407.094 467.041 408.579 467.119 409.78 467.522C410.981 467.925 411.934 468.67 412.639 469.756C413.342 470.835 413.822 472.283 414.077 474.098C414.307 475.735 414.182 477.17 413.702 478.402C413.223 479.634 412.462 480.616 411.42 481.348C410.379 482.08 409.138 482.548 407.699 482.75ZM407.197 478.892C407.778 478.811 408.259 478.639 408.64 478.376C409.026 478.107 409.299 477.681 409.46 477.1C409.626 476.511 409.64 475.725 409.502 474.741C409.302 473.315 408.877 472.331 408.229 471.789C407.586 471.24 406.796 471.032 405.859 471.163C405.291 471.243 404.817 471.417 404.438 471.686C404.058 471.955 403.785 472.384 403.619 472.973C403.451 473.555 403.436 474.331 403.572 475.302C403.781 476.74 404.203 477.731 404.838 478.274C405.48 478.817 406.266 479.023 407.197 478.892ZM426.796 480.066C425.059 480.31 423.591 480.234 422.391 479.837C421.196 479.432 420.244 478.691 419.534 477.613C418.829 476.527 418.346 475.077 418.084 473.262C417.853 471.618 417.987 470.179 418.487 468.944C418.986 467.703 419.753 466.72 420.789 465.995C421.831 465.263 423.041 464.8 424.421 464.606C426.19 464.357 427.676 464.435 428.877 464.838C430.078 465.242 431.031 465.986 431.735 467.072C432.439 468.151 432.919 469.599 433.174 471.414C433.404 473.051 433.279 474.486 432.799 475.718C432.319 476.95 431.558 477.932 430.517 478.664C429.475 479.397 428.235 479.864 426.796 480.066ZM426.294 476.208C426.875 476.127 427.356 475.955 427.736 475.693C428.122 475.423 428.396 474.997 428.557 474.416C428.723 473.827 428.737 473.041 428.599 472.057C428.398 470.631 427.974 469.647 427.326 469.106C426.683 468.556 425.893 468.348 424.955 468.479C424.388 468.559 423.914 468.733 423.534 469.002C423.155 469.271 422.882 469.7 422.715 470.289C422.548 470.871 422.533 471.647 422.669 472.618C422.878 474.056 423.3 475.047 423.935 475.591C424.577 476.133 425.363 476.339 426.294 476.208ZM445.892 477.382C444.156 477.626 442.688 477.55 441.488 477.153C440.293 476.749 439.341 476.007 438.63 474.929C437.926 473.843 437.443 472.393 437.181 470.578C436.95 468.935 437.084 467.495 437.584 466.26C438.082 465.019 438.85 464.036 439.886 463.311C440.927 462.579 442.138 462.116 443.518 461.922C445.287 461.674 446.772 461.751 447.973 462.154C449.175 462.558 450.127 463.302 450.832 464.388C451.536 465.467 452.015 466.915 452.27 468.73C452.501 470.368 452.376 471.802 451.896 473.034C451.416 474.266 450.655 475.249 449.614 475.981C448.572 476.713 447.332 477.18 445.892 477.382ZM445.391 473.524C445.972 473.443 446.452 473.271 446.833 473.009C447.219 472.739 447.493 472.313 447.653 471.732C447.82 471.143 447.834 470.357 447.695 469.373C447.495 467.947 447.071 466.963 446.422 466.422C445.78 465.873 444.989 465.664 444.052 465.796C443.484 465.875 443.011 466.05 442.631 466.318C442.251 466.587 441.978 467.016 441.812 467.605C441.645 468.187 441.629 468.964 441.766 469.934C441.975 471.372 442.397 472.363 443.032 472.907C443.674 473.449 444.46 473.655 445.391 473.524ZM464.989 474.698C463.253 474.942 461.785 474.866 460.584 474.469C459.39 474.065 458.437 473.323 457.727 472.245C457.022 471.159 456.539 469.709 456.277 467.895C456.046 466.251 456.181 464.811 456.68 463.576C457.179 462.335 457.946 461.352 458.982 460.627C460.024 459.895 461.235 459.432 462.614 459.238C464.384 458.99 465.869 459.067 467.07 459.47C468.271 459.874 469.224 460.619 469.929 461.704C470.633 462.784 471.112 464.231 471.367 466.046C471.597 467.684 471.472 469.118 470.992 470.35C470.513 471.583 469.752 472.565 468.71 473.297C467.669 474.029 466.428 474.496 464.989 474.698ZM464.487 470.841C465.068 470.759 465.549 470.587 465.93 470.325C466.316 470.055 466.589 469.63 466.75 469.048C466.916 468.459 466.93 467.673 466.792 466.689C466.592 465.263 466.167 464.28 465.519 463.738C464.876 463.189 464.086 462.98 463.149 463.112C462.581 463.191 462.107 463.366 461.728 463.635C461.348 463.903 461.075 464.332 460.909 464.921C460.741 465.503 460.726 466.28 460.862 467.25C461.071 468.688 461.493 469.679 462.128 470.223C462.77 470.765 463.557 470.971 464.487 470.841ZM484.086 472.014C482.35 472.258 480.881 472.182 479.681 471.785C478.486 471.381 477.534 470.64 476.824 469.561C476.119 468.475 475.636 467.025 475.374 465.211C475.143 463.567 475.277 462.127 475.777 460.893C476.276 459.651 477.043 458.668 478.079 457.943C479.121 457.211 480.331 456.748 481.711 456.554C483.48 456.306 484.966 456.383 486.167 456.787C487.368 457.19 488.321 457.935 489.025 459.02C489.729 460.1 490.209 461.547 490.464 463.363C490.694 465 490.569 466.434 490.089 467.667C489.609 468.899 488.849 469.881 487.807 470.613C486.765 471.345 485.525 471.812 484.086 472.014ZM483.584 468.157C484.165 468.075 484.646 467.903 485.026 467.641C485.413 467.371 485.686 466.946 485.847 466.364C486.013 465.775 486.027 464.989 485.889 464.006C485.688 462.58 485.264 461.596 484.616 461.054C483.973 460.505 483.183 460.296 482.245 460.428C481.678 460.508 481.204 460.682 480.824 460.951C480.445 461.219 480.172 461.648 480.005 462.237C479.838 462.819 479.823 463.596 479.959 464.566C480.168 466.005 480.59 466.995 481.225 467.539C481.867 468.082 482.653 468.288 483.584 468.157ZM503.257 468.997L498.85 469.616L497.706 461.476L497.781 457.265L497.243 457.25C497.173 458.283 497.042 459.075 496.851 459.627C496.664 460.172 496.366 460.587 495.955 460.874C495.55 461.153 494.952 461.372 494.159 461.53L493.536 457.094C494.255 456.993 494.833 456.865 495.269 456.709C495.704 456.547 496.045 456.314 496.292 456.01C496.538 455.706 496.685 455.291 496.733 454.766L501.169 454.143L503.257 468.997Z" fill="#D57F1D"/>
<path d="M469.335 397.461C469.434 397.847 469.509 398.222 469.56 398.585C469.829 400.502 469.524 402.285 468.645 403.934C467.779 405.567 466.287 406.969 464.171 408.14C462.053 409.297 459.331 410.109 456.005 410.576C450.921 411.291 446.976 410.668 444.167 408.708C441.357 406.733 439.608 403.298 438.92 398.403C438.504 395.441 438.81 392.821 439.837 390.543C440.865 388.266 442.358 386.457 444.317 385.115C446.291 383.771 448.44 382.936 450.763 382.61C454.932 382.024 458.375 382.443 461.093 383.868C463.824 385.277 465.582 387.829 466.368 391.525L450.688 399.616C451.086 400.552 451.617 401.173 452.283 401.48C452.96 401.77 453.793 401.845 454.78 401.706C456.044 401.529 456.947 401.157 457.49 400.592C458.045 400.011 458.262 399.292 458.142 398.435C458.125 398.318 458.069 398.178 457.972 398.014L469.335 397.461ZM452.272 390.817C451.285 390.956 450.581 391.477 450.159 392.381C449.738 393.284 449.674 394.774 449.966 396.851L450.018 397.222L455.553 394.4C455.419 393.13 455.043 392.191 454.424 391.581C453.817 390.956 453.1 390.701 452.272 390.817Z" fill="#004C4C"/>
<path d="M434.682 402.398C435.659 403.135 436.481 404.078 437.146 405.229C437.826 406.377 438.257 407.605 438.441 408.912C438.731 410.975 438.28 412.771 437.088 414.301C435.896 415.831 434.146 417.077 431.837 418.038C429.543 418.998 426.849 419.695 423.755 420.129C420.618 420.57 417.87 420.616 415.51 420.266C413.165 419.915 411.298 419.17 409.909 418.032C408.534 416.892 407.708 415.387 407.43 413.515C407.354 412.978 407.326 412.352 407.344 411.639L414.892 409.067L414.751 408.065L410.936 408.268L410.486 405.066L414.112 404.312L413.938 403.07C411.492 403.162 409.58 402.675 408.201 401.61C406.836 400.543 406.015 399.022 405.738 397.046C405.484 395.245 405.769 393.687 406.591 392.372C407.412 391.042 408.631 389.975 410.251 389.17C411.885 388.362 413.814 387.803 416.036 387.49C418.055 387.206 419.689 387.243 420.939 387.601C422.201 387.942 423.162 388.614 423.822 389.617C424.481 390.621 424.935 392.008 425.184 393.78C425.29 394.535 425.363 395.369 425.403 396.282L426.52 396.17C426.534 393.635 426.701 391.664 427.022 390.256C427.355 388.832 427.91 387.776 428.687 387.09C429.462 386.388 430.569 385.936 432.007 385.734C432.791 385.624 433.768 385.568 434.938 385.567L436.506 396.721L436.092 396.779C434.959 396.939 433.764 397.343 432.508 397.994C431.25 398.63 429.87 399.461 428.37 400.486C427.342 401.179 426.217 401.759 424.994 402.227C423.771 402.695 422.263 403.136 420.47 403.551L420.666 404.946L434.682 402.398ZM417.808 393.462C415.978 393.719 415.16 394.537 415.354 395.917C415.485 396.847 415.873 397.451 416.52 397.731C417.166 398.01 417.99 398.079 418.993 397.938C419.908 397.81 420.556 397.578 420.939 397.243C421.336 396.906 421.477 396.33 421.363 395.517C421.128 393.847 419.943 393.162 417.808 393.462ZM423.186 411.967C424.798 411.741 425.867 411.442 426.393 411.072C426.916 410.688 427.139 410.219 427.062 409.668C426.992 409.174 426.738 408.787 426.299 408.508C425.858 408.215 425.018 408.037 423.78 407.974C422.54 407.896 420.759 407.976 418.437 408.214C418.342 408.908 418.345 409.456 418.446 409.856C418.581 410.711 419.052 411.326 419.861 411.702C420.683 412.075 421.792 412.163 423.186 411.967Z" fill="#004C4C"/>
<path d="M387.166 391.548C392.017 390.866 395.724 391.374 398.288 393.073C400.852 394.771 402.429 397.719 403.019 401.916L405.144 417.036L394.469 418.536L394.144 412.272L393.071 412.223C392.866 414.77 392.014 416.718 390.515 418.07C389.031 419.419 387.164 420.251 384.913 420.568C379.873 421.276 377.074 419.648 376.517 415.683C376.25 413.78 376.647 412.236 377.71 411.049C378.772 409.863 380.411 408.93 382.626 408.248C385.268 407.447 387.222 406.81 388.489 406.335C389.767 405.845 390.664 405.371 391.177 404.913C391.703 404.44 391.921 403.883 391.831 403.244L391.828 403.222C391.687 402.22 391.319 401.554 390.725 401.222C390.145 400.889 389.361 400.792 388.373 400.931C387.24 401.09 386.36 401.466 385.732 402.057C385.105 402.649 384.849 403.359 384.965 404.187C385.043 404.739 385.192 405.169 385.414 405.479L374.07 405.229C373.922 404.598 373.832 404.167 373.8 403.934C373.536 402.061 373.811 400.275 374.624 398.576C375.451 396.874 376.902 395.397 378.977 394.142C381.067 392.886 383.796 392.021 387.166 391.548ZM388.312 412.67C389.082 412.561 389.826 412.324 390.545 411.956C391.261 411.574 392.016 410.986 392.808 410.194L392.324 406.752L392.159 406.686C391.49 407.195 390.351 407.784 388.742 408.455C387.93 408.791 387.308 409.108 386.876 409.406C386.459 409.701 386.175 410 386.025 410.303C385.889 410.603 385.85 410.957 385.907 411.364C386.058 412.438 386.86 412.874 388.312 412.67Z" fill="#004C4C"/>
<path d="M354.727 390.797C357.733 390.374 360.45 390.474 362.878 391.095C365.305 391.717 367.304 392.925 368.874 394.718C370.457 396.495 371.456 398.858 371.87 401.806C372.501 406.294 371.564 409.795 369.058 412.31C366.566 414.808 362.466 416.458 356.758 417.26L352.4 417.872L353.307 424.321L341.978 425.913L337.385 393.234L354.727 390.797ZM355.805 407.952C357.461 407.719 358.655 407.262 359.389 406.582C360.135 405.884 360.41 404.839 360.215 403.444C360.07 402.413 359.805 401.636 359.42 401.112C359.036 400.589 358.538 400.259 357.926 400.122C357.329 399.984 356.595 399.976 355.723 400.099L350.015 400.901L351.099 408.613L355.805 407.952Z" fill="#004C4C"/>
<path d="M325.61 419.527C326.036 422.562 325.241 425.014 323.222 426.883C321.202 428.737 317.955 429.978 313.482 430.607C308.66 431.284 305.146 431.045 302.939 429.889C300.747 428.731 299.544 426.967 299.33 424.598L308.929 421.605C308.928 421.708 308.939 421.84 308.962 422C309.011 422.348 309.143 422.604 309.358 422.766C309.588 422.926 309.979 423.02 310.531 423.046C311.08 423.057 311.885 422.989 312.946 422.84C314.02 422.689 314.762 422.488 315.171 422.238C315.595 421.986 315.768 421.584 315.691 421.032C315.625 420.567 315.364 420.234 314.906 420.031C314.448 419.829 313.744 419.721 312.794 419.706C311.844 419.692 310.458 419.738 308.637 419.846C306.075 420.058 304.04 420.018 302.533 419.726C301.04 419.433 299.894 418.809 299.093 417.855C298.305 416.885 297.781 415.477 297.522 413.633C297.232 411.57 297.57 409.76 298.536 408.203C299.502 406.645 300.904 405.396 302.742 404.457C304.578 403.503 306.65 402.863 308.959 402.539C317.34 401.361 322.132 403.057 323.338 407.627L313.537 411.871L313.512 411.696C313.393 411.061 313.017 410.648 312.383 410.455C311.761 410.247 310.898 410.22 309.794 410.375C307.775 410.659 306.832 411.273 306.965 412.217C307.032 412.696 307.249 413.028 307.616 413.214C307.997 413.397 308.53 413.5 309.215 413.522C309.899 413.544 311.058 413.522 312.693 413.455L314.106 413.39C316.753 413.255 318.872 413.372 320.464 413.741C322.057 414.109 323.252 414.763 324.05 415.703C324.861 416.625 325.381 417.9 325.61 419.527Z" fill="#004C4C"/>
<path d="M287.411 407.633C285.682 407.876 284.318 407.92 283.319 407.764C282.318 407.594 281.558 407.197 281.041 406.574C280.522 405.936 280.176 404.999 280.002 403.765C279.829 402.53 279.905 401.542 280.23 400.8C280.553 400.044 281.172 399.446 282.088 399.006C283.018 398.564 284.34 398.223 286.054 397.982C287.754 397.743 289.104 397.709 290.105 397.879C291.107 398.05 291.867 398.454 292.386 399.092C292.903 399.715 293.249 400.644 293.422 401.879C293.596 403.113 293.521 404.109 293.198 404.865C292.872 405.607 292.252 406.198 291.336 406.637C290.433 407.061 289.124 407.393 287.411 407.633ZM282.09 410.714C282.682 410.927 283.471 411.06 284.456 411.114C285.439 411.154 286.577 411.083 287.87 410.901C290.339 410.554 292.145 409.967 293.288 409.14L296.545 432.32L285.347 433.894L282.09 410.714Z" fill="#004C4C"/>
<path d="M267.605 408.529C270.684 408.096 273.196 408.898 275.141 410.935C277.084 412.958 278.404 416.445 279.1 421.398L280.94 434.491L269.742 436.065L267.99 423.604C267.729 421.745 267.234 420.437 266.506 419.68C265.79 418.907 264.844 418.603 263.667 418.768C262.854 418.882 262.152 419.211 261.562 419.753C260.986 420.293 260.573 420.988 260.322 421.838C260.086 422.685 260.037 423.603 260.176 424.591L261.942 437.161L250.766 438.732L246.082 405.4L257.258 403.829L257.962 408.84L258.201 418.759L259.33 418.889C259.427 416.52 259.775 414.628 260.376 413.21C260.991 411.791 261.878 410.726 263.037 410.015C264.194 409.289 265.717 408.794 267.605 408.529Z" fill="#004C4C"/>
<path d="M242.27 406.602L243.678 416.623L233.809 418.01L236.993 440.668L225.665 442.26L222.48 419.602L212.633 420.986L211.225 410.965L242.27 406.602Z" fill="#004C4C"/>
<circle cx="168.727" cy="193.319" r="5" transform="rotate(-8 168.727 193.319)" fill="#D47F1D"/>
<circle cx="184.573" cy="191.092" r="5" transform="rotate(-8 184.573 191.092)" fill="#D47F1D"/>
<circle cx="200.417" cy="188.865" r="5" transform="rotate(-8 200.417 188.865)" fill="#D47F1D"/>
<path opacity="0.5" fill-rule="evenodd" clip-rule="evenodd" d="M159.587 182.13C160.523 181.578 161.584 181.195 162.738 181.033L168.735 180.19C170.376 179.96 171.519 178.443 171.289 176.802C171.058 175.161 169.541 174.018 167.9 174.249L161.902 175.091C159.954 175.365 158.143 176.016 156.539 176.961C155.112 177.803 154.637 179.642 155.479 181.069C156.32 182.497 158.159 182.971 159.587 182.13ZM179.896 172.563C178.255 172.793 177.112 174.31 177.343 175.951C177.573 177.592 179.09 178.735 180.731 178.504L192.726 176.818C194.367 176.588 195.51 175.071 195.28 173.43C195.049 171.789 193.532 170.646 191.891 170.877L179.896 172.563ZM203.887 169.191C202.246 169.422 201.103 170.939 201.334 172.579C201.564 174.22 203.081 175.363 204.722 175.133L216.718 173.447C218.358 173.216 219.502 171.699 219.271 170.058C219.04 168.418 217.523 167.274 215.883 167.505L203.887 169.191ZM227.878 165.819C226.237 166.05 225.094 167.567 225.325 169.208C225.555 170.848 227.072 171.991 228.713 171.761L240.709 170.075C242.35 169.844 243.493 168.327 243.262 166.687C243.031 165.046 241.514 163.903 239.874 164.133L227.878 165.819ZM251.869 162.447C250.229 162.678 249.085 164.195 249.316 165.836C249.547 167.476 251.064 168.62 252.704 168.389L264.7 166.703C266.341 166.473 267.484 164.956 267.253 163.315C267.023 161.674 265.506 160.531 263.865 160.762L251.869 162.447ZM275.861 159.076C274.22 159.306 273.077 160.823 273.307 162.464C273.538 164.105 275.055 165.248 276.696 165.017L288.691 163.331C290.332 163.101 291.475 161.584 291.244 159.943C291.014 158.302 289.497 157.159 287.856 157.39L275.861 159.076ZM299.852 155.704C298.211 155.935 297.068 157.452 297.298 159.092C297.529 160.733 299.046 161.876 300.687 161.646L312.682 159.96C314.323 159.729 315.466 158.212 315.236 156.571C315.005 154.931 313.488 153.788 311.847 154.018L299.852 155.704ZM323.843 152.332C322.202 152.563 321.059 154.08 321.29 155.721C321.52 157.361 323.037 158.504 324.678 158.274L336.673 156.588C338.314 156.357 339.457 154.84 339.227 153.2C338.996 151.559 337.479 150.416 335.838 150.646L323.843 152.332ZM347.834 148.96C346.193 149.191 345.05 150.708 345.281 152.349C345.511 153.99 347.028 155.133 348.669 154.902L360.665 153.216C362.305 152.986 363.448 151.469 363.218 149.828C362.987 148.187 361.47 147.044 359.83 147.275L347.834 148.96ZM371.825 145.589C370.184 145.819 369.041 147.336 369.272 148.977C369.502 150.618 371.019 151.761 372.66 151.53L384.656 149.845C386.296 149.614 387.44 148.097 387.209 146.456C386.978 144.815 385.461 143.672 383.821 143.903L371.825 145.589ZM395.816 142.217C394.176 142.448 393.032 143.965 393.263 145.605C393.494 147.246 395.011 148.389 396.651 148.159L408.647 146.473C410.288 146.242 411.431 144.725 411.2 143.084C410.97 141.444 409.453 140.301 407.812 140.531L395.816 142.217ZM419.807 138.845C418.167 139.076 417.024 140.593 417.254 142.234C417.485 143.874 419.002 145.017 420.642 144.787L432.638 143.101C434.279 142.87 435.422 141.353 435.191 139.713C434.961 138.072 433.444 136.929 431.803 137.159L419.807 138.845ZM443.799 135.474C442.158 135.704 441.015 137.221 441.245 138.862C441.476 140.503 442.993 141.646 444.634 141.415L450.631 140.572C451.785 140.41 452.91 140.486 453.963 140.758C455.566 141.174 457.204 140.21 457.619 138.606C458.034 137.002 457.071 135.365 455.467 134.95C453.665 134.483 451.745 134.357 449.796 134.631L443.799 135.474ZM464.362 141.653C463.521 140.225 461.681 139.751 460.254 140.592C458.827 141.433 458.352 143.273 459.193 144.7C459.746 145.636 460.128 146.697 460.29 147.851L461.195 154.285C461.425 155.926 462.942 157.069 464.583 156.839C466.224 156.608 467.367 155.091 467.136 153.45L466.232 147.016C465.958 145.067 465.308 143.257 464.362 141.653ZM155.645 187.361C156.06 185.757 155.097 184.12 153.493 183.704C151.889 183.289 150.252 184.252 149.837 185.856C149.37 187.659 149.244 189.579 149.517 191.527L150.422 197.962C150.652 199.602 152.169 200.746 153.81 200.515C155.451 200.284 156.594 198.767 156.363 197.127L155.459 190.692C155.297 189.538 155.372 188.413 155.645 187.361ZM468.614 165.31C468.035 164.239 466.833 163.587 465.557 163.767C463.916 163.997 462.773 165.514 463.003 167.155L464.812 180.024C465.043 181.665 466.56 182.808 468.2 182.578C469.841 182.347 470.984 180.83 470.754 179.189L468.945 166.32C468.918 166.128 468.874 165.943 468.813 165.766L468.747 165.292L468.614 165.31ZM157.841 208.987C157.262 207.916 156.06 207.263 154.784 207.443C153.143 207.673 152 209.19 152.23 210.831L154.039 223.701C154.27 225.341 155.787 226.484 157.427 226.254C159.068 226.023 160.211 224.506 159.981 222.866L158.583 212.922L159.318 212.818L158.762 208.857L157.841 208.987ZM472.562 192.059C472.332 190.418 470.815 189.275 469.174 189.505C467.533 189.736 466.39 191.253 466.621 192.894L468.429 205.763C468.66 207.404 470.177 208.547 471.818 208.316C473.458 208.086 474.602 206.569 474.371 204.928L472.562 192.059ZM161.789 235.735C161.559 234.094 160.042 232.951 158.401 233.182C156.76 233.412 155.617 234.929 155.848 236.57L157.656 249.439C157.887 251.08 159.404 252.223 161.045 251.993C162.686 251.762 163.829 250.245 163.598 248.604L161.789 235.735ZM165.407 261.474C165.176 259.833 163.659 258.69 162.018 258.921C160.378 259.151 159.235 260.668 159.465 262.309L161.274 275.178C161.504 276.819 163.021 277.962 164.662 277.732C166.303 277.501 167.446 275.984 167.215 274.343L165.407 261.474ZM476.18 217.798C475.949 216.157 474.432 215.014 472.791 215.244C471.151 215.475 470.008 216.992 470.238 218.633L472.047 231.502C472.277 233.143 473.794 234.286 475.435 234.055C477.076 233.825 478.219 232.308 477.988 230.667L476.18 217.798ZM479.797 243.536C479.566 241.896 478.049 240.753 476.409 240.983C474.768 241.214 473.625 242.731 473.855 244.371L475.664 257.241C475.895 258.882 477.412 260.025 479.052 259.794C480.693 259.564 481.836 258.047 481.606 256.406L479.797 243.536ZM169.024 287.213C168.794 285.572 167.277 284.429 165.636 284.659C163.995 284.89 162.852 286.407 163.083 288.048L164.891 300.917C165.122 302.558 166.639 303.701 168.28 303.47C169.92 303.24 171.063 301.723 170.833 300.082L169.024 287.213ZM483.414 269.275C483.184 267.635 481.667 266.491 480.026 266.722C478.385 266.953 477.242 268.47 477.473 270.11L479.282 282.98C479.512 284.62 481.029 285.764 482.67 285.533C484.311 285.302 485.454 283.785 485.223 282.145L483.414 269.275ZM172.641 312.952C172.411 311.311 170.894 310.168 169.253 310.398C167.612 310.629 166.469 312.146 166.7 313.787L168.509 326.656C168.739 328.297 170.256 329.44 171.897 329.209C173.538 328.979 174.681 327.462 174.45 325.821L172.641 312.952ZM487.032 295.014C486.801 293.373 485.284 292.23 483.643 292.461C482.003 292.691 480.86 294.208 481.09 295.849L481.995 302.284C482.157 303.438 482.081 304.563 481.809 305.615C481.393 307.219 482.356 308.856 483.96 309.271C485.564 309.687 487.201 308.723 487.617 307.12C488.084 305.317 488.21 303.397 487.936 301.449L487.032 295.014ZM176.259 338.69C176.028 337.05 174.511 335.907 172.871 336.137C171.23 336.368 170.087 337.885 170.317 339.525L171.222 345.96C171.495 347.909 172.146 349.719 173.092 351.323C173.933 352.75 175.772 353.225 177.199 352.384C178.627 351.542 179.102 349.703 178.26 348.276C177.708 347.339 177.325 346.279 177.163 345.125L176.259 338.69ZM183.491 352.218C181.887 351.802 180.25 352.766 179.835 354.37C179.419 355.973 180.382 357.61 181.986 358.026C183.789 358.493 185.709 358.619 187.657 358.345L193.655 357.502C195.296 357.272 196.439 355.755 196.208 354.114C195.978 352.473 194.461 351.33 192.82 351.561L186.822 352.404C185.668 352.566 184.543 352.49 183.491 352.218ZM480.914 316.014C482.341 315.173 482.816 313.334 481.975 311.906C481.133 310.479 479.294 310.004 477.867 310.846C476.93 311.398 475.87 311.781 474.716 311.943L468.718 312.786C467.078 313.016 465.934 314.533 466.165 316.174C466.396 317.815 467.913 318.958 469.553 318.727L475.551 317.884C477.5 317.611 479.31 316.96 480.914 316.014ZM204.816 349.875C203.175 350.105 202.032 351.622 202.262 353.263C202.493 354.904 204.01 356.047 205.651 355.816L217.646 354.131C219.287 353.9 220.43 352.383 220.199 350.742C219.969 349.102 218.452 347.958 216.811 348.189L204.816 349.875ZM228.807 346.503C227.166 346.734 226.023 348.251 226.253 349.891C226.484 351.532 228.001 352.675 229.642 352.445L241.637 350.759C243.278 350.528 244.421 349.011 244.191 347.371C243.96 345.73 242.443 344.587 240.802 344.817L228.807 346.503ZM252.798 343.131C251.157 343.362 250.014 344.879 250.245 346.52C250.475 348.16 251.992 349.304 253.633 349.073L265.628 347.387C267.269 347.157 268.412 345.64 268.182 343.999C267.951 342.358 266.434 341.215 264.793 341.445L252.798 343.131ZM276.789 339.76C275.148 339.99 274.005 341.507 274.236 343.148C274.466 344.789 275.983 345.932 277.624 345.701L289.62 344.015C291.26 343.785 292.403 342.268 292.173 340.627C291.942 338.986 290.425 337.843 288.785 338.074L276.789 339.76ZM300.78 336.388C299.139 336.618 297.996 338.135 298.227 339.776C298.457 341.417 299.974 342.56 301.615 342.329L313.611 340.644C315.251 340.413 316.395 338.896 316.164 337.255C315.933 335.615 314.416 334.471 312.776 334.702L300.78 336.388ZM324.771 333.016C323.131 333.247 321.987 334.764 322.218 336.404C322.449 338.045 323.966 339.188 325.606 338.958L337.602 337.272C339.243 337.041 340.386 335.524 340.155 333.884C339.925 332.243 338.408 331.1 336.767 331.33L324.771 333.016ZM348.762 329.644C347.122 329.875 345.979 331.392 346.209 333.033C346.44 334.673 347.957 335.817 349.597 335.586L361.593 333.9C363.234 333.67 364.377 332.153 364.146 330.512C363.916 328.871 362.399 327.728 360.758 327.959L348.762 329.644ZM372.754 326.273C371.113 326.503 369.97 328.02 370.2 329.661C370.431 331.302 371.948 332.445 373.589 332.214L385.584 330.528C387.225 330.298 388.368 328.781 388.137 327.14C387.907 325.499 386.39 324.356 384.749 324.587L372.754 326.273ZM396.745 322.901C395.104 323.132 393.961 324.649 394.191 326.289C394.422 327.93 395.939 329.073 397.58 328.843L409.575 327.157C411.216 326.926 412.359 325.409 412.129 323.768C411.898 322.128 410.381 320.984 408.74 321.215L396.745 322.901ZM420.736 319.529C419.095 319.76 417.952 321.277 418.183 322.918C418.413 324.558 419.93 325.701 421.571 325.471L433.567 323.785C435.207 323.554 436.35 322.037 436.12 320.397C435.889 318.756 434.372 317.613 432.732 317.843L420.736 319.529ZM444.727 316.157C443.086 316.388 441.943 317.905 442.174 319.546C442.404 321.187 443.921 322.33 445.562 322.099L457.558 320.413C459.198 320.183 460.342 318.666 460.111 317.025C459.88 315.384 458.363 314.241 456.723 314.472L444.727 316.157ZM169.159 211.435L179 210.052L178.443 206.091L168.603 207.474L169.159 211.435ZM188.841 208.669L198.682 207.286L198.125 203.325L188.284 204.708L188.841 208.669ZM208.522 205.903L218.363 204.52L217.807 200.559L207.966 201.942L208.522 205.903ZM228.204 203.137L238.045 201.754L237.488 197.793L227.647 199.176L228.204 203.137ZM247.886 200.371L257.726 198.988L257.17 195.027L247.329 196.41L247.886 200.371ZM267.567 197.605L277.408 196.222L276.851 192.261L267.01 193.644L267.567 197.605ZM287.249 194.839L297.09 193.456L296.533 189.495L286.692 190.878L287.249 194.839ZM306.93 192.073L316.771 190.69L316.214 186.729L306.374 188.112L306.93 192.073ZM326.612 189.307L336.453 187.924L335.896 183.963L326.055 185.346L326.612 189.307ZM346.293 186.541L356.134 185.158L355.578 181.197L345.737 182.58L346.293 186.541ZM365.975 183.775L375.816 182.392L375.259 178.431L365.418 179.814L365.975 183.775ZM385.657 181.009L395.497 179.626L394.941 175.664L385.1 177.047L385.657 181.009ZM405.338 178.242L415.179 176.859L414.622 172.898L404.781 174.281L405.338 178.242ZM425.02 175.476L434.861 174.093L434.304 170.132L424.463 171.515L425.02 175.476ZM444.701 172.71L454.542 171.327L453.985 167.366L444.145 168.749L444.701 172.71Z" fill="#D47F1D"/>
<rect x="183.92" y="229.558" width="122" height="95" rx="15" transform="rotate(-8 183.92 229.558)" fill="#D47F1D"/>
<rect x="321.566" y="210.212" width="122" height="11" rx="5.5" transform="rotate(-8 321.566 210.212)" fill="#D47F1D" fill-opacity="0.5"/>
<rect x="324.35" y="230.018" width="94" height="11" rx="5.5" transform="rotate(-8 324.35 230.018)" fill="#D47F1D" fill-opacity="0.5"/>
<rect x="332.004" y="284.482" width="63" height="20" rx="10" transform="rotate(-8 332.004 284.482)" fill="#D47F1D"/>
<path d="M228.527 259.556C228.04 256.084 228.516 253.044 229.958 250.434C231.399 247.824 233.605 245.721 236.574 244.124C239.567 242.523 243.113 241.435 247.212 240.859C250.92 240.338 254.421 240.436 257.715 241.152C261.01 241.869 263.782 243.297 266.032 245.435C268.282 247.573 269.655 250.413 270.153 253.953C270.579 256.985 270.432 259.448 269.712 261.343C269.012 263.211 268.018 264.661 266.73 265.691C265.442 266.722 263.546 267.932 261.04 269.323C259.681 270.009 258.617 270.631 257.85 271.187C257.103 271.717 256.523 272.353 256.11 273.095C255.718 273.811 255.582 274.68 255.702 275.701C255.737 275.956 255.873 276.421 256.109 277.095C255.537 276.869 254.754 276.731 253.761 276.682C252.791 276.63 251.638 276.697 250.302 276.885C247.723 277.247 245.859 277.852 244.709 278.698C244.212 277.328 243.894 276.157 243.758 275.185C243.488 273.264 243.602 271.655 244.101 270.358C244.6 269.061 245.373 267.961 246.42 267.059C247.491 266.153 249 265.115 250.949 263.944L251.631 263.53C253.145 262.609 254.285 261.859 255.049 261.28C255.813 260.7 256.398 260.016 256.803 259.228C257.206 258.416 257.329 257.455 257.173 256.344C256.919 254.539 256.063 253.373 254.603 252.847C253.163 252.294 251.384 252.166 249.265 252.464C243.808 253.231 241.326 255.373 241.82 258.891C241.888 259.377 242.017 259.878 242.207 260.394C242.397 260.91 242.648 261.359 242.96 261.74L229.028 261.361C228.798 260.898 228.631 260.296 228.527 259.556ZM252.897 295.6C250.963 295.872 249.412 295.866 248.245 295.581C247.081 295.32 246.177 294.739 245.534 293.839C244.914 292.935 244.485 291.638 244.247 289.948C244.013 288.282 244.071 286.941 244.422 285.924C244.792 284.881 245.5 284.073 246.547 283.501C247.591 282.906 249.08 282.473 251.014 282.201C252.972 281.926 254.534 281.93 255.701 282.215C256.888 282.473 257.79 283.042 258.407 283.923C259.047 284.801 259.486 286.084 259.723 287.773C259.964 289.486 259.899 290.864 259.529 291.907C259.179 292.924 258.469 293.72 257.399 294.295C256.355 294.89 254.855 295.325 252.897 295.6Z" fill="#E1DAC2"/>
<path opacity="0.2" d="M178.877 394.868L493.782 350.611" stroke="#004C4C" stroke-width="4" stroke-linecap="round"/>
<path opacity="0.2" d="M189.176 468.147L504.081 423.89" stroke="#004C4C" stroke-width="4" stroke-linecap="round"/>
<circle cx="119" cy="84" r="6" fill="#D47F1D"/>
<circle cx="466" cy="35" r="6" fill="#D47F1D"/>
<circle cx="182" cy="534" r="6" fill="#D47F1D"/>
<circle cx="529" cy="485" r="6" fill="#D47F1D"/>
</svg>
