<svg width="446" height="459" viewBox="0 0 446 459" fill="none" xmlns="http://www.w3.org/2000/svg">
<g clip-path="url(#clip0_2489_15464)">
<mask id="path-1-outside-1_2489_15464" maskUnits="userSpaceOnUse" x="-53.1153" y="-26.4778" width="535.574" height="516.482" fill="black">
<rect fill="white" x="-53.1153" y="-26.4778" width="535.574" height="516.482"/>
<path fill-rule="evenodd" clip-rule="evenodd" d="M89.2304 68.5993C91.52 70.887 91.5216 74.5978 89.2338 76.8875L66.5215 99.6188C64.2338 101.909 60.523 101.91 58.2333 99.6223C55.9436 97.3345 55.9421 93.6238 58.2298 91.3341L80.9421 68.6028C83.2299 66.3131 86.9407 66.3115 89.2304 68.5993ZM57.5007 272.334L25.2832 269.71C15.9312 268.948 10.5501 280.104 16.9681 286.949L43.023 314.735C43.6548 315.409 43.9319 316.341 43.7708 317.251L37.3925 353.244C35.8013 362.223 45.8416 368.659 53.336 363.463L79.0513 345.636C83.2543 355.002 91.266 361.847 100.686 364.783L104.174 398.484C104.898 405.48 112.289 409.688 118.675 406.74L142.589 395.699C143.869 395.108 145.389 395.512 146.206 396.661L158.199 413.53C161.531 418.218 168.067 419.249 172.681 415.816L192.986 400.705C214.265 413.258 241.362 420.698 273.723 415.032C364.162 399.198 374.979 334.027 374.492 313.718C374.481 313.259 374.469 312.801 374.454 312.344C374.364 309.305 374.218 306.34 374.02 303.444C402.146 291.819 417.97 260.857 409.881 230.669C403.814 208.025 385.877 191.731 364.558 186.688C371.955 174.539 375.593 158.794 373.449 141.764C390.897 116.76 393.18 93.1927 386.355 74.6581C384.334 69.1686 381.527 64.1807 378.142 59.7992C374.817 54.6989 370.261 50.2356 364.137 46.969C351.533 37.7932 313.773 31.3586 284.021 47.4782C271.501 54.2614 261.769 61.6715 254.188 68.7181C229.56 55.3298 191.401 43.4819 140.803 57.0395C103.299 67.0887 70.2572 99.4539 54.1619 135.62C35.6283 177.266 39.8648 215.294 56.9017 256.234C57.4282 257.499 58.0123 258.672 58.6508 259.756L57.5007 272.334Z"/>
</mask>
<path fill-rule="evenodd" clip-rule="evenodd" d="M89.2304 68.5993C91.52 70.887 91.5216 74.5978 89.2338 76.8875L66.5215 99.6188C64.2338 101.909 60.523 101.91 58.2333 99.6223C55.9436 97.3345 55.9421 93.6238 58.2298 91.3341L80.9421 68.6028C83.2299 66.3131 86.9407 66.3115 89.2304 68.5993ZM57.5007 272.334L25.2832 269.71C15.9312 268.948 10.5501 280.104 16.9681 286.949L43.023 314.735C43.6548 315.409 43.9319 316.341 43.7708 317.251L37.3925 353.244C35.8013 362.223 45.8416 368.659 53.336 363.463L79.0513 345.636C83.2543 355.002 91.266 361.847 100.686 364.783L104.174 398.484C104.898 405.48 112.289 409.688 118.675 406.74L142.589 395.699C143.869 395.108 145.389 395.512 146.206 396.661L158.199 413.53C161.531 418.218 168.067 419.249 172.681 415.816L192.986 400.705C214.265 413.258 241.362 420.698 273.723 415.032C364.162 399.198 374.979 334.027 374.492 313.718C374.481 313.259 374.469 312.801 374.454 312.344C374.364 309.305 374.218 306.34 374.02 303.444C402.146 291.819 417.97 260.857 409.881 230.669C403.814 208.025 385.877 191.731 364.558 186.688C371.955 174.539 375.593 158.794 373.449 141.764C390.897 116.76 393.18 93.1927 386.355 74.6581C384.334 69.1686 381.527 64.1807 378.142 59.7992C374.817 54.6989 370.261 50.2356 364.137 46.969C351.533 37.7932 313.773 31.3586 284.021 47.4782C271.501 54.2614 261.769 61.6715 254.188 68.7181C229.56 55.3298 191.401 43.4819 140.803 57.0395C103.299 67.0887 70.2572 99.4539 54.1619 135.62C35.6283 177.266 39.8648 215.294 56.9017 256.234C57.4282 257.499 58.0123 258.672 58.6508 259.756L57.5007 272.334Z" fill="#F2F0EA"/>
<path d="M89.2338 76.8875L79.2792 66.9412L79.2792 66.9412L89.2338 76.8875ZM89.2304 68.5993L99.1767 58.6446L99.1767 58.6446L89.2304 68.5993ZM66.5215 99.6188L56.5669 89.6725L56.5668 89.6725L66.5215 99.6188ZM58.2298 91.3341L68.1845 101.28L68.1845 101.28L58.2298 91.3341ZM80.9421 68.6028L90.8968 78.5491L90.8968 78.5491L80.9421 68.6028ZM25.2832 269.71L26.4258 255.684L26.4258 255.684L25.2832 269.71ZM57.5007 272.334L56.3581 286.36L70.2455 287.491L71.5143 273.616L57.5007 272.334ZM16.9681 286.949L27.2334 277.323L27.2334 277.323L16.9681 286.949ZM43.023 314.735L53.2883 305.11L53.2882 305.11L43.023 314.735ZM43.7708 317.251L29.9145 314.795L29.9145 314.795L43.7708 317.251ZM37.3925 353.244L51.2487 355.7L51.2487 355.7L37.3925 353.244ZM53.336 363.463L45.3185 351.899L45.3185 351.899L53.336 363.463ZM79.0513 345.636L91.8902 339.875L84.9552 324.42L71.0339 334.071L79.0513 345.636ZM100.686 364.783L114.683 363.335L113.728 354.109L104.874 351.349L100.686 364.783ZM104.174 398.484L90.1769 399.933L90.1769 399.933L104.174 398.484ZM118.675 406.74L124.574 419.516L124.574 419.516L118.675 406.74ZM142.589 395.699L136.691 382.922L136.691 382.922L142.589 395.699ZM146.206 396.661L157.675 388.507L157.675 388.507L146.206 396.661ZM158.199 413.53L146.73 421.684L146.73 421.684L158.199 413.53ZM172.681 415.816L181.082 427.105L181.082 427.105L172.681 415.816ZM192.986 400.705L200.136 388.584L192.084 383.834L184.585 389.415L192.986 400.705ZM273.723 415.032L271.296 401.171L271.296 401.171L273.723 415.032ZM374.492 313.718L360.424 314.055L360.424 314.055L374.492 313.718ZM374.454 312.344L360.388 312.762L360.389 312.776L360.389 312.79L374.454 312.344ZM374.02 303.444L368.645 290.439L359.291 294.305L359.981 304.402L374.02 303.444ZM364.558 186.688L352.539 179.369L342.46 195.921L361.318 200.382L364.558 186.688ZM373.449 141.764L361.909 133.712L358.811 138.151L359.488 143.522L373.449 141.764ZM386.355 74.6581L399.561 69.7957L399.561 69.7957L386.355 74.6581ZM378.142 59.7992L366.354 67.484L366.662 67.9563L367.006 68.4024L378.142 59.7992ZM364.137 46.969L355.854 58.3454L356.648 58.9233L357.514 59.3854L364.137 46.969ZM284.021 47.4782L290.724 59.851L290.724 59.851L284.021 47.4782ZM254.188 68.7181L247.468 81.0816L256.358 85.9143L263.769 79.0252L254.188 68.7181ZM54.1619 135.62L67.0184 141.342L67.0184 141.342L54.1619 135.62ZM56.9017 256.234L69.8938 250.827L69.8938 250.827L56.9017 256.234ZM58.6508 259.756L72.6645 261.038L73.0774 256.523L70.777 252.616L58.6508 259.756ZM99.1885 86.8338C106.969 79.0463 106.964 66.4256 99.1767 58.6446L79.284 78.5539C76.0759 75.3485 76.0737 70.1493 79.2792 66.9412L99.1885 86.8338ZM76.4762 109.565L99.1885 86.8338L79.2792 66.9412L56.5669 89.6725L76.4762 109.565ZM48.287 109.577C56.0745 117.358 68.6952 117.353 76.4762 109.565L56.5668 89.6725C59.7723 86.4644 64.9715 86.4622 68.1796 89.6677L48.287 109.577ZM48.2752 81.3878C40.4942 89.1753 40.4995 101.796 48.287 109.577L68.1796 89.6677C71.3878 92.8731 71.3899 98.0723 68.1845 101.28L48.2752 81.3878ZM70.9875 58.6564L48.2752 81.3878L68.1845 101.28L90.8968 78.5491L70.9875 58.6564ZM99.1767 58.6446C91.3892 50.8636 78.7684 50.8689 70.9875 58.6564L90.8968 78.5491C87.6914 81.7572 82.4922 81.7594 79.284 78.5539L99.1767 58.6446ZM24.1406 283.735L56.3581 286.36L58.6433 258.308L26.4258 255.684L24.1406 283.735ZM27.2334 277.323C29.6207 279.869 27.619 284.019 24.1406 283.735L26.4258 255.684C4.24333 253.877 -8.52053 280.339 6.70291 296.574L27.2334 277.323ZM53.2882 305.11L27.2334 277.323L6.70291 296.574L32.7577 324.361L53.2882 305.11ZM57.627 319.706C58.5622 314.429 56.9542 309.019 53.2883 305.11L32.7577 324.361C30.3554 321.799 29.3017 318.254 29.9145 314.795L57.627 319.706ZM51.2487 355.7L57.627 319.706L29.9145 314.795L23.5362 350.789L51.2487 355.7ZM45.3185 351.899C48.1061 349.966 51.8405 352.36 51.2487 355.7L23.5362 350.789C19.762 372.087 43.5772 387.352 61.3534 375.028L45.3185 351.899ZM71.0339 334.071L45.3185 351.899L61.3534 375.028L87.0688 357.201L71.0339 334.071ZM66.2125 351.397C72.1147 364.55 83.3424 374.117 96.4978 378.218L104.874 351.349C99.1896 349.577 94.3938 345.454 91.8902 339.875L66.2125 351.397ZM86.6885 366.232L90.1769 399.933L118.172 397.035L114.683 363.335L86.6885 366.232ZM90.1769 399.933C91.8946 416.528 109.426 426.509 124.574 419.516L112.776 393.963C115.152 392.867 117.902 394.432 118.172 397.035L90.1769 399.933ZM124.574 419.516L148.488 408.475L136.691 382.922L112.776 393.964L124.574 419.516ZM148.488 408.475C143.621 410.722 137.843 409.184 134.737 404.815L157.675 388.507C152.935 381.84 144.118 379.493 136.691 382.922L148.488 408.475ZM134.737 404.815L146.73 421.684L169.668 405.377L157.675 388.507L134.737 404.815ZM146.73 421.684C154.635 432.804 170.137 435.25 181.082 427.105L164.28 404.526C165.996 403.249 168.428 403.633 169.668 405.377L146.73 421.684ZM181.082 427.105L201.387 411.994L184.585 389.415L164.28 404.526L181.082 427.105ZM185.836 412.825C209.657 426.877 240.12 435.202 276.149 428.894L271.296 401.171C242.604 406.194 218.874 399.638 200.136 388.584L185.836 412.825ZM276.149 428.894C324.858 420.366 353.65 398.124 369.894 373.888C385.799 350.158 388.857 325.765 388.56 313.381L360.424 314.055C360.614 321.98 358.507 340.327 346.515 358.218C334.863 375.604 313.027 393.865 271.296 401.171L276.149 428.894ZM388.56 313.381C388.549 312.886 388.535 312.391 388.519 311.898L360.389 312.79C360.402 313.211 360.414 313.632 360.424 314.055L388.56 313.381ZM388.52 311.926C388.424 308.708 388.27 305.563 388.059 302.485L359.981 304.402C360.166 307.117 360.303 309.901 360.388 312.762L388.52 311.926ZM379.395 316.449C413.966 302.161 433.415 264.129 423.474 227.027L396.288 234.311C402.525 257.585 390.326 281.478 368.645 290.439L379.395 316.449ZM423.474 227.027C416.014 199.186 393.952 179.181 367.797 172.994L361.318 200.382C377.802 204.282 391.613 216.864 396.288 234.311L423.474 227.027ZM376.577 194.007C385.704 179.018 389.935 160.051 387.411 140.007L359.488 143.522C361.252 157.537 358.207 170.06 352.539 179.369L376.577 194.007ZM384.99 149.817C404.597 121.718 408.241 93.3711 399.561 69.7957L373.15 79.5204C378.118 93.0143 377.197 111.803 361.909 133.712L384.99 149.817ZM399.561 69.7957C397.034 62.9334 393.521 56.6881 389.278 51.196L367.006 68.4024C369.533 71.6734 371.634 75.4039 373.15 79.5204L399.561 69.7957ZM389.931 52.1143C385.402 45.167 379.12 39.012 370.759 34.5525L357.514 59.3854C361.402 61.4593 364.233 64.2309 366.354 67.484L389.931 52.1143ZM372.419 35.5925C363.016 28.7468 347.324 24.4931 331.216 23.6834C314.595 22.848 295.002 25.5236 277.317 35.1054L290.724 59.851C302.791 53.3132 316.955 51.1463 329.803 51.7922C343.164 52.4638 352.653 56.0153 355.854 58.3454L372.419 35.5925ZM277.317 35.1054C263.689 42.489 253 50.6102 244.608 58.4111L263.769 79.0252C270.539 72.7328 279.313 66.0337 290.724 59.851L277.317 35.1054ZM260.909 56.3547C233.778 41.606 191.913 28.7762 137.161 43.4469L144.445 70.6322C190.889 58.1876 225.341 69.0535 247.468 81.0816L260.909 56.3547ZM137.161 43.4469C94.7748 54.8041 58.7696 90.6564 41.3055 129.899L67.0184 141.342C81.7447 108.251 111.823 79.3732 144.445 70.6322L137.161 43.4469ZM41.3055 129.899C20.7639 176.056 25.8559 218.257 43.9097 261.64L69.8938 250.827C53.8736 212.33 50.4927 178.476 67.0184 141.342L41.3055 129.899ZM43.9097 261.64C44.6692 263.465 45.5383 265.221 46.5247 266.897L70.777 252.616C70.4863 252.123 70.1873 251.532 69.8938 250.827L43.9097 261.64ZM44.6372 258.475L43.487 271.053L71.5143 273.616L72.6645 261.038L44.6372 258.475Z" fill="#F2F0EA" mask="url(#path-1-outside-1_2489_15464)"/>
<path fill-rule="evenodd" clip-rule="evenodd" d="M140.802 57.0412C191.4 43.4836 229.559 55.3314 254.188 68.7197C261.769 61.6731 271.5 54.2629 284.02 47.4797C314.485 30.9739 353.346 38.1159 364.998 47.6343L363.973 49.6983C390.418 61.2741 390.912 93.3774 387.102 110.118L365.155 147.094L284.396 100.467L251.583 116.833L182.515 212.718C148.56 243.557 73.6379 296.454 56.9011 256.235C39.8641 215.295 35.6276 177.268 54.1613 135.622C70.2565 99.4555 103.298 67.0903 140.802 57.0412Z" fill="#005656"/>
<mask id="mask0_2489_15464" style="mask-type:alpha" maskUnits="userSpaceOnUse" x="42" y="51" width="234" height="220">
<path d="M140.802 57.0412C210.148 38.46 256.13 67.5997 275.937 83.0227L182.515 212.718C148.56 243.557 73.6379 296.454 56.9011 256.235C39.8641 215.295 35.6276 177.268 54.1613 135.622C70.2565 99.4555 103.298 67.0903 140.802 57.0412Z" fill="#005656"/>
</mask>
<g mask="url(#mask0_2489_15464)">
<path d="M291.426 34.1639C242.76 60.9628 219.807 96.1249 183.635 142.364C125.157 217.116 104.419 226.99 78.0247 236.22" stroke="#013F3F" stroke-width="12.5086" stroke-linecap="round"/>
<path d="M116.671 211.297C101.17 195.596 65.6928 144.108 64.4938 97.914" stroke="#013F3F" stroke-width="11.7213" stroke-linecap="round"/>
<path d="M76.874 70.3779C91.4982 66.4594 136.616 70.297 200.095 116.995" stroke="#013F3F" stroke-width="11.7213" stroke-linecap="round"/>
</g>
<path d="M349.417 45.8901C308.677 41.0311 283.12 76.8001 275.435 95.2919L365.157 147.093L387.104 110.117C391.516 90.7326 390.157 50.749 349.417 45.8901Z" fill="#012727" fill-opacity="0.5"/>
<path d="M104.173 398.485L100.245 360.537C100.034 358.497 100.44 356.441 101.409 354.633L113.237 332.584C114.729 329.803 117.418 327.863 120.528 327.326L178.132 317.37C183.359 316.467 188.412 319.698 189.785 324.822L205.468 383.35C206.556 387.41 205.056 391.722 201.684 394.232L172.68 415.816C168.066 419.25 161.53 418.219 158.198 413.531L146.205 396.662C145.388 395.513 143.869 395.108 142.588 395.699L118.674 406.74C112.288 409.689 104.897 405.481 104.173 398.485Z" fill="#012727"/>
<path d="M108.406 288.697C125.885 288.261 126.151 276.611 128.65 287.824L140.957 279.975L163.698 237.477L230.133 151.418L314.34 128.855L337.911 188.522C351.355 223.599 373.3 263.983 374.492 313.719C374.979 334.029 364.162 399.2 273.722 415.034C201.858 427.616 155.951 375.564 142.074 346.417C115.124 381.7 90.8484 364.694 79.7769 340.357C68.7054 316.02 86.5582 289.242 108.406 288.697Z" fill="#EDC486"/>
<path fill-rule="evenodd" clip-rule="evenodd" d="M374.49 313.719C374.187 301.045 372.916 289.664 370.969 279.159C365.413 276.76 359.04 276.146 352.741 277.834C337.89 281.813 329.077 297.078 333.057 311.928C337.036 326.779 352.3 335.592 367.151 331.613C369.264 331.047 371.255 330.252 373.104 329.263C374.257 322.864 374.58 317.472 374.49 313.719ZM208.644 374.085C223.495 370.106 232.308 354.841 228.329 339.991C224.35 325.14 209.085 316.327 194.234 320.306C179.384 324.285 170.571 339.55 174.55 354.401C178.529 369.251 193.794 378.064 208.644 374.085Z" fill="#DB7704"/>
<ellipse cx="214.578" cy="283.002" rx="55.6762" ry="55.6761" transform="rotate(-15 214.578 283.002)" fill="#F2F0EA"/>
<ellipse cx="214.578" cy="283.002" rx="55.6762" ry="55.6761" transform="rotate(-15 214.578 283.002)" fill="#F2F0EA"/>
<mask id="mask1_2489_15464" style="mask-type:alpha" maskUnits="userSpaceOnUse" x="158" y="227" width="113" height="112">
<ellipse cx="214.579" cy="283.001" rx="55.6762" ry="55.6761" transform="rotate(-15 214.579 283.001)" fill="#F2F0EA"/>
</mask>
<g mask="url(#mask1_2489_15464)">
<path d="M269.092 235.782L168.478 349.96L185.086 386.465L311.154 327.657L269.092 235.782Z" fill="#E4D8C6"/>
</g>
<ellipse cx="350.441" cy="246.597" rx="55.6762" ry="55.6761" transform="rotate(-15 350.441 246.597)" fill="#F2F0EA"/>
<mask id="mask2_2489_15464" style="mask-type:alpha" maskUnits="userSpaceOnUse" x="294" y="190" width="113" height="113">
<ellipse cx="350.44" cy="246.597" rx="55.6762" ry="55.6761" transform="rotate(-15 350.44 246.597)" fill="#F2F0EA"/>
</mask>
<g mask="url(#mask2_2489_15464)">
<path d="M393.807 191.748L293.193 305.926L309.801 342.431L435.868 283.623L393.807 191.748Z" fill="#E4D8C6"/>
</g>
<ellipse cx="214.578" cy="283.002" rx="55.6762" ry="55.6761" transform="rotate(-15 214.578 283.002)" stroke="#DB7704" stroke-width="11.7213" stroke-linecap="round"/>
<ellipse cx="350.441" cy="246.597" rx="55.6762" ry="55.6761" transform="rotate(-15 350.441 246.597)" stroke="#DB7704" stroke-width="11.7213" stroke-linecap="round"/>
<path d="M62.3752 95.4782L85.0875 72.7469" stroke="#013F3F" stroke-width="11.7213" stroke-linecap="round"/>
<path fill-rule="evenodd" clip-rule="evenodd" d="M101.048 330.388L53.3371 363.464C45.8428 368.66 35.8024 362.224 37.3936 353.245L43.7719 317.252C43.9331 316.342 43.656 315.41 43.0241 314.736L16.9693 286.95C10.5512 280.105 15.9323 268.949 25.2844 269.71L57.7663 272.357C58.5153 266.184 59.6212 261.307 60.4759 259.827L86.431 260.456L126.992 242.004L176.207 199.238L225.307 139.06C241.909 118.937 278.01 77.6121 289.595 73.2945C304.076 67.8975 351.083 73.5038 369.17 124.023C382.419 161.028 367.18 195.848 342.136 207.109C337.215 197.157 333.796 189.375 330.176 181.134C326.487 172.738 322.589 163.866 316.681 151.739C296.449 205.309 264.626 220.144 244.286 223.68C240.521 224.334 237.131 221.591 236.648 217.801C236.03 212.951 235.581 208.498 235.154 204.267C234.167 194.476 233.3 185.872 230.731 176.286C210.88 269.273 145.108 311.359 101.048 330.388Z" fill="#012727"/>
<path d="M270.6 269.508C276.319 264.523 285.96 259.484 296.301 260.911" stroke="#DB7704" stroke-width="11.7213" stroke-linecap="round"/>
<path d="M337.033 241.848C321.184 249.147 310.025 260.023 303.482 267.523" stroke="#012727" stroke-width="11.7213" stroke-linecap="round"/>
<path d="M254.914 350.311C266.873 353.427 285.786 353.11 293.485 351.047C299.38 349.467 311.535 343.482 316.666 335.281M257.403 339.785L248.509 360.37" stroke="#012727" stroke-width="11.7213" stroke-linecap="round"/>
<ellipse cx="304.197" cy="212.142" rx="24.1752" ry="14.6516" transform="rotate(-30.8067 304.197 212.142)" fill="#012727"/>
<ellipse cx="217.087" cy="235.484" rx="24.1752" ry="14.6516" transform="rotate(-6.71871 217.087 235.484)" fill="#012727"/>
<path d="M363.77 277.299C368.213 275.49 377.449 268.872 380.674 259.587" stroke="#F2F0EA" stroke-width="11.7213" stroke-linecap="round"/>
<path d="M216.971 316.633C212.219 317.289 200.911 316.175 193.476 309.747" stroke="#F2F0EA" stroke-width="11.7213" stroke-linecap="round"/>
<path d="M343.776 199.085L349.249 196.988L349.225 196.927L349.201 196.868L343.776 199.085ZM358.07 252.455C359.071 255.533 362.377 257.218 365.456 256.217C368.534 255.216 370.218 251.91 369.217 248.832L358.07 252.455ZM349.201 196.868L339.422 172.943L328.572 177.378L338.351 201.303L349.201 196.868ZM369.217 248.832C363.331 230.725 355.762 213.981 349.249 196.988L338.304 201.183C345.169 219.097 352.285 234.658 358.07 252.455L369.217 248.832Z" fill="#012727"/>
<ellipse cx="111.121" cy="331.2" rx="35.1639" ry="35.1639" transform="rotate(-15 111.121 331.2)" fill="#EDC486"/>
<path d="M151.401 317.373C148.848 313.507 143.174 303.651 133.633 296.348" stroke="#012727" stroke-width="11.7213" stroke-linecap="round"/>
<path d="M302.58 317.062C308.863 307.794 315.925 294.525 296.21 263.404" stroke="#012727" stroke-width="11.7213" stroke-linecap="round"/>
<path d="M246.969 283.424C238.502 280.131 218.221 275.2 197.633 279.2" stroke="#012727" stroke-width="11.7213" stroke-linecap="round"/>
<path fill-rule="evenodd" clip-rule="evenodd" d="M215.279 160.84C253.156 107.743 280.366 79.8916 300.421 65.5534C320.154 51.4448 332.775 50.5343 342.051 51.3826C355.427 52.6059 369.472 62.7316 375.355 78.7088C379.855 90.9304 379.699 107.089 369.709 125.579C371.555 131.053 372.78 136.472 373.447 141.767C390.896 116.762 393.179 93.1938 386.354 74.6587C379.005 54.6991 361.27 41.37 343.118 39.71C330.937 38.596 315.536 40.3377 293.604 56.0184C271.993 71.4694 243.893 100.544 205.737 154.033C139.278 247.197 87.7623 261.68 64.4439 259.869L58.6803 259.422L58.1539 265.178L56.803 279.95L56.3637 284.755L60.9939 286.109C64.8499 287.237 67.1798 284.402 67.6557 283.716C68.2581 282.849 68.5303 281.987 68.636 281.635C68.8936 280.78 69.0432 279.829 69.1416 279.081C69.353 277.473 69.4953 275.428 69.5946 273.529C69.6264 272.921 69.6545 272.312 69.6793 271.72C100.195 271.068 152.283 249.149 215.279 160.84Z" fill="#012727"/>
<ellipse cx="110.599" cy="332.097" rx="21.2449" ry="21.2448" transform="rotate(-15 110.599 332.097)" fill="#DB7704"/>
<path d="M129.182 332.789C127.154 323.209 118.145 309.753 99.4903 317.966M107.714 334.765L117.634 320.853" stroke="#012727" stroke-width="11.7213" stroke-linecap="round"/>
<path d="M287.284 376.825C291.159 374.168 301.869 369.032 313.714 369.743" stroke="#DB7704" stroke-width="11.7213" stroke-linecap="round"/>
<path d="M430.635 108.223C429.421 117.437 424.427 122.895 419.172 124.881C418.489 125.139 418 125.77 418 126.5C418 127.23 418.489 127.861 419.172 128.119C424.427 130.105 429.421 135.563 430.635 144.777C430.726 145.467 431.304 146 432 146C432.696 146 433.274 145.467 433.365 144.777C434.579 135.563 439.573 130.105 444.828 128.119C445.511 127.861 446 127.23 446 126.5C446 125.77 445.511 125.139 444.828 124.881C439.573 122.895 434.579 117.437 433.365 108.223C433.274 107.533 432.696 107 432 107C431.304 107 430.726 107.533 430.635 108.223Z" fill="#DB7704"/>
<path d="M413.126 150.786C412.354 156.932 409.152 160.577 405.778 161.911C405.325 162.09 405 162.513 405 163C405 163.487 405.325 163.91 405.778 164.089C409.152 165.423 412.354 169.068 413.126 175.214C413.182 175.657 413.553 176 414 176C414.447 176 414.818 175.657 414.874 175.214C415.646 169.068 418.848 165.423 422.222 164.089C422.675 163.91 423 163.487 423 163C423 162.513 422.675 162.09 422.222 161.911C418.848 160.577 415.646 156.932 414.874 150.786C414.818 150.343 414.447 150 414 150C413.553 150 413.182 150.343 413.126 150.786Z" fill="#DB7704"/>
</g>
<defs>
<clipPath id="clip0_2489_15464">
<rect width="446" height="459" fill="white"/>
</clipPath>
</defs>
</svg>
