<svg width="446" height="529" viewBox="0 0 446 529" fill="none" xmlns="http://www.w3.org/2000/svg">
<g clip-path="url(#clip0_2284_8025)">
<rect x="51" width="303" height="529" rx="151.5" fill="#E1DAC2"/>
<mask id="path-2-outside-1_2284_8025" maskUnits="userSpaceOnUse" x="-53.1163" y="5.52172" width="535.574" height="516.482" fill="black">
<rect fill="white" x="-53.1163" y="5.52172" width="535.574" height="516.482"/>
<path fill-rule="evenodd" clip-rule="evenodd" d="M89.2296 100.599C91.5193 102.887 91.5208 106.597 89.233 108.887L66.5207 131.618C64.233 133.908 60.5222 133.91 58.2325 131.622C55.9428 129.334 55.9413 125.623 58.2291 123.334L80.9414 100.602C83.2291 98.3125 86.9399 98.311 89.2296 100.599ZM57.4999 304.334L25.2824 301.71C15.9304 300.948 10.5493 312.104 16.9674 318.949L43.0222 346.735C43.654 347.409 43.9311 348.342 43.77 349.251L37.3917 385.244C35.8005 394.224 45.8408 400.659 53.3352 395.464L79.0505 377.636C83.2535 387.003 91.2652 393.847 100.685 396.784L104.173 430.484C104.898 437.48 112.288 441.688 118.674 438.74L142.589 427.699C143.869 427.108 145.388 427.512 146.205 428.661L158.198 445.531C161.531 450.218 168.066 451.25 172.68 447.816L192.985 432.705C214.264 445.258 241.361 452.698 273.722 447.032C364.161 431.198 374.978 366.027 374.492 345.718C374.481 345.259 374.468 344.801 374.453 344.344C374.363 341.305 374.217 338.34 374.019 335.444C402.145 323.82 417.969 292.857 409.88 262.669C403.813 240.025 385.876 223.732 364.557 218.688C371.955 206.54 375.592 190.794 373.449 173.765C390.896 148.761 393.179 125.193 386.355 106.658C384.333 101.167 381.525 96.1784 378.139 91.796C374.814 86.6974 370.259 82.2356 364.136 78.9697C351.532 69.794 313.772 63.3594 284.02 79.479C271.5 86.2622 261.768 93.6724 254.188 100.719C229.559 87.3307 191.4 75.4829 140.802 89.0405C103.298 99.0896 70.2564 131.455 54.1611 167.621C35.6275 209.267 39.864 247.295 56.9009 288.235C57.4274 289.5 58.0115 290.673 58.65 291.757L57.4999 304.334Z"/>
</mask>
<path fill-rule="evenodd" clip-rule="evenodd" d="M89.2296 100.599C91.5193 102.887 91.5208 106.597 89.233 108.887L66.5207 131.618C64.233 133.908 60.5222 133.91 58.2325 131.622C55.9428 129.334 55.9413 125.623 58.2291 123.334L80.9414 100.602C83.2291 98.3125 86.9399 98.311 89.2296 100.599ZM57.4999 304.334L25.2824 301.71C15.9304 300.948 10.5493 312.104 16.9674 318.949L43.0222 346.735C43.654 347.409 43.9311 348.342 43.77 349.251L37.3917 385.244C35.8005 394.224 45.8408 400.659 53.3352 395.464L79.0505 377.636C83.2535 387.003 91.2652 393.847 100.685 396.784L104.173 430.484C104.898 437.48 112.288 441.688 118.674 438.74L142.589 427.699C143.869 427.108 145.388 427.512 146.205 428.661L158.198 445.531C161.531 450.218 168.066 451.25 172.68 447.816L192.985 432.705C214.264 445.258 241.361 452.698 273.722 447.032C364.161 431.198 374.978 366.027 374.492 345.718C374.481 345.259 374.468 344.801 374.453 344.344C374.363 341.305 374.217 338.34 374.019 335.444C402.145 323.82 417.969 292.857 409.88 262.669C403.813 240.025 385.876 223.732 364.557 218.688C371.955 206.54 375.592 190.794 373.449 173.765C390.896 148.761 393.179 125.193 386.355 106.658C384.333 101.167 381.525 96.1784 378.139 91.796C374.814 86.6974 370.259 82.2356 364.136 78.9697C351.532 69.794 313.772 63.3594 284.02 79.479C271.5 86.2622 261.768 93.6724 254.188 100.719C229.559 87.3307 191.4 75.4829 140.802 89.0405C103.298 99.0896 70.2564 131.455 54.1611 167.621C35.6275 209.267 39.864 247.295 56.9009 288.235C57.4274 289.5 58.0115 290.673 58.65 291.757L57.4999 304.334Z" fill="#E1DAC2"/>
<path d="M89.233 108.887L79.2784 98.9406L79.2784 98.9406L89.233 108.887ZM89.2296 100.599L99.1759 90.6441L99.1759 90.6441L89.2296 100.599ZM66.5207 131.618L56.5661 121.672L56.5661 121.672L66.5207 131.618ZM58.2325 131.622L48.2862 141.576L48.2862 141.576L58.2325 131.622ZM58.2291 123.334L68.1837 133.28L68.1837 133.28L58.2291 123.334ZM80.9414 100.602L90.896 110.549L90.896 110.549L80.9414 100.602ZM25.2824 301.71L26.425 287.684L26.425 287.684L25.2824 301.71ZM57.4999 304.334L56.3573 318.36L70.2447 319.491L71.5135 305.616L57.4999 304.334ZM16.9674 318.949L27.2326 309.323L27.2326 309.323L16.9674 318.949ZM43.0222 346.735L53.2875 337.11L53.2874 337.11L43.0222 346.735ZM43.77 349.251L29.9137 346.796L29.9137 346.796L43.77 349.251ZM37.3917 385.244L51.2479 387.7L51.2479 387.7L37.3917 385.244ZM53.3352 395.464L45.3177 383.899L45.3177 383.899L53.3352 395.464ZM79.0505 377.636L91.8894 371.875L84.9545 356.42L71.0331 366.071L79.0505 377.636ZM100.685 396.784L114.682 395.335L113.727 386.109L104.873 383.349L100.685 396.784ZM104.173 430.484L90.1761 431.933L90.1761 431.933L104.173 430.484ZM118.674 438.74L124.573 451.516L124.573 451.516L118.674 438.74ZM142.589 427.699L136.69 414.923L136.69 414.923L142.589 427.699ZM146.205 428.661L157.674 420.508L157.674 420.508L146.205 428.661ZM158.198 445.531L146.729 453.684L146.729 453.684L158.198 445.531ZM172.68 447.816L181.081 459.105L181.081 459.105L172.68 447.816ZM192.985 432.705L200.135 420.585L192.084 415.835L184.584 421.416L192.985 432.705ZM273.722 447.032L271.295 433.171L271.295 433.171L273.722 447.032ZM374.492 345.718L360.423 346.055L360.423 346.055L374.492 345.718ZM374.453 344.344L360.387 344.762L360.388 344.776L360.388 344.79L374.453 344.344ZM374.019 335.444L368.644 322.439L359.29 326.305L359.98 336.403L374.019 335.444ZM364.557 218.688L352.538 211.37L342.459 227.921L361.317 232.382L364.557 218.688ZM373.449 173.765L361.908 165.712L358.811 170.151L359.487 175.522L373.449 173.765ZM386.355 106.658L399.56 101.796L399.56 101.796L386.355 106.658ZM378.139 91.796L366.351 99.4823L366.659 99.9542L367.004 100.4L378.139 91.796ZM364.136 78.9697L355.853 90.3462L356.647 90.9241L357.513 91.3862L364.136 78.9697ZM284.02 79.479L290.724 91.8518L290.724 91.8518L284.02 79.479ZM254.188 100.719L247.467 113.082L256.357 117.915L263.768 111.026L254.188 100.719ZM54.1611 167.621L67.0176 173.343L67.0176 173.343L54.1611 167.621ZM56.9009 288.235L69.893 282.828L69.893 282.828L56.9009 288.235ZM58.65 291.757L72.6637 293.039L73.0765 288.524L70.7762 284.617L58.65 291.757ZM99.1877 118.833C106.969 111.046 106.963 98.425 99.1759 90.6441L79.2832 110.553C76.0751 107.348 76.0729 102.149 79.2784 98.9406L99.1877 118.833ZM76.4754 141.565L99.1877 118.833L79.2784 98.9406L56.5661 121.672L76.4754 141.565ZM48.2862 141.576C56.0737 149.357 68.6944 149.352 76.4754 141.565L56.5661 121.672C59.7715 118.464 64.9707 118.462 68.1789 121.667L48.2862 141.576ZM48.2744 113.387C40.4934 121.175 40.4987 133.795 48.2862 141.576L68.1789 121.667C71.387 124.873 71.3892 130.072 68.1837 133.28L48.2744 113.387ZM70.9867 90.6559L48.2744 113.387L68.1837 133.28L90.896 110.549L70.9867 90.6559ZM99.1759 90.6441C91.3884 82.8631 78.7677 82.8684 70.9867 90.6559L90.896 110.549C87.6906 113.757 82.4914 113.759 79.2832 110.553L99.1759 90.6441ZM24.1398 315.735L56.3573 318.36L58.6425 290.309L26.425 287.684L24.1398 315.735ZM27.2326 309.323C29.6199 311.869 27.6182 316.019 24.1398 315.735L26.425 287.684C4.24254 285.877 -8.52132 312.339 6.70213 328.574L27.2326 309.323ZM53.2874 337.11L27.2326 309.323L6.70212 328.574L32.7569 356.361L53.2874 337.11ZM57.6262 351.707C58.5614 346.429 56.9535 341.02 53.2875 337.11L32.7569 356.361C30.3546 353.799 29.3009 350.254 29.9137 346.796L57.6262 351.707ZM51.2479 387.7L57.6262 351.707L29.9137 346.796L23.5354 382.789L51.2479 387.7ZM45.3177 383.899C48.1053 381.966 51.8398 384.36 51.2479 387.7L23.5354 382.789C19.7612 404.087 43.5764 419.352 61.3527 407.028L45.3177 383.899ZM71.0331 366.071L45.3177 383.899L61.3526 407.028L87.068 389.201L71.0331 366.071ZM66.2117 383.397C72.114 396.551 83.3416 406.117 96.497 410.218L104.873 383.349C99.1888 381.577 94.393 377.455 91.8894 371.875L66.2117 383.397ZM86.6877 398.233L90.1761 431.933L118.171 429.035L114.682 395.335L86.6877 398.233ZM90.1761 431.933C91.8939 448.528 109.426 458.509 124.573 451.516L112.776 425.964C115.151 424.867 117.901 426.432 118.171 429.035L90.1761 431.933ZM124.573 451.516L148.487 440.475L136.69 414.923L112.775 425.964L124.573 451.516ZM148.487 440.475C143.62 442.722 137.842 441.184 134.736 436.815L157.674 420.508C152.934 413.84 144.118 411.493 136.69 414.923L148.487 440.475ZM134.736 436.815L146.729 453.684L169.667 437.377L157.674 420.508L134.736 436.815ZM146.729 453.684C154.634 464.804 170.136 467.25 181.081 459.105L164.279 436.527C165.996 435.249 168.427 435.633 169.667 437.377L146.729 453.684ZM181.081 459.105L201.387 443.994L184.584 421.416L164.279 436.527L181.081 459.105ZM185.835 444.825C209.656 458.877 240.119 467.202 276.149 460.894L271.295 433.171C242.604 438.194 218.873 431.638 200.135 420.585L185.835 444.825ZM276.149 460.894C324.857 452.366 353.649 430.124 369.893 405.888C385.798 382.158 388.856 357.765 388.56 345.381L360.423 346.055C360.613 353.98 358.507 372.327 346.515 390.219C334.862 407.604 313.026 425.865 271.295 433.171L276.149 460.894ZM388.56 345.381C388.548 344.886 388.534 344.391 388.518 343.898L360.388 344.79C360.402 345.211 360.413 345.633 360.423 346.055L388.56 345.381ZM388.519 343.926C388.424 340.708 388.269 337.563 388.059 334.485L359.98 336.403C360.165 339.117 360.302 341.901 360.387 344.762L388.519 343.926ZM379.394 348.449C413.965 334.161 433.414 296.129 423.473 259.027L396.288 266.311C402.524 289.585 390.325 313.478 368.644 322.439L379.394 348.449ZM423.473 259.027C416.013 231.186 393.951 211.181 367.797 204.994L361.317 232.382C377.801 236.282 391.613 248.864 396.288 266.311L423.473 259.027ZM376.576 226.007C385.703 211.019 389.934 192.051 387.411 172.007L359.487 175.522C361.251 189.537 358.206 202.061 352.538 211.37L376.576 226.007ZM384.989 181.817C404.596 153.718 408.241 125.371 399.56 101.796L373.149 111.521C378.118 125.015 377.196 143.803 361.908 165.712L384.989 181.817ZM399.56 101.796C397.032 94.9318 393.519 88.6851 389.274 83.192L367.004 100.4C369.531 103.672 371.633 107.403 373.149 111.521L399.56 101.796ZM389.926 84.1098C385.398 77.1646 379.117 71.0116 370.758 66.5533L357.513 91.3862C361.401 93.4596 364.231 96.2302 366.351 99.4823L389.926 84.1098ZM372.418 67.5933C363.015 60.7476 347.323 56.4939 331.215 55.6842C314.595 54.8488 295.002 57.5244 277.316 67.1062L290.724 91.8518C302.79 85.314 316.954 83.1471 329.802 83.793C343.163 84.4646 352.653 88.0161 355.853 90.3462L372.418 67.5933ZM277.316 67.1062C263.688 74.4899 252.999 82.6111 244.607 90.412L263.768 111.026C270.538 104.734 279.312 98.0346 290.724 91.8518L277.316 67.1062ZM260.908 88.3556C233.777 73.607 191.912 60.7772 137.16 75.4479L144.444 102.633C190.888 90.1886 225.34 101.054 247.467 113.082L260.908 88.3556ZM137.16 75.4479C94.774 86.8051 58.7688 122.657 41.3047 161.9L67.0176 173.343C81.744 140.252 111.822 111.374 144.444 102.633L137.16 75.4479ZM41.3047 161.9C20.7631 208.057 25.8551 250.258 43.9089 293.641L69.893 282.828C53.8728 244.331 50.4919 210.477 67.0176 173.343L41.3047 161.9ZM43.9089 293.641C44.6684 295.466 45.5374 297.222 46.5238 298.897L70.7762 284.617C70.4855 284.124 70.1865 283.533 69.893 282.828L43.9089 293.641ZM44.6363 290.476L43.4862 303.053L71.5135 305.616L72.6637 293.039L44.6363 290.476Z" fill="#E1DAC2" mask="url(#path-2-outside-1_2284_8025)"/>
<path fill-rule="evenodd" clip-rule="evenodd" d="M140.802 89.0388C191.4 75.4811 229.559 87.3289 254.188 100.717C261.768 93.6706 271.5 86.2605 284.02 79.4773C314.485 62.9715 353.346 70.1135 364.998 79.6319L363.972 81.6959C390.418 93.2717 390.912 125.375 387.101 142.115L365.155 179.091L284.396 132.465L251.583 148.83L182.515 244.715C148.56 275.555 73.6379 328.452 56.9011 288.233C39.8641 247.293 35.6276 209.265 54.1613 167.62C70.2565 131.453 103.298 99.0879 140.802 89.0388Z" fill="#005656"/>
<mask id="mask0_2284_8025" style="mask-type:alpha" maskUnits="userSpaceOnUse" x="42" y="83" width="234" height="220">
<path d="M140.802 89.0388C210.148 70.4575 256.13 99.5972 275.937 115.02L182.515 244.715C148.56 275.555 73.6379 328.452 56.9011 288.233C39.8641 247.293 35.6276 209.265 54.1613 167.62C70.2565 131.453 103.298 99.0879 140.802 89.0388Z" fill="#005656"/>
</mask>
<g mask="url(#mask0_2284_8025)">
<path d="M291.426 66.1614C242.76 92.9604 219.807 128.123 183.635 174.361C125.157 249.114 104.419 258.987 78.0247 268.218" stroke="#013F3F" stroke-width="12.5086" stroke-linecap="round"/>
<path d="M116.671 243.295C101.17 227.593 65.6928 176.106 64.4938 129.912" stroke="#013F3F" stroke-width="11.7213" stroke-linecap="round"/>
<path d="M76.874 102.376C91.4982 98.4575 136.616 102.295 200.095 148.993" stroke="#013F3F" stroke-width="11.7213" stroke-linecap="round"/>
</g>
<path d="M349.417 77.8881C308.677 73.0292 283.12 108.798 275.435 127.29L365.157 179.091L387.104 142.115C391.516 122.731 390.157 82.7471 349.417 77.8881Z" fill="#012727" fill-opacity="0.5"/>
<path d="M104.173 430.483L100.245 392.536C100.034 390.496 100.44 388.439 101.409 386.632L113.237 364.583C114.729 361.801 117.418 359.862 120.528 359.324L178.132 349.369C183.359 348.465 188.412 351.697 189.785 356.821L205.468 415.348C206.556 419.408 205.056 423.721 201.684 426.23L172.68 447.815C168.066 451.249 161.53 450.217 158.198 445.53L146.205 428.66C145.388 427.511 143.869 427.107 142.588 427.698L118.674 438.739C112.288 441.687 104.897 437.479 104.173 430.483Z" fill="#012727"/>
<path d="M108.406 320.695C125.885 320.259 126.151 308.609 128.65 319.822L140.957 311.973L163.698 269.475L230.133 183.416L314.34 160.853L337.911 220.52C351.355 255.597 373.3 295.981 374.492 345.717C374.979 366.027 364.162 431.198 273.722 447.032C201.858 459.614 155.951 407.562 142.074 378.415C115.124 413.698 90.8484 396.692 79.7769 372.355C68.7054 348.018 86.5582 321.241 108.406 320.695Z" fill="#DFB584"/>
<path fill-rule="evenodd" clip-rule="evenodd" d="M374.49 345.718C374.187 333.044 372.916 321.662 370.968 311.158C365.413 308.758 359.04 308.145 352.741 309.832C337.89 313.812 329.077 329.076 333.057 343.927C337.036 358.778 352.3 367.591 367.151 363.611C369.264 363.045 371.255 362.251 373.104 361.261C374.257 354.863 374.58 349.47 374.49 345.718ZM208.644 406.083C223.495 402.104 232.308 386.84 228.329 371.989C224.35 357.138 209.085 348.325 194.234 352.304C179.384 356.284 170.571 371.548 174.55 386.399C178.529 401.25 193.794 410.063 208.644 406.083Z" fill="#DB7704"/>
<ellipse cx="214.578" cy="315.001" rx="55.6762" ry="55.6761" transform="rotate(-15 214.578 315.001)" fill="#F2F0EA"/>
<ellipse cx="214.578" cy="315.001" rx="55.6762" ry="55.6761" transform="rotate(-15 214.578 315.001)" fill="#F2F0EA"/>
<mask id="mask1_2284_8025" style="mask-type:alpha" maskUnits="userSpaceOnUse" x="158" y="259" width="113" height="112">
<ellipse cx="214.579" cy="315" rx="55.6762" ry="55.6761" transform="rotate(-15 214.579 315)" fill="#F2F0EA"/>
</mask>
<g mask="url(#mask1_2284_8025)">
<path d="M269.092 267.781L168.478 381.959L185.086 418.464L311.154 359.656L269.092 267.781Z" fill="#E1DAC2"/>
</g>
<ellipse cx="350.441" cy="278.596" rx="55.6762" ry="55.6761" transform="rotate(-15 350.441 278.596)" fill="#F2F0EA"/>
<mask id="mask2_2284_8025" style="mask-type:alpha" maskUnits="userSpaceOnUse" x="294" y="222" width="113" height="113">
<ellipse cx="350.44" cy="278.596" rx="55.6762" ry="55.6761" transform="rotate(-15 350.44 278.596)" fill="#F2F0EA"/>
</mask>
<g mask="url(#mask2_2284_8025)">
<path d="M393.807 223.746L293.193 337.924L309.801 374.429L435.868 315.621L393.807 223.746Z" fill="#E1DAC2"/>
</g>
<ellipse cx="214.578" cy="315.001" rx="55.6762" ry="55.6761" transform="rotate(-15 214.578 315.001)" stroke="#DB7704" stroke-width="11.7213" stroke-linecap="round"/>
<ellipse cx="350.441" cy="278.596" rx="55.6762" ry="55.6761" transform="rotate(-15 350.441 278.596)" stroke="#DB7704" stroke-width="11.7213" stroke-linecap="round"/>
<path d="M62.3752 127.476L85.0875 104.744" stroke="#013F3F" stroke-width="11.7213" stroke-linecap="round"/>
<path fill-rule="evenodd" clip-rule="evenodd" d="M101.048 362.386L53.3371 395.462C45.8428 400.658 35.8024 394.222 37.3936 385.243L43.7719 349.25C43.9331 348.34 43.656 347.408 43.0241 346.734L16.9693 318.948C10.5512 312.103 15.9323 300.947 25.2844 301.709L57.7663 304.355C58.5153 298.182 59.6212 293.305 60.4759 291.825L86.431 292.454L126.992 274.002L176.207 231.236L225.307 171.058C241.909 150.935 278.01 109.61 289.595 105.293C304.076 99.8956 351.083 105.502 369.17 156.021C382.419 193.026 367.18 227.846 342.136 239.107C337.215 229.155 333.796 221.373 330.176 213.132C326.487 204.736 322.589 195.864 316.681 183.737C296.449 237.307 264.626 252.142 244.286 255.678C240.521 256.332 237.131 253.589 236.648 249.799C236.03 244.949 235.581 240.497 235.154 236.265C234.167 226.475 233.3 217.87 230.731 208.284C210.88 301.271 145.108 343.357 101.048 362.386Z" fill="#012727"/>
<path d="M270.6 301.506C276.319 296.521 285.96 291.482 296.301 292.91" stroke="#012727" stroke-width="11.7213" stroke-linecap="round"/>
<path d="M337.033 273.846C321.184 281.145 310.025 292.022 303.482 299.521" stroke="#012727" stroke-width="11.7213" stroke-linecap="round"/>
<path d="M254.914 382.31C266.873 385.425 285.786 385.108 293.485 383.045C299.38 381.466 311.535 375.481 316.666 367.28M257.403 371.783L248.509 392.369" stroke="#012727" stroke-width="11.7213" stroke-linecap="round"/>
<ellipse cx="304.197" cy="244.141" rx="24.1752" ry="14.6516" transform="rotate(-30.8067 304.197 244.141)" fill="#012727"/>
<ellipse cx="217.087" cy="267.482" rx="24.1752" ry="14.6516" transform="rotate(-6.71871 217.087 267.482)" fill="#012727"/>
<path d="M363.77 309.298C368.213 307.489 377.449 300.87 380.674 291.586" stroke="#F2F0EA" stroke-width="11.7213" stroke-linecap="round"/>
<path d="M216.971 348.632C212.219 349.287 200.911 348.173 193.476 341.745" stroke="#F2F0EA" stroke-width="11.7213" stroke-linecap="round"/>
<path d="M343.776 231.084L349.249 228.986L349.225 228.926L349.201 228.866L343.776 231.084ZM358.07 284.454C359.071 287.532 362.377 289.216 365.456 288.215C368.534 287.215 370.218 283.908 369.217 280.83L358.07 284.454ZM349.201 228.866L339.422 204.942L328.572 209.377L338.351 233.301L349.201 228.866ZM369.217 280.83C363.331 262.723 355.762 245.98 349.249 228.986L338.304 233.181C345.169 251.095 352.285 266.657 358.07 284.454L369.217 280.83Z" fill="#012727"/>
<ellipse cx="111.121" cy="363.199" rx="35.1639" ry="35.1639" transform="rotate(-15 111.121 363.199)" fill="#DFB584"/>
<path d="M151.401 349.372C148.848 345.506 143.174 335.65 133.633 328.347" stroke="#012727" stroke-width="11.7213" stroke-linecap="round"/>
<path d="M302.58 349.06C308.863 339.793 315.925 326.524 296.21 295.402" stroke="#012727" stroke-width="11.7213" stroke-linecap="round"/>
<path d="M246.969 315.422C238.502 312.129 218.221 307.199 197.633 311.198" stroke="#012727" stroke-width="11.7213" stroke-linecap="round"/>
<path fill-rule="evenodd" clip-rule="evenodd" d="M215.279 192.839C253.156 139.741 280.366 111.89 300.421 97.5519C320.154 83.4433 332.775 82.5328 342.051 83.3811C355.427 84.6044 369.472 94.7302 375.355 110.707C379.855 122.929 379.699 139.088 369.709 157.577C371.555 163.051 372.78 168.47 373.447 173.765C390.896 148.761 393.179 125.192 386.354 106.657C379.005 86.6976 361.27 73.3686 343.118 71.7085C330.937 70.5945 315.536 72.3363 293.604 88.0169C271.993 103.468 243.893 132.543 205.737 186.032C139.278 279.196 87.7622 293.678 64.4439 291.868L58.6803 291.42L58.1539 297.177L56.803 311.949L56.3637 316.753L60.9939 318.108C64.8499 319.236 67.1798 316.4 67.6557 315.715C68.2581 314.848 68.5303 313.985 68.636 313.634C68.8936 312.779 69.0432 311.828 69.1416 311.079C69.353 309.472 69.4953 307.426 69.5946 305.528C69.6264 304.919 69.6545 304.311 69.6793 303.718C100.195 303.066 152.283 281.148 215.279 192.839Z" fill="#012727"/>
<ellipse cx="110.599" cy="364.095" rx="21.2449" ry="21.2448" transform="rotate(-15 110.599 364.095)" fill="#DB7704"/>
<path d="M129.182 364.788C127.154 355.207 118.145 341.751 99.4903 349.964M107.714 366.763L117.634 352.851" stroke="#012727" stroke-width="11.7213" stroke-linecap="round"/>
<path d="M287.284 408.823C291.159 406.166 301.869 401.03 313.714 401.741" stroke="#DB7704" stroke-width="11.7213" stroke-linecap="round"/>
<path d="M430.635 140.223C429.421 149.437 424.427 154.895 419.172 156.881C418.489 157.139 418 157.77 418 158.5C418 159.23 418.489 159.861 419.172 160.119C424.427 162.105 429.421 167.563 430.635 176.777C430.726 177.467 431.304 178 432 178C432.696 178 433.274 177.467 433.365 176.777C434.579 167.563 439.573 162.105 444.828 160.119C445.511 159.861 446 159.23 446 158.5C446 157.77 445.511 157.139 444.828 156.881C439.573 154.895 434.579 149.437 433.365 140.223C433.274 139.533 432.696 139 432 139C431.304 139 430.726 139.533 430.635 140.223Z" fill="#DB7704"/>
<path d="M413.126 182.786C412.354 188.932 409.152 192.577 405.778 193.911C405.325 194.09 405 194.513 405 195C405 195.487 405.325 195.91 405.778 196.089C409.152 197.423 412.354 201.068 413.126 207.214C413.182 207.657 413.553 208 414 208C414.447 208 414.818 207.657 414.874 207.214C415.646 201.068 418.848 197.423 422.222 196.089C422.675 195.91 423 195.487 423 195C423 194.513 422.675 194.09 422.222 193.911C418.848 192.577 415.646 188.932 414.874 182.786C414.818 182.343 414.447 182 414 182C413.553 182 413.182 182.343 413.126 182.786Z" fill="#DB7704"/>
</g>
<defs>
<clipPath id="clip0_2284_8025">
<rect width="446" height="529" fill="white"/>
</clipPath>
</defs>
</svg>
