<svg width="446" height="459" viewBox="0 0 446 459" fill="none" xmlns="http://www.w3.org/2000/svg">
<g clip-path="url(#clip0_2478_15808)">
<mask id="path-1-outside-1_2478_15808" maskUnits="userSpaceOnUse" x="-53.1163" y="-26.4783" width="535.574" height="516.482" fill="black">
<rect fill="white" x="-53.1163" y="-26.4783" width="535.574" height="516.482"/>
<path fill-rule="evenodd" clip-rule="evenodd" d="M89.2296 68.5987C91.5193 70.8865 91.5208 74.5973 89.233 76.8869L66.5207 99.6183C64.233 101.908 60.5222 101.91 58.2325 99.6218C55.9428 97.334 55.9413 93.6232 58.2291 91.3336L80.9414 68.6022C83.2291 66.3125 86.9399 66.311 89.2296 68.5987ZM57.4999 272.334L25.2824 269.71C15.9304 268.948 10.5493 280.104 16.9674 286.949L43.0222 314.735C43.654 315.409 43.9311 316.342 43.77 317.251L37.3917 353.244C35.8005 362.224 45.8408 368.659 53.3352 363.464L79.0505 345.636C83.2535 355.003 91.2653 361.847 100.685 364.784L104.173 398.483C104.898 405.48 112.288 409.687 118.674 406.739L142.589 395.698C143.869 395.107 145.388 395.511 146.205 396.661L158.198 413.53C161.531 418.218 168.066 419.249 172.68 415.815L192.984 400.705C214.263 413.258 241.361 420.699 273.722 415.033C364.161 399.199 374.978 334.028 374.492 313.719C374.487 313.516 374.481 313.314 374.476 313.112C374.469 312.862 374.462 312.613 374.454 312.364C374.364 309.318 374.217 306.347 374.019 303.445C402.145 291.82 417.969 260.858 409.88 230.67C403.813 208.026 385.876 191.732 364.557 186.689C371.955 174.54 375.593 158.794 373.449 141.765C390.896 116.761 393.179 93.193 386.355 74.6583C384.333 69.1674 381.525 64.1784 378.139 59.7961C374.814 54.6974 370.259 50.2356 364.136 46.9697C351.532 37.794 313.772 31.3594 284.02 47.479C271.5 54.2622 261.768 61.6724 254.188 68.719C229.559 55.3307 191.4 43.4829 140.802 57.0405C103.298 67.0896 70.2564 99.4549 54.1611 135.621C35.6275 177.267 39.864 215.295 56.9009 256.235C57.4274 257.5 58.0115 258.673 58.65 259.757L57.4999 272.334Z"/>
</mask>
<path fill-rule="evenodd" clip-rule="evenodd" d="M89.2296 68.5987C91.5193 70.8865 91.5208 74.5973 89.233 76.8869L66.5207 99.6183C64.233 101.908 60.5222 101.91 58.2325 99.6218C55.9428 97.334 55.9413 93.6232 58.2291 91.3336L80.9414 68.6022C83.2291 66.3125 86.9399 66.311 89.2296 68.5987ZM57.4999 272.334L25.2824 269.71C15.9304 268.948 10.5493 280.104 16.9674 286.949L43.0222 314.735C43.654 315.409 43.9311 316.342 43.77 317.251L37.3917 353.244C35.8005 362.224 45.8408 368.659 53.3352 363.464L79.0505 345.636C83.2535 355.003 91.2653 361.847 100.685 364.784L104.173 398.483C104.898 405.48 112.288 409.687 118.674 406.739L142.589 395.698C143.869 395.107 145.388 395.511 146.205 396.661L158.198 413.53C161.531 418.218 168.066 419.249 172.68 415.815L192.984 400.705C214.263 413.258 241.361 420.699 273.722 415.033C364.161 399.199 374.978 334.028 374.492 313.719C374.487 313.516 374.481 313.314 374.476 313.112C374.469 312.862 374.462 312.613 374.454 312.364C374.364 309.318 374.217 306.347 374.019 303.445C402.145 291.82 417.969 260.858 409.88 230.67C403.813 208.026 385.876 191.732 364.557 186.689C371.955 174.54 375.593 158.794 373.449 141.765C390.896 116.761 393.179 93.193 386.355 74.6583C384.333 69.1674 381.525 64.1784 378.139 59.7961C374.814 54.6974 370.259 50.2356 364.136 46.9697C351.532 37.794 313.772 31.3594 284.02 47.479C271.5 54.2622 261.768 61.6724 254.188 68.719C229.559 55.3307 191.4 43.4829 140.802 57.0405C103.298 67.0896 70.2564 99.4549 54.1611 135.621C35.6275 177.267 39.864 215.295 56.9009 256.235C57.4274 257.5 58.0115 258.673 58.65 259.757L57.4999 272.334Z" fill="#F2F0EA"/>
<path d="M89.233 76.8869L79.2784 66.9406L79.2784 66.9406L89.233 76.8869ZM89.2296 68.5987L99.1759 58.6441L99.1759 58.6441L89.2296 68.5987ZM66.5207 99.6183L56.5661 89.672L56.5661 89.672L66.5207 99.6183ZM58.2325 99.6218L48.2862 109.576L48.2862 109.576L58.2325 99.6218ZM58.2291 91.3336L68.1837 101.28L68.1837 101.28L58.2291 91.3336ZM80.9414 68.6022L90.896 78.5485L90.896 78.5485L80.9414 68.6022ZM25.2824 269.71L26.425 255.684L26.425 255.684L25.2824 269.71ZM57.4999 272.334L56.3573 286.36L70.2447 287.491L71.5135 273.616L57.4999 272.334ZM16.9674 286.949L27.2326 277.323L27.2326 277.323L16.9674 286.949ZM43.0222 314.735L53.2875 305.11L53.2874 305.11L43.0222 314.735ZM43.77 317.251L29.9137 314.796L29.9137 314.796L43.77 317.251ZM37.3917 353.244L51.2479 355.7L51.2479 355.7L37.3917 353.244ZM53.3352 363.464L45.3177 351.899L45.3177 351.899L53.3352 363.464ZM79.0505 345.636L91.8894 339.875L84.9545 324.42L71.0331 334.071L79.0505 345.636ZM100.685 364.784L114.682 363.335L113.728 354.11L104.873 351.349L100.685 364.784ZM104.173 398.483L90.1761 399.932L90.1761 399.932L104.173 398.483ZM118.674 406.739L124.573 419.515L124.573 419.515L118.674 406.739ZM142.589 395.698L136.69 382.922L136.69 382.922L142.589 395.698ZM146.205 396.661L157.674 388.507L157.674 388.507L146.205 396.661ZM158.198 413.53L146.729 421.684L146.729 421.684L158.198 413.53ZM172.68 415.815L181.081 427.104L181.081 427.104L172.68 415.815ZM192.984 400.705L200.134 388.585L192.083 383.835L184.583 389.416L192.984 400.705ZM273.722 415.033L271.295 401.172L271.295 401.172L273.722 415.033ZM374.492 313.719L360.423 314.056L360.423 314.056L374.492 313.719ZM374.476 313.112L388.543 312.727L388.543 312.726L374.476 313.112ZM374.454 312.364L360.388 312.781L360.388 312.795L360.389 312.81L374.454 312.364ZM374.019 303.445L368.644 290.44L359.29 294.305L359.98 304.403L374.019 303.445ZM364.557 186.689L352.538 179.37L342.459 195.922L361.317 200.383L364.557 186.689ZM373.449 141.765L361.908 133.712L358.81 138.151L359.487 143.522L373.449 141.765ZM386.355 74.6583L399.56 69.796L399.56 69.7959L386.355 74.6583ZM378.139 59.7961L366.351 67.4823L366.659 67.9543L367.004 68.4001L378.139 59.7961ZM364.136 46.9697L355.853 58.3462L356.647 58.9241L357.513 59.3862L364.136 46.9697ZM284.02 47.479L290.724 59.8518L290.724 59.8518L284.02 47.479ZM254.188 68.719L247.467 81.0825L256.357 85.9152L263.768 79.0261L254.188 68.719ZM54.1611 135.621L67.0176 141.343L67.0176 141.343L54.1611 135.621ZM56.9009 256.235L69.893 250.828L69.893 250.828L56.9009 256.235ZM58.65 259.757L72.6637 261.039L73.0765 256.524L70.7762 252.617L58.65 259.757ZM99.1877 86.8333C106.969 79.0458 106.963 66.425 99.1759 58.6441L79.2832 78.5534C76.0751 75.348 76.0729 70.1488 79.2784 66.9406L99.1877 86.8333ZM76.4754 109.565L99.1877 86.8333L79.2784 66.9406L56.5661 89.672L76.4754 109.565ZM48.2862 109.576C56.0737 117.357 68.6944 117.352 76.4754 109.565L56.5661 89.672C59.7715 86.4639 64.9707 86.4617 68.1789 89.6671L48.2862 109.576ZM48.2744 81.3872C40.4934 89.1747 40.4987 101.795 48.2862 109.576L68.1789 89.6671C71.387 92.8725 71.3892 98.0718 68.1837 101.28L48.2744 81.3872ZM70.9867 58.6559L48.2744 81.3872L68.1837 101.28L90.896 78.5485L70.9867 58.6559ZM99.1759 58.6441C91.3884 50.8631 78.7677 50.8684 70.9867 58.6559L90.896 78.5485C87.6906 81.7567 82.4914 81.7588 79.2832 78.5534L99.1759 58.6441ZM24.1398 283.735L56.3573 286.36L58.6425 258.309L26.425 255.684L24.1398 283.735ZM27.2326 277.323C29.6199 279.869 27.6182 284.019 24.1398 283.735L26.425 255.684C4.24254 253.877 -8.52132 280.339 6.70213 296.574L27.2326 277.323ZM53.2874 305.11L27.2326 277.323L6.70212 296.574L32.7569 324.361L53.2874 305.11ZM57.6262 319.707C58.5614 314.429 56.9535 309.02 53.2875 305.11L32.7569 324.361C30.3546 321.799 29.3009 318.254 29.9137 314.796L57.6262 319.707ZM51.2479 355.7L57.6262 319.707L29.9137 314.796L23.5354 350.789L51.2479 355.7ZM45.3177 351.899C48.1053 349.966 51.8398 352.36 51.2479 355.7L23.5354 350.789C19.7612 372.087 43.5764 387.352 61.3527 375.028L45.3177 351.899ZM71.0331 334.071L45.3177 351.899L61.3526 375.028L87.068 357.201L71.0331 334.071ZM66.2117 351.397C72.114 364.551 83.3417 374.117 96.4971 378.218L104.873 351.349C99.1888 349.577 94.393 345.455 91.8894 339.875L66.2117 351.397ZM86.6878 366.233L90.1761 399.932L118.171 397.035L114.682 363.335L86.6878 366.233ZM90.1761 399.932C91.8939 416.527 109.426 426.509 124.573 419.515L112.776 393.963C115.151 392.866 117.901 394.432 118.171 397.035L90.1761 399.932ZM124.573 419.515L148.487 408.474L136.69 382.922L112.775 393.963L124.573 419.515ZM148.487 408.474C143.62 410.721 137.842 409.184 134.736 404.814L157.674 388.507C152.934 381.839 144.118 379.493 136.69 382.922L148.487 408.474ZM134.736 404.814L146.729 421.684L169.667 405.376L157.674 388.507L134.736 404.814ZM146.729 421.684C154.634 432.803 170.136 435.249 181.081 427.104L164.279 404.526C165.996 403.248 168.427 403.632 169.667 405.376L146.729 421.684ZM181.081 427.104L201.385 411.994L184.583 389.416L164.279 404.526L181.081 427.104ZM185.834 412.825C209.655 426.878 240.119 435.203 276.149 428.895L271.295 401.172C242.603 406.195 218.872 399.639 200.134 388.585L185.834 412.825ZM276.149 428.895C324.857 420.367 353.649 398.125 369.893 373.889C385.798 350.159 388.856 325.766 388.56 313.382L360.423 314.056C360.613 321.981 358.507 340.328 346.515 358.219C334.862 375.605 313.026 393.866 271.295 401.172L276.149 428.895ZM388.56 313.382C388.554 313.163 388.549 312.945 388.543 312.727L360.409 313.496C360.414 313.682 360.419 313.869 360.423 314.056L388.56 313.382ZM388.543 312.726C388.535 312.457 388.527 312.188 388.519 311.919L360.389 312.81C360.396 313.038 360.403 313.268 360.409 313.497L388.543 312.726ZM388.52 311.948C388.424 308.722 388.269 305.57 388.059 302.486L359.98 304.403C360.166 307.124 360.303 309.914 360.388 312.781L388.52 311.948ZM379.394 316.45C413.965 302.162 433.414 264.13 423.473 227.028L396.288 234.312C402.524 257.586 390.325 281.479 368.644 290.44L379.394 316.45ZM423.473 227.028C416.013 199.187 393.951 179.182 367.797 172.995L361.317 200.383C377.801 204.283 391.613 216.865 396.288 234.312L423.473 227.028ZM376.576 194.008C385.703 179.019 389.934 160.051 387.41 140.007L359.487 143.522C361.251 157.537 358.206 170.061 352.538 179.37L376.576 194.008ZM384.989 149.817C404.596 121.718 408.241 93.3714 399.56 69.796L373.149 79.5206C378.118 93.0145 377.196 111.803 361.908 133.712L384.989 149.817ZM399.56 69.7959C397.032 62.9318 393.519 56.6851 389.274 51.192L367.004 68.4001C369.531 71.6717 371.633 75.4031 373.149 79.5207L399.56 69.7959ZM389.926 52.1098C385.398 45.1646 379.117 39.0116 370.758 34.5533L357.513 59.3862C361.401 61.4596 364.231 64.2302 366.351 67.4823L389.926 52.1098ZM372.418 35.5933C363.015 28.7476 347.323 24.4939 331.215 23.6842C314.595 22.8488 295.002 25.5244 277.316 35.1062L290.724 59.8518C302.79 53.314 316.954 51.1471 329.802 51.793C343.163 52.4646 352.653 56.0161 355.853 58.3462L372.418 35.5933ZM277.316 35.1062C263.688 42.4899 252.999 50.6111 244.607 58.412L263.768 79.0261C270.538 72.7336 279.312 66.0346 290.724 59.8518L277.316 35.1062ZM260.908 56.3556C233.777 41.607 191.912 28.7772 137.16 43.4479L144.444 70.6331C190.888 58.1886 225.34 69.0545 247.467 81.0825L260.908 56.3556ZM137.16 43.4479C94.774 54.8051 58.7688 90.6574 41.3047 129.9L67.0176 141.343C81.744 108.252 111.822 79.3741 144.444 70.6331L137.16 43.4479ZM41.3047 129.9C20.7631 176.057 25.8551 218.258 43.9089 261.641L69.893 250.828C53.8728 212.331 50.4919 178.477 67.0176 141.343L41.3047 129.9ZM43.9089 261.641C44.6684 263.466 45.5374 265.222 46.5238 266.897L70.7762 252.617C70.4855 252.124 70.1865 251.533 69.893 250.828L43.9089 261.641ZM44.6363 258.476L43.4862 271.053L71.5135 273.616L72.6637 261.039L44.6363 258.476Z" fill="#F2F0EA" mask="url(#path-1-outside-1_2478_15808)"/>
<path fill-rule="evenodd" clip-rule="evenodd" d="M140.802 57.0388C191.4 43.4811 229.559 55.3289 254.188 68.7172C261.768 61.6706 271.5 54.2605 284.02 47.4773C314.485 30.9715 353.346 38.1135 364.998 47.6319L363.972 49.6959C390.418 61.2717 390.912 93.3751 387.101 110.115L365.155 147.091L284.396 100.465L251.583 116.83L182.515 212.715C148.56 243.555 73.6379 296.452 56.9011 256.233C39.8641 215.293 35.6276 177.265 54.1613 135.62C70.2565 99.4531 103.298 67.0879 140.802 57.0388Z" fill="#005656"/>
<mask id="mask0_2478_15808" style="mask-type:alpha" maskUnits="userSpaceOnUse" x="42" y="51" width="234" height="220">
<path d="M140.802 57.0388C210.148 38.4575 256.13 67.5972 275.937 83.0203L182.515 212.715C148.56 243.555 73.6379 296.452 56.9011 256.233C39.8641 215.293 35.6276 177.265 54.1613 135.62C70.2565 99.4531 103.298 67.0879 140.802 57.0388Z" fill="#005656"/>
</mask>
<g mask="url(#mask0_2478_15808)">
<path d="M291.426 34.1614C242.76 60.9604 219.807 96.1225 183.635 142.361C125.157 217.114 104.419 226.987 78.0247 236.218" stroke="#013F3F" stroke-width="12.5086" stroke-linecap="round"/>
<path d="M116.671 211.295C101.17 195.593 65.6928 144.106 64.4938 97.9116" stroke="#013F3F" stroke-width="11.7213" stroke-linecap="round"/>
<path d="M76.874 70.376C91.4982 66.4575 136.616 70.295 200.095 116.993" stroke="#013F3F" stroke-width="11.7213" stroke-linecap="round"/>
</g>
<path d="M349.417 45.8881C308.677 41.0292 283.12 76.7981 275.435 95.2899L365.157 147.091L387.104 110.115C391.516 90.7306 390.157 50.7471 349.417 45.8881Z" fill="#012727" fill-opacity="0.5"/>
<path d="M104.173 398.483L100.245 360.536C100.034 358.496 100.44 356.439 101.409 354.632L113.237 332.583C114.729 329.801 117.418 327.862 120.528 327.324L178.132 317.369C183.359 316.465 188.412 319.697 189.785 324.821L205.468 383.348C206.556 387.408 205.056 391.721 201.684 394.23L172.68 415.815C168.066 419.249 161.53 418.217 158.198 413.53L146.205 396.66C145.388 395.511 143.869 395.107 142.588 395.698L118.674 406.739C112.288 409.687 104.897 405.479 104.173 398.483Z" fill="#012727"/>
<path d="M108.406 288.694C125.885 288.258 126.151 276.608 128.65 287.821L140.957 279.973L163.698 237.474L230.133 151.415L314.34 128.852L337.911 188.519C351.355 223.596 373.3 263.98 374.492 313.716C374.979 334.026 364.162 399.197 273.722 415.031C201.858 427.613 155.951 375.561 142.074 346.414C115.124 381.697 90.8484 364.691 79.7769 340.354C68.7054 316.017 86.5582 289.24 108.406 288.694Z" fill="#EDC486"/>
<path fill-rule="evenodd" clip-rule="evenodd" d="M208.644 374.084C223.495 370.105 232.308 354.84 228.329 339.989C224.35 325.139 209.085 316.326 194.234 320.305C179.384 324.284 170.571 339.549 174.55 354.399C178.529 369.25 193.794 378.063 208.644 374.084ZM374.49 313.719C374.187 301.045 372.916 289.664 370.968 279.159C365.413 276.76 359.04 276.146 352.741 277.834C337.89 281.813 329.077 297.078 333.056 311.928C337.036 326.779 352.3 335.592 367.151 331.613C369.264 331.047 371.255 330.252 373.104 329.262C374.257 322.864 374.58 317.472 374.49 313.719Z" fill="#DB7704"/>
<ellipse cx="214.578" cy="283" rx="55.6762" ry="55.6761" transform="rotate(-15 214.578 283)" fill="#F2F0EA"/>
<ellipse cx="214.578" cy="283" rx="55.6762" ry="55.6761" transform="rotate(-15 214.578 283)" fill="#F2F0EA"/>
<mask id="mask1_2478_15808" style="mask-type:alpha" maskUnits="userSpaceOnUse" x="158" y="227" width="113" height="112">
<ellipse cx="214.579" cy="283" rx="55.6762" ry="55.6761" transform="rotate(-15 214.579 283)" fill="#F2F0EA"/>
</mask>
<g mask="url(#mask1_2478_15808)">
<path d="M269.092 235.78L168.478 349.958L185.086 386.463L311.154 327.655L269.092 235.78Z" fill="#E4D8C6"/>
</g>
<ellipse cx="350.441" cy="246.596" rx="55.6762" ry="55.6761" transform="rotate(-15 350.441 246.596)" fill="#F2F0EA"/>
<mask id="mask2_2478_15808" style="mask-type:alpha" maskUnits="userSpaceOnUse" x="294" y="190" width="113" height="113">
<ellipse cx="350.441" cy="246.595" rx="55.6762" ry="55.6761" transform="rotate(-15 350.441 246.595)" fill="#F2F0EA"/>
</mask>
<g mask="url(#mask2_2478_15808)">
<path d="M393.808 191.745L293.194 305.923L309.802 342.428L435.869 283.62L393.808 191.745Z" fill="#E4D8C6"/>
</g>
<ellipse cx="214.578" cy="283" rx="55.6762" ry="55.6761" transform="rotate(-15 214.578 283)" stroke="#DB7704" stroke-width="11.7213" stroke-linecap="round"/>
<ellipse cx="350.441" cy="246.596" rx="55.6762" ry="55.6761" transform="rotate(-15 350.441 246.596)" stroke="#DB7704" stroke-width="11.7213" stroke-linecap="round"/>
<path d="M62.3752 95.4758L85.0875 72.7444" stroke="#013F3F" stroke-width="11.7213" stroke-linecap="round"/>
<path fill-rule="evenodd" clip-rule="evenodd" d="M101.045 330.388L53.3369 363.463C45.8426 368.658 35.8022 362.223 37.3934 353.243L43.7717 317.25C43.9329 316.341 43.6558 315.408 43.0239 314.734L16.9691 286.948C10.551 280.103 15.9321 268.947 25.2842 269.709L57.7662 272.355C58.5152 266.182 59.6211 261.306 60.4757 259.826L86.4308 260.455L126.992 242.003L176.207 199.237L225.307 139.059C241.909 118.936 278.01 77.6112 289.595 73.2936C304.075 67.8966 351.083 73.5028 369.17 124.022C382.419 161.027 367.18 195.847 342.135 207.108C337.215 197.156 333.796 189.374 330.175 181.133C326.487 172.737 322.589 163.865 316.681 151.738C296.449 205.308 264.626 220.143 244.285 223.679C240.521 224.333 237.131 221.59 236.648 217.8C236.03 212.951 235.581 208.498 235.154 204.266C234.167 194.476 233.299 185.871 230.731 176.285C210.879 269.274 145.104 311.36 101.045 330.388Z" fill="#012727"/>
<path d="M270.6 269.506C276.319 264.521 285.96 259.482 296.301 260.91" stroke="#012727" stroke-width="11.7213" stroke-linecap="round"/>
<path d="M337.033 241.846C321.184 249.145 310.025 260.021 303.482 267.521" stroke="#012727" stroke-width="11.7213" stroke-linecap="round"/>
<path d="M254.914 350.31C266.873 353.426 285.786 353.109 293.485 351.046C299.38 349.467 311.535 343.482 316.666 335.281M257.403 339.784L248.509 360.37" stroke="#012727" stroke-width="11.7213" stroke-linecap="round"/>
<ellipse cx="304.197" cy="212.14" rx="24.1752" ry="14.6516" transform="rotate(-30.8067 304.197 212.14)" fill="#012727"/>
<ellipse cx="217.087" cy="235.482" rx="24.1752" ry="14.6516" transform="rotate(-6.71871 217.087 235.482)" fill="#012727"/>
<path d="M363.77 277.297C368.213 275.488 377.449 268.869 380.674 259.585" stroke="#F2F0EA" stroke-width="11.7213" stroke-linecap="round"/>
<path d="M216.971 316.631C212.219 317.287 200.911 316.173 193.476 309.745" stroke="#F2F0EA" stroke-width="11.7213" stroke-linecap="round"/>
<path d="M343.776 199.084L349.249 196.986L349.225 196.926L349.201 196.866L343.776 199.084ZM358.07 252.454C359.071 255.532 362.377 257.216 365.456 256.215C368.534 255.215 370.218 251.908 369.217 248.83L358.07 252.454ZM349.201 196.866L339.422 172.942L328.572 177.377L338.351 201.301L349.201 196.866ZM369.217 248.83C363.331 230.723 355.762 213.98 349.249 196.986L338.304 201.181C345.169 219.095 352.285 234.657 358.07 252.454L369.217 248.83Z" fill="#012727"/>
<ellipse cx="111.121" cy="331.199" rx="35.1639" ry="35.1639" transform="rotate(-15 111.121 331.199)" fill="#EDC486"/>
<path d="M151.401 317.372C148.848 313.506 143.174 303.65 133.633 296.347" stroke="#012727" stroke-width="11.7213" stroke-linecap="round"/>
<path d="M302.58 317.061C308.863 307.794 315.925 294.525 296.21 263.403" stroke="#012727" stroke-width="11.7213" stroke-linecap="round"/>
<path d="M246.969 283.421C238.502 280.128 218.221 275.198 197.633 279.197" stroke="#012727" stroke-width="11.7213" stroke-linecap="round"/>
<path fill-rule="evenodd" clip-rule="evenodd" d="M215.279 160.838C253.156 107.741 280.366 79.8897 300.421 65.5514C320.154 51.4428 332.775 50.5323 342.051 51.3806C355.427 52.6039 369.472 62.7297 375.355 78.7068C379.855 90.9284 379.699 107.087 369.709 125.577C371.555 131.051 372.78 136.47 373.447 141.765C390.896 116.76 393.179 93.1918 386.354 74.6567C379.005 54.6971 361.27 41.3681 343.118 39.708C330.937 38.5941 315.536 40.3358 293.604 56.0164C271.993 71.4674 243.893 100.542 205.737 154.031C139.278 247.195 87.7622 261.678 64.4439 259.867L58.6803 259.42L58.1539 265.177L56.803 279.949L56.3637 284.753L60.9939 286.107C64.8499 287.235 67.1798 284.4 67.6557 283.715C68.2581 282.847 68.5303 281.985 68.636 281.634C68.8936 280.778 69.0432 279.828 69.1416 279.079C69.353 277.471 69.4953 275.426 69.5946 273.527C69.6264 272.919 69.6545 272.31 69.6793 271.718C100.195 271.066 152.283 249.147 215.279 160.838Z" fill="#012727"/>
<ellipse cx="110.599" cy="332.096" rx="21.2449" ry="21.2448" transform="rotate(-15 110.599 332.096)" fill="#DB7704"/>
<path d="M129.182 332.787C127.154 323.207 118.145 309.751 99.4903 317.963M107.714 334.763L117.634 320.85" stroke="#012727" stroke-width="11.7213" stroke-linecap="round"/>
<path d="M287.284 376.823C291.159 374.166 301.869 369.03 313.714 369.741" stroke="#DB7704" stroke-width="11.7213" stroke-linecap="round"/>
<path d="M430.635 108.223C429.421 117.437 424.427 122.895 419.172 124.881C418.489 125.139 418 125.77 418 126.5C418 127.23 418.489 127.861 419.172 128.119C424.427 130.105 429.421 135.563 430.635 144.777C430.726 145.467 431.304 146 432 146C432.696 146 433.274 145.467 433.365 144.777C434.579 135.563 439.573 130.105 444.828 128.119C445.511 127.861 446 127.23 446 126.5C446 125.77 445.511 125.139 444.828 124.881C439.573 122.895 434.579 117.437 433.365 108.223C433.274 107.533 432.696 107 432 107C431.304 107 430.726 107.533 430.635 108.223Z" fill="#DB7704"/>
<path d="M413.126 150.786C412.354 156.932 409.152 160.577 405.778 161.911C405.325 162.09 405 162.513 405 163C405 163.487 405.325 163.91 405.778 164.089C409.152 165.423 412.354 169.068 413.126 175.214C413.182 175.657 413.553 176 414 176C414.447 176 414.818 175.657 414.874 175.214C415.646 169.068 418.848 165.423 422.222 164.089C422.675 163.91 423 163.487 423 163C423 162.513 422.675 162.09 422.222 161.911C418.848 160.577 415.646 156.932 414.874 150.786C414.818 150.343 414.447 150 414 150C413.553 150 413.182 150.343 413.126 150.786Z" fill="#DB7704"/>
</g>
<defs>
<clipPath id="clip0_2478_15808">
<rect width="446" height="459" fill="white"/>
</clipPath>
</defs>
</svg>
