<svg width="541" height="529" viewBox="0 0 541 529" fill="none" xmlns="http://www.w3.org/2000/svg">
<rect x="104" width="303" height="529" rx="151.5" fill="#E1DAC2"/>
<mask id="path-2-outside-1_2284_8025" maskUnits="userSpaceOnUse" x="0.033124" y="5.48266" width="535.574" height="516.482" fill="black">
<rect fill="white" x="0.033124" y="5.48266" width="535.574" height="516.482"/>
<path fill-rule="evenodd" clip-rule="evenodd" d="M142.228 100.6C144.518 102.888 144.519 106.599 142.232 108.888L119.519 131.62C117.232 133.909 113.521 133.911 111.231 131.623C108.941 129.335 108.94 125.625 111.228 123.335L133.94 100.604C136.228 98.3139 139.938 98.3123 142.228 100.6ZM426.447 173.765C428.591 190.794 424.953 206.54 417.556 218.689C438.875 223.732 456.811 240.026 462.879 262.67C470.968 292.858 455.144 323.82 427.018 335.444C427.216 338.342 427.362 341.309 427.452 344.35C427.466 344.805 427.479 345.261 427.49 345.719C427.977 366.028 417.16 431.199 326.72 447.033C295.333 452.528 268.897 445.694 247.919 433.823L220.853 453.965C216.239 457.399 209.703 456.368 206.371 451.68L194.378 434.811C193.561 433.662 192.041 433.257 190.761 433.848L166.847 444.889C160.461 447.838 153.07 443.63 152.346 436.634L148.418 398.686C148.283 397.384 148.4 396.076 148.753 394.83C139.904 390.526 132.9 382.552 130.153 372.301C130.109 372.139 130.067 371.976 130.026 371.814C119.715 388.291 94.5621 402.862 89.195 390.859C84.1273 379.526 88.793 358.153 90.4524 351.473C90.7583 350.241 90.2853 348.951 89.2744 348.185C84.0011 344.186 68.375 330.926 68.7175 314.436C69.0592 297.986 93.0642 302.806 109.697 313.095L111.649 291.758C111.01 290.673 110.426 289.5 109.899 288.234C92.8622 247.294 88.6257 209.267 107.159 167.621C123.255 131.455 156.296 99.0894 193.8 89.0403C244.398 75.4826 282.557 87.3305 307.186 100.719C314.767 93.6721 324.498 86.262 337.018 79.4788C366.77 63.3592 404.53 69.7938 417.134 78.9696C423.255 82.2345 427.81 86.6947 431.134 91.7915C434.522 96.1749 437.331 101.165 439.353 106.658C446.178 125.193 443.895 148.761 426.447 173.765Z"/>
</mask>
<path fill-rule="evenodd" clip-rule="evenodd" d="M142.228 100.6C144.518 102.888 144.519 106.599 142.232 108.888L119.519 131.62C117.232 133.909 113.521 133.911 111.231 131.623C108.941 129.335 108.94 125.625 111.228 123.335L133.94 100.604C136.228 98.3139 139.938 98.3123 142.228 100.6ZM426.447 173.765C428.591 190.794 424.953 206.54 417.556 218.689C438.875 223.732 456.811 240.026 462.879 262.67C470.968 292.858 455.144 323.82 427.018 335.444C427.216 338.342 427.362 341.309 427.452 344.35C427.466 344.805 427.479 345.261 427.49 345.719C427.977 366.028 417.16 431.199 326.72 447.033C295.333 452.528 268.897 445.694 247.919 433.823L220.853 453.965C216.239 457.399 209.703 456.368 206.371 451.68L194.378 434.811C193.561 433.662 192.041 433.257 190.761 433.848L166.847 444.889C160.461 447.838 153.07 443.63 152.346 436.634L148.418 398.686C148.283 397.384 148.4 396.076 148.753 394.83C139.904 390.526 132.9 382.552 130.153 372.301C130.109 372.139 130.067 371.976 130.026 371.814C119.715 388.291 94.5621 402.862 89.195 390.859C84.1273 379.526 88.793 358.153 90.4524 351.473C90.7583 350.241 90.2853 348.951 89.2744 348.185C84.0011 344.186 68.375 330.926 68.7175 314.436C69.0592 297.986 93.0642 302.806 109.697 313.095L111.649 291.758C111.01 290.673 110.426 289.5 109.899 288.234C92.8622 247.294 88.6257 209.267 107.159 167.621C123.255 131.455 156.296 99.0894 193.8 89.0403C244.398 75.4826 282.557 87.3305 307.186 100.719C314.767 93.6721 324.498 86.262 337.018 79.4788C366.77 63.3592 404.53 69.7938 417.134 78.9696C423.255 82.2345 427.81 86.6947 431.134 91.7915C434.522 96.1749 437.331 101.165 439.353 106.658C446.178 125.193 443.895 148.761 426.447 173.765Z" fill="#E1DAC2"/>
<path d="M142.232 108.888L152.186 118.835L152.186 118.835L142.232 108.888ZM142.228 100.6L132.282 110.555L132.282 110.555L142.228 100.6ZM119.519 131.62L109.565 121.673L109.565 121.673L119.519 131.62ZM111.231 131.623L101.285 141.578L101.285 141.578L111.231 131.623ZM111.228 123.335L121.182 133.281L121.182 133.281L111.228 123.335ZM133.94 100.604L143.895 110.55L143.895 110.55L133.94 100.604ZM417.556 218.689L405.537 211.37L395.458 227.922L414.316 232.383L417.556 218.689ZM426.447 173.765L414.907 165.712L411.809 170.152L412.485 175.523L426.447 173.765ZM427.018 335.444L421.643 322.439L412.289 326.305L412.978 336.403L427.018 335.444ZM427.452 344.35L413.386 344.767L413.386 344.781L413.387 344.796L427.452 344.35ZM427.49 345.719L413.422 346.056L413.422 346.056L427.49 345.719ZM326.72 447.033L324.294 433.172L324.294 433.172L326.72 447.033ZM247.919 433.823L254.849 421.576L246.871 417.062L239.517 422.534L247.919 433.823ZM220.853 453.965L229.254 465.254L229.254 465.254L220.853 453.965ZM206.371 451.68L194.901 459.834L194.901 459.834L206.371 451.68ZM194.378 434.811L182.909 442.965L182.909 442.965L194.378 434.811ZM190.761 433.848L184.863 421.072L184.863 421.072L190.761 433.848ZM166.847 444.889L172.745 457.666L172.746 457.666L166.847 444.889ZM152.346 436.634L166.343 435.185L166.343 435.185L152.346 436.634ZM148.418 398.686L162.415 397.237L162.415 397.237L148.418 398.686ZM148.753 394.83L162.291 398.672L165.51 387.331L154.908 382.174L148.753 394.83ZM130.026 371.814L143.668 368.363L135.584 336.407L118.097 364.349L130.026 371.814ZM89.195 390.859L102.041 385.115L102.041 385.115L89.195 390.859ZM90.4524 351.473L104.109 354.865L104.109 354.865L90.4524 351.473ZM89.2744 348.185L97.7771 336.972L97.7771 336.972L89.2744 348.185ZM68.7175 314.436L82.7866 314.729L82.7866 314.729L68.7175 314.436ZM109.697 313.095L102.294 325.063L121.639 337.03L123.711 314.377L109.697 313.095ZM111.649 291.758L125.662 293.039L126.075 288.524L123.775 284.617L111.649 291.758ZM109.899 288.234L122.891 282.828L122.891 282.828L109.899 288.234ZM107.159 167.621L120.016 173.343L120.016 173.343L107.159 167.621ZM307.186 100.719L300.465 113.082L309.355 117.915L316.766 111.026L307.186 100.719ZM337.018 79.4788L330.314 67.106L330.314 67.106L337.018 79.4788ZM417.134 78.9696L408.851 90.346L409.645 90.9239L410.511 91.386L417.134 78.9696ZM431.134 91.7915L419.347 99.4793L419.655 99.9511L420 100.397L431.134 91.7915ZM439.353 106.658L426.148 111.52L426.148 111.52L439.353 106.658ZM152.186 118.835C159.967 111.047 159.962 98.4264 152.174 90.6454L132.282 110.555C129.074 107.349 129.072 102.15 132.277 98.942L152.186 118.835ZM129.474 141.566L152.186 118.835L132.277 98.942L109.565 121.673L129.474 141.566ZM101.285 141.578C109.072 149.359 121.693 149.353 129.474 141.566L109.565 121.673C112.77 118.465 117.969 118.463 121.177 121.668L101.285 141.578ZM101.273 113.389C93.492 121.176 93.4973 133.797 101.285 141.578L121.177 121.668C124.386 124.874 124.388 130.073 121.182 133.281L101.273 113.389ZM123.985 90.6573L101.273 113.389L121.182 133.281L143.895 110.55L123.985 90.6573ZM152.174 90.6454C144.387 82.8645 131.766 82.8698 123.985 90.6573L143.895 110.55C140.689 113.758 135.49 113.76 132.282 110.555L152.174 90.6454ZM429.575 226.007C438.702 211.019 442.932 192.051 440.409 172.007L412.485 175.523C414.25 189.538 411.205 202.061 405.537 211.37L429.575 226.007ZM476.471 259.028C469.012 231.187 446.95 211.182 420.795 204.995L414.316 232.383C430.8 236.282 444.611 248.865 449.286 266.312L476.471 259.028ZM432.393 348.45C466.963 334.162 486.413 296.13 476.471 259.028L449.286 266.312C455.522 289.586 443.324 313.479 421.643 322.439L432.393 348.45ZM441.518 343.932C441.422 340.712 441.267 337.565 441.057 334.486L412.978 336.403C413.164 339.119 413.301 341.905 413.386 344.767L441.518 343.932ZM441.558 345.381C441.546 344.888 441.533 344.395 441.517 343.904L413.387 344.796C413.4 345.215 413.412 345.635 413.422 346.056L441.558 345.381ZM329.147 460.894C377.856 452.367 406.648 430.125 422.892 405.889C438.797 382.159 441.855 357.765 441.558 345.381L413.422 346.056C413.612 353.981 411.505 372.328 399.513 390.219C387.861 407.605 366.024 425.866 324.294 433.172L329.147 460.894ZM240.988 446.071C264.495 459.372 294.214 467.01 329.147 460.894L324.294 433.172C296.451 438.046 273.298 432.016 254.849 421.576L240.988 446.071ZM229.254 465.254L256.32 445.112L239.517 422.534L212.451 442.676L229.254 465.254ZM194.901 459.834C202.807 470.953 218.309 473.4 229.254 465.254L212.451 442.676C214.168 441.399 216.6 441.782 217.84 443.526L194.901 459.834ZM182.909 442.965L194.901 459.834L217.84 443.526L205.847 426.657L182.909 442.965ZM196.66 446.625C191.793 448.872 186.015 447.334 182.909 442.965L205.847 426.657C201.107 419.989 192.29 417.643 184.863 421.072L196.66 446.625ZM172.746 457.666L196.66 446.624L184.863 421.072L160.948 432.113L172.746 457.666ZM138.349 438.083C140.067 454.678 157.598 464.659 172.745 457.666L160.948 432.113C163.324 431.016 166.074 432.582 166.343 435.185L138.349 438.083ZM134.421 400.135L138.349 438.083L166.343 435.185L162.415 397.237L134.421 400.135ZM135.216 390.987C134.377 393.943 134.101 397.047 134.421 400.135L162.415 397.237C162.466 397.722 162.422 398.209 162.291 398.672L135.216 390.987ZM116.56 375.943C120.407 390.299 130.237 401.473 142.599 407.485L154.908 382.174C149.571 379.579 145.392 374.805 143.745 368.659L116.56 375.943ZM116.384 375.266C116.441 375.491 116.5 375.717 116.56 375.943L143.745 368.659C143.719 368.56 143.693 368.462 143.668 368.363L116.384 375.266ZM76.3487 396.603C80.3799 405.619 88.6292 409.186 96.1121 409.333C102.678 409.463 109.055 407.148 114.144 404.555C124.495 399.282 135.349 389.836 141.955 379.279L118.097 364.349C114.392 370.27 107.513 376.347 101.369 379.478C98.2096 381.087 96.6476 381.194 96.6659 381.195C96.8368 381.198 97.8734 381.252 99.1989 382.031C100.659 382.89 101.595 384.117 102.041 385.115L76.3487 396.603ZM76.7954 348.08C75.8864 351.739 74.1298 359.495 73.2953 368.056C72.5272 375.935 72.2044 387.335 76.3487 396.603L102.041 385.115C101.118 383.05 100.594 378.097 101.307 370.786C101.953 364.157 103.359 357.886 104.109 354.865L76.7954 348.08ZM80.7717 359.397C77.4221 356.857 75.7078 352.458 76.7954 348.08L104.109 354.865C105.809 348.024 103.149 341.045 97.7771 336.972L80.7717 359.397ZM54.6484 314.144C54.3831 326.918 60.2608 337.461 65.7388 344.578C71.3202 351.829 77.6198 357.007 80.7717 359.397L97.7771 336.972C95.6557 335.363 91.5056 331.912 88.0413 327.411C84.4736 322.776 82.7094 318.444 82.7866 314.729L54.6484 314.144ZM117.101 301.128C107.476 295.174 95.0338 290.285 83.8504 289.686C78.3141 289.39 71.2585 290.051 65.1355 294.121C58.1761 298.747 54.8146 306.145 54.6484 314.144L82.7866 314.729C82.7913 314.503 82.5586 316.334 80.716 317.559C79.7098 318.228 79.759 317.652 82.3459 317.79C87.4086 318.061 95.2852 320.727 102.294 325.063L117.101 301.128ZM123.711 314.377L125.662 293.039L97.6349 290.476L95.6836 311.814L123.711 314.377ZM96.9071 293.641C97.6667 295.466 98.5359 297.222 99.5225 298.898L123.775 284.617C123.484 284.124 123.185 283.533 122.891 282.828L96.9071 293.641ZM94.3029 161.9C73.7613 208.057 78.8533 250.258 96.9071 293.641L122.891 282.828C106.871 244.331 103.49 210.476 120.016 173.343L94.3029 161.9ZM190.158 75.4476C147.772 86.8049 111.767 122.657 94.3029 161.9L120.016 173.343C134.742 140.252 164.82 111.374 197.442 102.633L190.158 75.4476ZM313.907 88.3553C286.775 73.6067 244.91 60.7769 190.158 75.4476L197.442 102.633C243.886 90.1884 278.338 101.054 300.465 113.082L313.907 88.3553ZM330.314 67.106C316.686 74.4896 305.997 82.6109 297.605 90.4117L316.766 111.026C323.536 104.733 332.31 98.0344 343.722 91.8517L330.314 67.106ZM425.416 67.5931C416.013 60.7474 400.321 56.4937 384.213 55.684C367.593 54.8486 348 57.5242 330.314 67.106L343.722 91.8517C355.788 85.3138 369.952 83.1469 382.8 83.7928C396.161 84.4644 405.651 88.0159 408.851 90.346L425.416 67.5931ZM442.921 84.1038C438.392 77.1609 432.113 71.0102 423.756 66.5531L410.511 91.386C414.398 93.4588 417.227 96.2285 419.347 99.4793L442.921 84.1038ZM420 100.397C422.529 103.669 424.631 107.402 426.148 111.52L452.558 101.796C450.03 94.9294 446.515 88.6808 442.268 83.1863L420 100.397ZM426.148 111.52C431.116 125.014 430.195 143.803 414.907 165.712L437.987 181.818C457.595 153.718 461.239 125.371 452.558 101.796L426.148 111.52Z" fill="#E1DAC2" mask="url(#path-2-outside-1_2284_8025)"/>
<path fill-rule="evenodd" clip-rule="evenodd" d="M193.8 89.0407C244.398 75.4831 282.557 87.3309 307.186 100.719C314.767 93.6726 324.498 86.2624 337.018 79.4793C367.483 62.9735 406.344 70.1155 417.996 79.6339L416.971 81.6978C443.416 93.2737 443.91 125.377 440.099 142.117L418.153 179.093L337.394 132.467L304.581 148.832L235.513 244.717C201.558 275.557 126.636 328.454 109.899 288.235C92.8622 247.295 88.6257 209.267 107.159 167.622C123.255 131.455 156.296 99.0898 193.8 89.0407Z" fill="#005656"/>
<mask id="mask0_2284_8025" style="mask-type:alpha" maskUnits="userSpaceOnUse" x="95" y="83" width="234" height="220">
<path d="M193.8 89.0407C263.146 70.4595 309.128 99.5992 328.935 115.022L235.513 244.717C201.558 275.557 126.636 328.454 109.899 288.235C92.8622 247.295 88.6257 209.267 107.159 167.622C123.255 131.455 156.296 99.0898 193.8 89.0407Z" fill="#005656"/>
</mask>
<g mask="url(#mask0_2284_8025)">
<path d="M344.424 66.1634C295.758 92.9624 272.806 128.124 236.633 174.363C178.155 249.116 157.417 258.989 131.023 268.22" stroke="#013F3F" stroke-width="12.5086" stroke-linecap="round"/>
<path d="M169.669 243.296C154.168 227.595 118.691 176.108 117.492 129.914" stroke="#013F3F" stroke-width="11.7213" stroke-linecap="round"/>
<path d="M129.872 102.378C144.496 98.4594 189.614 102.297 253.093 148.995" stroke="#013F3F" stroke-width="11.7213" stroke-linecap="round"/>
</g>
<path d="M402.415 77.8891C361.675 73.0302 336.119 108.799 328.433 127.291L418.155 179.092L440.102 142.116C444.514 122.732 443.155 82.7481 402.415 77.8891Z" fill="#012727" fill-opacity="0.5"/>
<path d="M152.345 436.635L148.417 398.687C148.206 396.647 148.611 394.591 149.581 392.783L161.409 370.734C162.9 367.953 165.59 366.013 168.7 365.476L226.304 355.52C231.531 354.617 236.584 357.848 237.957 362.972L253.64 421.499C254.728 425.559 253.228 429.872 249.856 432.382L220.852 453.966C216.238 457.4 209.702 456.369 206.37 451.681L194.377 434.812C193.56 433.663 192.04 433.258 190.76 433.849L166.846 444.89C160.46 447.838 153.069 443.631 152.345 436.635Z" fill="#012727"/>
<path d="M161.406 320.697C178.885 320.261 179.151 308.611 181.65 319.824L193.957 311.975L216.698 269.477L283.133 183.418L367.34 160.855L390.911 220.522C404.355 255.599 426.3 295.983 427.492 345.719C427.979 366.029 417.162 431.2 326.722 447.034C254.858 459.616 208.951 407.564 195.074 378.417C168.124 413.7 143.848 396.694 132.777 372.357C121.705 348.02 139.558 321.242 161.406 320.697Z" fill="#E6AD59"/>
<path fill-rule="evenodd" clip-rule="evenodd" d="M427.489 345.719C427.185 333.045 425.915 321.664 423.967 311.159C418.412 308.76 412.038 308.146 405.74 309.834C390.889 313.813 382.076 329.078 386.055 343.928C390.034 358.779 405.299 367.592 420.15 363.613C422.263 363.047 424.254 362.252 426.103 361.262C427.256 354.864 427.579 349.471 427.489 345.719ZM261.642 406.085C276.493 402.106 285.306 386.841 281.327 371.99C277.348 357.14 262.083 348.327 247.232 352.306C232.382 356.285 223.569 371.55 227.548 386.401C231.527 401.251 246.792 410.064 261.642 406.085Z" fill="#DB7704"/>
<ellipse cx="267.577" cy="315.002" rx="55.6762" ry="55.6761" transform="rotate(-15 267.577 315.002)" fill="#F2F0EA"/>
<ellipse cx="267.577" cy="315.002" rx="55.6762" ry="55.6761" transform="rotate(-15 267.577 315.002)" fill="#F2F0EA"/>
<mask id="mask1_2284_8025" style="mask-type:alpha" maskUnits="userSpaceOnUse" x="211" y="259" width="113" height="112">
<ellipse cx="267.577" cy="315.002" rx="55.6762" ry="55.6761" transform="rotate(-15 267.577 315.002)" fill="#F2F0EA"/>
</mask>
<g mask="url(#mask1_2284_8025)">
<path d="M322.09 267.782L221.477 381.96L238.084 418.465L364.152 359.657L322.09 267.782Z" fill="#E1DAC2"/>
</g>
<ellipse cx="403.439" cy="278.597" rx="55.6762" ry="55.6761" transform="rotate(-15 403.439 278.597)" fill="#F2F0EA"/>
<mask id="mask2_2284_8025" style="mask-type:alpha" maskUnits="userSpaceOnUse" x="347" y="222" width="113" height="113">
<ellipse cx="403.44" cy="278.597" rx="55.6762" ry="55.6761" transform="rotate(-15 403.44 278.597)" fill="#F2F0EA"/>
</mask>
<g mask="url(#mask2_2284_8025)">
<path d="M446.807 223.748L346.193 337.926L362.801 374.431L488.868 315.623L446.807 223.748Z" fill="#E1DAC2"/>
</g>
<ellipse cx="267.577" cy="315.002" rx="55.6762" ry="55.6761" transform="rotate(-15 267.577 315.002)" stroke="#DB7704" stroke-width="11.7213" stroke-linecap="round"/>
<ellipse cx="403.439" cy="278.597" rx="55.6762" ry="55.6761" transform="rotate(-15 403.439 278.597)" stroke="#DB7704" stroke-width="11.7213" stroke-linecap="round"/>
<path d="M115.375 127.478L138.087 104.746" stroke="#012727" stroke-width="11.7213" stroke-linecap="round"/>
<path fill-rule="evenodd" clip-rule="evenodd" d="M130.268 371.424C120.114 388.06 94.6048 402.958 89.1953 390.86C84.1276 379.527 88.7934 358.154 90.4528 351.474C90.7586 350.242 90.2857 348.952 89.2747 348.186C84.0014 344.187 68.3754 330.927 68.7179 314.437C69.0618 297.879 93.3821 302.871 110.026 313.301C110.466 303.27 112.235 293.974 113.475 291.826L139.43 292.456L179.991 274.003L229.206 231.238L278.306 171.059C294.908 150.937 331.009 109.612 342.594 105.294C357.075 99.8973 404.082 105.504 422.169 156.023C435.418 193.028 420.179 227.847 395.134 239.109C390.214 229.157 386.795 221.375 383.175 213.134C379.486 204.738 375.588 195.866 369.68 183.738C349.448 237.308 317.625 252.144 297.285 255.679C293.52 256.334 290.13 253.591 289.647 249.801C289.029 244.951 288.58 240.498 288.153 236.267C287.166 226.476 286.298 217.872 283.73 208.285C259.809 320.338 169.205 358.477 130.268 371.424Z" fill="#012727"/>
<path d="M323.598 301.507C329.317 296.522 338.958 291.483 349.299 292.911" stroke="#012727" stroke-width="11.7213" stroke-linecap="round"/>
<path d="M390.033 273.847C374.184 281.146 363.025 292.023 356.482 299.522" stroke="#012727" stroke-width="11.7213" stroke-linecap="round"/>
<path d="M303.382 383.525C315.341 386.641 340.946 391.814 347.698 387.577C356.139 382.282 362.077 376.14 368.155 367.686M305.871 372.999L296.976 393.584" stroke="#012727" stroke-width="11.7213" stroke-linecap="round"/>
<ellipse cx="357.197" cy="244.142" rx="24.1752" ry="14.6516" transform="rotate(-30.8067 357.197 244.142)" fill="#012727"/>
<ellipse cx="270.085" cy="267.484" rx="24.1752" ry="14.6516" transform="rotate(-6.71871 270.085 267.484)" fill="#012727"/>
<path d="M416.768 309.299C421.211 307.49 430.447 300.872 433.672 291.587" stroke="#F2F0EA" stroke-width="11.7213" stroke-linecap="round"/>
<path d="M269.971 348.633C265.219 349.289 253.911 348.175 246.476 341.747" stroke="#F2F0EA" stroke-width="11.7213" stroke-linecap="round"/>
<path d="M396.776 231.085L402.249 228.988L402.225 228.927L402.201 228.868L396.776 231.085ZM411.07 284.455C412.071 287.533 415.377 289.218 418.456 288.217C421.534 287.216 423.218 283.91 422.217 280.832L411.07 284.455ZM402.201 228.868L392.422 204.943L381.572 209.378L391.351 233.303L402.201 228.868ZM422.217 280.832C416.331 262.725 408.762 245.981 402.249 228.988L391.304 233.183C398.169 251.097 405.285 266.658 411.07 284.455L422.217 280.832Z" fill="#012727"/>
<ellipse cx="164.119" cy="363.201" rx="35.1639" ry="35.1639" transform="rotate(-15 164.119 363.201)" fill="#E6AD59"/>
<path d="M204.401 349.373C201.848 345.507 196.174 335.651 186.633 328.348" stroke="#012727" stroke-width="11.7213" stroke-linecap="round"/>
<path d="M355.578 349.062C361.861 339.794 368.923 326.525 349.208 295.404" stroke="#012727" stroke-width="11.7213" stroke-linecap="round"/>
<path d="M299.967 315.424C291.5 312.131 271.219 307.201 250.631 311.2" stroke="#012727" stroke-width="11.7213" stroke-linecap="round"/>
<path fill-rule="evenodd" clip-rule="evenodd" d="M268.279 192.841C306.156 139.744 333.366 111.893 353.421 97.5544C373.154 83.4458 385.775 82.5353 395.051 83.3835C408.427 84.6069 422.472 94.7326 428.355 110.71C432.855 122.931 432.699 139.09 422.71 157.58C424.555 163.053 425.78 168.473 426.447 173.768C443.896 148.763 446.179 125.195 439.354 106.66C432.005 86.7 414.27 73.371 396.118 71.711C383.937 70.597 368.536 72.3387 346.604 88.0194C324.993 103.47 296.893 132.545 258.737 186.034C192.278 279.198 140.762 293.681 117.444 291.87L111.68 291.423L111.154 297.179L109.803 311.951L109.364 316.756L113.994 318.11C117.85 319.238 120.18 316.403 120.656 315.717C121.258 314.85 121.53 313.988 121.636 313.636C121.894 312.781 122.043 311.83 122.142 311.082C122.353 309.474 122.495 307.429 122.595 305.53C122.626 304.922 122.655 304.313 122.679 303.721C153.195 303.069 205.283 281.15 268.279 192.841Z" fill="#012727"/>
<ellipse cx="163.597" cy="364.097" rx="21.2449" ry="21.2448" transform="rotate(-15 163.597 364.097)" fill="#DB7704"/>
<path d="M182.182 364.788C180.154 355.208 171.145 341.752 152.49 349.965M160.714 366.764L170.634 352.852" stroke="#012727" stroke-width="11.7213" stroke-linecap="round"/>
<path d="M483.635 140.223C482.421 149.437 477.427 154.895 472.172 156.881C471.489 157.139 471 157.77 471 158.5C471 159.23 471.489 159.861 472.172 160.119C477.427 162.105 482.421 167.563 483.635 176.777C483.726 177.467 484.304 178 485 178C485.696 178 486.274 177.467 486.365 176.777C487.579 167.563 492.573 162.105 497.828 160.119C498.511 159.861 499 159.23 499 158.5C499 157.77 498.511 157.139 497.828 156.881C492.573 154.895 487.579 149.437 486.365 140.223C486.274 139.533 485.696 139 485 139C484.304 139 483.726 139.533 483.635 140.223Z" fill="#DB7704"/>
<path d="M466.126 182.786C465.354 188.932 462.152 192.577 458.778 193.911C458.325 194.09 458 194.513 458 195C458 195.487 458.325 195.91 458.778 196.089C462.152 197.423 465.354 201.068 466.126 207.214C466.182 207.657 466.553 208 467 208C467.447 208 467.818 207.657 467.874 207.214C468.646 201.068 471.848 197.423 475.222 196.089C475.675 195.91 476 195.487 476 195C476 194.513 475.675 194.09 475.222 193.911C471.848 192.577 468.646 188.932 467.874 182.786C467.818 182.343 467.447 182 467 182C466.553 182 466.182 182.343 466.126 182.786Z" fill="#DB7704"/>
</svg>
