<svg width="385" height="303" viewBox="0 0 385 303" fill="none" xmlns="http://www.w3.org/2000/svg">
<path fill-rule="evenodd" clip-rule="evenodd" d="M47.0498 20.0759C35.7787 25.3799 28.5847 36.7161 28.5847 49.1728V57.9344C28.5847 60.4624 27.2491 62.8023 25.0723 64.0877L8.78095 73.7085C3.33906 76.9221 0 82.7718 0 89.0917V142.023C0 151.199 6.95147 158.883 16.0817 159.799L22.152 160.408C25.8041 160.774 28.5847 163.848 28.5847 167.518V168.551C28.5847 183.474 38.8509 196.436 53.3771 199.854L85.6941 207.458C88.108 208.026 90.5796 208.313 93.0595 208.313H285.847C303.607 208.313 318.005 193.915 318.005 176.155V32.3384C318.005 14.5782 303.607 0.180664 285.847 0.180664H96.5156C91.7817 0.180664 87.1062 1.22581 82.8229 3.24148L47.0498 20.0759Z" fill="black"/>
<rect x="119.698" y="194.021" width="70.5684" height="25.0116" fill="black"/>
<rect x="155.429" y="194.021" width="70.5684" height="25.0116" fill="#005656"/>
<rect x="64.3156" y="0.180664" width="253.689" height="208.132" rx="32.1578" fill="#DB7704"/>
<mask id="mask0_1732_6166" style="mask-type:alpha" maskUnits="userSpaceOnUse" x="90" y="23" width="206" height="145">
<rect x="90.2205" y="23.4062" width="205.452" height="143.817" rx="14.2923" fill="black"/>
</mask>
<g mask="url(#mask0_1732_6166)">
<rect x="90.2205" y="23.4062" width="205.452" height="143.817" rx="14.2923" fill="#003D3D"/>
<path d="M269.321 144.891L297.459 169.456H88.434V144.891H269.321Z" fill="#005656"/>
<path d="M269.321 45.2915L297.459 16.2602H88.434V45.2915H269.321Z" fill="black"/>
</g>
<path d="M90.2205 50.204C90.2205 42.3105 96.6194 35.9116 104.513 35.9116H267.088C274.982 35.9116 281.381 42.3105 281.381 50.204V140.424C281.381 148.318 274.982 154.717 267.088 154.717H104.513C96.6194 154.717 90.2205 148.318 90.2205 140.424V50.204Z" fill="#012727"/>
<rect x="112.552" y="182.409" width="42.877" height="7.14617" rx="1.78654" fill="#012727"/>
<circle cx="96.4734" cy="185.981" r="6.2529" fill="#012727"/>
<path d="M73.2483 226.178C73.2483 222.232 76.4477 219.032 80.3945 219.032H264.408C268.355 219.032 271.555 222.232 271.555 226.178V242.257C271.555 246.204 268.355 249.403 264.408 249.403H80.3945C76.4477 249.403 73.2483 246.204 73.2483 242.257V226.178Z" fill="black"/>
<path d="M125.951 226.178C125.951 222.232 129.151 219.032 133.097 219.032H264.408C268.355 219.032 271.555 222.232 271.555 226.178V242.257C271.555 246.204 268.355 249.403 264.408 249.403H133.097C129.151 249.403 125.951 246.204 125.951 242.257V226.178Z" fill="#DB7704"/>
<rect x="138.457" y="227.965" width="69.6752" height="13.3991" rx="2.67981" fill="#012727"/>
<path d="M138.457 232.432H202.773V236.898H138.457V232.432Z" fill="#005656"/>
<path d="M22.2905 267.372C26.6315 256.519 37.1423 249.403 48.8307 249.403H296.865C308.554 249.403 319.065 256.52 323.406 267.372L337.657 303H8.03943L22.2905 267.372Z" fill="black"/>
<path d="M79.4599 267.372C83.8009 256.519 94.3117 249.403 106 249.403H296.865C308.554 249.403 319.065 256.52 323.406 267.372L337.657 303H65.2089L79.4599 267.372Z" fill="#012727"/>
<circle cx="238.504" cy="239.578" r="2.67981" fill="#012727"/>
<circle cx="248.329" cy="239.578" r="2.67981" fill="#012727"/>
<circle cx="258.156" cy="239.578" r="2.67981" fill="#012727"/>
<rect x="111.659" y="50.2042" width="149.176" height="86.6473" rx="7.14617" fill="#E1DAC2" stroke="#F2F0EA" stroke-width="3.57309"/>
<rect x="139.35" y="51.9907" width="93.7935" height="83.0742" fill="#F2F0EA"/>
<path d="M113.445 57.3503C113.445 54.3903 115.845 51.9907 118.805 51.9907H253.689C256.649 51.9907 259.049 54.3903 259.049 57.3504V66.2831H113.445V57.3503Z" fill="black"/>
<rect x="166.148" y="80.5752" width="40.1972" height="40.1972" rx="20.0986" fill="#DB7704"/>
<circle cx="179.547" cy="94.8678" r="2.67981" fill="#F2F0EA"/>
<circle cx="193.84" cy="94.8678" r="2.67981" fill="#F2F0EA"/>
<rect x="166.595" y="81.022" width="39.3039" height="39.3039" stroke="#005656" stroke-width="2.67981"/>
<rect x="163.469" y="77.8955" width="6.2529" height="6.2529" fill="#012727"/>
<rect x="163.469" y="117.2" width="6.2529" height="6.2529" fill="#012727"/>
<rect x="202.773" y="77.8955" width="6.2529" height="6.2529" fill="#012727"/>
<rect x="202.773" y="117.2" width="6.2529" height="6.2529" fill="#012727"/>
<line x1="118.805" y1="72.9824" x2="133.991" y2="72.9824" stroke="#005656" stroke-opacity="0.4" stroke-width="2.67981"/>
<path d="M238.503 72.9824H243.863" stroke="#005656" stroke-opacity="0.4" stroke-width="2.67981"/>
<path d="M248.329 72.9824H253.689" stroke="#005656" stroke-opacity="0.4" stroke-width="2.67981"/>
<line x1="238.503" y1="80.1288" x2="253.689" y2="80.1288" stroke="#005656" stroke-opacity="0.4" stroke-width="2.67981"/>
<path d="M118.805 80.1289H129.524" stroke="#005656" stroke-opacity="0.4" stroke-width="2.67981"/>
<line x1="118.805" y1="87.2748" x2="133.991" y2="87.2748" stroke="#005656" stroke-opacity="0.4" stroke-width="2.67981"/>
<path d="M172.401 276.202C172.401 272.256 175.601 269.056 179.548 269.056H352.949C354.685 269.056 356.361 269.688 357.666 270.834L384.107 294.068H179.548C175.601 294.068 172.401 290.868 172.401 286.922V276.202Z" fill="#DB7704"/>
<path fill-rule="evenodd" clip-rule="evenodd" d="M179.548 269.056C175.601 269.056 172.401 272.256 172.401 276.202V294.068L172.401 295.854C172.401 299.801 175.601 303 179.548 303H377.854C381.801 303 385 299.801 385 295.854V295.854C385 294.867 384.2 294.068 383.213 294.068H232.147C229.334 294.068 226.617 293.047 224.5 291.194L202.483 271.929C200.366 270.077 197.649 269.056 194.836 269.056H179.548Z" fill="black"/>
<path d="M220.638 278.703C220.638 276.335 222.558 274.415 224.926 274.415H226.176C228.544 274.415 230.464 276.335 230.464 278.703V278.703C230.464 279.295 229.984 279.775 229.392 279.775H221.71C221.118 279.775 220.638 279.295 220.638 278.703V278.703Z" fill="black"/>
<path d="M235.824 278.703C235.824 276.335 237.743 274.415 240.111 274.415H241.362C243.73 274.415 245.65 276.335 245.65 278.703V278.703C245.65 279.295 245.17 279.775 244.578 279.775H236.896C236.304 279.775 235.824 279.295 235.824 278.703V278.703Z" fill="black"/>
<path d="M251.009 278.703C251.009 276.335 252.929 274.415 255.297 274.415H256.548C258.916 274.415 260.835 276.335 260.835 278.703V278.703C260.835 279.295 260.355 279.775 259.763 279.775H252.081C251.489 279.775 251.009 279.295 251.009 278.703V278.703Z" fill="black"/>
<path d="M266.195 278.703C266.195 276.335 268.115 274.415 270.483 274.415H271.733C274.101 274.415 276.021 276.335 276.021 278.703V278.703C276.021 279.295 275.541 279.775 274.949 279.775H267.267C266.675 279.775 266.195 279.295 266.195 278.703V278.703Z" fill="black"/>
<path d="M281.38 278.703C281.38 276.335 283.3 274.415 285.668 274.415H286.919C289.287 274.415 291.206 276.335 291.206 278.703V278.703C291.206 279.295 290.727 279.775 290.135 279.775H282.452C281.86 279.775 281.38 279.295 281.38 278.703V278.703Z" fill="black"/>
<path d="M296.566 278.703C296.566 276.335 298.486 274.415 300.854 274.415H302.104C304.472 274.415 306.392 276.335 306.392 278.703V278.703C306.392 279.295 305.912 279.775 305.32 279.775H297.638C297.046 279.775 296.566 279.295 296.566 278.703V278.703Z" fill="black"/>
<path d="M311.752 278.703C311.752 276.335 313.671 274.415 316.039 274.415H317.29C319.658 274.415 321.578 276.335 321.578 278.703V278.703C321.578 279.295 321.098 279.775 320.506 279.775H312.824C312.232 279.775 311.752 279.295 311.752 278.703V278.703Z" fill="black"/>
<path d="M326.937 278.703C326.937 276.335 328.857 274.415 331.225 274.415H332.476C334.844 274.415 336.763 276.335 336.763 278.703V278.703C336.763 279.295 336.283 279.775 335.691 279.775H328.009C327.417 279.775 326.937 279.295 326.937 278.703V278.703Z" fill="black"/>
<path d="M342.123 278.703C342.123 276.335 344.043 274.415 346.411 274.415H347.661C350.029 274.415 351.949 276.335 351.949 278.703V278.703C351.949 279.295 351.469 279.775 350.877 279.775H343.195C342.603 279.775 342.123 279.295 342.123 278.703V278.703Z" fill="black"/>
<path d="M228.677 287.636C228.677 285.268 230.597 283.348 232.965 283.348H234.216C236.584 283.348 238.503 285.268 238.503 287.636V287.636C238.503 288.228 238.024 288.708 237.432 288.708H229.749C229.157 288.708 228.677 288.228 228.677 287.636V287.636Z" fill="black"/>
<path d="M243.863 287.636C243.863 285.268 245.783 283.348 248.151 283.348H249.401C251.769 283.348 253.689 285.268 253.689 287.636V287.636C253.689 288.228 253.209 288.708 252.617 288.708H244.935C244.343 288.708 243.863 288.228 243.863 287.636V287.636Z" fill="black"/>
<path d="M259.049 287.636C259.049 285.268 260.968 283.348 263.336 283.348H314.61C316.978 283.348 318.898 285.268 318.898 287.636V287.636C318.898 288.228 318.418 288.708 317.826 288.708H260.121C259.529 288.708 259.049 288.228 259.049 287.636V287.636Z" fill="black"/>
<path d="M324.258 287.636C324.258 285.268 326.177 283.348 328.545 283.348H329.796C332.164 283.348 334.084 285.268 334.084 287.636V287.636C334.084 288.228 333.604 288.708 333.012 288.708H325.329C324.737 288.708 324.258 288.228 324.258 287.636V287.636Z" fill="black"/>
<path d="M339.443 287.636C339.443 285.268 341.363 283.348 343.731 283.348H344.981C347.349 283.348 349.269 285.268 349.269 287.636V287.636C349.269 288.228 348.789 288.708 348.197 288.708H340.515C339.923 288.708 339.443 288.228 339.443 287.636V287.636Z" fill="black"/>
<path d="M354.629 287.636C354.629 285.268 356.548 283.348 358.916 283.348H360.167C362.535 283.348 364.455 285.268 364.455 287.636V287.636C364.455 288.228 363.975 288.708 363.383 288.708H355.701C355.109 288.708 354.629 288.228 354.629 287.636V287.636Z" fill="black"/>
<rect x="181.334" y="291.387" width="13.3991" height="3.57309" rx="1.78654" fill="#005656"/>
<path d="M199.199 293.174C199.199 292.187 199.999 291.387 200.986 291.387H207.239C208.226 291.387 209.025 292.187 209.025 293.174V293.174C209.025 294.16 208.226 294.96 207.239 294.96H200.986C199.999 294.96 199.199 294.16 199.199 293.174V293.174Z" fill="#005656"/>
<path d="M182.227 101.121V101.121C183.726 105.317 189.661 105.317 191.16 101.121V101.121" stroke="#F2F0EA" stroke-width="2.67981" stroke-linecap="round"/>
</svg>
