<svg width="1081" height="303" viewBox="0 0 1081 303" fill="none" xmlns="http://www.w3.org/2000/svg">
<path fill-rule="evenodd" clip-rule="evenodd" d="M108 156C108 89.7258 161.726 36 228 36H277C336.143 36 385.293 78.7861 395.185 135.094C397.101 146.001 405.926 155 417 155V155C458.004 155 493.244 179.679 508.677 214.994C515.116 229.729 528.196 242 544.277 242H612.5C629.345 242 643 255.655 643 272.5C643 289.345 629.345 303 612.5 303H517H474.5H278C259.915 303 243.346 296.513 230.491 285.738C223.645 279.999 215.537 275.695 206.743 274.123C150.608 264.088 108 215.02 108 156Z" fill="#E1DAC2"/>
<path d="M159.153 175.982C158.176 183.349 154.161 187.713 149.938 189.299C149.392 189.504 149 190.009 149 190.592C149 191.175 149.392 191.68 149.938 191.885C154.161 193.471 158.176 197.835 159.153 205.202C159.226 205.756 159.691 206.184 160.25 206.184C160.809 206.184 161.274 205.756 161.347 205.202C162.324 197.835 166.339 193.471 170.562 191.885C171.108 191.68 171.5 191.175 171.5 190.592C171.5 190.009 171.108 189.504 170.562 189.299C166.339 187.713 162.324 183.349 161.347 175.982C161.274 175.428 160.809 175 160.25 175C159.691 175 159.226 175.428 159.153 175.982Z" fill="#004C4C"/>
<path d="M176.769 205.655C176.12 210.617 173.445 213.557 170.631 214.627C170.263 214.767 170 215.107 170 215.5C170 215.893 170.263 216.233 170.631 216.373C173.445 217.443 176.12 220.383 176.769 225.345C176.818 225.715 177.127 226 177.5 226C177.873 226 178.182 225.715 178.231 225.345C178.88 220.383 181.555 217.443 184.369 216.373C184.737 216.233 185 215.893 185 215.5C185 215.107 184.737 214.767 184.369 214.627C181.555 213.557 178.88 210.617 178.231 205.655C178.182 205.285 177.873 205 177.5 205C177.127 205 176.818 205.285 176.769 205.655Z" fill="#004C4C"/>
<path d="M572 272.5C572 255.655 585.655 242 602.5 242H904.421C934.564 242 959 266.436 959 296.579V296.579C959 300.125 956.125 303 952.579 303H602.5C585.655 303 572 289.345 572 272.5V272.5Z" fill="#E1DAC2"/>
<path d="M616.285 260.354L598.192 303H662.808L616.285 260.354Z" fill="#001818"/>
<path d="M564.835 229.495L642.315 297.985C645.971 301.216 650.682 303 655.561 303H873.115C878.64 303 881.228 296.164 877.088 292.505L799.608 224.015C795.952 220.784 791.241 219 786.362 219H568.809C563.283 219 560.695 225.836 564.835 229.495Z" fill="#001818"/>
<path d="M574.325 220.749L661.7 297.985C665.356 301.216 670.067 303 674.946 303H892.499C898.024 303 900.613 296.164 896.473 292.505L818.992 224.015C815.337 220.784 810.626 219 805.747 219H574.987C574.066 219 573.635 220.139 574.325 220.749Z" fill="#005656"/>
<path d="M626.061 229.802L688.862 284.31C691.227 286.363 694.252 287.493 697.383 287.493H870.776C871.701 287.493 872.13 286.344 871.432 285.737L808.63 231.229C806.266 229.176 803.24 228.046 800.109 228.046H626.716C625.791 228.046 625.362 229.195 626.061 229.802Z" fill="#001818"/>
<path d="M593.712 229.796L599.094 234.548C600.007 235.355 601.184 235.8 602.403 235.8H621.395C622.316 235.8 622.748 234.66 622.057 234.051L616.676 229.298C615.762 228.492 614.585 228.046 613.366 228.046H594.374C593.453 228.046 593.022 229.186 593.712 229.796Z" fill="#003D3D"/>
<path d="M606.635 241.426L612.017 246.178C612.93 246.985 614.107 247.431 615.326 247.431H634.318C635.239 247.431 635.671 246.291 634.98 245.681L629.599 240.929C628.685 240.122 627.508 239.677 626.289 239.677H607.297C606.376 239.677 605.945 240.817 606.635 241.426Z" fill="#003D3D"/>
<path d="M638.943 269.857L644.324 274.61C645.238 275.416 646.415 275.862 647.634 275.862H666.626C667.547 275.862 667.978 274.722 667.288 274.112L661.906 269.36C660.993 268.553 659.816 268.108 658.597 268.108H639.605C638.684 268.108 638.252 269.248 638.943 269.857Z" fill="#003D3D"/>
<path d="M653.158 281.488L658.54 286.241C659.453 287.047 660.63 287.493 661.849 287.493H680.841C681.763 287.493 682.194 286.353 681.503 285.743L676.122 280.991C675.208 280.184 674.031 279.739 672.812 279.739H653.82C652.899 279.739 652.468 280.879 653.158 281.488Z" fill="#003D3D"/>
<path fill-rule="evenodd" clip-rule="evenodd" d="M216.08 20.8274C204.793 26.1248 197.585 37.4697 197.585 49.9386V58.5808C197.585 61.1118 196.246 63.454 194.065 64.7384L177.799 74.3181C172.347 77.5291 169 83.3846 169 89.7121V142.41C169 151.588 175.954 159.273 185.086 160.187L191.15 160.793C194.803 161.159 197.585 164.233 197.585 167.904V168.83C197.585 183.761 207.861 196.727 222.396 200.138L254.703 207.719C257.111 208.284 259.576 208.569 262.05 208.569H454.847C472.607 208.569 487.005 194.172 487.005 176.412V33.158C487.005 15.3977 472.607 1.0002 454.847 1.0002H265.498C260.775 1.0002 256.111 2.04035 251.836 4.04675L216.08 20.8274Z" fill="#001818"/>
<rect x="288.698" y="194.315" width="70.5684" height="24.9439" fill="#001818"/>
<rect x="324.429" y="194.315" width="70.5684" height="24.9439" fill="#005656"/>
<rect x="233.316" y="1" width="253.689" height="207.569" rx="32.1578" fill="#DB7704"/>
<mask id="mask0_1578_5790" style="mask-type:alpha" maskUnits="userSpaceOnUse" x="259" y="24" width="206" height="144">
<rect x="259.22" y="24.1626" width="205.452" height="143.428" rx="14.2923" fill="black"/>
</mask>
<g mask="url(#mask0_1578_5790)">
<rect x="259.22" y="24.1626" width="205.452" height="143.428" rx="14.2923" fill="#003D3D"/>
<path d="M438.321 145.319L466.459 169.817H257.434V145.319H438.321Z" fill="#005656"/>
<path d="M438.321 45.9888L466.459 17.036H257.434V45.9888H438.321Z" fill="#001818"/>
</g>
<path d="M259.22 50.9266C259.22 43.0332 265.619 36.6343 273.513 36.6343H436.088C443.982 36.6343 450.38 43.0332 450.38 50.9266V140.826C450.38 148.719 443.982 155.118 436.088 155.118H273.513C265.619 155.118 259.22 148.719 259.22 140.826V50.9266Z" fill="#012727"/>
<rect x="281.552" y="182.735" width="42.877" height="7.12684" rx="1.78654" fill="#012727"/>
<ellipse cx="265.473" cy="186.298" rx="6.2529" ry="6.23598" fill="#012727"/>
<path d="M242.248 226.405C242.248 222.459 245.448 219.259 249.394 219.259H433.408C437.355 219.259 440.555 222.459 440.555 226.405V242.402C440.555 246.349 437.355 249.548 433.408 249.548H249.394C245.448 249.548 242.248 246.349 242.248 242.402V226.405Z" fill="#001818"/>
<path d="M294.951 226.405C294.951 222.459 298.151 219.259 302.097 219.259H433.408C437.355 219.259 440.555 222.459 440.555 226.405V242.402C440.555 246.349 437.355 249.548 433.408 249.548H302.097C298.151 249.548 294.951 246.349 294.951 242.402V226.405Z" fill="#DB7704"/>
<rect x="307.457" y="228.168" width="69.6752" height="13.3628" rx="2.67981" fill="#012727"/>
<path d="M307.457 232.623H371.773V237.077H307.457V232.623Z" fill="#005656"/>
<path d="M191.281 267.492C195.628 256.653 206.133 249.548 217.811 249.548H465.885C477.564 249.548 488.068 256.653 492.415 267.492L506.657 303H177.039L191.281 267.492Z" fill="#001818"/>
<path d="M274.981 254.548H465.885C475.521 254.548 484.187 260.41 487.774 269.353L499.264 298H241.601L253.091 269.353C256.678 260.41 265.345 254.548 274.981 254.548Z" fill="#012727" stroke="#004C4C" stroke-width="10"/>
<path d="M244.881 303L251.184 287.542L372.803 288.041V303H244.881Z" fill="#012727"/>
<circle cx="407.503" cy="239.578" r="2.67981" fill="#012727"/>
<circle cx="417.329" cy="239.578" r="2.67981" fill="#012727"/>
<circle cx="427.155" cy="239.578" r="2.67981" fill="#012727"/>
<rect x="280.659" y="51.2042" width="149.176" height="86.6473" rx="7.14617" fill="#E1DAC2" stroke="#F2F0EA" stroke-width="3.57309"/>
<rect x="308.35" y="52.9907" width="93.7935" height="83.0742" fill="#F2F0EA"/>
<path d="M282.445 58.3503C282.445 55.3903 284.845 52.9907 287.805 52.9907H422.689C425.649 52.9907 428.049 55.3903 428.049 58.3504V67.2831H282.445V58.3503Z" fill="#001818"/>
<rect x="335.148" y="81.5752" width="40.1972" height="40.1972" rx="20.0986" fill="#DB7704"/>
<circle cx="348.548" cy="95.8678" r="2.67981" fill="#F2F0EA"/>
<circle cx="362.84" cy="95.8678" r="2.67981" fill="#F2F0EA"/>
<rect x="335.595" y="82.022" width="39.3039" height="39.3039" stroke="#005656" stroke-width="2.67981"/>
<rect x="332.469" y="78.8955" width="6.2529" height="6.2529" fill="#012727"/>
<rect x="332.469" y="118.2" width="6.2529" height="6.2529" fill="#012727"/>
<rect x="371.773" y="78.8955" width="6.2529" height="6.2529" fill="#012727"/>
<rect x="371.773" y="118.2" width="6.2529" height="6.2529" fill="#012727"/>
<line x1="287.805" y1="73.9824" x2="302.991" y2="73.9824" stroke="#005656" stroke-opacity="0.4" stroke-width="2.67981"/>
<path d="M407.503 73.9824H412.863" stroke="#005656" stroke-opacity="0.4" stroke-width="2.67981"/>
<path d="M417.329 73.9824H422.689" stroke="#005656" stroke-opacity="0.4" stroke-width="2.67981"/>
<line x1="407.503" y1="81.1288" x2="422.689" y2="81.1288" stroke="#005656" stroke-opacity="0.4" stroke-width="2.67981"/>
<path d="M287.805 81.1289H298.524" stroke="#005656" stroke-opacity="0.4" stroke-width="2.67981"/>
<line x1="287.805" y1="88.2748" x2="302.991" y2="88.2748" stroke="#005656" stroke-opacity="0.4" stroke-width="2.67981"/>
<path d="M343 275.143C343 271.041 346.326 267.715 350.429 267.715H530.682C532.487 267.715 534.23 268.372 535.585 269.563L563.071 293.715H350.429C346.326 293.715 343 290.389 343 286.286V275.143Z" fill="#DB7704"/>
<path fill-rule="evenodd" clip-rule="evenodd" d="M350.429 267.715C346.326 267.715 343 271.041 343 275.143V293.714V293.715V295.571C343 299.674 346.326 303 350.429 303H556.571C560.674 303 564 299.674 564 295.571V295.571C564 294.546 563.169 293.714 562.143 293.714H405.106C402.182 293.714 399.358 292.653 397.157 290.728L374.271 270.702C372.07 268.776 369.245 267.715 366.321 267.715H350.429Z" fill="#001818"/>
<path d="M393.143 277.742C393.143 275.281 395.138 273.285 397.6 273.285H398.9C401.362 273.285 403.357 275.281 403.357 277.742V277.742C403.357 278.358 402.858 278.857 402.243 278.857H394.257C393.642 278.857 393.143 278.358 393.143 277.742V277.742Z" fill="#001818"/>
<path d="M408.929 277.742C408.929 275.281 410.924 273.285 413.386 273.285H414.686C417.147 273.285 419.143 275.281 419.143 277.742V277.742C419.143 278.358 418.644 278.857 418.029 278.857H410.043C409.427 278.857 408.929 278.358 408.929 277.742V277.742Z" fill="#001818"/>
<path d="M424.714 277.742C424.714 275.281 426.71 273.285 429.171 273.285H430.471C432.933 273.285 434.929 275.281 434.929 277.742V277.742C434.929 278.358 434.43 278.857 433.814 278.857H425.829C425.213 278.857 424.714 278.358 424.714 277.742V277.742Z" fill="#001818"/>
<path d="M440.5 277.742C440.5 275.281 442.496 273.285 444.957 273.285H446.257C448.719 273.285 450.714 275.281 450.714 277.742V277.742C450.714 278.358 450.215 278.857 449.6 278.857H441.614C440.999 278.857 440.5 278.358 440.5 277.742V277.742Z" fill="#001818"/>
<path d="M456.286 277.742C456.286 275.281 458.281 273.285 460.743 273.285H462.043C464.504 273.285 466.5 275.281 466.5 277.742V277.742C466.5 278.358 466.001 278.857 465.386 278.857H457.4C456.785 278.857 456.286 278.358 456.286 277.742V277.742Z" fill="#001818"/>
<path d="M472.071 277.742C472.071 275.281 474.067 273.285 476.529 273.285H477.829C480.29 273.285 482.286 275.281 482.286 277.742V277.742C482.286 278.358 481.787 278.857 481.171 278.857H473.186C472.57 278.857 472.071 278.358 472.071 277.742V277.742Z" fill="#001818"/>
<path d="M487.857 277.742C487.857 275.281 489.853 273.285 492.314 273.285H493.614C496.076 273.285 498.071 275.281 498.071 277.742V277.742C498.071 278.358 497.573 278.857 496.957 278.857H488.971C488.356 278.857 487.857 278.358 487.857 277.742V277.742Z" fill="#001818"/>
<path d="M503.643 277.742C503.643 275.281 505.638 273.285 508.1 273.285H509.4C511.862 273.285 513.857 275.281 513.857 277.742V277.742C513.857 278.358 513.358 278.857 512.743 278.857H504.757C504.142 278.857 503.643 278.358 503.643 277.742V277.742Z" fill="#001818"/>
<path d="M519.429 277.742C519.429 275.281 521.424 273.285 523.886 273.285H525.186C527.647 273.285 529.643 275.281 529.643 277.742V277.742C529.643 278.358 529.144 278.857 528.529 278.857H520.543C519.927 278.857 519.429 278.358 519.429 277.742V277.742Z" fill="#001818"/>
<path d="M401.5 287.028C401.5 284.567 403.496 282.571 405.957 282.571H407.257C409.719 282.571 411.714 284.567 411.714 287.028V287.028C411.714 287.644 411.215 288.143 410.6 288.143H402.614C401.999 288.143 401.5 287.644 401.5 287.028V287.028Z" fill="#001818"/>
<path d="M417.286 287.028C417.286 284.567 419.281 282.571 421.743 282.571H423.043C425.504 282.571 427.5 284.567 427.5 287.028V287.028C427.5 287.644 427.001 288.143 426.386 288.143H418.4C417.785 288.143 417.286 287.644 417.286 287.028V287.028Z" fill="#001818"/>
<path d="M433.071 287.028C433.071 284.567 435.067 282.571 437.529 282.571H490.829C493.29 282.571 495.286 284.567 495.286 287.028V287.028C495.286 287.644 494.787 288.143 494.171 288.143H434.186C433.57 288.143 433.071 287.644 433.071 287.028V287.028Z" fill="#001818"/>
<path d="M500.857 287.028C500.857 284.567 502.853 282.571 505.314 282.571H506.614C509.076 282.571 511.071 284.567 511.071 287.028V287.028C511.071 287.644 510.573 288.143 509.957 288.143H501.971C501.356 288.143 500.857 287.644 500.857 287.028V287.028Z" fill="#001818"/>
<path d="M516.643 287.028C516.643 284.567 518.638 282.571 521.1 282.571H522.4C524.862 282.571 526.857 284.567 526.857 287.028V287.028C526.857 287.644 526.358 288.143 525.743 288.143H517.757C517.142 288.143 516.643 287.644 516.643 287.028V287.028Z" fill="#001818"/>
<path d="M532.429 287.028C532.429 284.567 534.424 282.571 536.886 282.571H538.186C540.647 282.571 542.643 284.567 542.643 287.028V287.028C542.643 287.644 542.144 288.143 541.529 288.143H533.543C532.927 288.143 532.429 287.644 532.429 287.028V287.028Z" fill="#001818"/>
<rect x="352.286" y="290.928" width="13.9286" height="3.71429" rx="1.85714" fill="#005656"/>
<path d="M370.857 292.785C370.857 291.76 371.689 290.928 372.714 290.928H379.214C380.24 290.928 381.071 291.76 381.071 292.785V292.785C381.071 293.811 380.24 294.643 379.214 294.643H372.714C371.689 294.643 370.857 293.811 370.857 292.785V292.785Z" fill="#005656"/>
<path fill-rule="evenodd" clip-rule="evenodd" d="M361.422 101.571C359.5 106.954 351.888 106.954 349.966 101.571L352.489 100.67C353.565 103.681 357.823 103.681 358.898 100.67L361.422 101.571Z" fill="#F2F0EA"/>
<path d="M539.153 111.982C538.176 119.349 534.161 123.713 529.938 125.299C529.392 125.504 529 126.009 529 126.592C529 127.175 529.392 127.68 529.938 127.885C534.161 129.471 538.176 133.835 539.153 141.202C539.226 141.756 539.691 142.184 540.25 142.184C540.809 142.184 541.274 141.756 541.347 141.202C542.324 133.835 546.339 129.471 550.562 127.885C551.108 127.68 551.5 127.175 551.5 126.592C551.5 126.009 551.108 125.504 550.562 125.299C546.339 123.713 542.324 119.349 541.347 111.982C541.274 111.428 540.809 111 540.25 111C539.691 111 539.226 111.428 539.153 111.982Z" fill="#DB7704"/>
<path d="M810.153 161.982C809.176 169.349 805.161 173.713 800.938 175.299C800.392 175.504 800 176.009 800 176.592C800 177.175 800.392 177.68 800.938 177.885C805.161 179.471 809.176 183.835 810.153 191.202C810.226 191.756 810.691 192.184 811.25 192.184C811.809 192.184 812.274 191.756 812.347 191.202C813.324 183.835 817.339 179.471 821.562 177.885C822.108 177.68 822.5 177.175 822.5 176.592C822.5 176.009 822.108 175.504 821.562 175.299C817.339 173.713 813.324 169.349 812.347 161.982C812.274 161.428 811.809 161 811.25 161C810.691 161 810.226 161.428 810.153 161.982Z" fill="#DB7704"/>
<path d="M522.769 149.655C522.12 154.617 519.445 157.557 516.631 158.627C516.263 158.767 516 159.107 516 159.5C516 159.893 516.263 160.233 516.631 160.373C519.445 161.443 522.12 164.383 522.769 169.345C522.818 169.715 523.127 170 523.5 170C523.873 170 524.182 169.715 524.231 169.345C524.88 164.383 527.555 161.443 530.369 160.373C530.737 160.233 531 159.893 531 159.5C531 159.107 530.737 158.767 530.369 158.627C527.555 157.557 524.88 154.617 524.231 149.655C524.182 149.285 523.873 149 523.5 149C523.127 149 522.818 149.285 522.769 149.655Z" fill="#DB7704"/>
<path d="M835.769 188.655C835.12 193.617 832.445 196.557 829.631 197.627C829.263 197.767 829 198.107 829 198.5C829 198.893 829.263 199.233 829.631 199.373C832.445 200.443 835.12 203.383 835.769 208.345C835.818 208.715 836.127 209 836.5 209C836.873 209 837.182 208.715 837.231 208.345C837.88 203.383 840.555 200.443 843.369 199.373C843.737 199.233 844 198.893 844 198.5C844 198.107 843.737 197.767 843.369 197.627C840.555 196.557 837.88 193.617 837.231 188.655C837.182 188.285 836.873 188 836.5 188C836.127 188 835.818 188.285 835.769 188.655Z" fill="#DB7704"/>
<path fill-rule="evenodd" clip-rule="evenodd" d="M698.477 36.705C682.608 36.705 669.743 49.5695 669.743 65.4387V65.4387C669.743 71.4083 665.655 77.908 659.685 77.908H616.613C598.049 77.908 583 92.9571 583 111.521C583 130.085 598.049 145.134 616.613 145.134H714.199C732.763 145.134 747.812 130.085 747.812 111.521V111.521C747.812 103.512 753.215 94.1724 761.224 94.1724H805.822C821.691 94.1724 834.556 81.3079 834.556 65.4387C834.556 49.5695 821.691 36.705 805.822 36.705H698.477Z" fill="#F2F0EA" fill-opacity="0.1"/>
<path d="M713.872 169.568C713.309 173.872 710.989 176.422 708.547 177.351C708.228 177.472 708 177.767 708 178.108C708 178.449 708.228 178.744 708.547 178.865C710.989 179.794 713.309 182.344 713.872 186.648C713.914 186.969 714.182 187.216 714.506 187.216C714.829 187.216 715.098 186.969 715.14 186.648C715.703 182.344 718.023 179.794 720.464 178.865C720.783 178.744 721.011 178.449 721.011 178.108C721.011 177.767 720.783 177.472 720.464 177.351C718.023 176.422 715.703 173.872 715.14 169.568C715.098 169.248 714.829 169 714.506 169C714.182 169 713.914 169.248 713.872 169.568Z" fill="#F2F0EA"/>
<path d="M575.34 159.001C574.636 164.381 571.736 167.569 568.684 168.73C568.286 168.881 568 169.25 568 169.676C568 170.102 568.286 170.471 568.684 170.622C571.736 171.783 574.636 174.971 575.34 180.351C575.392 180.752 575.728 181.061 576.132 181.061C576.536 181.061 576.872 180.752 576.924 180.351C577.629 174.971 580.528 171.783 583.581 170.622C583.979 170.471 584.264 170.102 584.264 169.676C584.264 169.25 583.979 168.881 583.581 168.73C580.528 167.569 577.629 164.381 576.924 159.001C576.872 158.601 576.536 158.291 576.132 158.291C575.728 158.291 575.392 158.601 575.34 159.001Z" fill="#F2F0EA"/>
<path d="M772.501 24.4041C771.797 29.7841 768.897 32.9719 765.845 34.1326C765.447 34.2841 765.161 34.6528 765.161 35.0789C765.161 35.505 765.447 35.8738 765.845 36.0252C768.897 37.1859 771.797 40.3737 772.501 45.7538C772.553 46.1544 772.889 46.464 773.293 46.464C773.697 46.464 774.033 46.1544 774.085 45.7538C774.79 40.3737 777.689 37.1859 780.741 36.0252C781.14 35.8738 781.425 35.505 781.425 35.0789C781.425 34.6528 781.14 34.2841 780.741 34.1326C777.689 32.9719 774.79 29.7841 774.085 24.4041C774.033 24.0034 773.697 23.6938 773.293 23.6938C772.889 23.6938 772.553 24.0034 772.501 24.4041Z" fill="#F2F0EA"/>
<path d="M845.148 92.9788C844.444 98.3588 841.544 101.547 838.492 102.707C838.094 102.859 837.808 103.228 837.808 103.654C837.808 104.08 838.094 104.448 838.492 104.6C841.544 105.761 844.444 108.948 845.148 114.328C845.201 114.729 845.537 115.039 845.941 115.039C846.345 115.039 846.68 114.729 846.733 114.328C847.437 108.948 850.337 105.761 853.389 104.6C853.787 104.448 854.073 104.08 854.073 103.654C854.073 103.228 853.787 102.859 853.389 102.707C850.337 101.547 847.437 98.3588 846.733 92.9788C846.68 92.5781 846.345 92.2686 845.941 92.2686C845.537 92.2686 845.201 92.5781 845.148 92.9788Z" fill="#F2F0EA"/>
<path fill-rule="evenodd" clip-rule="evenodd" d="M708.885 78.9499C703.809 81.642 698.02 83.167 691.875 83.167C671.798 83.167 655.523 66.8918 655.523 46.8153C655.523 41.3561 656.726 36.178 658.882 31.5317C639.144 35.213 624.203 52.5287 624.203 73.3341C624.203 96.8198 643.242 115.859 666.728 115.859C688.31 115.859 706.136 99.7813 708.885 78.9499Z" fill="#F2F0EA"/>
<circle cx="862.747" cy="82.5097" r="3.25287" fill="#F2F0EA"/>
<circle cx="862.747" cy="178.747" r="3.25287" fill="#F2F0EA"/>
<circle cx="809.352" cy="125.472" r="3.25287" fill="#F2F0EA"/>
<circle cx="612.276" cy="13.935" r="3.25287" fill="#F2F0EA"/>
<circle cx="692.345" cy="167.567" r="3.25287" fill="#F2F0EA"/>
<circle cx="757.571" cy="21.5248" r="3.25287" fill="#F2F0EA"/>
<path d="M538.872 32.5682C538.309 36.8722 535.989 39.4225 533.547 40.351C533.228 40.4722 533 40.7672 533 41.1081C533 41.4489 533.228 41.744 533.547 41.8651C535.989 42.7937 538.309 45.3439 538.872 49.648C538.914 49.9685 539.182 50.2161 539.506 50.2161C539.829 50.2161 540.098 49.9685 540.14 49.648C540.703 45.3439 543.023 42.7937 545.464 41.8651C545.783 41.744 546.011 41.4489 546.011 41.1081C546.011 40.7672 545.783 40.4722 545.464 40.351C543.023 39.4225 540.703 36.8722 540.14 32.5682C540.098 32.2476 539.829 32 539.506 32C539.182 32 538.914 32.2476 538.872 32.5682Z" fill="#F2F0EA"/>
<circle cx="562.253" cy="57.2529" r="3.25287" fill="#F2F0EA"/>
</svg>
