<svg width="17" height="16" viewBox="0 0 17 16" fill="none" xmlns="http://www.w3.org/2000/svg">
<path d="M0.89532 5.17857C6.03818 5.5 10.5025 9.96429 10.8239 15.1071C10.8239 15.5714 10.4667 16 10.0025 16H9.96675C9.53818 16 9.14532 15.6786 9.14532 15.2143C8.85961 10.8929 5.07389 7.14286 0.788177 6.85714C0.323891 6.85714 -0.0332517 6.42857 0.00246259 5.96429C0.00246259 5.5 0.431034 5.14286 0.89532 5.17857ZM1.14532 0C9.32389 0 16.0025 6.67857 16.0025 14.8571C16.0025 15.5 15.4667 16 14.8596 16C14.2167 16 13.7167 15.5 13.7167 14.8571C13.7167 7.92857 8.07389 2.28571 1.14532 2.28571C0.502463 2.28571 0.00246259 1.78571 0.00246259 1.14286C0.00246259 0.535714 0.502463 0 1.14532 0ZM2.25246 11.4286C3.53818 11.4286 4.53818 12.4643 4.53818 13.7143C4.53818 15 3.46675 16 2.25246 16C1.00246 16 0.00246259 15 0.00246259 13.7143C0.00246259 12.4643 1.00246 11.4286 2.25246 11.4286Z" fill="#004C4C"/>
</svg>
