<svg width="25" height="24" viewBox="0 0 25 24" fill="none" xmlns="http://www.w3.org/2000/svg">
<path d="M12.4711 7.57734C9.77109 7.57734 7.61953 9.77109 7.61953 12.4289C7.61953 15.1289 9.77109 17.2805 12.4711 17.2805C15.1289 17.2805 17.3227 15.1289 17.3227 12.4289C17.3227 9.77109 15.1289 7.57734 12.4711 7.57734ZM12.4711 15.593C10.7414 15.593 9.30703 14.2008 9.30703 12.4289C9.30703 10.6992 10.6992 9.30703 12.4711 9.30703C14.2008 9.30703 15.593 10.6992 15.593 12.4289C15.593 14.2008 14.2008 15.593 12.4711 15.593ZM18.6305 7.40859C18.6305 6.77578 18.1242 6.26953 17.4914 6.26953C16.8586 6.26953 16.3523 6.77578 16.3523 7.40859C16.3523 8.04141 16.8586 8.54766 17.4914 8.54766C18.1242 8.54766 18.6305 8.04141 18.6305 7.40859ZM21.8367 8.54766C21.7523 7.02891 21.4148 5.67891 20.318 4.58203C19.2211 3.48516 17.8711 3.14766 16.3523 3.06328C14.7914 2.97891 10.1086 2.97891 8.54766 3.06328C7.02891 3.14766 5.72109 3.48516 4.58203 4.58203C3.48516 5.67891 3.14766 7.02891 3.06328 8.54766C2.97891 10.1086 2.97891 14.7914 3.06328 16.3523C3.14766 17.8711 3.48516 19.1789 4.58203 20.318C5.72109 21.4148 7.02891 21.7523 8.54766 21.8367C10.1086 21.9211 14.7914 21.9211 16.3523 21.8367C17.8711 21.7523 19.2211 21.4148 20.318 20.318C21.4148 19.1789 21.7523 17.8711 21.8367 16.3523C21.9211 14.7914 21.9211 10.1086 21.8367 8.54766ZM19.8117 17.9977C19.5164 18.8414 18.8414 19.4742 18.0398 19.8117C16.7742 20.318 13.8211 20.1914 12.4711 20.1914C11.0789 20.1914 8.12578 20.318 6.90234 19.8117C6.05859 19.4742 5.42578 18.8414 5.08828 17.9977C4.58203 16.7742 4.70859 13.8211 4.70859 12.4289C4.70859 11.0789 4.58203 8.12578 5.08828 6.86016C5.42578 6.05859 6.05859 5.42578 6.90234 5.08828C8.12578 4.58203 11.0789 4.70859 12.4711 4.70859C13.8211 4.70859 16.7742 4.58203 18.0398 5.08828C18.8414 5.38359 19.4742 6.05859 19.8117 6.86016C20.318 8.12578 20.1914 11.0789 20.1914 12.4289C20.1914 13.8211 20.318 16.7742 19.8117 17.9977Z" fill="#ECEAE3"/>
</svg>
