<svg width="57" height="57" viewBox="0 0 57 57" fill="none" xmlns="http://www.w3.org/2000/svg">
<rect x="1.5" y="1.5874" width="54" height="54" rx="15" stroke="#ECE8DC" stroke-opacity="0.2" stroke-width="2"/>
<path d="M28.5 15.5874C38.375 15.5874 44.625 24.9624 46.5 29.5874C44.625 34.2749 38.375 43.5874 28.5 43.5874C18.5625 43.5874 12.375 34.2749 10.5 29.5874C12.375 24.9624 18.5625 15.5874 28.5 15.5874ZM19.5 29.5874C19.5 32.8374 21.1875 35.7749 24 37.3999C26.75 39.0249 30.1875 39.0249 33 37.3999C35.75 35.7749 37.5 32.8374 37.5 29.5874C37.5 26.3999 35.75 23.4624 33 21.8374C30.1875 20.2124 26.75 20.2124 24 21.8374C21.1875 23.4624 19.5 26.3999 19.5 29.5874ZM22.5 29.5874C22.5 29.2124 22.5 28.8374 22.5625 28.4624L28.5 29.5874L27.3125 23.7124C27.6875 23.6499 28.0625 23.5874 28.5 23.5874C31.8125 23.5874 34.5 26.2749 34.5 29.5874C34.5 32.8999 31.8125 35.5874 28.5 35.5874C25.1875 35.5874 22.5 32.8999 22.5 29.5874Z" fill="#ECE8DC"/>
</svg>
