<svg width="24" height="24" viewBox="0 0 24 24" fill="none" xmlns="http://www.w3.org/2000/svg">
<path d="M5.91738 3.78916C8.4208 5.61368 11.0939 9.39002 12.0698 11.4267C13.0457 9.39002 15.6765 5.61368 18.1799 3.78916C19.962 2.43138 22.8472 1.41304 22.8472 4.68021C22.8472 5.3591 22.4654 10.2386 22.2532 11.0448C21.4895 13.7604 18.689 14.4817 16.1856 14.0574C20.556 14.7787 21.6592 17.2397 19.2406 19.7007C14.7005 24.4105 12.7063 18.5551 12.1971 17.07C12.1123 16.8578 12.0698 16.7305 12.0698 16.7305C12.0274 16.7305 11.985 16.8578 11.9001 17.07C11.3909 18.5551 9.3967 24.4105 4.85661 19.7007C2.43806 17.2397 3.58369 14.7787 7.91163 14.0574C5.45064 14.4817 2.60778 13.7604 1.84403 11.0448C1.63188 10.2386 1.25 5.3591 1.25 4.68021C1.25 1.41304 4.13529 2.43138 5.91738 3.78916Z" fill="#F2F0EA"/>
</svg>
