<svg width="16" height="16" viewBox="0 0 16 16" fill="none" xmlns="http://www.w3.org/2000/svg">
<g clip-path="url(#clip0_1428_4008)">
<path d="M15.9721 1.13694L13.9721 14.1057C13.9409 14.4182 13.7534 14.6994 13.4721 14.8557C13.3159 14.9182 13.1596 14.9807 12.9721 14.9807C12.8471 14.9807 12.7221 14.9494 12.5971 14.8869L8.78462 13.2932L7.19087 15.6682C7.06587 15.8869 6.84712 15.9807 6.62837 15.9807C6.28462 15.9807 6.00337 15.6994 6.00337 15.3557V12.3557C6.00337 12.1057 6.06587 11.8869 6.19087 11.7307L13.0034 2.98069L3.81587 11.2619L0.597121 9.91819C0.253371 9.76194 0.00337135 9.44944 0.00337135 9.04319C-0.0278787 8.60569 0.159621 8.29319 0.503371 8.10569L14.5034 0.136944C14.8159 -0.0505557 15.2534 -0.0505557 15.5659 0.168194C15.8784 0.386944 16.0346 0.761944 15.9721 1.13694Z" fill="#004C4C"/>
</g>
<defs>
<clipPath id="clip0_1428_4008">
<rect width="16" height="16" fill="white"/>
</clipPath>
</defs>
</svg>
