<svg width="25" height="24" viewBox="0 0 25 24" fill="none" xmlns="http://www.w3.org/2000/svg">
<path d="M20.55 3H4.30781C3.59062 3 3 3.63281 3 4.39219V20.55C3 21.3094 3.59062 21.9 4.30781 21.9H20.55C21.2672 21.9 21.9 21.3094 21.9 20.55V4.39219C21.9 3.63281 21.2672 3 20.55 3ZM8.69531 19.2H5.91094V10.2141H8.69531V19.2ZM7.30312 8.94844C6.375 8.94844 5.65781 8.23125 5.65781 7.34531C5.65781 6.45937 6.375 5.7 7.30312 5.7C8.18906 5.7 8.90625 6.45937 8.90625 7.34531C8.90625 8.23125 8.18906 8.94844 7.30312 8.94844ZM19.2 19.2H16.3734V14.8125C16.3734 13.8 16.3734 12.45 14.9391 12.45C13.4625 12.45 13.2516 13.5891 13.2516 14.7703V19.2H10.4672V10.2141H13.125V11.4375H13.1672C13.5469 10.7203 14.475 9.96094 15.825 9.96094C18.6516 9.96094 19.2 11.8594 19.2 14.2641V19.2Z" fill="#ECEAE3"/>
</svg>
