<svg width="25" height="24" viewBox="0 0 25 24" fill="none" xmlns="http://www.w3.org/2000/svg">
<path d="M21.638 9.21745C21.638 5.08308 18.938 3.90183 18.938 3.90183C16.2802 2.67839 9.27708 2.72058 6.66146 3.90183C6.66146 3.90183 4.00365 5.08308 4.00365 9.21745C4.00365 14.069 3.70833 20.144 8.43333 21.4096C10.163 21.8315 11.6396 21.9581 12.8208 21.8737C14.9302 21.7471 16.1536 21.1143 16.1536 21.1143L16.0693 19.5534C16.0693 19.5534 14.5505 20.0596 12.8208 19.9753C11.1333 19.9331 9.31927 19.8065 9.02396 17.6971C9.02396 17.5284 9.02396 17.3175 9.02396 17.1487C9.02396 17.1065 9.02396 17.1065 9.02396 17.1065C12.6099 17.9925 15.6896 17.4862 16.5333 17.4018C18.8958 17.1065 20.963 15.6721 21.2583 14.3221C21.638 12.2128 21.638 9.21745 21.638 9.21745ZM18.4318 14.4909H16.4911V9.68152C16.4911 7.57214 13.7911 7.48777 13.7911 9.97683V12.5925H11.8083V9.93464C11.8083 7.48777 9.10833 7.57214 9.10833 9.68152V14.4909H7.16771C7.16771 9.34402 6.91458 8.24714 7.92708 7.10808C9.02396 5.88464 11.3021 5.80026 12.3146 7.3612L12.8208 8.16277L13.2849 7.3612C14.2974 5.80026 16.5755 5.88464 17.6724 7.10808C18.6849 8.24714 18.4318 9.34402 18.4318 14.4909Z" fill="#ECEAE3"/>
</svg>
