<svg width="16" height="17" viewBox="0 0 16 17" fill="none" xmlns="http://www.w3.org/2000/svg">
<path d="M8 0.5C3.5625 0.5 0 4.09375 0 8.5C0 12.9375 3.5625 16.5 8 16.5C12.4062 16.5 16 12.9375 16 8.5C16 4.09375 12.4062 0.5 8 0.5ZM10.5 6C11.0312 6 11.4688 6.46875 11.4688 7C11.4688 7.5625 11.0312 8 10.5 8C9.9375 8 9.46875 7.5625 9.46875 7C9.46875 6.46875 9.9375 6 10.5 6ZM5.46875 6C6 6 6.46875 6.46875 6.46875 7C6.46875 7.5625 6 8 5.46875 8C4.90625 8 4.46875 7.5625 4.46875 7C4.46875 6.46875 4.9375 6 5.46875 6ZM11.5625 11.3438C10.6875 12.4062 9.375 13 8 13C6.59375 13 5.28125 12.375 4.40625 11.3125C3.96875 10.8125 4.75 10.1562 5.15625 10.6562C5.875 11.5312 6.90625 12 8 12C9.09375 12 10.0938 11.5312 10.8125 10.6875C11.2188 10.1875 12 10.8125 11.5625 11.3438Z" fill="#DB7704"/>
</svg>
