<svg width="24" height="24" viewBox="0 0 24 24" fill="none" xmlns="http://www.w3.org/2000/svg">
<path d="M19.95 2.40002H3.70784C2.99065 2.40002 2.40002 3.03284 2.40002 3.79221V19.95C2.40002 20.7094 2.99065 21.3 3.70784 21.3H19.95C20.6672 21.3 21.3 20.7094 21.3 19.95V3.79221C21.3 3.03284 20.6672 2.40002 19.95 2.40002ZM8.09534 18.6H5.31096V9.61409H8.09534V18.6ZM6.70315 8.34846C5.77502 8.34846 5.05784 7.63127 5.05784 6.74534C5.05784 5.8594 5.77502 5.10002 6.70315 5.10002C7.58909 5.10002 8.30627 5.8594 8.30627 6.74534C8.30627 7.63127 7.58909 8.34846 6.70315 8.34846ZM18.6 18.6H15.7735V14.2125C15.7735 13.2 15.7735 11.85 14.3391 11.85C12.8625 11.85 12.6516 12.9891 12.6516 14.1703V18.6H9.86721V9.61409H12.525V10.8375H12.5672C12.9469 10.1203 13.875 9.36096 15.225 9.36096C18.0516 9.36096 18.6 11.2594 18.6 13.6641V18.6Z" fill="#2F9B9B"/>
</svg>
