<svg width="24" height="24" viewBox="0 0 24 24" fill="none" xmlns="http://www.w3.org/2000/svg">
<path d="M12.2625 1.79999C6.48286 1.79999 1.80005 6.52499 1.80005 12.2625C1.80005 18.0422 6.48286 22.725 12.2625 22.725C18 22.725 22.725 18.0422 22.725 12.2625C22.725 6.52499 18 1.79999 12.2625 1.79999ZM19.1391 6.65155C20.4047 8.1703 21.1641 10.1109 21.1641 12.2203C20.8688 12.1359 17.9157 11.5453 14.9625 11.925C14.7094 11.3344 14.4985 10.8281 14.161 10.1531C17.4938 8.80311 18.9704 6.90467 19.1391 6.65155ZM18.1688 5.59686C18 5.84999 16.65 7.66405 13.486 8.8453C12.0094 6.1453 10.4063 3.95155 10.1532 3.61405C12.9797 2.93905 15.975 3.65624 18.1688 5.59686ZM8.42349 4.20468C8.67661 4.54218 10.2797 6.73592 11.7563 9.39374C7.57974 10.4906 3.90942 10.4906 3.48755 10.4484C4.07817 7.70624 5.93442 5.38593 8.42349 4.20468ZM3.3188 12.3047C3.3188 12.2203 3.3188 12.1359 3.3188 12.0094C3.69849 12.0515 8.0438 12.0937 12.4735 10.7437C12.7688 11.25 12.9797 11.7562 13.2329 12.2625C9.98442 13.1906 7.0313 15.8062 5.59692 18.2531C4.16255 16.6922 3.3188 14.5828 3.3188 12.3047ZM6.73599 19.35C7.7063 17.4515 10.2375 14.9625 13.8235 13.739C15.0891 16.9875 15.5954 19.7297 15.7219 20.5312C12.8532 21.7547 9.3938 21.4172 6.73599 19.35ZM17.2407 19.6875C17.1563 19.1812 16.65 16.5656 15.511 13.3172C18.2954 12.8953 20.7422 13.6125 21.0797 13.6969C20.6579 16.1859 19.2235 18.3375 17.2407 19.6875Z" fill="#2F9B9B"/>
</svg>
