<svg width="24" height="24" viewBox="0 0 24 24" fill="none" xmlns="http://www.w3.org/2000/svg">
<path d="M11.8711 6.97737C9.17112 6.97737 7.01956 9.17112 7.01956 11.8289C7.01956 14.5289 9.17112 16.6805 11.8711 16.6805C14.5289 16.6805 16.7227 14.5289 16.7227 11.8289C16.7227 9.17112 14.5289 6.97737 11.8711 6.97737ZM11.8711 14.993C10.1414 14.993 8.70706 13.6008 8.70706 11.8289C8.70706 10.0992 10.0992 8.70706 11.8711 8.70706C13.6008 8.70706 14.993 10.0992 14.993 11.8289C14.993 13.6008 13.6008 14.993 11.8711 14.993ZM18.0305 6.80862C18.0305 6.17581 17.5242 5.66956 16.8914 5.66956C16.2586 5.66956 15.7524 6.17581 15.7524 6.80862C15.7524 7.44143 16.2586 7.94768 16.8914 7.94768C17.5242 7.94768 18.0305 7.44143 18.0305 6.80862ZM21.2367 7.94768C21.1524 6.42893 20.8149 5.07893 19.718 3.98206C18.6211 2.88518 17.2711 2.54768 15.7524 2.46331C14.1914 2.37893 9.50862 2.37893 7.94768 2.46331C6.42893 2.54768 5.12112 2.88518 3.98206 3.98206C2.88518 5.07893 2.54768 6.42893 2.46331 7.94768C2.37893 9.50862 2.37893 14.1914 2.46331 15.7524C2.54768 17.2711 2.88518 18.5789 3.98206 19.718C5.12112 20.8149 6.42893 21.1524 7.94768 21.2367C9.50862 21.3211 14.1914 21.3211 15.7524 21.2367C17.2711 21.1524 18.6211 20.8149 19.718 19.718C20.8149 18.5789 21.1524 17.2711 21.2367 15.7524C21.3211 14.1914 21.3211 9.50862 21.2367 7.94768ZM19.2117 17.3977C18.9164 18.2414 18.2414 18.8742 17.4399 19.2117C16.1742 19.718 13.2211 19.5914 11.8711 19.5914C10.4789 19.5914 7.52581 19.718 6.30237 19.2117C5.45862 18.8742 4.82581 18.2414 4.48831 17.3977C3.98206 16.1742 4.10862 13.2211 4.10862 11.8289C4.10862 10.4789 3.98206 7.52581 4.48831 6.26018C4.82581 5.45862 5.45862 4.82581 6.30237 4.48831C7.52581 3.98206 10.4789 4.10862 11.8711 4.10862C13.2211 4.10862 16.1742 3.98206 17.4399 4.48831C18.2414 4.78362 18.8742 5.45862 19.2117 6.26018C19.718 7.52581 19.5914 10.4789 19.5914 11.8289C19.5914 13.2211 19.718 16.1742 19.2117 17.3977Z" fill="#2F9B9B"/>
</svg>
