<?xml version="1.0" encoding="utf-8"?>
<!-- Generator: Adobe Illustrator 26.0.1, SVG Export Plug-In . SVG Version: 6.00 Build 0)  -->
<svg version="1.1" id="Layer_1" xmlns="http://www.w3.org/2000/svg" xmlns:xlink="http://www.w3.org/1999/xlink" x="0px" y="0px"
	 viewBox="0 0 92.7 50" style="enable-background:new 0 0 92.7 50;" xml:space="preserve">
<style type="text/css">
	.st0{fill:#004C4D;}
	.st1{fill:#E67424;}
</style>
<g>
	<polygon class="st0" points="6.1,13.8 17.5,13.8 17.5,10.1 6.1,10.1 6.1,6.4 18.8,6.4 18.8,1.5 0,1.5 0,22.5 18.8,22.5 18.8,17.5 
		6.1,17.5 	"/>
	<path class="st0" d="M29.7,5.6c-0.9,0.3-1.6,0.9-2.1,1.9c-0.5,1-1,2.4-1.3,4.1l-0.6-0.1l0.7-6.2h-5.5v17.1h6v-7.7
		c0-0.9,0.2-1.7,0.5-2.2c0.3-0.5,0.9-0.9,1.8-1.1c0.9-0.2,2.1-0.3,3.7-0.2L33,5.4C31.6,5.2,30.5,5.3,29.7,5.6z"/>
	<path class="st0" d="M37.6,7.7c-0.7,0-1.3,0-1.8-0.1s-0.9-0.2-1.2-0.4v15.3h6V7.1c-0.4,0.2-0.8,0.3-1.2,0.4
		C38.9,7.6,38.3,7.7,37.6,7.7z"/>
	<path class="st0" d="M39.8,0.3C39.2,0.1,38.5,0,37.6,0c-0.9,0-1.6,0.1-2.2,0.3c-0.5,0.2-0.9,0.5-1.1,0.9s-0.3,0.9-0.3,1.6
		c0,0.7,0.1,1.2,0.3,1.6s0.6,0.7,1.1,0.9c0.5,0.2,1.3,0.3,2.2,0.3c0.9,0,1.7-0.1,2.2-0.3c0.5-0.2,0.9-0.5,1.1-0.9
		c0.2-0.4,0.4-0.9,0.4-1.6c0-0.7-0.1-1.2-0.4-1.6C40.7,0.7,40.3,0.4,39.8,0.3z"/>
	<path class="st0" d="M54.3,14.7c0.1,0.3,0.1,0.5,0.1,0.8c0,0.7-0.3,1.3-0.8,1.6c-0.5,0.4-1.2,0.6-2,0.6c-0.7,0-1.2-0.1-1.7-0.3
		c-0.5-0.2-0.8-0.6-1.1-1.2s-0.4-1.4-0.4-2.4c0-1.4,0.2-2.4,0.7-2.9c0.5-0.5,1.1-0.8,2-0.8c0.7,0,1.2,0.2,1.7,0.5
		c0.4,0.3,0.6,0.8,0.6,1.5c0,0.1,0,0.2,0,0.3l6.1-1.4c-0.1-1.4-0.5-2.5-1.3-3.4c-0.7-0.9-1.7-1.6-3-2C54.1,5.2,52.7,5,51,5
		c-1.5,0-2.9,0.3-4.2,1c-1.3,0.7-2.3,1.6-3.1,3c-0.8,1.3-1.2,3-1.2,4.9c0,3.1,0.8,5.4,2.3,6.9c1.5,1.5,3.9,2.2,7.1,2.2
		c2,0,3.6-0.3,5-1c1.3-0.7,2.3-1.6,2.9-2.8c0.6-1.2,0.8-2.4,0.5-3.7L54.3,14.7z"/>
	<path class="st0" d="M77.6,8.2c-0.6-1.1-1.5-1.9-2.8-2.5C73.6,5.2,72,4.9,70,4.9c-2,0-3.7,0.3-5.1,0.9c-1.4,0.6-2.4,1.3-3,2.3
		c-0.7,1-1,2-1,3.1c0,0.3,0,0.6,0.1,1l6,1c-0.1-0.1-0.2-0.3-0.2-0.5c0-0.2-0.1-0.4-0.1-0.6c0-0.7,0.3-1.2,0.8-1.6
		c0.6-0.4,1.3-0.6,2.2-0.6c0.8,0,1.5,0.2,1.9,0.5c0.5,0.3,0.7,0.9,0.7,1.7c0,0.4-0.1,0.7-0.4,0.9c-0.3,0.3-0.7,0.5-1.3,0.6
		c-0.6,0.2-1.4,0.4-2.6,0.6c-0.4,0.1-0.8,0.2-1.2,0.2c-0.4,0.1-0.8,0.2-1.3,0.3c-1.4,0.3-2.5,0.7-3.2,1.4s-1.1,1.6-1.1,2.7
		c0,1.3,0.4,2.3,1.3,2.9c0.8,0.6,2,1,3.5,1s2.8-0.4,4-1.2c1.1-0.8,1.9-2,2.3-3.7l0.7,0.1l-0.4,4.3h5.7v-10
		C78.5,10.7,78.2,9.3,77.6,8.2z M71.2,17.9c-0.4,0.3-0.9,0.5-1.3,0.7s-0.9,0.2-1.3,0.2c-0.6,0-1-0.1-1.3-0.4c-0.3-0.2-0.4-0.6-0.4-1
		c0-0.3,0.1-0.6,0.2-0.8c0.1-0.2,0.4-0.4,0.8-0.6c0.4-0.2,0.9-0.4,1.7-0.6c0.1,0,0.3-0.1,0.4-0.1c0.7-0.2,1.2-0.4,1.6-0.6
		c0.3-0.1,0.6-0.3,0.8-0.4l0.1,0.1v2.3C72,17.2,71.6,17.6,71.2,17.9z"/>
</g>
<g>
	<polygon class="st1" points="6.2,25.5 0,25.5 0,46.5 0.9,46.5 6.2,46.5 15.5,46.5 15.5,41 6.2,41 	"/>
	<path class="st1" d="M28.1,39.2c0.1,0.1,0.1,0.3,0.1,0.5c0,0.5-0.1,0.9-0.4,1.2c-0.2,0.3-0.6,0.6-1.1,0.8c-0.5,0.2-1,0.3-1.7,0.3
		c-0.7,0-1.4-0.1-1.9-0.4c-0.5-0.2-0.9-0.7-1.1-1.3c-0.1-0.2-0.1-0.3-0.2-0.5l11.1-3.7c-0.2-2.4-1-4.2-2.5-5.4
		c-1.5-1.2-3.6-1.8-6.2-1.8c-1.5,0-2.9,0.3-4.2,1c-1.3,0.7-2.4,1.7-3.2,3s-1.2,2.9-1.2,4.8c0,3.1,0.8,5.4,2.3,6.9
		c1.6,1.5,3.9,2.2,7,2.2c2.2,0,4-0.3,5.4-0.9c1.4-0.6,2.4-1.5,3.1-2.5c0.6-1.1,0.9-2.2,0.7-3.5L28.1,39.2z M22.5,34.5
		c0.5-0.6,1.2-0.9,2-0.9c0.8,0,1.4,0.3,1.9,0.9c0.4,0.5,0.6,1.2,0.6,2.1l-5.4,1.8c0-0.1,0-0.3,0-0.4C21.7,36.2,22,35.1,22.5,34.5z"
		/>
	<path class="st1" d="M44,29c-1.6,0-3.1,0.3-4.5,1c-1.4,0.7-2.4,1.7-3.3,3S35,35.9,35,37.8c0,3.1,0.8,5.4,2.3,6.9
		c1.5,1.5,3.9,2.2,7.1,2.2c1.7,0,3.2-0.3,4.6-1c1.4-0.7,2.5-1.7,3.3-3c0.8-1.3,1.2-2.9,1.2-4.8c0-3.1-0.8-5.4-2.3-6.9
		C49.5,29.7,47.2,29,44,29z M47.1,40.5c-0.3,0.6-0.6,1-1.1,1.2c-0.5,0.2-1,0.3-1.7,0.3c-1,0-1.8-0.3-2.4-1c-0.6-0.6-0.9-1.7-0.9-3.2
		c0-1,0.1-1.8,0.4-2.3c0.3-0.6,0.6-0.9,1.1-1.2c0.4-0.2,1-0.3,1.7-0.3c1,0,1.8,0.3,2.4,1c0.6,0.6,0.9,1.7,0.9,3.2
		C47.4,39.1,47.3,39.9,47.1,40.5z"/>
	<path class="st1" d="M70.2,29.8c-0.9-0.6-2-0.9-3.3-0.9c-1.2,0-2.1,0.2-2.9,0.6c-0.8,0.4-1.5,1-2,1.8c-0.5,0.9-0.9,2-1.3,3.5
		l-0.7-0.2l0.7-5.3h-5.9v17.1h6v-7.9c0-0.9,0.2-1.7,0.4-2.4c0.3-0.7,0.6-1.2,1.1-1.5c0.5-0.3,1.1-0.5,1.8-0.5c0.6,0,1.1,0.1,1.6,0.4
		c0.4,0.3,0.7,0.7,1,1.3c0.2,0.6,0.3,1.4,0.3,2.5v8.1H73v-8.6c0-2.1-0.2-3.8-0.7-5.2C71.8,31.4,71.1,30.4,70.2,29.8z"/>
	<path class="st1" d="M86.8,29.3v0.2l0.6,4.6l-0.8,0.1l0,0l0,0c-0.3-1.3-0.7-2.4-1.3-3.2c-0.6-0.8-1.3-1.4-2.1-1.7s-1.8-0.5-2.9-0.5
		c-2,0-3.5,0.6-4.6,1.8c-1.1,1.2-1.6,3-1.6,5.4c0,2.1,0.5,3.7,1.6,4.7c0.8,0.7,1.8,1.1,3.1,1.3l0,0.6l-4.2,0.9
		c-0.1,0.1-0.1,0.3-0.1,0.4c-0.1,0.4-0.1,0.8-0.1,1.1c0,1,0.3,1.8,0.9,2.5c0.6,0.7,1.6,1.3,2.9,1.7s3.1,0.6,5.2,0.6
		c3.2,0,5.6-0.7,7-2.1c1.5-1.4,2.2-3.5,2.2-6.2V29.3H86.8z M80.9,34.7c0.4-0.5,1.1-0.8,2-0.8c0.7,0,1.4,0.2,1.9,0.5
		c0.6,0.3,1.1,0.8,1.7,1.5v0.5c0,0.8-0.2,1.4-0.5,2c-0.3,0.5-0.7,0.9-1.3,1.2C84.3,39.9,83.7,40,83,40c-0.9,0-1.6-0.3-2-0.8
		S80.3,38,80.3,37S80.5,35.2,80.9,34.7z M87.2,41.5c-0.1,1.2-0.5,2-1.2,2.5c-0.7,0.5-1.7,0.8-3,0.8c-0.8,0-1.5-0.1-1.9-0.4
		c-0.4-0.3-0.7-0.7-0.7-1.2c0-0.3,0-0.5,0.1-0.8c0-0.1,0-0.1,0.1-0.1c1.6,0,2.8-0.3,3.9-0.8c1-0.5,1.7-1.2,2.2-2.1l0.8,0.1
		L87.2,41.5z"/>
</g>
</svg>
