<svg width="548" height="402" viewBox="0 0 548 402" fill="none" xmlns="http://www.w3.org/2000/svg">
<path fill-rule="evenodd" clip-rule="evenodd" d="M73.6923 210C32.9932 210 0 242.993 0 283.692C0 322.638 30.3047 354.86 69.1774 357.246L100.715 359.182C111.119 359.821 116.618 372.905 112.03 382.265C107.792 390.908 114.085 401 123.711 401H534.839C541.099 401 545.396 394.699 543.11 388.871C529.893 355.169 497.386 333 461.185 333C420.125 333 386.123 301.113 383.489 260.137L382.126 238.93C381.08 222.661 367.58 210 351.277 210H73.6923Z" fill="#E1DAC2"/>
<path fill-rule="evenodd" clip-rule="evenodd" d="M115.671 85.2723C103.054 91.2101 95 103.901 95 117.846V127.654C95 130.484 93.5048 133.104 91.068 134.543L72.8301 145.313C66.738 148.91 63 155.459 63 162.534V221.789C63 232.061 70.782 240.663 81.0031 241.689L87.7988 242.371C91.8872 242.781 95 246.222 95 250.331V251.487C95 268.193 106.493 282.704 122.755 286.53L158.933 295.043C161.635 295.679 164.402 296 167.178 296H383C402.882 296 419 279.882 419 260V99C419 79.1177 402.882 63 383 63H171.047C165.748 63 160.514 64.17 155.719 66.4265L115.671 85.2723Z" fill="black"/>
<rect x="197" y="280" width="79" height="28" fill="black"/>
<rect x="237" y="280" width="79" height="28" fill="#005656"/>
<rect x="135" y="63" width="284" height="233" rx="36" fill="#DB7704"/>
<mask id="mask0_1647_6474" style="mask-type:alpha" maskUnits="userSpaceOnUse" x="164" y="89" width="230" height="162">
<rect x="164" y="89.0005" width="230" height="161" rx="16" fill="black"/>
</mask>
<g mask="url(#mask0_1647_6474)">
<rect x="164" y="89.0005" width="230" height="161" rx="16" fill="#003D3D"/>
<path d="M364.5 225L396 252.5H162V225H364.5Z" fill="#005656"/>
<path d="M364.5 113.501L396 81.001H162V113.501H364.5Z" fill="black"/>
</g>
<path d="M164 119C164 110.164 171.163 103 180 103H362C370.837 103 378 110.164 378 119V220C378 228.837 370.837 236 362 236H180C171.163 236 164 228.837 164 220V119Z" fill="#012727"/>
<path d="M257.639 192.239V192.239C262.507 178.611 281.78 178.611 286.647 192.239V192.239" stroke="#F2F0EA" stroke-width="8.95584"/>
<line x1="234.251" y1="167.554" x2="253.735" y2="148.07" stroke="#F2F0EA" stroke-width="8.95584"/>
<line y1="-4.47792" x2="27.5547" y2="-4.47792" transform="matrix(-0.707107 -0.707106 -0.707107 0.707106 250.406 170.721)" stroke="#F2F0EA" stroke-width="8.95584"/>
<line x1="292.703" y1="167.554" x2="312.187" y2="148.07" stroke="#F2F0EA" stroke-width="8.95584"/>
<line y1="-4.47792" x2="27.5547" y2="-4.47792" transform="matrix(-0.707107 -0.707106 -0.707107 0.707106 308.859 170.721)" stroke="#F2F0EA" stroke-width="8.95584"/>
<rect x="189" y="267" width="48" height="7.99999" rx="2" fill="#012727"/>
<ellipse cx="171" cy="271" rx="7" ry="6.99999" fill="#012727"/>
<path d="M145 316C145 311.582 148.582 308 153 308H359C363.418 308 367 311.582 367 316V334C367 338.418 363.418 342 359 342H153C148.582 342 145 338.418 145 334V316Z" fill="black"/>
<path d="M204 316C204 311.582 207.582 308 212 308H359C363.418 308 367 311.582 367 316V334C367 338.418 363.418 342 359 342H212C207.582 342 204 338.418 204 334V316Z" fill="#DB7704"/>
<rect x="218" y="318" width="78" height="15" rx="3" fill="#012727"/>
<path d="M218 323H290V328H218V323Z" fill="#005656"/>
<path d="M87.9538 362.115C92.8134 349.966 104.58 342 117.665 342H395.335C408.42 342 420.187 349.966 425.046 362.115L441 402H72L87.9538 362.115Z" fill="black"/>
<path d="M151.954 362.115C156.813 349.966 168.58 342 181.665 342H395.335C408.42 342 420.187 349.966 425.046 362.115L441 402H136L151.954 362.115Z" fill="#012727"/>
<ellipse cx="330" cy="331" rx="3" ry="3" fill="#012727"/>
<ellipse cx="341" cy="331" rx="3" ry="3" fill="#012727"/>
<ellipse cx="352" cy="331" rx="3" ry="3" fill="#012727"/>
<path d="M256 372C256 367.582 259.582 364 264 364H458.119C460.063 364 461.94 364.708 463.4 365.991L493 392H264C259.582 392 256 388.419 256 384V372Z" fill="#DB7704"/>
<path fill-rule="evenodd" clip-rule="evenodd" d="M264 364C259.582 364 256 367.582 256 372V392L256 394C256 398.418 259.582 402 264 402H486C490.418 402 494 398.418 494 394C494 392.896 493.105 392 492 392H322.884C319.735 392 316.693 390.857 314.324 388.784L289.676 367.217C287.306 365.143 284.264 364 281.115 364H264Z" fill="black"/>
<path d="M310 374.8C310 372.149 312.149 370 314.8 370H316.2C318.851 370 321 372.149 321 374.8C321 375.462 320.463 376 319.8 376H311.2C310.537 376 310 375.462 310 374.8Z" fill="black"/>
<path d="M327 374.8C327 372.149 329.149 370 331.8 370H333.2C335.851 370 338 372.149 338 374.8C338 375.462 337.463 376 336.8 376H328.2C327.537 376 327 375.462 327 374.8Z" fill="black"/>
<path d="M344 374.8C344 372.149 346.149 370 348.8 370H350.2C352.851 370 355 372.149 355 374.8C355 375.462 354.463 376 353.8 376H345.2C344.537 376 344 375.462 344 374.8Z" fill="black"/>
<path d="M361 374.8C361 372.149 363.149 370 365.8 370H367.2C369.851 370 372 372.149 372 374.8C372 375.462 371.463 376 370.8 376H362.2C361.537 376 361 375.462 361 374.8Z" fill="black"/>
<path d="M378 374.8C378 372.149 380.149 370 382.8 370H384.2C386.851 370 389 372.149 389 374.8C389 375.462 388.463 376 387.8 376H379.2C378.537 376 378 375.462 378 374.8Z" fill="black"/>
<path d="M395 374.8C395 372.149 397.149 370 399.8 370H401.2C403.851 370 406 372.149 406 374.8C406 375.462 405.463 376 404.8 376H396.2C395.537 376 395 375.462 395 374.8Z" fill="black"/>
<path d="M412 374.8C412 372.149 414.149 370 416.8 370H418.2C420.851 370 423 372.149 423 374.8C423 375.462 422.463 376 421.8 376H413.2C412.537 376 412 375.462 412 374.8Z" fill="black"/>
<path d="M429 374.8C429 372.149 431.149 370 433.8 370H435.2C437.851 370 440 372.149 440 374.8C440 375.462 439.463 376 438.8 376H430.2C429.537 376 429 375.462 429 374.8Z" fill="black"/>
<path d="M446 374.8C446 372.149 448.149 370 450.8 370H452.2C454.851 370 457 372.149 457 374.8C457 375.462 456.463 376 455.8 376H447.2C446.537 376 446 375.462 446 374.8Z" fill="black"/>
<path d="M319 384.8C319 382.149 321.149 380 323.8 380H325.2C327.851 380 330 382.149 330 384.8C330 385.463 329.463 386 328.8 386H320.2C319.537 386 319 385.463 319 384.8Z" fill="black"/>
<path d="M336 384.8C336 382.149 338.149 380 340.8 380H342.2C344.851 380 347 382.149 347 384.8C347 385.463 346.463 386 345.8 386H337.2C336.537 386 336 385.463 336 384.8Z" fill="black"/>
<path d="M353 384.8C353 382.149 355.149 380 357.8 380H415.2C417.851 380 420 382.149 420 384.8C420 385.463 419.463 386 418.8 386H354.2C353.537 386 353 385.463 353 384.8Z" fill="black"/>
<path d="M426 384.8C426 382.149 428.149 380 430.8 380H432.2C434.851 380 437 382.149 437 384.8C437 385.463 436.463 386 435.8 386H427.2C426.537 386 426 385.463 426 384.8Z" fill="black"/>
<path d="M443 384.8C443 382.149 445.149 380 447.8 380H449.2C451.851 380 454 382.149 454 384.8C454 385.463 453.463 386 452.8 386H444.2C443.537 386 443 385.463 443 384.8Z" fill="black"/>
<path d="M460 384.8C460 382.149 462.149 380 464.8 380H466.2C468.851 380 471 382.149 471 384.8C471 385.463 470.463 386 469.8 386H461.2C460.537 386 460 385.463 460 384.8Z" fill="black"/>
<rect x="266" y="389" width="15" height="4" rx="2" fill="#005656"/>
<path d="M286 391C286 389.895 286.895 389 288 389H295C296.105 389 297 389.895 297 391C297 392.105 296.105 393 295 393H288C286.895 393 286 392.105 286 391Z" fill="#005656"/>
</svg>
