<svg width="548" height="402" viewBox="0 0 548 402" fill="none" xmlns="http://www.w3.org/2000/svg">
<path fill-rule="evenodd" clip-rule="evenodd" d="M73.6923 210C32.9932 210 0 242.993 0 283.692C0 322.638 30.3047 354.86 69.1774 357.246L100.715 359.182C111.119 359.821 116.618 372.905 112.03 382.265C107.792 390.908 114.085 401 123.711 401H534.839C541.099 401 545.396 394.699 543.11 388.871C529.893 355.169 497.386 333 461.185 333C420.125 333 386.123 301.113 383.489 260.137L382.126 238.93C381.08 222.661 367.58 210 351.277 210H73.6923Z" fill="#E1DAC2"/>
<path fill-rule="evenodd" clip-rule="evenodd" d="M115.671 84.2723C103.054 90.2101 95 102.901 95 116.846V126.654C95 129.484 93.5048 132.104 91.068 133.543L72.8301 144.313C66.738 147.91 63 154.459 63 161.534V220.789C63 231.061 70.782 239.663 81.0031 240.689L87.7988 241.371C91.8872 241.781 95 245.222 95 249.331V250.487C95 267.193 106.493 281.704 122.755 285.53L158.933 294.043C161.635 294.679 164.402 295 167.178 295H383C402.882 295 419 278.882 419 259V98C419 78.1177 402.882 62 383 62H171.047C165.748 62 160.514 63.17 155.719 65.4265L115.671 84.2723Z" fill="black"/>
<rect x="197" y="279" width="79" height="28" fill="black"/>
<rect x="237" y="279" width="79" height="28" fill="#005656"/>
<rect x="135" y="62" width="284" height="233" rx="36" fill="#DB7704"/>
<mask id="mask0_1647_6474" style="mask-type:alpha" maskUnits="userSpaceOnUse" x="164" y="88" width="230" height="162">
<rect x="164" y="88.0005" width="230" height="161" rx="16" fill="black"/>
</mask>
<g mask="url(#mask0_1647_6474)">
<rect x="164" y="88.0005" width="230" height="161" rx="16" fill="#003D3D"/>
<path d="M364.5 224L396 251.5H162V224H364.5Z" fill="#005656"/>
<path d="M364.5 112.501L396 80.001H162V112.501H364.5Z" fill="black"/>
</g>
<path d="M164 118C164 109.164 171.163 102 180 102H362C370.837 102 378 109.164 378 118V219C378 227.837 370.837 235 362 235H180C171.163 235 164 227.837 164 219V118Z" fill="#002C2C"/>
<path d="M257.639 191.239V191.239C262.507 177.611 281.78 177.611 286.647 191.239V191.239" stroke="#F2F0EA" stroke-width="8.95584"/>
<line x1="234.251" y1="166.554" x2="253.735" y2="147.07" stroke="#F2F0EA" stroke-width="8.95584"/>
<line y1="-4.47792" x2="27.5547" y2="-4.47792" transform="matrix(-0.707107 -0.707106 -0.707107 0.707106 250.406 169.721)" stroke="#F2F0EA" stroke-width="8.95584"/>
<line x1="292.703" y1="166.554" x2="312.187" y2="147.07" stroke="#F2F0EA" stroke-width="8.95584"/>
<line y1="-4.47792" x2="27.5547" y2="-4.47792" transform="matrix(-0.707107 -0.707106 -0.707107 0.707106 308.859 169.721)" stroke="#F2F0EA" stroke-width="8.95584"/>
<rect x="189" y="266" width="48" height="7.99999" rx="2" fill="#002C2C"/>
<ellipse cx="171" cy="270" rx="7" ry="6.99999" fill="#002C2C"/>
<path d="M145 315C145 310.582 148.582 307 153 307H359C363.418 307 367 310.582 367 315V333C367 337.418 363.418 341 359 341H153C148.582 341 145 337.418 145 333V315Z" fill="black"/>
<path d="M204 315C204 310.582 207.582 307 212 307H359C363.418 307 367 310.582 367 315V333C367 337.418 363.418 341 359 341H212C207.582 341 204 337.418 204 333V315Z" fill="#DB7704"/>
<rect x="218" y="317" width="78" height="15" rx="3" fill="#002C2C"/>
<path d="M218 322H290V327H218V322Z" fill="#005656"/>
<path d="M87.9538 361.115C92.8134 348.966 104.58 341 117.665 341H395.335C408.42 341 420.187 348.966 425.046 361.115L441 401H72L87.9538 361.115Z" fill="black"/>
<path d="M151.954 361.115C156.813 348.966 168.58 341 181.665 341H395.335C408.42 341 420.187 348.966 425.046 361.115L441 401H136L151.954 361.115Z" fill="#002C2C"/>
<ellipse cx="330" cy="330" rx="3" ry="3" fill="#002C2C"/>
<ellipse cx="341" cy="330" rx="3" ry="3" fill="#002C2C"/>
<ellipse cx="352" cy="330" rx="3" ry="3" fill="#002C2C"/>
<path d="M256 371C256 366.582 259.582 363 264 363H458.119C460.063 363 461.94 363.708 463.4 364.991L493 391H264C259.582 391 256 387.419 256 383V371Z" fill="#DB7704"/>
<path fill-rule="evenodd" clip-rule="evenodd" d="M264 363C259.582 363 256 366.582 256 371V391L256 393C256 397.418 259.582 401 264 401H486C490.418 401 494 397.418 494 393C494 391.896 493.105 391 492 391H322.884C319.735 391 316.693 389.857 314.324 387.784L289.676 366.217C287.306 364.143 284.264 363 281.115 363H264Z" fill="black"/>
<path d="M310 373.8C310 371.149 312.149 369 314.8 369H316.2C318.851 369 321 371.149 321 373.8C321 374.462 320.463 375 319.8 375H311.2C310.537 375 310 374.462 310 373.8Z" fill="black"/>
<path d="M327 373.8C327 371.149 329.149 369 331.8 369H333.2C335.851 369 338 371.149 338 373.8C338 374.462 337.463 375 336.8 375H328.2C327.537 375 327 374.462 327 373.8Z" fill="black"/>
<path d="M344 373.8C344 371.149 346.149 369 348.8 369H350.2C352.851 369 355 371.149 355 373.8C355 374.462 354.463 375 353.8 375H345.2C344.537 375 344 374.462 344 373.8Z" fill="black"/>
<path d="M361 373.8C361 371.149 363.149 369 365.8 369H367.2C369.851 369 372 371.149 372 373.8C372 374.462 371.463 375 370.8 375H362.2C361.537 375 361 374.462 361 373.8Z" fill="black"/>
<path d="M378 373.8C378 371.149 380.149 369 382.8 369H384.2C386.851 369 389 371.149 389 373.8C389 374.462 388.463 375 387.8 375H379.2C378.537 375 378 374.462 378 373.8Z" fill="black"/>
<path d="M395 373.8C395 371.149 397.149 369 399.8 369H401.2C403.851 369 406 371.149 406 373.8C406 374.462 405.463 375 404.8 375H396.2C395.537 375 395 374.462 395 373.8Z" fill="black"/>
<path d="M412 373.8C412 371.149 414.149 369 416.8 369H418.2C420.851 369 423 371.149 423 373.8C423 374.462 422.463 375 421.8 375H413.2C412.537 375 412 374.462 412 373.8Z" fill="black"/>
<path d="M429 373.8C429 371.149 431.149 369 433.8 369H435.2C437.851 369 440 371.149 440 373.8C440 374.462 439.463 375 438.8 375H430.2C429.537 375 429 374.462 429 373.8Z" fill="black"/>
<path d="M446 373.8C446 371.149 448.149 369 450.8 369H452.2C454.851 369 457 371.149 457 373.8C457 374.462 456.463 375 455.8 375H447.2C446.537 375 446 374.462 446 373.8Z" fill="black"/>
<path d="M319 383.8C319 381.149 321.149 379 323.8 379H325.2C327.851 379 330 381.149 330 383.8C330 384.463 329.463 385 328.8 385H320.2C319.537 385 319 384.463 319 383.8Z" fill="black"/>
<path d="M336 383.8C336 381.149 338.149 379 340.8 379H342.2C344.851 379 347 381.149 347 383.8C347 384.463 346.463 385 345.8 385H337.2C336.537 385 336 384.463 336 383.8Z" fill="black"/>
<path d="M353 383.8C353 381.149 355.149 379 357.8 379H415.2C417.851 379 420 381.149 420 383.8C420 384.463 419.463 385 418.8 385H354.2C353.537 385 353 384.463 353 383.8Z" fill="black"/>
<path d="M426 383.8C426 381.149 428.149 379 430.8 379H432.2C434.851 379 437 381.149 437 383.8C437 384.463 436.463 385 435.8 385H427.2C426.537 385 426 384.463 426 383.8Z" fill="black"/>
<path d="M443 383.8C443 381.149 445.149 379 447.8 379H449.2C451.851 379 454 381.149 454 383.8C454 384.463 453.463 385 452.8 385H444.2C443.537 385 443 384.463 443 383.8Z" fill="black"/>
<path d="M460 383.8C460 381.149 462.149 379 464.8 379H466.2C468.851 379 471 381.149 471 383.8C471 384.463 470.463 385 469.8 385H461.2C460.537 385 460 384.463 460 383.8Z" fill="black"/>
<rect x="266" y="388" width="15" height="4" rx="2" fill="#005656"/>
<path d="M286 390C286 388.895 286.895 388 288 388H295C296.105 388 297 388.895 297 390C297 391.105 296.105 392 295 392H288C286.895 392 286 391.105 286 390Z" fill="#005656"/>
</svg>
