<svg width="1081" height="303" viewBox="0 0 1081 303" fill="none" xmlns="http://www.w3.org/2000/svg">
<path fill-rule="evenodd" clip-rule="evenodd" d="M108 156C108 89.7258 161.726 36 228 36H277C336.143 36 385.293 78.7861 395.185 135.094C397.101 146.001 405.926 155 417 155V155C458.004 155 493.244 179.679 508.677 214.994C515.116 229.729 528.196 242 544.277 242H612.5C629.345 242 643 255.655 643 272.5C643 289.345 629.345 303 612.5 303H517H474.5H278C259.915 303 243.346 296.513 230.491 285.738C223.645 279.999 215.537 275.695 206.743 274.123C150.608 264.088 108 215.02 108 156Z" fill="#E1DAC2"/>
<path d="M572 272.5C572 255.655 585.655 242 602.5 242H904.421C934.564 242 959 266.436 959 296.579V296.579C959 300.125 956.125 303 952.579 303H602.5C585.655 303 572 289.345 572 272.5V272.5Z" fill="#E1DAC2"/>
<path d="M616.285 260.354L598.192 303H662.808L616.285 260.354Z" fill="#001818"/>
<path d="M564.835 229.495L642.315 297.985C645.971 301.216 650.682 303 655.561 303H873.115C878.64 303 881.228 296.164 877.088 292.505L799.608 224.015C795.952 220.784 791.241 219 786.362 219H568.809C563.283 219 560.695 225.836 564.835 229.495Z" fill="#001818"/>
<path d="M574.325 220.749L661.7 297.985C665.356 301.216 670.067 303 674.946 303H892.499C898.024 303 900.613 296.164 896.473 292.505L818.993 224.015C815.337 220.784 810.626 219 805.747 219H574.987C574.066 219 573.635 220.139 574.325 220.749Z" fill="#005656"/>
<path d="M626.061 229.802L688.862 284.31C691.227 286.363 694.252 287.493 697.383 287.493H870.776C871.701 287.493 872.13 286.344 871.432 285.737L808.63 231.229C806.266 229.176 803.24 228.046 800.109 228.046H626.716C625.791 228.046 625.362 229.195 626.061 229.802Z" fill="#001818"/>
<path d="M593.712 229.796L599.094 234.548C600.007 235.355 601.184 235.8 602.403 235.8H621.395C622.316 235.8 622.748 234.66 622.057 234.051L616.676 229.298C615.762 228.492 614.585 228.046 613.366 228.046H594.374C593.453 228.046 593.022 229.186 593.712 229.796Z" fill="#003D3D"/>
<path d="M606.635 241.426L612.017 246.178C612.93 246.985 614.107 247.431 615.326 247.431H634.318C635.239 247.431 635.671 246.291 634.98 245.681L629.599 240.929C628.685 240.122 627.508 239.677 626.289 239.677H607.297C606.376 239.677 605.945 240.817 606.635 241.426Z" fill="#003D3D"/>
<path d="M638.943 269.857L644.324 274.61C645.238 275.416 646.415 275.862 647.634 275.862H666.626C667.547 275.862 667.978 274.722 667.288 274.112L661.906 269.36C660.993 268.553 659.816 268.108 658.597 268.108H639.605C638.684 268.108 638.252 269.248 638.943 269.857Z" fill="#003D3D"/>
<path d="M653.158 281.488L658.54 286.241C659.453 287.047 660.63 287.493 661.849 287.493H680.841C681.762 287.493 682.194 286.353 681.503 285.743L676.122 280.991C675.208 280.184 674.031 279.739 672.812 279.739H653.82C652.899 279.739 652.468 280.879 653.158 281.488Z" fill="#003D3D"/>
<path fill-rule="evenodd" clip-rule="evenodd" d="M216.08 20.8274C204.793 26.1248 197.585 37.4697 197.585 49.9386V58.5808C197.585 61.1118 196.246 63.454 194.065 64.7384L177.799 74.3181C172.347 77.5291 169 83.3846 169 89.7121V142.41C169 151.588 175.954 159.273 185.086 160.187L191.15 160.793C194.803 161.159 197.585 164.233 197.585 167.904V168.83C197.585 183.761 207.861 196.727 222.396 200.138L254.703 207.719C257.111 208.284 259.576 208.569 262.05 208.569H454.847C472.607 208.569 487.005 194.172 487.005 176.412V33.158C487.005 15.3977 472.607 1.0002 454.847 1.0002H265.498C260.775 1.0002 256.111 2.04035 251.836 4.04675L216.08 20.8274Z" fill="#001818"/>
<rect x="288.698" y="194.315" width="70.5684" height="24.9439" fill="#001818"/>
<rect x="324.429" y="194.315" width="70.5684" height="24.9439" fill="#005656"/>
<rect x="233.316" y="1" width="253.689" height="207.569" rx="32.1578" fill="#DB7704"/>
<mask id="mask0_1783_7831" style="mask-type:alpha" maskUnits="userSpaceOnUse" x="259" y="24" width="206" height="144">
<rect x="259.22" y="24.1626" width="205.452" height="143.428" rx="14.2923" fill="black"/>
</mask>
<g mask="url(#mask0_1783_7831)">
<rect x="259.22" y="24.1626" width="205.452" height="143.428" rx="14.2923" fill="#003D3D"/>
<path d="M438.321 145.319L466.459 169.817H257.434V145.319H438.321Z" fill="#005656"/>
<path d="M438.321 45.9888L466.459 17.036H257.434V45.9888H438.321Z" fill="#001818"/>
</g>
<path d="M259.22 50.9266C259.22 43.0332 265.619 36.6343 273.513 36.6343H436.088C443.982 36.6343 450.38 43.0332 450.38 50.9266V140.826C450.38 148.719 443.982 155.118 436.088 155.118H273.513C265.619 155.118 259.22 148.719 259.22 140.826V50.9266Z" fill="#012727"/>
<rect width="51" height="29" transform="translate(333 81)" fill="#F2F0EA"/>
<circle cx="358" cy="94" r="45" fill="#005656"/>
<path fill-rule="evenodd" clip-rule="evenodd" d="M369.002 106.525C365.228 95.9603 350.287 95.9603 346.514 106.525L351.579 108.334C353.653 102.529 361.863 102.529 363.936 108.334L369.002 106.525Z" fill="#F2F0EA"/>
<path fill-rule="evenodd" clip-rule="evenodd" d="M348.603 82.8033L336.901 94.5056L333.097 90.7021L344.8 78.9998L348.603 82.8033Z" fill="#F2F0EA"/>
<path fill-rule="evenodd" clip-rule="evenodd" d="M333 82.8033L344.702 94.5056L348.506 90.7021L336.803 78.9998L333 82.8033Z" fill="#F2F0EA"/>
<path fill-rule="evenodd" clip-rule="evenodd" d="M383.71 82.8033L372.008 94.5056L368.204 90.7021L379.907 78.9998L383.71 82.8033Z" fill="#F2F0EA"/>
<path fill-rule="evenodd" clip-rule="evenodd" d="M368.107 82.8033L379.809 94.5056L383.613 90.7021L371.91 78.9998L368.107 82.8033Z" fill="#F2F0EA"/>
<rect x="281.552" y="182.735" width="42.877" height="7.12684" rx="1.78654" fill="#012727"/>
<ellipse cx="265.473" cy="186.298" rx="6.2529" ry="6.23598" fill="#012727"/>
<path d="M242.248 226.405C242.248 222.459 245.448 219.259 249.394 219.259H433.408C437.355 219.259 440.555 222.459 440.555 226.405V242.402C440.555 246.349 437.355 249.548 433.408 249.548H249.394C245.448 249.548 242.248 246.349 242.248 242.402V226.405Z" fill="#001818"/>
<path d="M294.951 226.405C294.951 222.459 298.151 219.259 302.097 219.259H433.408C437.355 219.259 440.555 222.459 440.555 226.405V242.402C440.555 246.349 437.355 249.548 433.408 249.548H302.097C298.151 249.548 294.951 246.349 294.951 242.402V226.405Z" fill="#DB7704"/>
<rect x="307.457" y="228.168" width="69.6752" height="13.3628" rx="2.67981" fill="#012727"/>
<path d="M307.457 232.623H371.773V237.077H307.457V232.623Z" fill="#005656"/>
<path d="M191.281 267.492C195.628 256.653 206.133 249.548 217.811 249.548H465.885C477.563 249.548 488.068 256.653 492.415 267.492L506.657 303H177.039L191.281 267.492Z" fill="#001818"/>
<path d="M274.981 254.548H465.885C475.521 254.548 484.187 260.41 487.774 269.353L499.264 298H241.601L253.091 269.353C256.678 260.41 265.345 254.548 274.981 254.548Z" fill="#012727" stroke="#004C4C" stroke-width="10"/>
<path d="M244.881 303L251.184 287.542L372.803 288.041V303H244.881Z" fill="#012727"/>
<circle cx="407.504" cy="239.578" r="2.67981" fill="#012727"/>
<circle cx="417.329" cy="239.578" r="2.67981" fill="#012727"/>
<circle cx="427.156" cy="239.578" r="2.67981" fill="#012727"/>
<path d="M343 275.143C343 271.041 346.326 267.715 350.429 267.715H530.682C532.487 267.715 534.23 268.372 535.585 269.563L563.071 293.715H350.429C346.326 293.715 343 290.389 343 286.286V275.143Z" fill="#DB7704"/>
<path fill-rule="evenodd" clip-rule="evenodd" d="M350.429 267.715C346.326 267.715 343 271.041 343 275.143V293.714V293.715V295.571C343 299.674 346.326 303 350.429 303H556.571C560.674 303 564 299.674 564 295.571V295.571C564 294.546 563.169 293.714 562.143 293.714H405.106C402.182 293.714 399.358 292.653 397.157 290.728L374.271 270.702C372.07 268.776 369.245 267.715 366.321 267.715H350.429Z" fill="#001818"/>
<path d="M393.143 277.742C393.143 275.281 395.138 273.285 397.6 273.285H398.9C401.362 273.285 403.357 275.281 403.357 277.742V277.742C403.357 278.358 402.858 278.857 402.243 278.857H394.257C393.642 278.857 393.143 278.358 393.143 277.742V277.742Z" fill="#001818"/>
<path d="M408.929 277.742C408.929 275.281 410.924 273.285 413.386 273.285H414.686C417.147 273.285 419.143 275.281 419.143 277.742V277.742C419.143 278.358 418.644 278.857 418.029 278.857H410.043C409.427 278.857 408.929 278.358 408.929 277.742V277.742Z" fill="#001818"/>
<path d="M424.714 277.742C424.714 275.281 426.71 273.285 429.171 273.285H430.471C432.933 273.285 434.929 275.281 434.929 277.742V277.742C434.929 278.358 434.43 278.857 433.814 278.857H425.829C425.213 278.857 424.714 278.358 424.714 277.742V277.742Z" fill="#001818"/>
<path d="M440.5 277.742C440.5 275.281 442.496 273.285 444.957 273.285H446.257C448.719 273.285 450.714 275.281 450.714 277.742V277.742C450.714 278.358 450.215 278.857 449.6 278.857H441.614C440.999 278.857 440.5 278.358 440.5 277.742V277.742Z" fill="#001818"/>
<path d="M456.286 277.742C456.286 275.281 458.281 273.285 460.743 273.285H462.043C464.505 273.285 466.5 275.281 466.5 277.742V277.742C466.5 278.358 466.001 278.857 465.386 278.857H457.4C456.785 278.857 456.286 278.358 456.286 277.742V277.742Z" fill="#001818"/>
<path d="M472.072 277.742C472.072 275.281 474.067 273.285 476.529 273.285H477.829C480.29 273.285 482.286 275.281 482.286 277.742V277.742C482.286 278.358 481.787 278.857 481.172 278.857H473.186C472.57 278.857 472.072 278.358 472.072 277.742V277.742Z" fill="#001818"/>
<path d="M487.857 277.742C487.857 275.281 489.853 273.285 492.314 273.285H493.614C496.076 273.285 498.071 275.281 498.071 277.742V277.742C498.071 278.358 497.573 278.857 496.957 278.857H488.971C488.356 278.857 487.857 278.358 487.857 277.742V277.742Z" fill="#001818"/>
<path d="M503.643 277.742C503.643 275.281 505.638 273.285 508.1 273.285H509.4C511.862 273.285 513.857 275.281 513.857 277.742V277.742C513.857 278.358 513.358 278.857 512.743 278.857H504.757C504.142 278.857 503.643 278.358 503.643 277.742V277.742Z" fill="#001818"/>
<path d="M519.429 277.742C519.429 275.281 521.424 273.285 523.886 273.285H525.186C527.647 273.285 529.643 275.281 529.643 277.742V277.742C529.643 278.358 529.144 278.857 528.529 278.857H520.543C519.927 278.857 519.429 278.358 519.429 277.742V277.742Z" fill="#001818"/>
<path d="M401.5 287.028C401.5 284.567 403.496 282.571 405.957 282.571H407.257C409.719 282.571 411.714 284.567 411.714 287.028V287.028C411.714 287.644 411.215 288.143 410.6 288.143H402.614C401.999 288.143 401.5 287.644 401.5 287.028V287.028Z" fill="#001818"/>
<path d="M417.286 287.028C417.286 284.567 419.281 282.571 421.743 282.571H423.043C425.505 282.571 427.5 284.567 427.5 287.028V287.028C427.5 287.644 427.001 288.143 426.386 288.143H418.4C417.785 288.143 417.286 287.644 417.286 287.028V287.028Z" fill="#001818"/>
<path d="M433.071 287.028C433.071 284.567 435.067 282.571 437.529 282.571H490.829C493.29 282.571 495.286 284.567 495.286 287.028V287.028C495.286 287.644 494.787 288.143 494.171 288.143H434.186C433.57 288.143 433.071 287.644 433.071 287.028V287.028Z" fill="#001818"/>
<path d="M500.857 287.028C500.857 284.567 502.853 282.571 505.314 282.571H506.614C509.076 282.571 511.071 284.567 511.071 287.028V287.028C511.071 287.644 510.573 288.143 509.957 288.143H501.971C501.356 288.143 500.857 287.644 500.857 287.028V287.028Z" fill="#001818"/>
<path d="M516.643 287.028C516.643 284.567 518.638 282.571 521.1 282.571H522.4C524.862 282.571 526.857 284.567 526.857 287.028V287.028C526.857 287.644 526.358 288.143 525.743 288.143H517.757C517.142 288.143 516.643 287.644 516.643 287.028V287.028Z" fill="#001818"/>
<path d="M532.429 287.028C532.429 284.567 534.424 282.571 536.886 282.571H538.186C540.647 282.571 542.643 284.567 542.643 287.028V287.028C542.643 287.644 542.144 288.143 541.529 288.143H533.543C532.927 288.143 532.429 287.644 532.429 287.028V287.028Z" fill="#001818"/>
<rect x="352.286" y="290.928" width="13.9286" height="3.71429" rx="1.85714" fill="#005656"/>
<path d="M370.857 292.785C370.857 291.76 371.689 290.928 372.714 290.928H379.214C380.24 290.928 381.071 291.76 381.071 292.785V292.785C381.071 293.811 380.24 294.643 379.214 294.643H372.714C371.689 294.643 370.857 293.811 370.857 292.785V292.785Z" fill="#005656"/>
<path fill-rule="evenodd" clip-rule="evenodd" d="M698.477 36.705C682.608 36.705 669.743 49.5695 669.743 65.4387V65.4387C669.743 71.4083 665.655 77.908 659.685 77.908H616.613C598.049 77.908 583 92.9571 583 111.521C583 130.085 598.049 145.134 616.613 145.134H714.199C732.763 145.134 747.812 130.085 747.812 111.521V111.521C747.812 103.512 753.215 94.1724 761.224 94.1724H805.822C821.691 94.1724 834.556 81.3079 834.556 65.4387C834.556 49.5695 821.691 36.705 805.822 36.705H698.477Z" fill="#F2F0EA" fill-opacity="0.1"/>
<path fill-rule="evenodd" clip-rule="evenodd" d="M691.875 83.167C698.02 83.167 703.809 81.642 708.885 78.9499C706.137 99.7813 688.31 115.859 666.728 115.859C643.242 115.859 624.203 96.8198 624.203 73.3341C624.203 52.5287 639.144 35.213 658.882 31.5317C656.726 36.178 655.523 41.3561 655.523 46.8153C655.523 66.8918 671.798 83.167 691.875 83.167ZM657.048 96.6449C660.691 86.4441 675.117 86.4441 678.76 96.6449L673.869 98.3916C671.867 92.7865 663.941 92.7865 661.939 98.3916L657.048 96.6449ZM648.756 86.2475C652.61 85.644 656.189 83.1418 657.76 78.7409L652.869 76.9941C650.868 82.5993 642.941 82.5993 640.939 76.9941L636.048 78.7409C637.701 83.3701 641.575 85.8986 645.654 86.3262L643.559 93.0209C642.786 95.4899 644.63 98 647.217 98C649.805 98 651.649 95.4899 650.876 93.0209L648.756 86.2475Z" fill="#F2F0EA"/>
<circle cx="862.747" cy="82.5097" r="3.25287" fill="#F2F0EA"/>
<circle cx="862.747" cy="178.747" r="3.25287" fill="#F2F0EA"/>
<circle cx="809.352" cy="125.472" r="3.25287" fill="#F2F0EA"/>
<circle cx="612.276" cy="13.935" r="3.25287" fill="#F2F0EA"/>
<circle cx="692.345" cy="167.567" r="3.25287" fill="#F2F0EA"/>
<circle cx="757.571" cy="21.5248" r="3.25287" fill="#F2F0EA"/>
<path d="M712.218 169.572C712.327 169.231 712.643 169 713 169V169C713.357 169 713.673 169.231 713.782 169.572L717.184 180.282C718.083 183.112 715.97 186 713 186V186C710.03 186 707.917 183.112 708.816 180.282L712.218 169.572Z" fill="#F2F0EA"/>
<path d="M546.218 32.5718C546.327 32.2313 546.643 32 547 32V32C547.357 32 547.673 32.2313 547.782 32.5718L551.184 43.2816C552.083 46.1122 549.97 49 547 49V49C544.03 49 541.917 46.1122 542.816 43.2816L546.218 32.5718Z" fill="#F2F0EA"/>
<path d="M839.382 91.8066C839.542 91.325 839.992 91 840.5 91V91C841.008 91 841.458 91.325 841.618 91.8066L846.317 105.934C847.637 109.904 844.683 114 840.5 114V114C836.317 114 833.363 109.904 834.683 105.934L839.382 91.8066Z" fill="#F2F0EA"/>
<path d="M768.382 25.8066C768.542 25.325 768.992 25 769.5 25V25C770.008 25 770.458 25.325 770.618 25.8066L775.317 39.9344C776.637 43.9035 773.683 48 769.5 48V48C765.317 48 762.363 43.9035 763.683 39.9344L768.382 25.8066Z" fill="#F2F0EA"/>
<path d="M573.382 158.807C573.542 158.325 573.992 158 574.5 158V158C575.008 158 575.458 158.325 575.618 158.807L580.317 172.934C581.637 176.904 578.683 181 574.5 181V181C570.317 181 567.363 176.904 568.683 172.934L573.382 158.807Z" fill="#F2F0EA"/>
<circle cx="562.253" cy="57.2529" r="3.25287" fill="#F2F0EA"/>
<path d="M165.704 188.955C165.88 188.387 166.405 188 167 188V188C167.595 188 168.12 188.387 168.296 188.955L174.036 207.449C175.507 212.19 171.964 217 167 217V217C162.036 217 158.493 212.19 159.964 207.449L165.704 188.955Z" fill="#012727"/>
<path d="M522.704 136.955C522.88 136.387 523.405 136 524 136V136C524.595 136 525.12 136.387 525.296 136.955L531.036 155.449C532.507 160.19 528.964 165 524 165V165C519.036 165 515.493 160.19 516.964 155.449L522.704 136.955Z" fill="#DB7704"/>
<path d="M813.704 163.955C813.88 163.387 814.405 163 815 163V163C815.595 163 816.12 163.387 816.296 163.955L822.036 182.449C823.507 187.19 819.964 192 815 192V192C810.036 192 806.493 187.19 807.964 182.449L813.704 163.955Z" fill="#DB7704"/>
<path d="M145.961 163.763C146.103 163.309 146.524 163 147 163V163C147.476 163 147.897 163.309 148.039 163.763L152.61 178.365C153.795 182.151 150.967 186 147 186V186C143.033 186 140.205 182.151 141.39 178.365L145.961 163.763Z" fill="#012727"/>
<path d="M545.961 116.763C546.103 116.309 546.524 116 547 116V116C547.476 116 547.897 116.309 548.039 116.763L552.61 131.365C553.795 135.151 550.967 139 547 139V139C543.033 139 540.205 135.151 541.39 131.365L545.961 116.763Z" fill="#DB7704"/>
<path d="M836.961 188.763C837.103 188.309 837.524 188 838 188V188C838.476 188 838.897 188.309 839.039 188.763L843.61 203.365C844.795 207.151 841.967 211 838 211V211C834.033 211 831.205 207.151 832.39 203.365L836.961 188.763Z" fill="#DB7704"/>
</svg>
