<svg width="446" height="556" viewBox="0 0 446 556" fill="none" xmlns="http://www.w3.org/2000/svg">
<rect x="0.991211" y="41.9115" width="410" height="515" rx="24" transform="rotate(-4 0.991211 41.9115)" fill="#DB7704" fill-opacity="0.4"/>
<rect x="0.0839844" y="28.9431" width="410" height="515" rx="24" transform="rotate(-4 0.0839844 28.9431)" fill="#E1DAC2"/>
<rect x="24.9111" y="54.2729" width="364" height="378" rx="8" transform="rotate(-4 24.9111 54.2729)" fill="#001818"/>
<rect x="131.064" y="153.109" width="166" height="166" rx="83" transform="rotate(-4 131.064 153.109)" fill="#E1DAC2"/>
<rect x="131.064" y="153.109" width="166" height="166" rx="83" transform="rotate(-4 131.064 153.109)" fill="#E1DAC2"/>
<rect x="108.895" y="208.791" width="58" height="58" rx="29" transform="rotate(-4 108.895 208.791)" fill="#E1DAC2"/>
<rect x="108.895" y="208.791" width="58" height="58" rx="29" transform="rotate(-4 108.895 208.791)" fill="#E1DAC2"/>
<rect x="309.977" y="288.959" width="58" height="58" rx="29" transform="rotate(-4 309.977 288.959)" fill="#E1DAC2"/>
<rect x="261.521" y="198.118" width="58" height="58" rx="29" transform="rotate(-4 261.521 198.118)" fill="#E1DAC2"/>
<rect x="256.562" y="227.536" width="28" height="28" rx="14" transform="rotate(-4 256.562 227.536)" fill="#DB7704"/>
<rect x="152.815" y="234.791" width="28" height="28" rx="14" transform="rotate(-4 152.815 234.791)" fill="#DB7704"/>
<path d="M154.615 174.518C152.265 140.911 177.604 111.762 211.212 109.412V109.412C244.819 107.062 273.968 132.401 276.318 166.008L276.597 169.998L154.895 178.508L154.615 174.518Z" fill="#DB7704"/>
<path d="M154.895 178.508C154.163 168.041 162.055 158.961 172.523 158.229L309.624 148.642C310.486 148.582 311.233 149.232 311.294 150.094L311.847 158.01C312.213 163.244 308.267 167.784 303.033 168.15L154.895 178.508V178.508Z" fill="#DB7704"/>
<path d="M131.085 425.772C127.425 373.432 166.887 328.036 219.227 324.376L233.192 323.4C285.532 319.74 330.928 359.202 334.588 411.541V411.541L131.085 425.772V425.772Z" fill="#004C4C"/>
<circle cx="190.046" cy="208.128" r="11" transform="rotate(-4 190.046 208.128)" fill="#012727"/>
<ellipse cx="249.401" cy="203.978" rx="11.5" ry="11" transform="rotate(-4 249.401 203.978)" fill="#012727"/>
<path fill-rule="evenodd" clip-rule="evenodd" d="M245.564 227.955C239.051 250.263 207.236 252.487 197.681 231.303L207.975 226.924C213.32 238.775 231.118 237.53 234.762 225.051L245.564 227.955Z" fill="#012727"/>
<path d="M82.8372 106.341C82.3763 113.759 78.6759 118.392 74.5734 120.269C74.0431 120.511 73.6876 121.042 73.7283 121.624C73.769 122.206 74.1949 122.682 74.7538 122.848C79.0776 124.136 83.3867 128.209 84.8754 135.49C84.9874 136.038 85.4807 136.432 86.0385 136.393C86.5963 136.354 87.0299 135.895 87.0646 135.337C87.5254 127.919 91.2259 123.286 95.3283 121.409C95.8586 121.167 96.2141 120.636 96.1735 120.054C96.1328 119.473 95.7069 118.997 95.1479 118.83C90.8242 117.542 86.515 113.469 85.0263 106.188C84.9143 105.641 84.421 105.246 83.8632 105.285C83.3054 105.324 82.8718 105.783 82.8372 106.341Z" fill="#DB7704"/>
<path d="M102.481 134.713C102.179 139.708 99.7166 142.827 96.9833 144.092C96.6267 144.257 96.3876 144.614 96.4151 145.006C96.4425 145.398 96.7289 145.719 97.1051 145.833C99.9877 146.704 102.861 149.451 103.855 154.355C103.929 154.72 104.257 154.983 104.629 154.957C105.001 154.931 105.29 154.625 105.312 154.253C105.614 149.258 108.077 146.139 110.81 144.874C111.167 144.709 111.406 144.352 111.379 143.96C111.351 143.568 111.065 143.247 110.688 143.133C107.806 142.262 104.933 139.515 103.939 134.611C103.865 134.246 103.536 133.983 103.164 134.009C102.793 134.035 102.504 134.341 102.481 134.713Z" fill="#DB7704"/>
<path d="M317 444L319.918 443.305L317 444ZM298 471.5L298 474.5L298.965 468.659L298 471.5ZM329.399 476.773C329.826 475.172 328.874 473.528 327.273 473.101C325.672 472.675 324.028 473.626 323.601 475.227L329.399 476.773ZM269.928 457.945C278.64 459.637 291.599 461.145 302.006 460.033C307.151 459.483 312.129 458.251 315.612 455.693C317.408 454.374 318.869 452.654 319.671 450.465C320.473 448.276 320.527 445.863 319.918 443.305L314.082 444.695C314.473 446.337 314.36 447.522 314.038 448.4C313.716 449.279 313.095 450.097 312.06 450.857C309.881 452.458 306.203 453.55 301.369 454.067C291.817 455.088 279.527 453.697 271.072 452.055L269.928 457.945ZM319.918 443.305C319.163 440.134 317.615 437.644 315.194 436.205C312.807 434.785 310.078 434.691 307.556 435.241C302.617 436.317 297.393 440.061 293.444 444.508C289.497 448.953 286.268 454.727 286.087 460.357C285.995 463.254 286.716 466.146 288.599 468.668C290.467 471.169 293.301 473.072 297.035 474.341L298.965 468.659C296.074 467.677 294.377 466.377 293.407 465.078C292.452 463.8 292.029 462.293 292.084 460.549C292.201 456.898 294.44 452.422 297.931 448.492C301.419 444.564 305.601 441.808 308.834 441.103C310.398 440.762 311.447 440.957 312.128 441.362C312.776 441.747 313.587 442.616 314.082 444.695L319.918 443.305ZM298 468.5C290.535 468.5 284.915 470.717 281.248 474.355C277.586 477.988 276.15 482.775 276.602 487.299C277.052 491.798 279.377 496.114 283.305 498.852C287.289 501.628 292.652 502.599 298.803 500.891L297.197 495.109C292.548 496.401 289.074 495.559 286.736 493.929C284.342 492.261 282.86 489.577 282.573 486.701C282.287 483.85 283.183 480.887 285.474 478.614C287.76 476.346 291.715 474.5 298 474.5L298 468.5ZM298.803 500.891C321.332 494.632 327.767 482.893 329.399 476.773L323.601 475.227C322.566 479.108 317.868 489.368 297.197 495.109L298.803 500.891Z" fill="#DB7704"/>
<path d="M327 457.5C337.333 459.667 361.2 464.6 360 451C359.294 443 356.5 439 352.5 440.5C340.5 445 355.8 489.4 345 493C331.5 497.5 330 472.5 365 476.5C400 480.5 396.5 465.5 396.5 460.5" stroke="#DB7704" stroke-width="6" stroke-linecap="round"/>
</svg>
