<svg width="446" height="556" viewBox="0 0 446 556" fill="none" xmlns="http://www.w3.org/2000/svg">
<rect x="0.907227" y="41.5685" width="410" height="515" rx="24" transform="rotate(-4 0.907227 41.5685)" fill="#DB7704" fill-opacity="0.4"/>
<rect y="28.6002" width="410" height="515" rx="24" transform="rotate(-4 0 28.6002)" fill="#E1DAC2"/>
<rect x="24.8271" y="53.93" width="364" height="378" rx="8" transform="rotate(-4 24.8271 53.93)" fill="#001818"/>
<rect x="130.98" y="152.766" width="166" height="166" rx="83" transform="rotate(-4 130.98 152.766)" fill="#E1DAC2"/>
<rect x="130.98" y="152.766" width="166" height="166" rx="83" transform="rotate(-4 130.98 152.766)" fill="#E1DAC2"/>
<rect x="108.811" y="208.448" width="58" height="58" rx="29" transform="rotate(-4 108.811 208.448)" fill="#E1DAC2"/>
<rect x="108.811" y="208.448" width="58" height="58" rx="29" transform="rotate(-4 108.811 208.448)" fill="#E1DAC2"/>
<rect x="309.893" y="288.617" width="58" height="58" rx="29" transform="rotate(-4 309.893 288.617)" fill="#E1DAC2"/>
<rect x="261.438" y="197.775" width="58" height="58" rx="29" transform="rotate(-4 261.438 197.775)" fill="#E1DAC2"/>
<rect x="256.478" y="227.193" width="28" height="28" rx="14" transform="rotate(-4 256.478 227.193)" fill="#DB7704"/>
<rect x="152.731" y="234.448" width="28" height="28" rx="14" transform="rotate(-4 152.731 234.448)" fill="#DB7704"/>
<path d="M154.532 174.175C152.181 140.568 177.52 111.419 211.128 109.069V109.069C244.735 106.719 273.884 132.058 276.234 165.665L276.513 169.655L154.811 178.165L154.532 174.175Z" fill="#041ADB"/>
<path d="M154.811 178.165C154.079 167.698 161.971 158.618 172.439 157.886L309.54 148.299C310.402 148.239 311.149 148.889 311.21 149.751L311.763 157.667C312.129 162.901 308.183 167.441 302.949 167.807L154.811 178.165V178.165Z" fill="#041ADB"/>
<path d="M131.001 425.429C127.341 373.089 166.803 327.693 219.143 324.033L233.109 323.057C285.448 319.397 330.844 358.859 334.504 411.198V411.198L131.001 425.429V425.429Z" fill="#004C4C"/>
<circle cx="189.962" cy="207.786" r="11" transform="rotate(-4 189.962 207.786)" fill="#012727"/>
<ellipse cx="249.317" cy="203.635" rx="11.5" ry="11" transform="rotate(-4 249.317 203.635)" fill="#012727"/>
<path fill-rule="evenodd" clip-rule="evenodd" d="M245.48 227.612C238.967 249.92 207.152 252.144 197.597 230.96L207.891 226.581C213.236 238.432 231.034 237.187 234.678 224.708L245.48 227.612Z" fill="#012727"/>
<path d="M82.7532 105.999C82.2923 113.416 78.5919 118.049 74.4895 119.926C73.9591 120.168 73.6036 120.699 73.6443 121.281C73.685 121.863 74.1109 122.339 74.6698 122.505C78.9936 123.793 83.3028 127.866 84.7914 135.147C84.9034 135.695 85.3968 136.089 85.9545 136.05C86.5123 136.011 86.9459 135.552 86.9806 134.994C87.4415 127.576 91.1419 122.943 95.2443 121.066C95.7747 120.824 96.1302 120.293 96.0895 119.711C96.0488 119.13 95.6229 118.654 95.0639 118.487C90.7402 117.199 86.431 113.126 84.9423 105.845C84.8303 105.298 84.337 104.903 83.7792 104.942C83.2215 104.981 82.7879 105.44 82.7532 105.999Z" fill="#DB7704"/>
<path d="M102.397 134.37C102.095 139.365 99.6326 142.484 96.8993 143.749C96.5427 143.914 96.3037 144.271 96.3311 144.663C96.3585 145.055 96.645 145.376 97.0211 145.49C99.9037 146.361 102.777 149.108 103.771 154.012C103.845 154.377 104.173 154.64 104.545 154.614C104.917 154.588 105.206 154.282 105.228 153.91C105.53 148.915 107.993 145.796 110.726 144.531C111.083 144.367 111.322 144.009 111.295 143.617C111.267 143.225 110.981 142.904 110.605 142.79C107.722 141.919 104.849 139.172 103.855 134.268C103.781 133.903 103.452 133.64 103.08 133.666C102.709 133.692 102.42 133.998 102.397 134.37Z" fill="#DB7704"/>
<path d="M316.916 443.657L319.834 442.962L316.916 443.657ZM297.916 471.157L297.916 474.157L298.881 468.316L297.916 471.157ZM329.315 476.43C329.742 474.829 328.79 473.185 327.189 472.758C325.588 472.332 323.944 473.283 323.517 474.884L329.315 476.43ZM269.844 457.602C278.556 459.294 291.515 460.802 301.922 459.69C307.067 459.14 312.045 457.908 315.528 455.35C317.324 454.031 318.785 452.311 319.587 450.122C320.39 447.933 320.443 445.52 319.834 442.962L313.998 444.352C314.389 445.994 314.276 447.179 313.954 448.057C313.632 448.936 313.011 449.754 311.976 450.514C309.797 452.115 306.119 453.207 301.285 453.724C291.733 454.745 279.443 453.354 270.988 451.712L269.844 457.602ZM319.834 442.962C319.079 439.791 317.531 437.301 315.11 435.862C312.723 434.442 309.994 434.348 307.472 434.898C302.533 435.974 297.309 439.718 293.36 444.165C289.413 448.61 286.184 454.384 286.003 460.014C285.911 462.911 286.632 465.803 288.515 468.325C290.383 470.826 293.217 472.73 296.951 473.998L298.881 468.316C295.99 467.335 294.293 466.034 293.323 464.735C292.368 463.457 291.945 461.95 292 460.206C292.117 456.555 294.356 452.079 297.847 448.149C301.335 444.221 305.517 441.465 308.75 440.76C310.314 440.419 311.363 440.614 312.044 441.019C312.692 441.404 313.503 442.274 313.998 444.352L319.834 442.962ZM297.916 468.157C290.451 468.157 284.831 470.374 281.164 474.012C277.502 477.645 276.066 482.432 276.518 486.956C276.968 491.455 279.293 495.771 283.221 498.509C287.205 501.285 292.568 502.256 298.719 500.548L297.113 494.766C292.464 496.058 288.99 495.216 286.652 493.586C284.258 491.918 282.776 489.234 282.489 486.359C282.203 483.507 283.099 480.544 285.39 478.271C287.676 476.003 291.631 474.157 297.916 474.157L297.916 468.157ZM298.719 500.548C321.248 494.289 327.683 482.55 329.315 476.43L323.517 474.884C322.483 478.765 317.784 489.025 297.113 494.766L298.719 500.548Z" fill="#DB7704"/>
<path d="M326.916 457.157C337.249 459.324 361.116 464.257 359.916 450.657C359.21 442.657 356.416 438.657 352.416 440.157C340.416 444.657 355.716 489.057 344.916 492.657C331.416 497.157 329.916 472.157 364.916 476.157C399.916 480.157 396.416 465.157 396.416 460.157" stroke="#DB7704" stroke-width="6" stroke-linecap="round"/>
</svg>
