<svg width="18" height="19" viewBox="0 0 18 19" fill="none" xmlns="http://www.w3.org/2000/svg">
<path fill-rule="evenodd" clip-rule="evenodd" d="M3 1.5C2.17157 1.5 1.5 2.17157 1.5 3V14C1.5 14.8284 2.17157 15.5 3 15.5H15C15.8284 15.5 16.5 14.8284 16.5 14V3C16.5 2.17157 15.8284 1.5 15 1.5H3ZM3 0C1.34315 0 0 1.34315 0 3V14V16C0 17.6569 1.34315 19 3 19H15C16.6569 19 18 17.6569 18 16V14V3C18 1.34315 16.6569 0 15 0H3Z" fill="#FAF8F1"/>
<path fill-rule="evenodd" clip-rule="evenodd" d="M11.415 4C11.415 5.38108 12.2764 6.61555 13.5727 7.09205L14 7.24912V8.75088L13.5727 8.90795C12.2764 9.38446 11.415 10.6189 11.415 12H9.81495C9.81495 10.7976 10.2545 9.67002 11.0059 8.8H4.4V7.2H11.0059C10.2545 6.32998 9.81495 5.20239 9.81495 4H11.415Z" fill="#FAF8F1"/>
</svg>
