<svg width="18" height="19" viewBox="0 0 18 19" fill="none" xmlns="http://www.w3.org/2000/svg">
<path fill-rule="evenodd" clip-rule="evenodd" d="M15 1.5C15.8284 1.5 16.5 2.17157 16.5 3V14C16.5 14.8284 15.8284 15.5 15 15.5H3C2.17157 15.5 1.5 14.8284 1.5 14V3C1.5 2.17157 2.17157 1.5 3 1.5H15ZM15 0C16.6569 0 18 1.34315 18 3V14V16C18 17.6569 16.6569 19 15 19H3C1.34315 19 0 17.6569 0 16V14V3C0 1.34315 1.34315 0 3 0H15Z" fill="#004C4C"/>
<path fill-rule="evenodd" clip-rule="evenodd" d="M6.58505 4C6.58505 5.38108 5.7236 6.61555 4.42733 7.09205L4.00002 7.24912V8.75088L4.42733 8.90795C5.7236 9.38446 6.58505 10.6189 6.58505 12H8.18505C8.18505 10.7976 7.74555 9.67002 6.9941 8.8H13.6V7.2H6.9941C7.74555 6.32998 8.18505 5.20239 8.18505 4H6.58505Z" fill="#004C4C"/>
</svg>
