<svg width="18" height="19" viewBox="0 0 18 19" fill="none" xmlns="http://www.w3.org/2000/svg">
<path fill-rule="evenodd" clip-rule="evenodd" d="M15 1.5C15.8284 1.5 16.5 2.17157 16.5 3V14C16.5 14.8284 15.8284 15.5 15 15.5H3C2.17157 15.5 1.5 14.8284 1.5 14V3C1.5 2.17157 2.17157 1.5 3 1.5H15ZM15 0C16.6569 0 18 1.34315 18 3V14V16C18 17.6569 16.6569 19 15 19H3C1.34315 19 0 17.6569 0 16V14V3C0 1.34315 1.34315 0 3 0H15Z" fill="#DB7704"/>
<path fill-rule="evenodd" clip-rule="evenodd" d="M6.58502 4C6.58502 5.38108 5.72358 6.61555 4.42731 7.09205L4 7.24912V8.75088L4.42731 8.90795C5.72358 9.38446 6.58502 10.6189 6.58502 12H8.18502C8.18502 10.7976 7.74552 9.67002 6.99407 8.8H13.6V7.2H6.99407C7.74552 6.32998 8.18502 5.20239 8.18502 4H6.58502Z" fill="#DB7704"/>
<rect width="18" height="19" rx="3" fill="#DB7704" fill-opacity="0.1"/>
</svg>
