<svg width="1500" height="46" viewBox="0 0 1500 46" fill="none" xmlns="http://www.w3.org/2000/svg">
<g opacity="0.5" clip-path="url(#clip0_1743_6600)">
<path d="M0 14.5C25 4.5 50 4.5 75 14.5C100 24.5 125 24.5 150 14.5C175 4.5 200 4.5 225 14.5C250 24.5 275 24.5 300 14.5C325 4.5 350 4.5 375 14.5C400 24.5 425 24.5 450 14.5C475 4.5 500 4.5 525 14.5C550 24.5 575 24.5 600 14.5C625 4.5 650 4.5 675 14.5C700 24.5 725 24.5 750 14.5C775 4.5 800 4.5 825 14.5C850 24.5 875 24.5 900 14.5C925 4.5 950 4.5 975 14.5C1000 24.5 1025 24.5 1050 14.5C1075 4.5 1100 4.5 1125 14.5C1150 24.5 1175 24.5 1200 14.5C1225 4.5 1250 4.5 1275 14.5C1300 24.5 1325 24.5 1350 14.5C1375 4.5 1400 4.5 1425 14.5C1450 24.5 1475 24.5 1500 14.5" stroke="#004C4C" stroke-width="2"/>
<path d="M0 22.5C25 12.5 50 12.5 75 22.5C100 32.5 125 32.5 150 22.5C175 12.5 200 12.5 225 22.5C250 32.5 275 32.5 300 22.5C325 12.5 350 12.5 375 22.5C400 32.5 425 32.5 450 22.5C475 12.5 500 12.5 525 22.5C550 32.5 575 32.5 600 22.5C625 12.5 650 12.5 675 22.5C700 32.5 725 32.5 750 22.5C775 12.5 800 12.5 825 22.5C850 32.5 875 32.5 900 22.5C925 12.5 950 12.5 975 22.5C1000 32.5 1025 32.5 1050 22.5C1075 12.5 1100 12.5 1125 22.5C1150 32.5 1175 32.5 1200 22.5C1225 12.5 1250 12.5 1275 22.5C1300 32.5 1325 32.5 1350 22.5C1375 12.5 1400 12.5 1425 22.5C1450 32.5 1475 32.5 1500 22.5" stroke="#004C4C" stroke-width="2"/>
<path d="M0 30.5C25 20.5 50 20.5 75 30.5C100 40.5 125 40.5 150 30.5C175 20.5 200 20.5 225 30.5C250 40.5 275 40.5 300 30.5C325 20.5 350 20.5 375 30.5C400 40.5 425 40.5 450 30.5C475 20.5 500 20.5 525 30.5C550 40.5 575 40.5 600 30.5C625 20.5 650 20.5 675 30.5C700 40.5 725 40.5 750 30.5C775 20.5 800 20.5 825 30.5C850 40.5 875 40.5 900 30.5C925 20.5 950 20.5 975 30.5C1000 40.5 1025 40.5 1050 30.5C1075 20.5 1100 20.5 1125 30.5C1150 40.5 1175 40.5 1200 30.5C1225 20.5 1250 20.5 1275 30.5C1300 40.5 1325 40.5 1350 30.5C1375 20.5 1400 20.5 1425 30.5C1450 40.5 1475 40.5 1500 30.5" stroke="#004C4C" stroke-width="2"/>
<path d="M0 38.5C25 28.5 50 28.5 75 38.5C100 48.5 125 48.5 150 38.5C175 28.5 200 28.5 225 38.5C250 48.5 275 48.5 300 38.5C325 28.5 350 28.5 375 38.5C400 48.5 425 48.5 450 38.5C475 28.5 500 28.5 525 38.5C550 48.5 575 48.5 600 38.5C625 28.5 650 28.5 675 38.5C700 48.5 725 48.5 750 38.5C775 28.5 800 28.5 825 38.5C850 48.5 875 48.5 900 38.5C925 28.5 950 28.5 975 38.5C1000 48.5 1025 48.5 1050 38.5C1075 28.5 1100 28.5 1125 38.5C1150 48.5 1175 48.5 1200 38.5C1225 28.5 1250 28.5 1275 38.5C1300 48.5 1325 48.5 1350 38.5C1375 28.5 1400 28.5 1425 38.5C1450 48.5 1475 48.5 1500 38.5" stroke="#004C4C" stroke-width="2"/>
<path d="M0 46.5C25 36.5 50 36.5 75 46.5C100 56.5 125 56.5 150 46.5C175 36.5 200 36.5 225 46.5C250 56.5 275 56.5 300 46.5C325 36.5 350 36.5 375 46.5C400 56.5 425 56.5 450 46.5C475 36.5 500 36.5 525 46.5C550 56.5 575 56.5 600 46.5C625 36.5 650 36.5 675 46.5C700 56.5 725 56.5 750 46.5C775 36.5 800 36.5 825 46.5C850 56.5 875 56.5 900 46.5C925 36.5 950 36.5 975 46.5C1000 56.5 1025 56.5 1050 46.5C1075 36.5 1100 36.5 1125 46.5C1150 56.5 1175 56.5 1200 46.5C1225 36.5 1250 36.5 1275 46.5C1300 56.5 1325 56.5 1350 46.5C1375 36.5 1400 36.5 1425 46.5C1450 56.5 1475 56.5 1500 46.5" stroke="#004C4C" stroke-width="2"/>
<path d="M0 54.5C25 44.5 50 44.5 75 54.5C100 64.5 125 64.5 150 54.5C175 44.5 200 44.5 225 54.5C250 64.5 275 64.5 300 54.5C325 44.5 350 44.5 375 54.5C400 64.5 425 64.5 450 54.5C475 44.5 500 44.5 525 54.5C550 64.5 575 64.5 600 54.5C625 44.5 650 44.5 675 54.5C700 64.5 725 64.5 750 54.5C775 44.5 800 44.5 825 54.5C850 64.5 875 64.5 900 54.5C925 44.5 950 44.5 975 54.5C1000 64.5 1025 64.5 1050 54.5C1075 44.5 1100 44.5 1125 54.5C1150 64.5 1175 64.5 1200 54.5C1225 44.5 1250 44.5 1275 54.5C1300 64.5 1325 64.5 1350 54.5C1375 44.5 1400 44.5 1425 54.5C1450 64.5 1475 64.5 1500 54.5" stroke="#004C4C" stroke-width="2"/>
</g>
<defs>
<clipPath id="clip0_1743_6600">
<rect width="1500" height="46" fill="white"/>
</clipPath>
</defs>
</svg>
