<svg width="9" height="16" viewBox="0 0 9 16" fill="none" xmlns="http://www.w3.org/2000/svg">
<path d="M5.70604 2.26184C5.44245 4.15058 4.36895 5.2677 3.24157 5.67138C3.101 5.72171 3 5.85069 3 6C3 6.14931 3.101 6.27829 3.24157 6.32862C4.36895 6.7323 5.44245 7.84942 5.70604 9.73816C5.72667 9.88597 5.85075 10 6 10C6.14925 10 6.27333 9.88597 6.29396 9.73816C6.55755 7.84942 7.63105 6.7323 8.75843 6.32862C8.899 6.27829 9 6.14931 9 6C9 5.85069 8.899 5.72171 8.75843 5.67138C7.63105 5.2677 6.55755 4.15058 6.29396 2.26184C6.27333 2.11403 6.14925 2 6 2C5.85075 2 5.72667 2.11403 5.70604 2.26184Z" fill="#DB7704"/>
<path d="M1.80241 9.17437C1.62324 10.3531 0.904541 11.0487 0.151899 11.2977C0.0636021 11.3269 0 11.407 0 11.5C0 11.593 0.0636021 11.6731 0.151899 11.7023C0.904541 11.9513 1.62324 12.6469 1.80241 13.8256C1.81739 13.9242 1.90034 14 2 14C2.09966 14 2.18261 13.9242 2.19759 13.8256C2.37676 12.6469 3.09546 11.9513 3.8481 11.7023C3.9364 11.6731 4 11.593 4 11.5C4 11.407 3.9364 11.3269 3.8481 11.2977C3.09546 11.0487 2.37676 10.3531 2.19759 9.17437C2.18261 9.07584 2.09966 9 2 9C1.90034 9 1.81739 9.07584 1.80241 9.17437Z" fill="#DB7704"/>
</svg>
