<svg width="24" height="18" viewBox="0 0 24 18" fill="none" xmlns="http://www.w3.org/2000/svg">
<path d="M10.5 12C10.5 12.8438 11.1562 13.5 12 13.5H15C15.7969 13.5 16.5 12.8438 16.5 12C16.5 11.2031 15.7969 10.5 15 10.5H12C11.1562 10.5 10.5 11.2031 10.5 12ZM12.5156 9H16.5C17.2969 9 18 8.34375 18 7.5C18 6.70312 17.2969 6 16.5 6H12.75V7.875C12.75 8.29688 12.6562 8.67188 12.5156 9ZM12.75 4.5H22.5C23.2969 4.5 24 3.84375 24 3C24 2.20312 23.2969 1.5 22.5 1.5H12.7031C12.7031 1.64062 12.75 1.78125 12.75 1.875V4.5ZM15 16.5C15 15.7031 14.2969 15 13.5 15H10.5C9.65625 15 9 15.7031 9 16.5C9 17.3438 9.65625 18 10.5 18H13.5C14.2969 18 15 17.3438 15 16.5ZM9.46875 13.6875C9.1875 13.2188 9 12.6562 9 12C9 11.7656 9.04688 11.4844 9.09375 11.25C7.35938 11.1094 6 9.65625 6 7.875V4.5C6 4.125 6.32812 3.75 6.70312 3.75C7.07812 3.75 7.5 4.125 7.45312 4.5V7.73438C7.45312 8.53125 8.01562 9.75 9.375 9.75C10.4062 9.75 11.25 8.95312 11.25 7.875V1.875C11.25 0.84375 10.4062 0 9.375 0H6.375C4.82812 0 3.375 0.75 2.4375 2.01562L1.21875 3.75C0.421875 4.82812 0 6.14062 0 7.5V11.625C0 15.1875 2.8125 18 6.375 18H7.875C7.64062 17.5781 7.5 17.0625 7.5 16.5C7.5 15.2344 8.34375 14.1094 9.46875 13.6875Z" fill="#1C2323"/>
</svg>
