<svg width="24" height="18" viewBox="0 0 24 18" fill="none" xmlns="http://www.w3.org/2000/svg">
<path d="M15 14.8846C15 14.625 14.9531 14.3654 14.8594 14.1058C15.8438 13.5433 16.5 12.5481 16.5 11.4231C16.5 11.1635 16.4531 10.9038 16.3594 10.6442C17.3438 10.0817 18 9.08654 18 7.96154C18 7.875 17.9531 7.74519 17.9531 7.61538H20.625C22.4531 7.61538 24 6.23077 24 4.5C24 2.8125 22.4531 1.38462 20.625 1.38462H11.3906C10.6406 0.5625 9.51562 0 8.25 0H5.90625C4.40625 0 3 0.778846 2.29688 1.94712L0.796875 4.37019C0.28125 5.27885 0 6.27404 0 7.26923V11.9423C0 15.3173 3 18 6.75 18H11.625C13.4531 18 15 16.6154 15 14.8846ZM13.125 10.3846C13.7344 10.3846 14.25 10.8606 14.25 11.4231C14.25 12.0288 13.7344 12.4615 13.125 12.4615H10.875C10.2188 12.4615 9.75 12.0288 9.75 11.4231C9.75 10.8606 10.2188 10.3846 10.875 10.3846H13.125ZM14.625 6.92308C15.2344 6.92308 15.75 7.39904 15.75 7.96154C15.75 8.56731 15.2344 9 14.625 9H12.375C12.1875 9 12.0938 9 11.9531 8.95673C12.1875 8.48077 12.375 8.00481 12.375 7.44231V6.92308H14.625ZM20.625 3.46154C21.2344 3.46154 21.75 3.9375 21.75 4.5C21.75 5.10577 21.2344 5.53846 20.625 5.53846H12.375V3.80769C12.375 3.72115 12.3281 3.59135 12.3281 3.50481C12.3281 3.50481 12.3281 3.46154 12.375 3.46154H20.625ZM2.25 11.9423V7.26923C2.25 6.62019 2.39062 5.97115 2.76562 5.36538L4.21875 2.98558C4.54688 2.42308 5.20312 2.07692 5.90625 2.07692H8.25C9.28125 2.07692 10.125 2.85577 10.125 3.80769V7.44231C10.125 8.13462 9.51562 8.65385 8.8125 8.65385C8.0625 8.65385 7.5 8.13462 7.5 7.44231V5.19231C7.5 4.62981 6.98438 4.15385 6.375 4.15385C5.71875 4.15385 5.25 4.62981 5.25 5.19231V7.44231C5.25 8.91346 6.23438 10.125 7.64062 10.5577C7.54688 10.8173 7.5 11.1202 7.5 11.4231C7.5 11.6827 7.54688 11.8558 7.59375 12.0721C6.42188 12.5481 5.625 13.6298 5.625 14.8846C5.625 15.2308 5.67188 15.5337 5.76562 15.8365C3.75 15.4471 2.25 13.8462 2.25 11.9423ZM9 15.9231C8.34375 15.9231 7.875 15.4904 7.875 14.8846C7.875 14.3221 8.34375 13.8462 9 13.8462H11.625C12.2344 13.8462 12.75 14.3221 12.75 14.8846C12.75 15.4904 12.2344 15.9231 11.625 15.9231H9Z" fill="#E57157"/>
</svg>
