<svg width="1273" height="145" viewBox="0 0 1273 145" fill="none" xmlns="http://www.w3.org/2000/svg">
<g clip-path="url(#clip0_1052_3871)">
<path d="M400.273 67.9033H501.479L558.315 147.107H400.273V67.9033Z" fill="#02585E"/>
<path d="M149 67.9033H250.205L307.041 147.107H149V67.9033Z" fill="#02585E"/>
<path d="M722.752 67.9033H823.957L880.793 147.107H722.752V67.9033Z" fill="#02585E"/>
<path d="M523.48 20.2344H624.685L681.521 147.108H523.48V20.2344Z" fill="#E57157"/>
<path d="M78 20.2344H179.205L236.041 147.108H78V20.2344Z" fill="#E57157"/>
<path d="M845.958 20.2344H947.164L1004 147.108H845.958V20.2344Z" fill="#E57157"/>
<path d="M362.321 32.335H427.041V147.108H269L362.321 32.335Z" fill="#E57157"/>
<path d="M684.8 32.335H749.52V147.108H591.479L684.8 32.335Z" fill="#E57157"/>
<rect x="299.068" y="3" width="167.575" height="91.6714" rx="21.0133" fill="#02585E"/>
<rect x="307.135" y="3" width="159.508" height="91.6714" rx="21.0133" fill="#F2F0EA"/>
<rect x="311.902" y="3" width="154.741" height="91.6714" rx="21.0133" fill="#02585E"/>
<rect x="403.023" y="38.752" width="8.06708" height="24.5679" rx="4.03354" transform="rotate(90 403.023 38.752)" fill="#2F9B9B"/>
<path d="M365.071 79.6377H408.34V119.24H365.071V79.6377Z" fill="#02585E"/>
<path d="M443.175 151.097H446.887L445.976 147.499L442.657 134.387C439.971 123.78 430.427 116.35 419.485 116.35H324.592C313.65 116.35 304.105 123.78 301.42 134.387L298.1 147.499L297.189 151.097H300.901H443.175Z" fill="#2F9B9B" stroke="#2F9B9B" stroke-width="5.77867"/>
<path d="M460.41 151.097H464.122L463.211 147.499L459.891 134.387C457.206 123.78 447.661 116.35 436.72 116.35H341.826C330.884 116.35 321.34 123.78 318.654 134.387L315.335 147.499L314.424 151.097H318.136H460.41Z" fill="#F2F0EA" stroke="#2F9B9B" stroke-width="5.77867"/>
<path d="M329.04 133.183C330.166 128.449 334.396 125.106 339.262 125.106H439.283C444.149 125.106 448.379 128.449 449.505 133.183L453.076 148.208H325.469L329.04 133.183Z" fill="#02585E"/>
<mask id="path-17-inside-1_1052_3871" fill="white">
<path fill-rule="evenodd" clip-rule="evenodd" d="M438.409 148.208H453.076L449.505 133.183C448.379 128.449 444.149 125.106 439.283 125.106H424.616C429.482 125.106 433.712 128.449 434.838 133.183L438.409 148.208Z"/>
</mask>
<path d="M453.076 148.208V153.986H460.389L458.698 146.871L453.076 148.208ZM438.409 148.208L432.787 149.544L433.843 153.986H438.409V148.208ZM449.505 133.183L455.127 131.847L455.127 131.847L449.505 133.183ZM434.838 133.183L429.216 134.52L429.216 134.52L434.838 133.183ZM453.076 142.429H438.409V153.986H453.076V142.429ZM443.883 134.52L447.454 149.544L458.698 146.871L455.127 131.847L443.883 134.52ZM439.283 130.885C441.473 130.885 443.376 132.389 443.883 134.52L455.127 131.847C453.382 124.508 446.826 119.328 439.283 119.328V130.885ZM424.616 130.885H439.283V119.328H424.616V130.885ZM424.616 130.885C426.806 130.885 428.709 132.389 429.216 134.52L440.46 131.847C438.715 124.508 432.159 119.328 424.616 119.328V130.885ZM429.216 134.52L432.787 149.544L444.031 146.871L440.46 131.847L429.216 134.52Z" fill="#F2F0EA" mask="url(#path-17-inside-1_1052_3871)"/>
<rect x="318.136" y="8.50049" width="142.274" height="80.6708" rx="15.76" fill="#F2F0EA"/>
<rect x="621.546" y="3" width="167.575" height="91.6714" rx="21.0133" fill="#02585E"/>
<rect x="629.614" y="3" width="159.508" height="91.6714" rx="21.0133" fill="#F2F0EA"/>
<rect x="634.38" y="3" width="154.741" height="91.6714" rx="21.0133" fill="#02585E"/>
<rect x="725.501" y="38.752" width="8.06708" height="24.5679" rx="4.03354" transform="rotate(90 725.501 38.752)" fill="#2F9B9B"/>
<path d="M687.55 79.6377H730.819V119.24H687.55V79.6377Z" fill="#02585E"/>
<path d="M765.654 151.097H769.366L768.455 147.499L765.135 134.387C762.45 123.78 752.905 116.35 741.964 116.35H647.07C636.128 116.35 626.584 123.78 623.898 134.387L620.579 147.499L619.668 151.097H623.38H765.654Z" fill="#2F9B9B" stroke="#2F9B9B" stroke-width="5.77867"/>
<path d="M782.888 151.097H786.6L785.689 147.499L782.369 134.387C779.684 123.78 770.139 116.35 759.198 116.35H664.304C653.362 116.35 643.818 123.78 641.132 134.387L637.813 147.499L636.902 151.097H640.614H782.888Z" fill="#F2F0EA" stroke="#2F9B9B" stroke-width="5.77867"/>
<path d="M651.519 133.183C652.644 128.449 656.874 125.106 661.741 125.106H761.761C766.628 125.106 770.858 128.449 771.983 133.183L775.554 148.208H647.948L651.519 133.183Z" fill="#02585E"/>
<mask id="path-28-inside-2_1052_3871" fill="white">
<path fill-rule="evenodd" clip-rule="evenodd" d="M760.887 148.208H775.554L771.983 133.183C770.858 128.449 766.628 125.106 761.761 125.106H747.094C751.961 125.106 756.191 128.449 757.316 133.183L760.887 148.208Z"/>
</mask>
<path d="M775.554 148.208V153.986H782.868L781.176 146.871L775.554 148.208ZM760.887 148.208L755.265 149.544L756.321 153.986H760.887V148.208ZM771.983 133.183L777.605 131.847L777.605 131.847L771.983 133.183ZM757.316 133.183L751.694 134.52L751.694 134.52L757.316 133.183ZM775.554 142.429H760.887V153.986H775.554V142.429ZM766.361 134.52L769.932 149.544L781.176 146.871L777.605 131.847L766.361 134.52ZM761.761 130.885C763.951 130.885 765.855 132.389 766.361 134.52L777.605 131.847C775.861 124.508 769.305 119.328 761.761 119.328V130.885ZM747.094 130.885H761.761V119.328H747.094V130.885ZM747.094 130.885C749.284 130.885 751.188 132.389 751.694 134.52L762.938 131.847C761.194 124.508 754.638 119.328 747.094 119.328V130.885ZM751.694 134.52L755.265 149.544L766.509 146.871L762.938 131.847L751.694 134.52Z" fill="#F2F0EA" mask="url(#path-28-inside-2_1052_3871)"/>
<rect x="640.614" y="8.50049" width="142.274" height="80.6708" rx="15.76" fill="#F2F0EA"/>
<rect x="338.67" y="27.5679" width="101.205" height="42.5355" rx="21.2678" fill="#E57157"/>
<rect x="661.149" y="27.5679" width="101.205" height="42.5355" rx="21.2678" fill="#E57157"/>
</g>
<defs>
<clipPath id="clip0_1052_3871">
<rect width="1273" height="145" fill="white"/>
</clipPath>
</defs>
</svg>
