<svg width="1273" height="401" viewBox="0 0 1273 401" fill="none" xmlns="http://www.w3.org/2000/svg">
<g clip-path="url(#clip0_830_3445)">
<rect x="134" width="457" height="270" rx="40" fill="#F2F0EA"/>
<rect x="164" y="5" width="432" height="260" rx="45" fill="#1C2323" stroke="#F2F0EA" stroke-width="10"/>
<rect x="417.5" y="107.5" width="22" height="67" rx="11" transform="rotate(90 417.5 107.5)" fill="#1C2323"/>
<path d="M314 265H432V327H314V265Z" fill="#F2F0EA"/>
<path d="M151.359 357.183C155.852 339.433 171.825 327 190.135 327H475.865C494.175 327 510.148 339.433 514.641 357.183L527 406H139L151.359 357.183Z" fill="#F2F0EA"/>
<path d="M574 411.5H581.066L579.332 404.65L566.973 355.833C561.861 335.642 543.693 321.5 522.865 321.5H237.135C216.307 321.5 198.139 335.642 193.027 355.833L180.668 404.65L178.934 411.5H186H574Z" fill="#F2F0EA" stroke="#1C2323" stroke-width="11"/>
<path d="M217.32 358.375C219.463 349.362 227.514 343 236.778 343H523.222C532.486 343 540.537 349.362 542.68 358.375L554 406H206L217.32 358.375Z" fill="#1C2323"/>
<mask id="path-8-inside-1_830_3445" fill="white">
<path fill-rule="evenodd" clip-rule="evenodd" d="M514 406H554L542.68 358.375C540.537 349.362 532.486 343 523.222 343H483.222C492.486 343 500.537 349.362 502.68 358.375L514 406Z"/>
</mask>
<path d="M554 406V417H567.921L564.702 403.456L554 406ZM514 406L503.298 408.544L505.308 417H514V406ZM542.68 358.375L553.381 355.831V355.831L542.68 358.375ZM502.68 358.375L513.381 355.831V355.831L502.68 358.375ZM554 395H514V417H554V395ZM531.978 360.919L543.298 408.544L564.702 403.456L553.381 355.831L531.978 360.919ZM523.222 354C527.391 354 531.014 356.863 531.978 360.919L553.381 355.831C550.061 341.861 537.581 332 523.222 332V354ZM483.222 354H523.222V332H483.222V354ZM483.222 354C487.391 354 491.014 356.863 491.978 360.919L513.381 355.831C510.061 341.861 497.581 332 483.222 332V354ZM491.978 360.919L503.298 408.544L524.702 403.456L513.381 355.831L491.978 360.919Z" fill="#F2F0EA" mask="url(#path-8-inside-1_830_3445)"/>
</g>
<defs>
<clipPath id="clip0_830_3445">
<rect width="1273" height="401" fill="white"/>
</clipPath>
</defs>
</svg>
