<svg width="1273" height="393" viewBox="0 0 1273 393" fill="none" xmlns="http://www.w3.org/2000/svg">
<g clip-path="url(#clip0_830_4252)">
<path d="M410 177H686L841 393H410V177Z" fill="#02585E"/>
<path d="M746 47H1022L1177 393H746V47Z" fill="#E57157"/>
<path d="M306.5 80H483V393H52L306.5 80Z" fill="#E57157"/>
<rect x="134" width="457" height="250" rx="40" fill="#02585E"/>
<rect x="156" width="435" height="250" rx="40" fill="#F2F0EA"/>
<rect x="169" width="422" height="250" rx="40" fill="#02585E"/>
<rect x="417.5" y="97.5" width="22" height="67" rx="11" transform="rotate(90 417.5 97.5)" fill="#2F9B9B"/>
<path d="M314 209H432V317H314V209Z" fill="#02585E"/>
<path d="M527 401.5H534.066L532.332 394.65L519.973 345.833C514.861 325.642 496.693 311.5 475.865 311.5H190.135C169.307 311.5 151.139 325.642 146.027 345.833L133.668 394.65L131.934 401.5H139H527Z" fill="#2F9B9B" stroke="#2F9B9B" stroke-width="11"/>
<path d="M574 401.5H581.066L579.332 394.65L566.973 345.833C561.861 325.642 543.693 311.5 522.865 311.5H237.135C216.307 311.5 198.139 325.642 193.027 345.833L180.668 394.65L178.934 401.5H186H574Z" fill="#F2F0EA" stroke="#2F9B9B" stroke-width="11"/>
<path d="M217.32 348.375C219.463 339.362 227.514 333 236.778 333H523.222C532.486 333 540.537 339.362 542.68 348.375L554 396H206L217.32 348.375Z" fill="#02585E"/>
<mask id="path-12-inside-1_830_4252" fill="white">
<path fill-rule="evenodd" clip-rule="evenodd" d="M514.001 396H554L542.68 348.375C540.537 339.362 532.486 333 523.222 333H483.223C492.487 333 500.538 339.362 502.681 348.375L514.001 396Z"/>
</mask>
<path d="M554 396V407H567.921L564.702 393.456L554 396ZM514.001 396L503.299 398.544L505.309 407H514.001V396ZM542.68 348.375L553.381 345.831V345.831L542.68 348.375ZM502.681 348.375L513.382 345.831V345.831L502.681 348.375ZM554 385H514.001V407H554V385ZM531.978 350.919L543.298 398.544L564.702 393.456L553.381 345.831L531.978 350.919ZM523.222 344C527.391 344 531.014 346.863 531.978 350.919L553.381 345.831C550.061 331.861 537.581 322 523.222 322V344ZM483.223 344H523.222V322H483.223V344ZM483.223 344C487.391 344 491.015 346.863 491.979 350.919L513.382 345.831C510.062 331.861 497.582 322 483.223 322V344ZM491.979 350.919L503.299 398.544L524.703 393.456L513.382 345.831L491.979 350.919Z" fill="#F2F0EA" mask="url(#path-12-inside-1_830_4252)"/>
<rect x="186" y="15" width="388" height="220" rx="30" fill="#F2F0EA"/>
<rect x="242" y="67" width="276" height="116" rx="58" fill="#E57157"/>
</g>
<defs>
<clipPath id="clip0_830_4252">
<rect width="1273" height="393" fill="white"/>
</clipPath>
</defs>
</svg>
