<svg width="1081" height="302" viewBox="0 0 1081 302" fill="none" xmlns="http://www.w3.org/2000/svg">
<path fill-rule="evenodd" clip-rule="evenodd" d="M819.135 139.913C836.88 153.256 855.414 170 877.616 170V170C903.182 170 926.448 184.765 937.334 207.898V207.898C940.202 213.993 935.755 221 929.019 221H564.421C554.945 221 549.056 210.704 553.861 202.537V202.537C565.719 182.378 587.36 170 610.748 170H662.821C698.83 170 730.42 139.819 765.126 130.216C770.354 128.77 775.843 128 781.484 128H783.452C796.756 128 809.148 132.403 819.135 139.913ZM161.386 158C131.073 158 106.5 182.574 106.5 212.886C106.5 242.196 129.529 266.334 158.806 267.712L330.591 275.796C333.959 275.954 335.821 279.88 334.111 282.787V282.787V282.787C329.306 290.954 335.195 301.25 344.671 301.25H709.269C716.005 301.25 720.452 294.243 717.584 288.148V288.148C706.698 265.015 683.432 250.25 657.866 250.25H550.955C514.367 250.25 483.883 222.215 480.827 185.755V185.755C479.511 170.065 466.393 158 450.648 158H161.386Z" fill="#E1DAC2"/>
<path fill-rule="evenodd" clip-rule="evenodd" d="M218.753 64.4542C209.29 68.9076 203.25 78.4256 203.25 88.8844V96.2409C203.25 98.3634 202.128 100.328 200.301 101.407L186.623 109.485C182.054 112.183 179.25 117.094 179.25 122.401V166.842C179.25 174.546 185.087 180.998 192.752 181.767L197.849 182.278C200.915 182.586 203.25 185.167 203.25 188.248V189.116C203.25 201.645 211.869 212.528 224.066 215.398L251.199 221.782C253.226 222.259 255.301 222.5 257.383 222.5H419.25C434.161 222.5 446.25 210.412 446.25 195.5V74.75C446.25 59.8383 434.161 47.75 419.25 47.75H260.285C256.311 47.75 252.385 48.6275 248.789 50.3199L218.753 64.4542Z" fill="black"/>
<rect x="279.75" y="210.5" width="59.25" height="21" fill="black"/>
<rect x="309.75" y="210.5" width="59.25" height="21" fill="#005656"/>
<rect x="233.25" y="47.75" width="213" height="174.75" rx="27" fill="#DB7704"/>
<mask id="mask0_1578_5790" style="mask-type:alpha" maskUnits="userSpaceOnUse" x="255" y="67" width="173" height="121">
<rect x="255" y="67.25" width="172.5" height="120.75" rx="12" fill="black"/>
</mask>
<g mask="url(#mask0_1578_5790)">
<rect x="255" y="67.25" width="172.5" height="120.75" rx="12" fill="#003D3D"/>
<path d="M405.375 169.25L429 189.875H253.5V169.25H405.375Z" fill="#005656"/>
<path d="M405.375 85.625L429 61.25H253.5V85.625H405.375Z" fill="black"/>
</g>
<path d="M255 89.75C255 83.1226 260.373 77.75 267 77.75H403.5C410.127 77.75 415.5 83.1226 415.5 89.75V165.5C415.5 172.127 410.127 177.5 403.5 177.5H267C260.373 177.5 255 172.127 255 165.5V89.75Z" fill="#002C2C"/>
<rect x="273.75" y="200.75" width="36" height="6" rx="1.5" fill="#002C2C"/>
<circle cx="260.25" cy="203.75" r="5.25" fill="#002C2C"/>
<path d="M240.75 237.5C240.75 234.186 243.436 231.5 246.75 231.5H401.25C404.564 231.5 407.25 234.186 407.25 237.5V251C407.25 254.314 404.564 257 401.25 257H246.75C243.436 257 240.75 254.314 240.75 251V237.5Z" fill="black"/>
<path d="M285 237.5C285 234.186 287.686 231.5 291 231.5H401.25C404.564 231.5 407.25 234.186 407.25 237.5V251C407.25 254.314 404.564 257 401.25 257H291C287.686 257 285 254.314 285 251V237.5Z" fill="#DB7704"/>
<rect x="295.5" y="239" width="58.5" height="11.25" rx="2.25" fill="#002C2C"/>
<path d="M295.5 242.75H349.5V246.5H295.5V242.75Z" fill="#005656"/>
<path d="M197.965 272.087C201.61 262.975 210.435 257 220.249 257H428.501C438.315 257 447.14 262.975 450.785 272.087L462.75 302H186L197.965 272.087Z" fill="black"/>
<path d="M245.965 272.087C249.61 262.975 258.435 257 268.249 257H428.501C438.315 257 447.14 262.975 450.785 272.087L462.75 302H234L245.965 272.087Z" fill="#002C2C"/>
<circle cx="379.5" cy="248.75" r="2.25" fill="#002C2C"/>
<circle cx="387.75" cy="248.75" r="2.25" fill="#002C2C"/>
<circle cx="396" cy="248.75" r="2.25" fill="#002C2C"/>
<rect x="273" y="89.75" width="125.25" height="72.75" rx="6" fill="#E1DAC2" stroke="#F2F0EA" stroke-width="3"/>
<rect x="296.25" y="91.25" width="78.75" height="69.75" fill="#F2F0EA"/>
<path d="M274.5 95.75C274.5 93.2647 276.515 91.25 279 91.25H392.25C394.735 91.25 396.75 93.2647 396.75 95.75V103.25H274.5V95.75Z" fill="black"/>
<rect x="318.75" y="115.25" width="33.75" height="33.75" rx="16.875" fill="#DB7704"/>
<rect x="319.125" y="115.625" width="33" height="33" stroke="#005656" stroke-width="2.25"/>
<rect x="316.5" y="113" width="5.25" height="5.25" fill="#002C2C"/>
<rect x="316.5" y="146" width="5.25" height="5.25" fill="#002C2C"/>
<rect x="349.5" y="113" width="5.25" height="5.25" fill="#002C2C"/>
<rect x="349.5" y="146" width="5.25" height="5.25" fill="#002C2C"/>
<line x1="279" y1="108.875" x2="291.75" y2="108.875" stroke="#005656" stroke-opacity="0.4" stroke-width="2.25"/>
<path d="M379.5 108.875H384" stroke="#005656" stroke-opacity="0.4" stroke-width="2.25"/>
<path d="M387.75 108.875H392.25" stroke="#005656" stroke-opacity="0.4" stroke-width="2.25"/>
<line x1="379.5" y1="114.875" x2="392.25" y2="114.875" stroke="#005656" stroke-opacity="0.4" stroke-width="2.25"/>
<path d="M279 114.875H288" stroke="#005656" stroke-opacity="0.4" stroke-width="2.25"/>
<line x1="279" y1="120.875" x2="291.75" y2="120.875" stroke="#005656" stroke-opacity="0.4" stroke-width="2.25"/>
<path d="M522 298.684C522 288.917 529.917 281 539.684 281H567.316C577.083 281 585 288.917 585 298.684V298.684C585 300.515 583.515 302 581.684 302H525.316C523.485 302 522 300.515 522 298.684V298.684Z" fill="#DB7704"/>
<path d="M324 279.5C324 276.186 326.686 273.5 330 273.5H475.589C477.047 273.5 478.455 274.031 479.55 274.993L501.75 294.5H330C326.686 294.5 324 291.814 324 288.5V279.5Z" fill="#DB7704"/>
<path fill-rule="evenodd" clip-rule="evenodd" d="M330 273.5C326.686 273.5 324 276.186 324 279.5V294.5C324 294.5 324 294.5 324 294.5V294.5C324 294.5 324 294.5 324 294.5V296C324 299.314 326.686 302 330 302H496.5C499.814 302 502.5 299.314 502.5 296V296C502.5 295.172 501.828 294.5 501 294.5H374.163C371.802 294.5 369.52 293.643 367.743 292.088L349.257 275.912C347.48 274.357 345.198 273.5 342.837 273.5H330Z" fill="black"/>
<path d="M364.5 281.6C364.5 279.612 366.112 278 368.1 278H369.15C371.138 278 372.75 279.612 372.75 281.6V281.6C372.75 282.097 372.347 282.5 371.85 282.5H365.4C364.903 282.5 364.5 282.097 364.5 281.6V281.6Z" fill="black"/>
<path d="M377.25 281.6C377.25 279.612 378.862 278 380.85 278H381.9C383.888 278 385.5 279.612 385.5 281.6V281.6C385.5 282.097 385.097 282.5 384.6 282.5H378.15C377.653 282.5 377.25 282.097 377.25 281.6V281.6Z" fill="black"/>
<path d="M390 281.6C390 279.612 391.612 278 393.6 278H394.65C396.638 278 398.25 279.612 398.25 281.6V281.6C398.25 282.097 397.847 282.5 397.35 282.5H390.9C390.403 282.5 390 282.097 390 281.6V281.6Z" fill="black"/>
<path d="M402.75 281.6C402.75 279.612 404.362 278 406.35 278H407.4C409.388 278 411 279.612 411 281.6V281.6C411 282.097 410.597 282.5 410.1 282.5H403.65C403.153 282.5 402.75 282.097 402.75 281.6V281.6Z" fill="black"/>
<path d="M415.5 281.6C415.5 279.612 417.112 278 419.1 278H420.15C422.138 278 423.75 279.612 423.75 281.6V281.6C423.75 282.097 423.347 282.5 422.85 282.5H416.4C415.903 282.5 415.5 282.097 415.5 281.6V281.6Z" fill="black"/>
<path d="M428.25 281.6C428.25 279.612 429.862 278 431.85 278H432.9C434.888 278 436.5 279.612 436.5 281.6V281.6C436.5 282.097 436.097 282.5 435.6 282.5H429.15C428.653 282.5 428.25 282.097 428.25 281.6V281.6Z" fill="black"/>
<path d="M441 281.6C441 279.612 442.612 278 444.6 278H445.65C447.638 278 449.25 279.612 449.25 281.6V281.6C449.25 282.097 448.847 282.5 448.35 282.5H441.9C441.403 282.5 441 282.097 441 281.6V281.6Z" fill="black"/>
<path d="M453.75 281.6C453.75 279.612 455.362 278 457.35 278H458.4C460.388 278 462 279.612 462 281.6V281.6C462 282.097 461.597 282.5 461.1 282.5H454.65C454.153 282.5 453.75 282.097 453.75 281.6V281.6Z" fill="black"/>
<path d="M466.5 281.6C466.5 279.612 468.112 278 470.1 278H471.15C473.138 278 474.75 279.612 474.75 281.6V281.6C474.75 282.097 474.347 282.5 473.85 282.5H467.4C466.903 282.5 466.5 282.097 466.5 281.6V281.6Z" fill="black"/>
<path d="M371.25 289.1C371.25 287.112 372.862 285.5 374.85 285.5H375.9C377.888 285.5 379.5 287.112 379.5 289.1V289.1C379.5 289.597 379.097 290 378.6 290H372.15C371.653 290 371.25 289.597 371.25 289.1V289.1Z" fill="black"/>
<path d="M384 289.1C384 287.112 385.612 285.5 387.6 285.5H388.65C390.638 285.5 392.25 287.112 392.25 289.1V289.1C392.25 289.597 391.847 290 391.35 290H384.9C384.403 290 384 289.597 384 289.1V289.1Z" fill="black"/>
<path d="M396.75 289.1C396.75 287.112 398.362 285.5 400.35 285.5H443.4C445.388 285.5 447 287.112 447 289.1V289.1C447 289.597 446.597 290 446.1 290H397.65C397.153 290 396.75 289.597 396.75 289.1V289.1Z" fill="black"/>
<path d="M451.5 289.1C451.5 287.112 453.112 285.5 455.1 285.5H456.15C458.138 285.5 459.75 287.112 459.75 289.1V289.1C459.75 289.597 459.347 290 458.85 290H452.4C451.903 290 451.5 289.597 451.5 289.1V289.1Z" fill="black"/>
<path d="M464.25 289.1C464.25 287.112 465.862 285.5 467.85 285.5H468.9C470.888 285.5 472.5 287.112 472.5 289.1V289.1C472.5 289.597 472.097 290 471.6 290H465.15C464.653 290 464.25 289.597 464.25 289.1V289.1Z" fill="black"/>
<path d="M477 289.1C477 287.112 478.612 285.5 480.6 285.5H481.65C483.638 285.5 485.25 287.112 485.25 289.1V289.1C485.25 289.597 484.847 290 484.35 290H477.9C477.403 290 477 289.597 477 289.1V289.1Z" fill="black"/>
<rect x="331.5" y="292.25" width="11.25" height="3" rx="1.5" fill="#005656"/>
<path d="M346.5 293.75C346.5 292.922 347.172 292.25 348 292.25H353.25C354.078 292.25 354.75 292.922 354.75 293.75V293.75C354.75 294.578 354.078 295.25 353.25 295.25H348C347.172 295.25 346.5 294.578 346.5 293.75V293.75Z" fill="#005656"/>
</svg>
