<svg width="730" height="402" viewBox="0 0 730 402" fill="none" xmlns="http://www.w3.org/2000/svg">
<path fill-rule="evenodd" clip-rule="evenodd" d="M92.5171 210C51.9147 210 19 242.915 19 283.517C19 322.509 49.4421 354.719 88.3723 356.917L260.869 366.658C268.19 367.071 272.257 375.681 269.03 382.265V382.265V382.265C264.792 390.908 271.085 401 280.711 401H691.839C698.099 401 702.396 394.699 700.11 388.871V388.871C686.893 355.169 654.386 333 618.185 333H532.897C481.11 333 438.148 292.935 434.539 241.273V241.273C433.308 223.66 418.661 210 401.004 210H92.5171Z" fill="#E1DAC2"/>
<path fill-rule="evenodd" clip-rule="evenodd" d="M168.671 85.2723C156.054 91.2101 148 103.901 148 117.846V127.654C148 130.484 146.505 133.103 144.068 134.542L125.83 145.313C119.738 148.91 116 155.459 116 162.534V221.789C116 232.061 123.782 240.663 134.003 241.689L140.799 242.371C144.887 242.781 148 246.222 148 250.331V251.487C148 268.193 159.493 282.704 175.755 286.53L211.933 295.043C214.635 295.679 217.402 296 220.178 296H436C455.882 296 472 279.882 472 260V99C472 79.1178 455.882 63 436 63H224.047C218.748 63 213.514 64.17 208.719 66.4265L168.671 85.2723Z" fill="black"/>
<rect x="250" y="280" width="79" height="28" fill="black"/>
<rect x="290" y="280" width="79" height="28" fill="#005656"/>
<rect x="188" y="63" width="284" height="233" rx="36" fill="#DB7704"/>
<mask id="mask0_1573_5783" style="mask-type:alpha" maskUnits="userSpaceOnUse" x="217" y="89" width="230" height="161">
<rect x="217" y="89" width="230" height="161" rx="16" fill="black"/>
</mask>
<g mask="url(#mask0_1573_5783)">
<rect x="217" y="89" width="230" height="161" rx="16" fill="#003D3D"/>
<path d="M417.5 225L449 252.5H215V225H417.5Z" fill="#005656"/>
<path d="M417.5 113.5L449 81H215V113.5H417.5Z" fill="black"/>
</g>
<path d="M217 119C217 110.163 224.163 103 233 103H415C423.837 103 431 110.163 431 119V220C431 228.837 423.837 236 415 236H233C224.163 236 217 228.837 217 220V119Z" fill="#002C2C"/>
<rect x="242" y="267" width="48" height="8" rx="2" fill="#002C2C"/>
<circle cx="224" cy="271" r="7" fill="#002C2C"/>
<path d="M198 316C198 311.582 201.582 308 206 308H412C416.418 308 420 311.582 420 316V334C420 338.418 416.418 342 412 342H206C201.582 342 198 338.418 198 334V316Z" fill="black"/>
<path d="M257 316C257 311.582 260.582 308 265 308H412C416.418 308 420 311.582 420 316V334C420 338.418 416.418 342 412 342H265C260.582 342 257 338.418 257 334V316Z" fill="#DB7704"/>
<rect x="271" y="318" width="78" height="15" rx="3" fill="#002C2C"/>
<path d="M271 323H343V328H271V323Z" fill="#005656"/>
<path d="M140.954 362.116C145.813 349.966 157.58 342 170.665 342H448.335C461.42 342 473.187 349.966 478.046 362.116L494 402H125L140.954 362.116Z" fill="black"/>
<path d="M204.954 362.116C209.813 349.966 221.58 342 234.665 342H448.335C461.42 342 473.187 349.966 478.046 362.116L494 402H189L204.954 362.116Z" fill="#002C2C"/>
<circle cx="383" cy="331" r="3" fill="#002C2C"/>
<circle cx="394" cy="331" r="3" fill="#002C2C"/>
<circle cx="405" cy="331" r="3" fill="#002C2C"/>
<rect x="241" y="119" width="167" height="97" rx="8" fill="#E1DAC2" stroke="#F2F0EA" stroke-width="4"/>
<rect x="272" y="121" width="105" height="93" fill="#F2F0EA"/>
<path d="M243 127C243 123.686 245.686 121 249 121H400C403.314 121 406 123.686 406 127V137H243V127Z" fill="black"/>
<rect x="302" y="153" width="45" height="45" rx="22.5" fill="#DB7704"/>
<rect x="302.5" y="153.5" width="44" height="44" stroke="#005656" stroke-width="3"/>
<rect x="299" y="150" width="7" height="7" fill="#002C2C"/>
<rect x="299" y="194" width="7" height="7" fill="#002C2C"/>
<rect x="343" y="150" width="7" height="7" fill="#002C2C"/>
<rect x="343" y="194" width="7" height="7" fill="#002C2C"/>
<line x1="249" y1="144.5" x2="266" y2="144.5" stroke="#005656" stroke-opacity="0.4" stroke-width="3"/>
<path d="M383 144.5H389" stroke="#005656" stroke-opacity="0.4" stroke-width="3"/>
<path d="M394 144.5H400" stroke="#005656" stroke-opacity="0.4" stroke-width="3"/>
<line x1="383" y1="152.5" x2="400" y2="152.5" stroke="#005656" stroke-opacity="0.4" stroke-width="3"/>
<path d="M249 152.5H261" stroke="#005656" stroke-opacity="0.4" stroke-width="3"/>
<line x1="249" y1="160.5" x2="266" y2="160.5" stroke="#005656" stroke-opacity="0.4" stroke-width="3"/>
<path d="M573 397.579C573 384.557 583.557 374 596.579 374H633.421C646.443 374 657 384.557 657 397.579V397.579C657 400.021 655.021 402 652.579 402H577.421C574.979 402 573 400.021 573 397.579V397.579Z" fill="#DB7704"/>
<path d="M309 372C309 367.582 312.582 364 317 364H511.119C513.063 364 514.94 364.708 516.4 365.99L546 392H317C312.582 392 309 388.418 309 384V372Z" fill="#DB7704"/>
<path fill-rule="evenodd" clip-rule="evenodd" d="M317 364C312.582 364 309 367.582 309 372V392V394C309 398.418 312.582 402 317 402H539C543.418 402 547 398.418 547 394V394C547 392.895 546.105 392 545 392H375.885C372.736 392 369.694 390.857 367.324 388.784L342.676 367.217C340.306 365.143 337.264 364 334.115 364H317Z" fill="black"/>
<path d="M363 374.8C363 372.149 365.149 370 367.8 370H369.2C371.851 370 374 372.149 374 374.8V374.8C374 375.463 373.463 376 372.8 376H364.2C363.537 376 363 375.463 363 374.8V374.8Z" fill="black"/>
<path d="M380 374.8C380 372.149 382.149 370 384.8 370H386.2C388.851 370 391 372.149 391 374.8V374.8C391 375.463 390.463 376 389.8 376H381.2C380.537 376 380 375.463 380 374.8V374.8Z" fill="black"/>
<path d="M397 374.8C397 372.149 399.149 370 401.8 370H403.2C405.851 370 408 372.149 408 374.8V374.8C408 375.463 407.463 376 406.8 376H398.2C397.537 376 397 375.463 397 374.8V374.8Z" fill="black"/>
<path d="M414 374.8C414 372.149 416.149 370 418.8 370H420.2C422.851 370 425 372.149 425 374.8V374.8C425 375.463 424.463 376 423.8 376H415.2C414.537 376 414 375.463 414 374.8V374.8Z" fill="black"/>
<path d="M431 374.8C431 372.149 433.149 370 435.8 370H437.2C439.851 370 442 372.149 442 374.8V374.8C442 375.463 441.463 376 440.8 376H432.2C431.537 376 431 375.463 431 374.8V374.8Z" fill="black"/>
<path d="M448 374.8C448 372.149 450.149 370 452.8 370H454.2C456.851 370 459 372.149 459 374.8V374.8C459 375.463 458.463 376 457.8 376H449.2C448.537 376 448 375.463 448 374.8V374.8Z" fill="black"/>
<path d="M465 374.8C465 372.149 467.149 370 469.8 370H471.2C473.851 370 476 372.149 476 374.8V374.8C476 375.463 475.463 376 474.8 376H466.2C465.537 376 465 375.463 465 374.8V374.8Z" fill="black"/>
<path d="M482 374.8C482 372.149 484.149 370 486.8 370H488.2C490.851 370 493 372.149 493 374.8V374.8C493 375.463 492.463 376 491.8 376H483.2C482.537 376 482 375.463 482 374.8V374.8Z" fill="black"/>
<path d="M499 374.8C499 372.149 501.149 370 503.8 370H505.2C507.851 370 510 372.149 510 374.8V374.8C510 375.463 509.463 376 508.8 376H500.2C499.537 376 499 375.463 499 374.8V374.8Z" fill="black"/>
<path d="M372 384.8C372 382.149 374.149 380 376.8 380H378.2C380.851 380 383 382.149 383 384.8V384.8C383 385.463 382.463 386 381.8 386H373.2C372.537 386 372 385.463 372 384.8V384.8Z" fill="black"/>
<path d="M389 384.8C389 382.149 391.149 380 393.8 380H395.2C397.851 380 400 382.149 400 384.8V384.8C400 385.463 399.463 386 398.8 386H390.2C389.537 386 389 385.463 389 384.8V384.8Z" fill="black"/>
<path d="M406 384.8C406 382.149 408.149 380 410.8 380H468.2C470.851 380 473 382.149 473 384.8V384.8C473 385.463 472.463 386 471.8 386H407.2C406.537 386 406 385.463 406 384.8V384.8Z" fill="black"/>
<path d="M479 384.8C479 382.149 481.149 380 483.8 380H485.2C487.851 380 490 382.149 490 384.8V384.8C490 385.463 489.463 386 488.8 386H480.2C479.537 386 479 385.463 479 384.8V384.8Z" fill="black"/>
<path d="M496 384.8C496 382.149 498.149 380 500.8 380H502.2C504.851 380 507 382.149 507 384.8V384.8C507 385.463 506.463 386 505.8 386H497.2C496.537 386 496 385.463 496 384.8V384.8Z" fill="black"/>
<path d="M513 384.8C513 382.149 515.149 380 517.8 380H519.2C521.851 380 524 382.149 524 384.8V384.8C524 385.463 523.463 386 522.8 386H514.2C513.537 386 513 385.463 513 384.8V384.8Z" fill="black"/>
<rect x="319" y="389" width="15" height="4" rx="2" fill="#005656"/>
<path d="M339 391C339 389.895 339.895 389 341 389H348C349.105 389 350 389.895 350 391V391C350 392.105 349.105 393 348 393H341C339.895 393 339 392.105 339 391V391Z" fill="#005656"/>
</svg>
