<svg width="1081" height="303" viewBox="0 0 1081 303" fill="none" xmlns="http://www.w3.org/2000/svg">
<path fill-rule="evenodd" clip-rule="evenodd" d="M172.857 29C109.423 29 58 80.4232 58 143.857C58 203.037 102.966 252.529 161.875 258.188L329.512 274.291C334.136 274.735 336.466 280.283 334.111 284.287V284.287V284.287C329.306 292.454 335.195 302.75 344.671 302.75H709.269C716.005 302.75 720.452 295.743 717.584 289.648V289.648C706.698 266.515 683.432 251.75 657.866 251.75H520.255C475.204 251.75 438.175 216.21 436.326 171.197L431.677 57.9856C431.011 41.7884 417.687 29 401.476 29H172.857ZM553.861 204.037C565.719 183.878 587.36 171.5 610.748 171.5H662.821C698.83 171.5 730.42 141.319 765.126 131.716C770.354 130.27 775.843 129.5 781.484 129.5H783.452C796.756 129.5 809.148 133.903 819.135 141.413C836.88 154.756 855.414 171.5 877.616 171.5V171.5C903.182 171.5 926.448 186.265 937.334 209.398V209.398C940.202 215.493 935.755 222.5 929.019 222.5H564.421C554.945 222.5 549.056 212.204 553.861 204.037V204.037Z" fill="#E1DAC2"/>
<path fill-rule="evenodd" clip-rule="evenodd" d="M184.05 20.0761C172.779 25.3801 165.585 36.7163 165.585 49.173V57.9346C165.585 60.4626 164.249 62.8024 162.072 64.0879L145.781 73.7087C140.339 76.9223 137 82.772 137 89.0919V142.023C137 151.199 143.951 158.883 153.082 159.799L159.152 160.408C162.804 160.774 165.585 163.848 165.585 167.518V168.551C165.585 183.474 175.851 196.436 190.377 199.854L222.694 207.458C225.108 208.026 227.58 208.313 230.059 208.313H422.847C440.607 208.313 455.005 193.916 455.005 176.155V32.3386C455.005 14.5784 440.607 0.18086 422.847 0.18086H233.516C228.782 0.18086 224.106 1.22601 219.823 3.24168L184.05 20.0761Z" fill="#001313"/>
<rect x="256.698" y="194.021" width="70.5684" height="25.0116" fill="#001313"/>
<rect x="292.429" y="194.021" width="70.5684" height="25.0116" fill="#005656"/>
<rect x="201.316" y="0.180664" width="253.689" height="208.132" rx="32.1578" fill="#DB7704"/>
<mask id="mask0_1578_5790" style="mask-type:alpha" maskUnits="userSpaceOnUse" x="227" y="23" width="206" height="145">
<rect x="227.22" y="23.4062" width="205.452" height="143.817" rx="14.2923" fill="black"/>
</mask>
<g mask="url(#mask0_1578_5790)">
<rect x="227.22" y="23.4062" width="205.452" height="143.817" rx="14.2923" fill="#003D3D"/>
<path d="M406.321 144.891L434.459 169.456H225.434V144.891H406.321Z" fill="#005656"/>
<path d="M406.321 45.2915L434.459 16.2602H225.434V45.2915H406.321Z" fill="#001313"/>
</g>
<path d="M227.22 50.204C227.22 42.3105 233.619 35.9116 241.513 35.9116H404.088C411.982 35.9116 418.38 42.3105 418.38 50.204V140.424C418.38 148.318 411.982 154.717 404.088 154.717H241.513C233.619 154.717 227.22 148.318 227.22 140.424V50.204Z" fill="#012727"/>
<rect x="249.552" y="182.409" width="42.877" height="7.14617" rx="1.78654" fill="#012727"/>
<circle cx="233.473" cy="185.981" r="6.2529" fill="#012727"/>
<path d="M210.248 226.178C210.248 222.232 213.448 219.032 217.394 219.032H401.408C405.355 219.032 408.555 222.232 408.555 226.178V242.257C408.555 246.204 405.355 249.403 401.408 249.403H217.394C213.448 249.403 210.248 246.204 210.248 242.257V226.178Z" fill="#001313"/>
<path d="M262.951 226.178C262.951 222.232 266.151 219.032 270.097 219.032H401.408C405.355 219.032 408.555 222.232 408.555 226.178V242.257C408.555 246.204 405.355 249.403 401.408 249.403H270.097C266.151 249.403 262.951 246.204 262.951 242.257V226.178Z" fill="#DB7704"/>
<rect x="275.457" y="227.965" width="69.6752" height="13.3991" rx="2.67981" fill="#012727"/>
<path d="M275.457 232.432H339.773V236.898H275.457V232.432Z" fill="#005656"/>
<path d="M159.291 267.372C163.632 256.519 174.142 249.403 185.831 249.403H433.865C445.554 249.403 456.065 256.52 460.406 267.372L474.657 303H145.039L159.291 267.372Z" fill="#001313"/>
<path d="M243 252.903H433.865C444.123 252.903 453.346 259.148 457.156 268.672L469.487 299.5H207.378L219.71 268.672C223.519 259.148 232.743 252.903 243 252.903Z" fill="#012727" stroke="#004C4C" stroke-width="7"/>
<path d="M209.697 303L216 287.5L337.5 288V303H209.697Z" fill="#012727"/>
<circle cx="375.503" cy="239.578" r="2.67981" fill="#012727"/>
<circle cx="385.329" cy="239.578" r="2.67981" fill="#012727"/>
<circle cx="395.155" cy="239.578" r="2.67981" fill="#012727"/>
<rect x="248.659" y="50.2042" width="149.176" height="86.6473" rx="7.14617" fill="#E1DAC2" stroke="#F2F0EA" stroke-width="3.57309"/>
<rect x="276.35" y="51.9907" width="93.7935" height="83.0742" fill="#F2F0EA"/>
<path d="M250.445 57.3503C250.445 54.3903 252.845 51.9907 255.805 51.9907H390.689C393.649 51.9907 396.049 54.3903 396.049 57.3504V66.2831H250.445V57.3503Z" fill="#001313"/>
<rect x="303.148" y="80.5752" width="40.1972" height="40.1972" rx="20.0986" fill="#DB7704"/>
<circle cx="316.548" cy="94.8678" r="2.67981" fill="#F2F0EA"/>
<circle cx="330.84" cy="94.8678" r="2.67981" fill="#F2F0EA"/>
<rect x="303.595" y="81.022" width="39.3039" height="39.3039" stroke="#005656" stroke-width="2.67981"/>
<rect x="300.469" y="77.8955" width="6.2529" height="6.2529" fill="#012727"/>
<rect x="300.469" y="117.2" width="6.2529" height="6.2529" fill="#012727"/>
<rect x="339.773" y="77.8955" width="6.2529" height="6.2529" fill="#012727"/>
<rect x="339.773" y="117.2" width="6.2529" height="6.2529" fill="#012727"/>
<line x1="255.805" y1="72.9824" x2="270.991" y2="72.9824" stroke="#005656" stroke-opacity="0.4" stroke-width="2.67981"/>
<path d="M375.503 72.9824H380.863" stroke="#005656" stroke-opacity="0.4" stroke-width="2.67981"/>
<path d="M385.329 72.9824H390.689" stroke="#005656" stroke-opacity="0.4" stroke-width="2.67981"/>
<line x1="375.503" y1="80.1288" x2="390.689" y2="80.1288" stroke="#005656" stroke-opacity="0.4" stroke-width="2.67981"/>
<path d="M255.805 80.1289H266.524" stroke="#005656" stroke-opacity="0.4" stroke-width="2.67981"/>
<line x1="255.805" y1="87.2748" x2="270.991" y2="87.2748" stroke="#005656" stroke-opacity="0.4" stroke-width="2.67981"/>
<path d="M309.401 276.202C309.401 272.256 312.601 269.056 316.548 269.056H489.949C491.685 269.056 493.361 269.688 494.666 270.834L521.107 294.068H316.548C312.601 294.068 309.401 290.868 309.401 286.922V276.202Z" fill="#DB7704"/>
<path fill-rule="evenodd" clip-rule="evenodd" d="M316.548 269.056C312.601 269.056 309.401 272.256 309.401 276.202V294.068L309.401 295.854C309.401 299.801 312.601 303 316.548 303H514.854C518.801 303 522 299.801 522 295.854V295.854C522 294.867 521.2 294.068 520.213 294.068H369.147C366.334 294.068 363.617 293.047 361.5 291.194L339.483 271.929C337.366 270.077 334.649 269.056 331.836 269.056H316.548Z" fill="#001313"/>
<path d="M357.638 278.703C357.638 276.335 359.558 274.415 361.926 274.415H363.176C365.544 274.415 367.464 276.335 367.464 278.703V278.703C367.464 279.295 366.984 279.775 366.392 279.775H358.71C358.118 279.775 357.638 279.295 357.638 278.703V278.703Z" fill="#001313"/>
<path d="M372.824 278.703C372.824 276.335 374.743 274.415 377.111 274.415H378.362C380.73 274.415 382.65 276.335 382.65 278.703V278.703C382.65 279.295 382.17 279.775 381.578 279.775H373.896C373.304 279.775 372.824 279.295 372.824 278.703V278.703Z" fill="#001313"/>
<path d="M388.009 278.703C388.009 276.335 389.929 274.415 392.297 274.415H393.548C395.916 274.415 397.835 276.335 397.835 278.703V278.703C397.835 279.295 397.355 279.775 396.763 279.775H389.081C388.489 279.775 388.009 279.295 388.009 278.703V278.703Z" fill="#001313"/>
<path d="M403.195 278.703C403.195 276.335 405.115 274.415 407.483 274.415H408.733C411.101 274.415 413.021 276.335 413.021 278.703V278.703C413.021 279.295 412.541 279.775 411.949 279.775H404.267C403.675 279.775 403.195 279.295 403.195 278.703V278.703Z" fill="#001313"/>
<path d="M418.381 278.703C418.381 276.335 420.3 274.415 422.668 274.415H423.919C426.287 274.415 428.206 276.335 428.206 278.703V278.703C428.206 279.295 427.727 279.775 427.135 279.775H419.452C418.86 279.775 418.381 279.295 418.381 278.703V278.703Z" fill="#001313"/>
<path d="M433.566 278.703C433.566 276.335 435.486 274.415 437.854 274.415H439.104C441.472 274.415 443.392 276.335 443.392 278.703V278.703C443.392 279.295 442.912 279.775 442.32 279.775H434.638C434.046 279.775 433.566 279.295 433.566 278.703V278.703Z" fill="#001313"/>
<path d="M448.752 278.703C448.752 276.335 450.671 274.415 453.039 274.415H454.29C456.658 274.415 458.578 276.335 458.578 278.703V278.703C458.578 279.295 458.098 279.775 457.506 279.775H449.824C449.232 279.775 448.752 279.295 448.752 278.703V278.703Z" fill="#001313"/>
<path d="M463.937 278.703C463.937 276.335 465.857 274.415 468.225 274.415H469.476C471.844 274.415 473.763 276.335 473.763 278.703V278.703C473.763 279.295 473.283 279.775 472.691 279.775H465.009C464.417 279.775 463.937 279.295 463.937 278.703V278.703Z" fill="#001313"/>
<path d="M479.123 278.703C479.123 276.335 481.043 274.415 483.411 274.415H484.661C487.029 274.415 488.949 276.335 488.949 278.703V278.703C488.949 279.295 488.469 279.775 487.877 279.775H480.195C479.603 279.775 479.123 279.295 479.123 278.703V278.703Z" fill="#001313"/>
<path d="M365.677 287.636C365.677 285.268 367.597 283.348 369.965 283.348H371.216C373.584 283.348 375.503 285.268 375.503 287.636V287.636C375.503 288.228 375.024 288.708 374.432 288.708H366.749C366.157 288.708 365.677 288.228 365.677 287.636V287.636Z" fill="#001313"/>
<path d="M380.863 287.636C380.863 285.268 382.783 283.348 385.151 283.348H386.401C388.769 283.348 390.689 285.268 390.689 287.636V287.636C390.689 288.228 390.209 288.708 389.617 288.708H381.935C381.343 288.708 380.863 288.228 380.863 287.636V287.636Z" fill="#001313"/>
<path d="M396.049 287.636C396.049 285.268 397.968 283.348 400.336 283.348H451.61C453.978 283.348 455.898 285.268 455.898 287.636V287.636C455.898 288.228 455.418 288.708 454.826 288.708H397.121C396.529 288.708 396.049 288.228 396.049 287.636V287.636Z" fill="#001313"/>
<path d="M461.258 287.636C461.258 285.268 463.177 283.348 465.545 283.348H466.796C469.164 283.348 471.084 285.268 471.084 287.636V287.636C471.084 288.228 470.604 288.708 470.012 288.708H462.329C461.737 288.708 461.258 288.228 461.258 287.636V287.636Z" fill="#001313"/>
<path d="M476.443 287.636C476.443 285.268 478.363 283.348 480.731 283.348H481.981C484.349 283.348 486.269 285.268 486.269 287.636V287.636C486.269 288.228 485.789 288.708 485.197 288.708H477.515C476.923 288.708 476.443 288.228 476.443 287.636V287.636Z" fill="#001313"/>
<path d="M491.629 287.636C491.629 285.268 493.548 283.348 495.916 283.348H497.167C499.535 283.348 501.455 285.268 501.455 287.636V287.636C501.455 288.228 500.975 288.708 500.383 288.708H492.701C492.109 288.708 491.629 288.228 491.629 287.636V287.636Z" fill="#001313"/>
<rect x="318.334" y="291.387" width="13.3991" height="3.57309" rx="1.78654" fill="#005656"/>
<path d="M336.2 293.174C336.2 292.187 336.999 291.387 337.986 291.387H344.239C345.226 291.387 346.026 292.187 346.026 293.174V293.174C346.026 294.16 345.226 294.96 344.239 294.96H337.986C336.999 294.96 336.2 294.16 336.2 293.174V293.174Z" fill="#005656"/>
<path fill-rule="evenodd" clip-rule="evenodd" d="M329.422 101.571C327.5 106.954 319.888 106.954 317.966 101.571L320.489 100.67C321.565 103.681 325.823 103.681 326.898 100.67L329.422 101.571Z" fill="#F2F0EA"/>
</svg>
