<svg width="548" height="402" viewBox="0 0 548 402" fill="none" xmlns="http://www.w3.org/2000/svg">
<path fill-rule="evenodd" clip-rule="evenodd" d="M123.204 103C55.1601 103 0 158.16 0 226.204C0 289.467 47.9139 342.448 110.858 348.787V348.787C120.338 349.742 124.451 362.685 118.984 370.488C116.389 374.191 114.06 378.124 112.03 382.265V382.265C107.792 390.908 114.085 401 123.711 401H534.839C541.099 401 545.396 394.699 543.11 388.871V388.871C529.893 355.169 497.386 333 461.185 333V333C421.024 333 388.034 301.277 386.462 261.146L381.428 132.645C380.779 116.088 367.168 103 350.599 103H123.204Z" fill="#E1DAC2"/>
<path fill-rule="evenodd" clip-rule="evenodd" d="M115.671 85.2723C103.054 91.2101 95 103.901 95 117.846V127.654C95 130.484 93.5048 133.103 91.068 134.542L72.8301 145.313C66.738 148.91 63 155.459 63 162.534V221.789C63 232.061 70.782 240.663 81.0031 241.689L87.7988 242.371C91.8872 242.781 95 246.222 95 250.331V251.487C95 268.193 106.493 282.704 122.755 286.53L158.933 295.043C161.635 295.679 164.402 296 167.178 296H383C402.882 296 419 279.882 419 260V99C419 79.1178 402.882 63 383 63H171.047C165.748 63 160.514 64.17 155.719 66.4265L115.671 85.2723Z" fill="#001313"/>
<rect x="197" y="280" width="79" height="28" fill="#001D1D"/>
<rect x="237" y="280" width="79" height="28" fill="#005656"/>
<rect x="135" y="63" width="284" height="233" rx="36" fill="#DB7704"/>
<mask id="mask0_1573_5783" style="mask-type:alpha" maskUnits="userSpaceOnUse" x="164" y="89" width="230" height="161">
<rect x="164" y="89" width="230" height="161" rx="16" fill="black"/>
</mask>
<g mask="url(#mask0_1573_5783)">
<rect x="164" y="89" width="230" height="161" rx="16" fill="#003D3D"/>
<path d="M364.5 225L396 252.5H162V225H364.5Z" fill="#005656"/>
<path d="M364.5 113.5L396 81H162V113.5H364.5Z" fill="#001D1D"/>
</g>
<path d="M164 119C164 110.163 171.163 103 180 103H362C370.837 103 378 110.163 378 119V220C378 228.837 370.837 236 362 236H180C171.163 236 164 228.837 164 220V119Z" fill="#012727"/>
<rect x="189" y="267" width="48" height="8" rx="2" fill="#012727"/>
<circle cx="171" cy="271" r="7" fill="#012727"/>
<path d="M145 316C145 311.582 148.582 308 153 308H359C363.418 308 367 311.582 367 316V334C367 338.418 363.418 342 359 342H153C148.582 342 145 338.418 145 334V316Z" fill="#001313"/>
<path d="M204 316C204 311.582 207.582 308 212 308H359C363.418 308 367 311.582 367 316V334C367 338.418 363.418 342 359 342H212C207.582 342 204 338.418 204 334V316Z" fill="#DB7704"/>
<rect x="218" y="318" width="78" height="15" rx="3" fill="#012727"/>
<path d="M218 323H290V328H218V323Z" fill="#005656"/>
<path d="M87.9538 362.116C92.8134 349.966 104.58 342 117.665 342H395.335C408.42 342 420.187 349.966 425.046 362.116L441 402H72L87.9538 362.116Z" fill="#001313"/>
<path d="M181.665 345.5H395.335C406.989 345.5 417.468 352.595 421.797 363.415L435.83 398.5H141.17L155.203 363.415C159.532 352.595 170.011 345.5 181.665 345.5Z" fill="#012727" stroke="#004C4C" stroke-width="7"/>
<path d="M143.5 402L150 386L271.803 386.5V402H143.5Z" fill="#012727"/>
<circle cx="330" cy="331" r="3" fill="#012727"/>
<circle cx="341" cy="331" r="3" fill="#012727"/>
<circle cx="352" cy="331" r="3" fill="#012727"/>
<rect x="188" y="119" width="167" height="97" rx="8" fill="#E1DAC2" stroke="#F2F0EA" stroke-width="4"/>
<rect x="219" y="121" width="105" height="93" fill="#F2F0EA"/>
<path d="M190 127C190 123.686 192.686 121 196 121H347C350.314 121 353 123.686 353 127V137H190V127Z" fill="#001313"/>
<rect x="249" y="153" width="45" height="45" rx="22.5" fill="#DB7704"/>
<circle cx="264" cy="169" r="3" fill="#F2F0EA"/>
<circle cx="280" cy="169" r="3" fill="#F2F0EA"/>
<rect x="249.5" y="153.5" width="44" height="44" stroke="#005656" stroke-width="3"/>
<rect x="246" y="150" width="7" height="7" fill="#012727"/>
<rect x="246" y="194" width="7" height="7" fill="#012727"/>
<rect x="290" y="150" width="7" height="7" fill="#012727"/>
<rect x="290" y="194" width="7" height="7" fill="#012727"/>
<line x1="196" y1="144.5" x2="213" y2="144.5" stroke="#005656" stroke-opacity="0.4" stroke-width="3"/>
<path d="M330 144.5H336" stroke="#005656" stroke-opacity="0.4" stroke-width="3"/>
<path d="M341 144.5H347" stroke="#005656" stroke-opacity="0.4" stroke-width="3"/>
<line x1="330" y1="152.5" x2="347" y2="152.5" stroke="#005656" stroke-opacity="0.4" stroke-width="3"/>
<path d="M196 152.5H208" stroke="#005656" stroke-opacity="0.4" stroke-width="3"/>
<line x1="196" y1="160.5" x2="213" y2="160.5" stroke="#005656" stroke-opacity="0.4" stroke-width="3"/>
<path d="M256 372C256 367.582 259.582 364 264 364H458.119C460.063 364 461.94 364.708 463.4 365.99L493 392H264C259.582 392 256 388.418 256 384V372Z" fill="#DB7704"/>
<path fill-rule="evenodd" clip-rule="evenodd" d="M264 364C259.582 364 256 367.582 256 372V392V394C256 398.418 259.582 402 264 402H486C490.418 402 494 398.418 494 394V394C494 392.895 493.105 392 492 392H322.885C319.736 392 316.694 390.857 314.324 388.784L289.676 367.217C287.306 365.143 284.264 364 281.115 364H264Z" fill="#001313"/>
<path d="M310 374.8C310 372.149 312.149 370 314.8 370H316.2C318.851 370 321 372.149 321 374.8V374.8C321 375.463 320.463 376 319.8 376H311.2C310.537 376 310 375.463 310 374.8V374.8Z" fill="#001313"/>
<path d="M327 374.8C327 372.149 329.149 370 331.8 370H333.2C335.851 370 338 372.149 338 374.8V374.8C338 375.463 337.463 376 336.8 376H328.2C327.537 376 327 375.463 327 374.8V374.8Z" fill="#001313"/>
<path d="M344 374.8C344 372.149 346.149 370 348.8 370H350.2C352.851 370 355 372.149 355 374.8V374.8C355 375.463 354.463 376 353.8 376H345.2C344.537 376 344 375.463 344 374.8V374.8Z" fill="#001313"/>
<path d="M361 374.8C361 372.149 363.149 370 365.8 370H367.2C369.851 370 372 372.149 372 374.8V374.8C372 375.463 371.463 376 370.8 376H362.2C361.537 376 361 375.463 361 374.8V374.8Z" fill="#001313"/>
<path d="M378 374.8C378 372.149 380.149 370 382.8 370H384.2C386.851 370 389 372.149 389 374.8V374.8C389 375.463 388.463 376 387.8 376H379.2C378.537 376 378 375.463 378 374.8V374.8Z" fill="#001313"/>
<path d="M395 374.8C395 372.149 397.149 370 399.8 370H401.2C403.851 370 406 372.149 406 374.8V374.8C406 375.463 405.463 376 404.8 376H396.2C395.537 376 395 375.463 395 374.8V374.8Z" fill="#001313"/>
<path d="M412 374.8C412 372.149 414.149 370 416.8 370H418.2C420.851 370 423 372.149 423 374.8V374.8C423 375.463 422.463 376 421.8 376H413.2C412.537 376 412 375.463 412 374.8V374.8Z" fill="#001313"/>
<path d="M429 374.8C429 372.149 431.149 370 433.8 370H435.2C437.851 370 440 372.149 440 374.8V374.8C440 375.463 439.463 376 438.8 376H430.2C429.537 376 429 375.463 429 374.8V374.8Z" fill="#001313"/>
<path d="M446 374.8C446 372.149 448.149 370 450.8 370H452.2C454.851 370 457 372.149 457 374.8V374.8C457 375.463 456.463 376 455.8 376H447.2C446.537 376 446 375.463 446 374.8V374.8Z" fill="#001313"/>
<path d="M319 384.8C319 382.149 321.149 380 323.8 380H325.2C327.851 380 330 382.149 330 384.8V384.8C330 385.463 329.463 386 328.8 386H320.2C319.537 386 319 385.463 319 384.8V384.8Z" fill="#001313"/>
<path d="M336 384.8C336 382.149 338.149 380 340.8 380H342.2C344.851 380 347 382.149 347 384.8V384.8C347 385.463 346.463 386 345.8 386H337.2C336.537 386 336 385.463 336 384.8V384.8Z" fill="#001313"/>
<path d="M353 384.8C353 382.149 355.149 380 357.8 380H415.2C417.851 380 420 382.149 420 384.8V384.8C420 385.463 419.463 386 418.8 386H354.2C353.537 386 353 385.463 353 384.8V384.8Z" fill="#001313"/>
<path d="M426 384.8C426 382.149 428.149 380 430.8 380H432.2C434.851 380 437 382.149 437 384.8V384.8C437 385.463 436.463 386 435.8 386H427.2C426.537 386 426 385.463 426 384.8V384.8Z" fill="#001313"/>
<path d="M443 384.8C443 382.149 445.149 380 447.8 380H449.2C451.851 380 454 382.149 454 384.8V384.8C454 385.463 453.463 386 452.8 386H444.2C443.537 386 443 385.463 443 384.8V384.8Z" fill="#001313"/>
<path d="M460 384.8C460 382.149 462.149 380 464.8 380H466.2C468.851 380 471 382.149 471 384.8V384.8C471 385.463 470.463 386 469.8 386H461.2C460.537 386 460 385.463 460 384.8V384.8Z" fill="#001313"/>
<rect x="266" y="389" width="15" height="4" rx="2" fill="#005656"/>
<path d="M286 391C286 389.895 286.895 389 288 389H295C296.105 389 297 389.895 297 391V391C297 392.105 296.105 393 295 393H288C286.895 393 286 392.105 286 391V391Z" fill="#005656"/>
<path d="M267 176V176C268.678 180.698 275.322 180.698 277 176V176" stroke="#F2F0EA" stroke-width="3" stroke-linecap="round"/>
</svg>
