<svg width="24" height="24" viewBox="0 0 24 24" fill="none" xmlns="http://www.w3.org/2000/svg">
<path d="M12.4625 2C6.68281 2 2 6.725 2 12.4625C2 18.2422 6.68281 22.925 12.4625 22.925C18.2 22.925 22.925 18.2422 22.925 12.4625C22.925 6.725 18.2 2 12.4625 2ZM19.3391 6.85156C20.6047 8.37031 21.3641 10.3109 21.3641 12.4203C21.0687 12.3359 18.1156 11.7453 15.1625 12.125C14.9094 11.5344 14.6984 11.0281 14.3609 10.3531C17.6937 9.00312 19.1703 7.10469 19.3391 6.85156ZM18.3687 5.79687C18.2 6.05 16.85 7.86406 13.6859 9.04531C12.2094 6.34531 10.6062 4.15156 10.3531 3.81406C13.1797 3.13906 16.175 3.85625 18.3687 5.79687ZM8.62344 4.40469C8.87656 4.74219 10.4797 6.93594 11.9562 9.59375C7.77969 10.6906 4.10937 10.6906 3.6875 10.6484C4.27812 7.90625 6.13437 5.58594 8.62344 4.40469ZM3.51875 12.5047C3.51875 12.4203 3.51875 12.3359 3.51875 12.2094C3.89844 12.2516 8.24375 12.2937 12.6734 10.9437C12.9687 11.45 13.1797 11.9562 13.4328 12.4625C10.1844 13.3906 7.23125 16.0062 5.79687 18.4531C4.3625 16.8922 3.51875 14.7828 3.51875 12.5047ZM6.93594 19.55C7.90625 17.6516 10.4375 15.1625 14.0234 13.9391C15.2891 17.1875 15.7953 19.9297 15.9219 20.7312C13.0531 21.9547 9.59375 21.6172 6.93594 19.55ZM17.4406 19.8875C17.3562 19.3812 16.85 16.7656 15.7109 13.5172C18.4953 13.0953 20.9422 13.8125 21.2797 13.8969C20.8578 16.3859 19.4234 18.5375 17.4406 19.8875Z" fill="#ECEAE3"/>
</svg>
