<svg width="56" height="56" viewBox="0 0 56 56" fill="none" xmlns="http://www.w3.org/2000/svg">
<rect width="56" height="56" rx="2" fill="#E57157"/>
<path d="M43 14H13C11.3125 14 10 15.375 10 17V18H46V17C46 15.375 44.625 14 43 14ZM10 39C10 40.6875 11.3125 42 13 42H43C44.625 42 46 40.6875 46 39V20H10V39ZM33 24H41C41.5 24 42 24.5 42 25C42 25.5625 41.5 26 41 26H33C32.4375 26 32 25.5625 32 25C32 24.5 32.4375 24 33 24ZM33 28H41C41.5 28 42 28.5 42 29C42 29.5625 41.5 30 41 30H33C32.4375 30 32 29.5625 32 29C32 28.5 32.4375 28 33 28ZM33 32H41C41.5 32 42 32.5 42 33C42 33.5625 41.5 34 41 34H33C32.4375 34 32 33.5625 32 33C32 32.5 32.4375 32 33 32ZM21 24C23.1875 24 25 25.8125 25 28C25 30.25 23.1875 32 21 32C18.75 32 17 30.25 17 28C17 25.8125 18.75 24 21 24ZM17 34H25C26.625 34 28 35.375 28 37C28 37.5625 27.5 38 27 38H15C14.4375 38 14 37.5625 14 37C14 35.375 15.3125 34 17 34Z" fill="#1C2323"/>
</svg>
