<svg width="16" height="16" viewBox="0 0 16 16" fill="none" xmlns="http://www.w3.org/2000/svg">
<path fill-rule="evenodd" clip-rule="evenodd" d="M8.62243 0.376592C9.79056 1.54472 11.5613 1.86451 13.0642 1.17876L13.5137 0.97368L14.8386 2.29856L14.6335 2.74803C13.9478 4.25096 14.2676 6.02172 15.4357 7.18985L14.0215 8.60406C13.0002 7.58279 12.4097 6.25551 12.2963 4.87895L6.08767 11.0876L4.67346 9.67341L10.8394 3.50745C9.4965 3.37547 8.20624 2.78883 7.20822 1.79081L8.62243 0.376592Z" fill="#2F9B9B"/>
<path fill-rule="evenodd" clip-rule="evenodd" d="M4 1H1H0V2V15V16H1H14H15V15V12H13V14H2V3H4V1Z" fill="#2F9B9B"/>
</svg>
