<svg width="28" height="28" viewBox="0 0 28 28" fill="none" xmlns="http://www.w3.org/2000/svg">
<path d="M27.9394 4.33278C27.8299 2.03236 25.9676 0.170122 23.6672 0.0605785L20.6548 0.00580668C15.9444 -0.158509 12.1104 3.18257 11.5627 7.72863C11.3983 8.71452 11.0149 9.64564 10.3029 10.3577C9.64564 11.0149 8.71452 11.3983 7.72863 11.5627C3.18257 12.1104 -0.158509 15.9444 0.00580668 20.6548L0.0605785 23.6672C0.170122 25.9676 2.03236 27.8299 4.33278 27.9394L7.34523 27.9942C12.0556 28.1585 15.8896 24.8174 16.4373 20.2714C16.6017 19.2855 16.9851 18.3544 17.6423 17.6423C18.3544 16.9851 19.2855 16.5469 20.2714 16.4373C24.8174 15.8896 28.1585 12.0556 27.9942 7.29045L27.9394 4.33278ZM7.0166 23.8315C6.35933 23.8315 5.92116 23.3386 5.92116 22.7361C5.92116 22.1336 6.41411 21.6407 7.0166 21.6407C7.56431 21.6407 8.05726 22.1336 8.05726 22.7361C8.05726 23.3386 7.61909 23.8315 7.0166 23.8315ZM10.522 23.8315C9.86473 23.8315 9.42655 23.3386 9.42655 22.7361C9.42655 22.1336 9.9195 21.6407 10.522 21.6407C11.0697 21.6407 11.5627 22.1336 11.5627 22.7361C11.5627 23.3386 11.1245 23.8315 10.522 23.8315ZM10.522 20.3261C9.86473 20.3261 9.42655 19.8332 9.42655 19.2307C9.42655 18.6282 9.9195 18.1353 10.522 18.1353C11.0697 18.1353 11.5627 18.6282 11.5627 19.2307C11.5627 19.8332 11.1245 20.3261 10.522 20.3261ZM19.2307 11.5627C18.6282 11.5627 18.19 11.0697 18.19 10.4672C18.19 9.86473 18.6282 9.37178 19.2307 9.37178C19.7784 9.37178 20.2714 9.86473 20.2714 10.4672C20.2714 11.0697 19.888 11.5627 19.2307 11.5627ZM22.7361 11.5627C22.1336 11.5627 21.6954 11.0697 21.6954 10.4672C21.6954 9.86473 22.1336 9.37178 22.7361 9.37178C23.2838 9.37178 23.7768 9.86473 23.7768 10.4672C23.7768 11.0697 23.3934 11.5627 22.7361 11.5627ZM22.7361 8.05726C22.1336 8.05726 21.6954 7.56431 21.6954 6.96182C21.6954 6.35933 22.1336 5.86639 22.7361 5.86639C23.2838 5.86639 23.7768 6.35933 23.7768 6.96182C23.7768 7.56431 23.3934 8.05726 22.7361 8.05726Z" fill="#DB7704"/>
</svg>
