<svg width="36" height="36" viewBox="0 0 36 36" fill="none" xmlns="http://www.w3.org/2000/svg">
<path d="M33.9728 4.27664L29.9692 30.2455C29.9067 30.8712 29.5313 31.4344 28.9683 31.7473C28.6556 31.8724 28.3428 31.9976 27.9674 31.9976C27.7172 31.9976 27.467 31.935 27.2168 31.8099L19.585 28.6185L16.3946 33.3742C16.1444 33.8123 15.7065 34 15.2686 34C14.5805 34 14.0175 33.4368 14.0175 32.7485V26.7412C14.0175 26.2406 14.1426 25.8026 14.3928 25.4897L28.03 7.96859L9.63857 24.5511L3.19531 21.8604C2.5072 21.5475 2.00675 20.9217 2.00675 20.1082C1.94419 19.2322 2.31953 18.6064 3.00764 18.231L31.0327 2.27422C31.6582 1.89877 32.534 1.89877 33.1596 2.3368C33.7851 2.77482 34.0979 3.52573 33.9728 4.27664Z" fill="#EB8612"/>
</svg>
