<svg width="36" height="28" viewBox="0 0 36 28" fill="none" xmlns="http://www.w3.org/2000/svg">
<path d="M33 0H3C1.3125 0 0 1.375 0 3V4H36V3C36 1.375 34.625 0 33 0ZM0 25C0 26.6875 1.3125 28 3 28H33C34.625 28 36 26.6875 36 25V6H0V25ZM23 10H31C31.5 10 32 10.5 32 11C32 11.5625 31.5 12 31 12H23C22.4375 12 22 11.5625 22 11C22 10.5 22.4375 10 23 10ZM23 14H31C31.5 14 32 14.5 32 15C32 15.5625 31.5 16 31 16H23C22.4375 16 22 15.5625 22 15C22 14.5 22.4375 14 23 14ZM23 18H31C31.5 18 32 18.5 32 19C32 19.5625 31.5 20 31 20H23C22.4375 20 22 19.5625 22 19C22 18.5 22.4375 18 23 18ZM11 10C13.1875 10 15 11.8125 15 14C15 16.25 13.1875 18 11 18C8.75 18 7 16.25 7 14C7 11.8125 8.75 10 11 10ZM7 20H15C16.625 20 18 21.375 18 23C18 23.5625 17.5 24 17 24H5C4.4375 24 4 23.5625 4 23C4 21.375 5.3125 20 7 20Z" fill="#2F9B9B"/>
</svg>
