<svg width="31" height="30" viewBox="0 0 31 30" fill="none" xmlns="http://www.w3.org/2000/svg">
<g clip-path="url(#clip0_1428_3996)">
<path d="M12.938 0.312703C7.12549 1.5002 2.43799 6.1877 1.25049 12.0002C-0.437001 20.8127 5.56299 28.6877 13.688 29.8127C14.8755 30.0002 16.0005 29.0627 16.0005 27.8752V27.8127C16.0005 26.8752 15.2505 26.0002 14.313 25.8752C9.00049 25.0627 5.00049 20.5002 5.00049 15.0002C5.00049 8.5627 10.5005 3.3752 17.063 4.0002C22.7505 4.5627 27.0005 9.7502 27.0005 15.5002V16.5002C27.0005 17.8752 25.8755 19.0002 24.5005 19.0002C23.063 19.0002 22.0005 17.8752 22.0005 16.5002V9.0002C22.0005 8.4377 21.5005 8.0002 21.0005 8.0002H19.0005C18.5005 8.0002 18.1255 8.3127 18.0005 8.6877C16.5005 7.9377 14.6255 7.6877 12.6255 8.3752C10.2505 9.2502 8.37549 11.4377 8.06299 14.0002C7.43799 18.3127 10.7505 22.0002 15.0005 22.0002C16.6255 22.0002 18.1255 21.3752 19.313 20.4377C20.813 22.3752 23.3755 23.5002 26.188 22.8127C29.063 22.1252 31.0005 19.3127 30.938 16.3752V15.0627C30.938 5.7502 22.563 -1.5623 12.938 0.312703ZM14.938 18.0627C13.2505 18.0627 11.938 16.6877 11.938 15.0627C11.938 13.3752 13.2505 12.0627 14.938 12.0627C16.563 12.0627 17.938 13.3752 17.938 15.0627C17.938 16.6877 16.6255 18.0627 14.938 18.0627Z" fill="#DB7704"/>
</g>
<defs>
<clipPath id="clip0_1428_3996">
<rect width="31" height="30" fill="white"/>
</clipPath>
</defs>
</svg>
