<svg width="56" height="56" viewBox="0 0 56 56" fill="none" xmlns="http://www.w3.org/2000/svg">
<rect width="56" height="56" rx="2" fill="#2F9B9B"/>
<path d="M20.5 20.6875C19.25 21.0625 18.1875 22.0625 17.8125 23.3125L12 40.75L12.875 41.6875L22.1875 32.3125C22.0625 31.9375 21.9375 31.5 21.9375 31.0625C21.9375 29.375 23.25 28.0625 24.9375 28.0625C26.5625 28.0625 27.9375 29.375 27.9375 31.0625C27.9375 32.6875 26.5625 34.0625 24.9375 34.0625C24.4375 34.0625 24 33.9375 23.625 33.75L14.25 43.0625L15.1875 44L32.6875 38.1875C33.9375 37.8125 34.9375 36.8125 35.3125 35.5L37.9375 26L30 18.0625L20.5 20.6875ZM43.0625 16.6875L39.3125 12.9375C38.1875 11.75 36.25 11.75 35.0625 12.9375L31.5625 16.4375L39.5 24.375L43.0625 20.875C44.25 19.75 44.25 17.8125 43.0625 16.6875Z" fill="#1C2323"/>
</svg>
