<svg width="56" height="56" viewBox="0 0 56 56" fill="none" xmlns="http://www.w3.org/2000/svg">
<rect width="56" height="56" rx="2" fill="#E57157"/>
<path d="M28 12C19.125 12 12 19.1875 12 28C12 36.875 19.125 44 28 44C36.8125 44 44 36.875 44 28C44 19.1875 36.8125 12 28 12ZM33 23C34.0625 23 34.9375 23.9375 34.9375 25C34.9375 26.125 34.0625 27 33 27C31.875 27 30.9375 26.125 30.9375 25C30.9375 23.9375 31.875 23 33 23ZM22.9375 23C24 23 24.9375 23.9375 24.9375 25C24.9375 26.125 24 27 22.9375 27C21.8125 27 20.9375 26.125 20.9375 25C20.9375 23.9375 21.875 23 22.9375 23ZM35.125 33.6875C33.375 35.8125 30.75 37 28 37C25.1875 37 22.5625 35.75 20.8125 33.625C19.9375 32.625 21.5 31.3125 22.3125 32.3125C23.75 34.0625 25.8125 35 28 35C30.1875 35 32.1875 34.0625 33.625 32.375C34.4375 31.375 36 32.625 35.125 33.6875Z" fill="#1C2323"/>
</svg>
