<svg width="85" height="65" viewBox="0 0 85 65" fill="none" xmlns="http://www.w3.org/2000/svg">
<path d="M84.4097 30.0335C76.441 12.1875 60.5035 0 42.5 0C24.349 0 8.41146 12.1875 0.442708 30.0335C0.147569 30.7589 0 31.7746 0 32.5C0 33.2254 0.147569 34.3862 0.442708 35.1116C8.41146 52.9576 24.349 65 42.5 65C60.5035 65 76.441 52.9576 84.4097 35.1116C84.7049 34.3862 85 33.2254 85 32.5C85 31.7746 84.7049 30.7589 84.4097 30.0335ZM63.75 32.5C63.75 44.1071 54.158 53.3929 42.5 53.3929C30.6944 53.3929 21.25 44.1071 21.25 32.5C21.25 21.0379 30.6944 11.6071 42.5 11.6071C54.158 11.6071 63.75 21.0379 63.75 32.5ZM42.5 18.5714C42.0573 18.5714 41.6146 18.7165 41.1719 18.7165C41.9097 20.0223 42.5 21.6183 42.5 23.2143C42.5 28.4375 38.2205 32.5 33.0556 32.5C31.2847 32.5 29.6615 32.0647 28.3333 31.3393C28.3333 31.7746 28.3333 32.2098 28.3333 32.5C28.3333 40.1897 34.6788 46.4286 42.5 46.4286C50.3212 46.4286 56.6667 40.3348 56.6667 32.6451C56.6667 24.9554 50.1736 18.5714 42.5 18.5714Z" fill="#F2F0EA"/>
</svg>
