<svg width="36" height="36" viewBox="0 0 36 36" fill="none" xmlns="http://www.w3.org/2000/svg">
<path d="M22.3333 23.4C22.3333 24 21.8 24.4667 21.2667 24.4667H14.8667C14.2667 24.4667 13.8 24 13.8 23.4V20.2H1V29.8C1 31.5333 2.46667 33 4.2 33H31.9333C33.6 33 35.1333 31.5333 35.1333 29.8V20.2H22.3333V23.4ZM31.9333 7.4H26.6V4.2C26.6 2.53333 25.0667 1 23.4 1H12.7333C11 1 9.53333 2.53333 9.53333 4.2V7.4H4.2C2.46667 7.4 1 8.93333 1 10.6V18.0667H35.1333V10.6C35.1333 8.93333 33.6 7.4 31.9333 7.4ZM23.4 7.4H12.7333V4.2H23.4V7.4Z" fill="#EB8612"/>
</svg>
