<svg width="36" height="36" viewBox="0 0 36 36" fill="none" xmlns="http://www.w3.org/2000/svg">
<path d="M14.5796 1.33472C7.98724 2.68155 2.67081 7.99799 1.32398 14.5904C-0.589939 24.5853 6.2151 33.5169 15.4303 34.7928C16.7771 35.0055 18.053 33.9422 18.053 32.5954V32.5245C18.053 31.4612 17.2024 30.4688 16.1391 30.327C10.1138 29.4055 5.57713 24.2308 5.57713 17.9929C5.57713 10.6916 11.8151 4.80813 19.2581 5.51698C25.7087 6.15496 30.5289 12.0385 30.5289 18.56V19.6941C30.5289 21.2536 29.253 22.5296 27.6935 22.5296C26.0631 22.5296 24.8581 21.2536 24.8581 19.6941V11.1878C24.8581 10.5499 24.291 10.0537 23.7239 10.0537H21.4555C20.8885 10.0537 20.4631 10.4081 20.3214 10.8334C18.6201 9.98279 16.4935 9.69925 14.2252 10.479C11.5315 11.4714 9.40496 13.9524 9.05053 16.8587C8.34167 21.7498 12.0986 25.9321 16.9189 25.9321C18.7619 25.9321 20.4631 25.2232 21.81 24.1599C23.5112 26.3574 26.4175 27.6334 29.6074 26.8536C32.8682 26.0739 35.0656 22.884 34.9947 19.5524V18.0638C34.9947 7.50179 25.496 -0.791852 14.5796 1.33472ZM16.848 21.4663C14.934 21.4663 13.4454 19.9068 13.4454 18.0638C13.4454 16.1499 14.934 14.6613 16.848 14.6613C18.691 14.6613 20.2505 16.1499 20.2505 18.0638C20.2505 19.9068 18.7619 21.4663 16.848 21.4663Z" fill="#EB8612"/>
</svg>
