<svg width="36" height="36" viewBox="0 0 36 36" fill="none" xmlns="http://www.w3.org/2000/svg">
<path d="M34.9264 6.26123C34.7934 3.46787 32.5321 1.20658 29.7388 1.07356L26.0808 1.00705C20.3611 0.807525 15.7055 4.86455 15.0404 10.3848C14.8408 11.5819 14.3753 12.7126 13.5107 13.5772C12.7126 14.3753 11.5819 14.8408 10.3848 15.0404C4.86455 15.7055 0.807525 20.3611 1.00705 26.0808L1.07356 29.7388C1.20658 32.5321 3.46787 34.7934 6.26123 34.9264L9.9192 34.993C15.6389 35.1925 20.2945 31.1355 20.9596 25.6152C21.1592 24.4181 21.6247 23.2874 22.4228 22.4228C23.2874 21.6247 24.4181 21.0927 25.6152 20.9596C31.1355 20.2945 35.1925 15.6389 34.993 9.8527L34.9264 6.26123ZM9.52015 29.9383C8.72205 29.9383 8.18998 29.3397 8.18998 28.6081C8.18998 27.8765 8.78856 27.278 9.52015 27.278C10.1852 27.278 10.7838 27.8765 10.7838 28.6081C10.7838 29.3397 10.2517 29.9383 9.52015 29.9383ZM13.7767 29.9383C12.9786 29.9383 12.4465 29.3397 12.4465 28.6081C12.4465 27.8765 13.0451 27.278 13.7767 27.278C14.4418 27.278 15.0404 27.8765 15.0404 28.6081C15.0404 29.3397 14.5083 29.9383 13.7767 29.9383ZM13.7767 25.6817C12.9786 25.6817 12.4465 25.0832 12.4465 24.3516C12.4465 23.62 13.0451 23.0214 13.7767 23.0214C14.4418 23.0214 15.0404 23.62 15.0404 24.3516C15.0404 25.0832 14.5083 25.6817 13.7767 25.6817ZM24.3516 15.0404C23.62 15.0404 23.0879 14.4418 23.0879 13.7102C23.0879 12.9786 23.62 12.38 24.3516 12.38C25.0167 12.38 25.6152 12.9786 25.6152 13.7102C25.6152 14.4418 25.1497 15.0404 24.3516 15.0404ZM28.6081 15.0404C27.8765 15.0404 27.3445 14.4418 27.3445 13.7102C27.3445 12.9786 27.8765 12.38 28.6081 12.38C29.2732 12.38 29.8718 12.9786 29.8718 13.7102C29.8718 14.4418 29.4062 15.0404 28.6081 15.0404ZM28.6081 10.7838C27.8765 10.7838 27.3445 10.1852 27.3445 9.45364C27.3445 8.72205 27.8765 8.12347 28.6081 8.12347C29.2732 8.12347 29.8718 8.72205 29.8718 9.45364C29.8718 10.1852 29.4062 10.7838 28.6081 10.7838Z" fill="#EB8612"/>
</svg>
