<svg width="24" height="24" viewBox="0 0 24 24" fill="none" xmlns="http://www.w3.org/2000/svg">
<path d="M20.5617 7.31797C21.4054 6.68516 22.1648 5.92578 22.7554 5.03984C21.9961 5.37734 21.1101 5.63047 20.2242 5.71484C21.1523 5.16641 21.8273 4.32266 22.1648 3.26797C21.3211 3.77422 20.3508 4.15391 19.3804 4.36484C18.5367 3.47891 17.3976 2.97266 16.132 2.97266C13.6851 2.97266 11.7023 4.95547 11.7023 7.40234C11.7023 7.73984 11.7445 8.07734 11.8289 8.41484C8.15857 8.20391 4.86794 6.43203 2.67419 3.77422C2.29451 4.40703 2.08357 5.16641 2.08357 6.01016C2.08357 7.52891 2.84294 8.87891 4.06638 9.68047C3.34919 9.63828 2.63201 9.46953 2.04138 9.13203V9.17422C2.04138 11.3258 3.56013 13.0977 5.58513 13.5195C5.24763 13.6039 4.82576 13.6883 4.44607 13.6883C4.15076 13.6883 3.89763 13.6461 3.60232 13.6039C4.15076 15.3758 5.79607 16.6414 7.73669 16.6836C6.21794 17.8648 4.31951 18.582 2.25232 18.582C1.87263 18.582 1.53513 18.5398 1.19763 18.4977C3.13826 19.7633 5.45857 20.4805 7.98982 20.4805C16.132 20.4805 20.5617 13.7727 20.5617 7.90859C20.5617 7.69766 20.5617 7.52891 20.5617 7.31797Z" fill="#ECEAE3"/>
</svg>
