<svg width="48" height="48" viewBox="0 0 48 48" fill="none" xmlns="http://www.w3.org/2000/svg">
<circle cx="24" cy="24" r="22.5" stroke="#2F9B9B" stroke-width="3"/>
<path d="M34.0692 28.4948C34.6879 27.3458 34.7321 25.8873 34.1134 24.7383L25.8933 8.29806L24.6116 8.25387L24.6558 21.4679C25.0094 21.6447 25.4071 21.8657 25.7165 22.175C26.9097 23.3683 26.9097 25.2244 25.7165 26.4177C24.5675 27.5667 22.6671 27.6109 21.4739 26.4177C20.3248 25.2686 20.3248 23.3241 21.4739 22.175C21.8274 21.8215 22.2252 21.6005 22.6229 21.4679L22.6671 8.25387H21.3413L13.077 24.7383C12.4583 25.8873 12.4583 27.3016 13.1212 28.4948L17.9825 37.0685H29.2078L34.0692 28.4948ZM20.9435 47.2773H26.2468C27.882 47.3215 29.252 45.9515 29.252 44.2721V39.3224H18.0267L17.9825 44.3163C17.9383 45.9515 19.3083 47.3215 20.9435 47.2773Z" fill="#2F9B9B"/>
</svg>
