<svg width="284" height="300" viewBox="0 0 284 300" fill="none" xmlns="http://www.w3.org/2000/svg">
<path d="M91 300H128V200H91V300Z" fill="#DB7704"/>
<path d="M91 229L128 213V197H91V229Z" fill="black"/>
<g clip-path="url(#clip0_1737_6407)">
<path opacity="0.1" fill-rule="evenodd" clip-rule="evenodd" d="M91 223.303C91.1433 223.695 91.2905 224.094 91.4418 224.5C91.5905 224.898 92.1 226.258 92.1697 226.444C96.1177 237.004 97.6 243.612 97.6 255C97.6 266.298 96.2561 271.898 92.1787 282.091C91.7582 283.143 91.3657 284.148 91 285.117L91 291.964C91.8036 289.202 92.8602 286.311 94.2213 282.909C98.3939 272.477 99.8 266.618 99.8 255C99.8 243.312 98.2629 236.459 94.2303 225.673C94.1602 225.486 93.651 224.127 93.5031 223.731C92.4874 221.008 91.6606 218.604 91 216.334L91 223.303ZM113 223.303C109.819 214.583 108.6 208.884 108.6 200L110.8 200C110.8 206.318 111.432 210.947 113 216.334L113 223.303ZM113 285.117C109.737 293.762 108.6 299.553 108.6 310L110.8 310C110.8 302.474 111.396 297.476 113 291.964L113 285.117ZM97.6 200C97.6 209.285 98.9311 215.09 102.442 224.5C102.591 224.898 103.1 226.258 103.17 226.444C107.118 237.004 108.6 243.612 108.6 255C108.6 266.298 107.256 271.898 103.179 282.091C99.0061 292.523 97.6 298.382 97.6 310L99.8 310C99.8 298.702 101.144 293.102 105.221 282.909C109.394 272.477 110.8 266.618 110.8 255C110.8 243.312 109.263 236.459 105.23 225.673C105.16 225.486 104.651 224.127 104.503 223.731C101.076 214.546 99.8 208.98 99.8 200L97.6 200Z" fill="black"/>
<path opacity="0.1" fill-rule="evenodd" clip-rule="evenodd" d="M113 223.303C113.143 223.695 113.291 224.094 113.442 224.5C113.591 224.898 114.1 226.258 114.17 226.444C118.118 237.004 119.6 243.612 119.6 255C119.6 266.298 118.256 271.898 114.179 282.091C113.758 283.143 113.366 284.148 113 285.117L113 291.964C113.804 289.202 114.86 286.311 116.221 282.909C120.394 272.477 121.8 266.618 121.8 255C121.8 243.312 120.263 236.459 116.23 225.673C116.16 225.486 115.651 224.127 115.503 223.731C114.487 221.008 113.661 218.604 113 216.334L113 223.303ZM135 223.303C131.819 214.583 130.6 208.884 130.6 200L132.8 200C132.8 206.318 133.432 210.947 135 216.334L135 223.303ZM135 285.117C131.737 293.762 130.6 299.553 130.6 310L132.8 310C132.8 302.474 133.396 297.476 135 291.964L135 285.117ZM119.6 200C119.6 209.285 120.931 215.09 124.442 224.5C124.591 224.898 125.1 226.258 125.17 226.444C129.118 237.004 130.6 243.612 130.6 255C130.6 266.298 129.256 271.898 125.179 282.091C121.006 292.523 119.6 298.382 119.6 310L121.8 310C121.8 298.702 123.144 293.102 127.221 282.909C131.394 272.477 132.8 266.618 132.8 255C132.8 243.312 131.263 236.459 127.23 225.673C127.16 225.486 126.651 224.127 126.503 223.731C123.076 214.546 121.8 208.98 121.8 200L119.6 200Z" fill="black"/>
</g>
<path d="M0 117C0 77.2355 32.2355 45 72 45H181C220.764 45 253 77.2355 253 117V200H8C3.58172 200 0 196.418 0 192V117Z" fill="#003838"/>
<mask id="mask0_1737_6407" style="mask-type:alpha" maskUnits="userSpaceOnUse" x="0" y="45" width="253" height="155">
<path d="M0 117C0 77.2355 32.2355 45 72 45H181C220.764 45 253 77.2355 253 117V200H8C3.58172 200 0 196.418 0 192V117Z" fill="#005656"/>
</mask>
<g mask="url(#mask0_1737_6407)">
<path d="M-16 111C-16 74.5492 13.5492 45 50 45H187C223.451 45 253 74.5492 253 111V111H-16V111Z" fill="#005656"/>
<path d="M175 35H206C244.66 35 276 66.3401 276 105V229H105V105C105 66.3401 136.34 35 175 35Z" stroke="#004C4C" stroke-width="4"/>
</g>
<mask id="mask1_1737_6407" style="mask-type:alpha" maskUnits="userSpaceOnUse" x="131" y="49" width="119" height="147">
<path d="M131 108.5C131 75.6391 157.639 49 190.5 49V49C223.361 49 250 75.6391 250 108.5V196H131V108.5Z" fill="black"/>
</mask>
<g mask="url(#mask1_1737_6407)">
<path d="M131 108.5C131 75.6391 157.639 49 190.5 49V49C223.361 49 250 75.6391 250 108.5V196H131V108.5Z" fill="black"/>
<g opacity="0.8">
<rect x="49.8711" y="110.885" width="130" height="88" rx="8" transform="rotate(-20 49.8711 110.885)" fill="#E1DAC2"/>
<mask id="mask2_1737_6407" style="mask-type:alpha" maskUnits="userSpaceOnUse" x="52" y="68" width="148" height="124">
<rect x="49.8711" y="110.885" width="130" height="88" rx="8" transform="rotate(-20 49.8711 110.885)" fill="#E1DAC2"/>
</mask>
<g mask="url(#mask2_1737_6407)">
<path d="M120.205 122.349L79.7615 209.081C78.2555 212.311 81.4061 215.749 84.7548 214.53L211.931 168.242C215.279 167.023 215.483 162.364 212.253 160.858L125.521 120.414C123.519 119.48 121.139 120.347 120.205 122.349Z" fill="#87A597"/>
<path d="M135.438 147.66L175.882 60.928C177.388 57.6983 174.237 54.2599 170.888 55.4788L43.7124 101.767C40.3637 102.986 40.1603 107.645 43.39 109.151L130.122 149.595C132.124 150.528 134.504 149.662 135.438 147.66Z" fill="#F2F0EA"/>
</g>
</g>
<rect x="83.7561" y="88.3818" width="130" height="88" rx="8" transform="rotate(8 83.7561 88.3818)" fill="#E1DAC2"/>
<mask id="mask3_1737_6407" style="mask-type:alpha" maskUnits="userSpaceOnUse" x="72" y="89" width="140" height="104">
<rect x="83.7561" y="88.3818" width="130" height="88" rx="8" transform="rotate(8 83.7561 88.3818)" fill="#E1DAC2"/>
</mask>
<g mask="url(#mask3_1737_6407)">
<path d="M140.475 131.524L64.0474 189.117C61.2014 191.261 62.369 195.776 65.898 196.272L199.919 215.108C203.447 215.604 205.814 211.585 203.67 208.739L146.077 132.311C144.748 130.547 142.24 130.195 140.475 131.524Z" fill="#DB7704" fill-opacity="0.2"/>
<path d="M142.042 161.024L218.47 103.431C221.316 101.287 220.148 96.7715 216.619 96.2755L82.5988 77.4402C79.0698 76.9442 76.7029 80.9625 78.8475 83.8085L136.44 160.236C137.77 162.001 140.278 162.353 142.042 161.024Z" fill="#F2F0EA"/>
</g>
</g>
<path d="M250.5 107.5L250.5 197.5L130.5 197.5L130.5 107.5C130.5 74.3629 157.363 47.5 190.5 47.5C223.637 47.5 250.5 74.3629 250.5 107.5Z" stroke="#005656" stroke-width="5"/>
<path fill-rule="evenodd" clip-rule="evenodd" d="M69 95.5035V4C69 1.79086 70.7909 0 73 0H102C104.209 0 106 1.79086 106 4V16.8294C106 19.9764 104.155 22.8311 101.286 24.1236L86.1572 30.9382C84.7225 31.5845 83.8 33.0118 83.8 34.5853V95.891C89.2648 98.718 93 104.423 93 111C93 120.389 85.3888 128 76 128C66.6112 128 59 120.389 59 111C59 104.107 63.103 98.1715 69 95.5035Z" fill="#DB7704"/>
<circle cx="76" cy="111" r="6" fill="black"/>
<path d="M128 183H280C282.209 183 284 184.791 284 187V196C284 198.209 282.209 200 280 200H128V183Z" fill="#005656"/>
<rect x="14" y="169" width="30" height="16" rx="3" fill="#005656"/>
<path d="M47.1528 234.982C46.1756 242.349 42.161 246.713 37.9376 248.299C37.3917 248.504 37 249.009 37 249.592C37 250.175 37.3917 250.68 37.9376 250.885C42.161 252.471 46.1756 256.835 47.1528 264.202C47.2263 264.756 47.6909 265.184 48.25 265.184C48.8091 265.184 49.2737 264.756 49.3472 264.202C50.3244 256.835 54.339 252.471 58.5624 250.885C59.1083 250.68 59.5 250.175 59.5 249.592C59.5 249.009 59.1083 248.504 58.5624 248.299C54.339 246.713 50.3244 242.349 49.3472 234.982C49.2737 234.428 48.8091 234 48.25 234C47.6909 234 47.2263 234.428 47.1528 234.982Z" fill="#DB7704"/>
<path d="M32.7694 216.655C32.1199 221.617 29.4455 224.557 26.6307 225.627C26.2634 225.767 26 226.107 26 226.5C26 226.893 26.2634 227.233 26.6307 227.373C29.4455 228.443 32.1199 231.383 32.7694 236.345C32.8177 236.715 33.1273 237 33.5 237C33.8727 237 34.1823 236.715 34.2306 236.345C34.8801 231.383 37.5545 228.443 40.3693 227.373C40.7366 227.233 41 226.893 41 226.5C41 226.107 40.7366 225.767 40.3693 225.627C37.5545 224.557 34.8801 221.617 34.2306 216.655C34.1823 216.285 33.8727 216 33.5 216C33.1273 216 32.8177 216.285 32.7694 216.655Z" fill="#DB7704"/>
<path d="M263.153 45.9824C262.176 53.3495 258.161 57.713 253.938 59.2993C253.392 59.5043 253 60.0089 253 60.5921C253 61.1753 253.392 61.6799 253.938 61.8849C258.161 63.4712 262.176 67.8347 263.153 75.2018C263.226 75.7561 263.691 76.1842 264.25 76.1842C264.809 76.1842 265.274 75.7561 265.347 75.2018C266.324 67.8347 270.339 63.4712 274.562 61.8849C275.108 61.6799 275.5 61.1753 275.5 60.5921C275.5 60.0089 275.108 59.5043 274.562 59.2993C270.339 57.713 266.324 53.3495 265.347 45.9824C265.274 45.4281 264.809 45 264.25 45C263.691 45 263.226 45.4281 263.153 45.9824Z" fill="#DB7704"/>
<defs>
<clipPath id="clip0_1737_6407">
<rect width="100" height="37" fill="white" transform="translate(128 200) rotate(90)"/>
</clipPath>
</defs>
</svg>
