<svg width="283" height="300" viewBox="0 0 283 300" fill="none" xmlns="http://www.w3.org/2000/svg">
<mask id="mask0_1737_6407" style="mask-type:alpha" maskUnits="userSpaceOnUse" x="92" y="200" width="37" height="100">
<path d="M92 300H129V200H92V300Z" fill="#DB7704"/>
</mask>
<g mask="url(#mask0_1737_6407)">
<path d="M92 300H129V200H92V300Z" fill="#DB7704"/>
<path d="M91 229L130 213V197H91V229Z" fill="#001313"/>
</g>
<g clip-path="url(#clip0_1737_6407)">
<path opacity="0.1" fill-rule="evenodd" clip-rule="evenodd" d="M92 223.303C92.1433 223.695 92.2905 224.094 92.4418 224.5C92.5905 224.898 93.1 226.258 93.1697 226.444C97.1177 237.004 98.6 243.612 98.6 255C98.6 266.298 97.2561 271.898 93.1787 282.091C92.7582 283.143 92.3657 284.148 92 285.117L92 291.964C92.8036 289.202 93.8602 286.311 95.2213 282.909C99.3939 272.477 100.8 266.618 100.8 255C100.8 243.312 99.2629 236.459 95.2303 225.673C95.1602 225.486 94.651 224.127 94.5031 223.731C93.4874 221.008 92.6606 218.604 92 216.334L92 223.303ZM114 223.303C110.819 214.583 109.6 208.884 109.6 200L111.8 200C111.8 206.318 112.432 210.947 114 216.334L114 223.303ZM114 285.117C110.737 293.762 109.6 299.553 109.6 310L111.8 310C111.8 302.474 112.396 297.476 114 291.964L114 285.117ZM98.6 200C98.6 209.285 99.9311 215.09 103.442 224.5C103.591 224.898 104.1 226.258 104.17 226.444C108.118 237.004 109.6 243.612 109.6 255C109.6 266.298 108.256 271.898 104.179 282.091C100.006 292.523 98.6 298.382 98.6 310L100.8 310C100.8 298.702 102.144 293.102 106.221 282.909C110.394 272.477 111.8 266.618 111.8 255C111.8 243.312 110.263 236.459 106.23 225.673C106.16 225.486 105.651 224.127 105.503 223.731C102.076 214.546 100.8 208.98 100.8 200L98.6 200Z" fill="#001313"/>
<path opacity="0.1" fill-rule="evenodd" clip-rule="evenodd" d="M114 223.303C114.143 223.695 114.291 224.094 114.442 224.5C114.591 224.898 115.1 226.258 115.17 226.444C119.118 237.004 120.6 243.612 120.6 255C120.6 266.298 119.256 271.898 115.179 282.091C114.758 283.143 114.366 284.148 114 285.117L114 291.964C114.804 289.202 115.86 286.311 117.221 282.909C121.394 272.477 122.8 266.618 122.8 255C122.8 243.312 121.263 236.459 117.23 225.673C117.16 225.486 116.651 224.127 116.503 223.731C115.487 221.008 114.661 218.604 114 216.334L114 223.303ZM136 223.303C132.819 214.583 131.6 208.884 131.6 200L133.8 200C133.8 206.318 134.432 210.947 136 216.334L136 223.303ZM136 285.117C132.737 293.762 131.6 299.553 131.6 310L133.8 310C133.8 302.474 134.396 297.476 136 291.964L136 285.117ZM120.6 200C120.6 209.285 121.931 215.09 125.442 224.5C125.591 224.898 126.1 226.258 126.17 226.444C130.118 237.004 131.6 243.612 131.6 255C131.6 266.298 130.256 271.898 126.179 282.091C122.006 292.523 120.6 298.382 120.6 310L122.8 310C122.8 298.702 124.144 293.102 128.221 282.909C132.394 272.477 133.8 266.618 133.8 255C133.8 243.312 132.263 236.459 128.23 225.673C128.16 225.486 127.651 224.127 127.503 223.731C124.076 214.546 122.8 208.98 122.8 200L120.6 200Z" fill="#001313"/>
</g>
<path d="M0 117C0 77.2355 32.2355 45 72 45H190C224.794 45 253 73.2061 253 108V200H8C3.58172 200 0 196.418 0 192V117Z" fill="#003838"/>
<mask id="mask1_1737_6407" style="mask-type:alpha" maskUnits="userSpaceOnUse" x="1" y="45" width="252" height="155">
<path d="M1 117C1 77.2355 33.2355 45 73 45H181C220.765 45 253 77.2355 253 117V200H9C4.58172 200 1 196.418 1 192V117Z" fill="#005656"/>
</mask>
<g mask="url(#mask1_1737_6407)">
<path d="M-15 111C-15 74.5492 14.5492 45 51 45H188C224.451 45 254 74.5492 254 111V111H-15V111Z" fill="#005656"/>
<path d="M176 35H207C245.66 35 277 66.3401 277 105V229H106V105C106 66.3401 137.34 35 176 35Z" stroke="#004C4C" stroke-width="4"/>
</g>
<mask id="mask2_1737_6407" style="mask-type:alpha" maskUnits="userSpaceOnUse" x="132" y="49" width="119" height="147">
<path d="M132 108.5C132 75.6391 158.639 49 191.5 49V49C224.361 49 251 75.6391 251 108.5V196H132V108.5Z" fill="black"/>
</mask>
<g mask="url(#mask2_1737_6407)">
<path d="M132 108.5C132 75.6391 158.639 49 191.5 49V49C224.361 49 251 75.6391 251 108.5V196H132V108.5Z" fill="#001313"/>
<g opacity="0.8">
<rect x="50.8711" y="110.885" width="130" height="88" rx="8" transform="rotate(-20 50.8711 110.885)" fill="#E1DAC2"/>
<mask id="mask3_1737_6407" style="mask-type:alpha" maskUnits="userSpaceOnUse" x="53" y="68" width="148" height="124">
<rect x="50.8711" y="110.885" width="130" height="88" rx="8" transform="rotate(-20 50.8711 110.885)" fill="#E1DAC2"/>
</mask>
<g mask="url(#mask3_1737_6407)">
<path d="M121.205 122.349L80.7615 209.081C79.2555 212.311 82.4061 215.749 85.7548 214.53L212.931 168.242C216.279 167.023 216.483 162.364 213.253 160.858L126.521 120.414C124.519 119.48 122.139 120.347 121.205 122.349Z" fill="#87A597"/>
<path d="M136.438 147.66L176.882 60.928C178.388 57.6983 175.237 54.2599 171.888 55.4788L44.7124 101.767C41.3637 102.986 41.1603 107.645 44.39 109.151L131.122 149.595C133.124 150.528 135.504 149.662 136.438 147.66Z" fill="#F2F0EA"/>
</g>
</g>
<rect x="84.7561" y="88.3818" width="130" height="88" rx="8" transform="rotate(8 84.7561 88.3818)" fill="#E1DAC2"/>
<mask id="mask4_1737_6407" style="mask-type:alpha" maskUnits="userSpaceOnUse" x="73" y="89" width="140" height="104">
<rect x="84.7561" y="88.3818" width="130" height="88" rx="8" transform="rotate(8 84.7561 88.3818)" fill="#E1DAC2"/>
</mask>
<g mask="url(#mask4_1737_6407)">
<path d="M141.475 131.524L65.0474 189.117C62.2014 191.261 63.369 195.776 66.898 196.272L200.919 215.108C204.447 215.604 206.814 211.585 204.67 208.739L147.077 132.311C145.748 130.547 143.24 130.195 141.475 131.524Z" fill="#DB7704" fill-opacity="0.2"/>
<path d="M143.042 161.024L219.47 103.431C222.316 101.287 221.148 96.7715 217.619 96.2755L83.5989 77.4402C80.07 76.9442 77.703 80.9625 79.8477 83.8085L137.44 160.236C138.77 162.001 141.278 162.353 143.042 161.024Z" fill="#F2F0EA"/>
</g>
</g>
<path d="M250.5 107.5L250.5 197.5L130.5 197.5L130.5 107.5C130.5 74.3629 157.363 47.5 190.5 47.5C223.637 47.5 250.5 74.3629 250.5 107.5Z" stroke="#005656" stroke-width="5"/>
<path fill-rule="evenodd" clip-rule="evenodd" d="M62 95.5035V4C62 1.79086 63.7909 0 66 0H95C97.2091 0 99 1.79086 99 4V11.8294C99 14.9764 97.155 17.8311 94.2856 19.1236L79.1572 25.9382C77.7225 26.5845 76.8 28.0118 76.8 29.5853V95.891C82.2648 98.718 86 104.423 86 111C86 120.389 78.3888 128 69 128C59.6112 128 52 120.389 52 111C52 104.107 56.103 98.1715 62 95.5035Z" fill="#DB7704"/>
<circle cx="69" cy="111" r="6" fill="#001313"/>
<path d="M129 183H279C281.209 183 283 184.791 283 187V196C283 198.209 281.209 200 279 200H129V183Z" fill="#005656"/>
<rect x="15" y="169" width="30" height="16" rx="3" fill="#005656"/>
<path d="M56.1528 234.982C55.1756 242.349 51.161 246.713 46.9376 248.299C46.3917 248.504 46 249.009 46 249.592C46 250.175 46.3917 250.68 46.9376 250.885C51.161 252.471 55.1756 256.835 56.1528 264.202C56.2263 264.756 56.6909 265.184 57.25 265.184C57.8091 265.184 58.2737 264.756 58.3472 264.202C59.3244 256.835 63.339 252.471 67.5624 250.885C68.1083 250.68 68.5 250.175 68.5 249.592C68.5 249.009 68.1083 248.504 67.5624 248.299C63.339 246.713 59.3244 242.349 58.3472 234.982C58.2737 234.428 57.8091 234 57.25 234C56.6909 234 56.2263 234.428 56.1528 234.982Z" fill="#DB7704"/>
<path d="M41.7694 216.655C41.1199 221.617 38.4455 224.557 35.6307 225.627C35.2634 225.767 35 226.107 35 226.5C35 226.893 35.2634 227.233 35.6307 227.373C38.4455 228.443 41.1199 231.383 41.7694 236.345C41.8177 236.715 42.1273 237 42.5 237C42.8727 237 43.1823 236.715 43.2306 236.345C43.8801 231.383 46.5545 228.443 49.3693 227.373C49.7366 227.233 50 226.893 50 226.5C50 226.107 49.7366 225.767 49.3693 225.627C46.5545 224.557 43.8801 221.617 43.2306 216.655C43.1823 216.285 42.8727 216 42.5 216C42.1273 216 41.8177 216.285 41.7694 216.655Z" fill="#DB7704"/>
<path d="M264.153 45.9824C263.176 53.3495 259.161 57.713 254.938 59.2993C254.392 59.5043 254 60.0089 254 60.5921C254 61.1753 254.392 61.6799 254.938 61.8849C259.161 63.4712 263.176 67.8347 264.153 75.2018C264.226 75.7561 264.691 76.1842 265.25 76.1842C265.809 76.1842 266.274 75.7561 266.347 75.2018C267.324 67.8347 271.339 63.4712 275.562 61.8849C276.108 61.6799 276.5 61.1753 276.5 60.5921C276.5 60.0089 276.108 59.5043 275.562 59.2993C271.339 57.713 267.324 53.3495 266.347 45.9824C266.274 45.4281 265.809 45 265.25 45C264.691 45 264.226 45.4281 264.153 45.9824Z" fill="#DB7704"/>
<rect x="180" y="45" width="9" height="3" fill="#005656"/>
<defs>
<clipPath id="clip0_1737_6407">
<rect width="100" height="37" fill="white" transform="translate(129 200) rotate(90)"/>
</clipPath>
</defs>
</svg>
