<svg width="1473" height="365" viewBox="0 0 1473 365" fill="none" xmlns="http://www.w3.org/2000/svg">
<rect width="1473" height="174" transform="matrix(1 0 0 -1 0 365)" fill="#DFDACE"/>
<rect x="387.947" y="141.493" width="16.4729" height="52.9256" rx="8.23645" transform="rotate(90 387.947 141.493)" fill="#1C2323"/>
<path d="M306.188 230.222H399.4V305.847H306.188V230.222Z" fill="#ABA699"/>
<path d="M175.821 335.526C180.496 318.023 196.35 305.847 214.467 305.847H427.926C446.043 305.847 461.897 318.023 466.572 335.526L474.444 365H167.949L175.821 335.526Z" fill="#F2F0EA"/>
<path d="M212.948 335.526C217.623 318.023 233.477 305.847 251.594 305.847H465.053C483.17 305.847 499.024 318.023 503.699 335.526L511.571 365H205.076L212.948 335.526Z" fill="#F2F0EA"/>
<path d="M228.909 332.963C231.14 324.066 239.136 317.828 248.308 317.828H468.339C477.511 317.828 485.507 324.066 487.738 332.963L495.772 365H220.875L228.909 332.963Z" fill="#1C2323"/>
<mask id="path-7-inside-1_793_3557" fill="white">
<path fill-rule="evenodd" clip-rule="evenodd" d="M464.175 365H495.773L487.739 332.963C485.508 324.066 477.512 317.828 468.34 317.828H436.742C445.914 317.828 453.911 324.066 456.142 332.963L464.175 365Z"/>
</mask>
<path d="M495.773 365V376H509.872L506.443 362.324L495.773 365ZM464.175 365L453.506 367.676L455.593 376H464.175V365ZM487.739 332.963L477.07 335.639L477.07 335.639L487.739 332.963ZM456.142 332.963L466.811 330.287L466.811 330.287L456.142 332.963ZM495.773 354H464.175V376H495.773V354ZM477.07 335.639L485.103 367.676L506.443 362.324L498.409 330.287L477.07 335.639ZM468.34 328.828C472.467 328.828 476.066 331.635 477.07 335.639L498.409 330.287C494.951 316.498 482.556 306.828 468.34 306.828V328.828ZM436.742 328.828H468.34V306.828H436.742V328.828ZM436.742 328.828C440.87 328.828 444.468 331.635 445.472 335.639L466.811 330.287C463.353 316.498 450.959 306.828 436.742 306.828V328.828ZM445.472 335.639L453.506 367.676L474.845 362.324L466.811 330.287L445.472 335.639Z" fill="#F2F0EA" mask="url(#path-7-inside-1_793_3557)"/>
<rect x="164" y="61" width="361" height="202.167" rx="70" fill="#1C2323"/>
<rect x="186.648" y="63.4877" width="343.352" height="197.192" rx="45" fill="#1C2323" stroke="#F2F0EA" stroke-width="10"/>
<rect x="886.408" y="176.783" width="13.8719" height="62.0153" rx="6.93596" transform="rotate(90 886.408 176.783)" fill="#1C2323"/>
<path d="M790.609 251.502H899.83V315.187H790.609V251.502Z" fill="#ABA699"/>
<path d="M637.452 341.253C643.276 325.583 658.23 315.187 674.947 315.187H941.441C958.158 315.187 973.112 325.583 978.935 341.253L987.76 365H628.627L637.452 341.253Z" fill="#F2F0EA"/>
<path d="M680.956 341.253C686.779 325.583 701.733 315.187 718.451 315.187H984.945C1001.66 315.187 1016.62 325.583 1022.44 341.253L1031.26 365H672.131L680.956 341.253Z" fill="#F2F0EA"/>
<path d="M699.824 338.687C702.626 330.656 710.202 325.276 718.707 325.276H984.687C993.193 325.276 1000.77 330.656 1003.57 338.687L1012.75 365H690.643L699.824 338.687Z" fill="#1C2323"/>
<mask id="path-16-inside-2_793_3557" fill="white">
<path fill-rule="evenodd" clip-rule="evenodd" d="M975.729 365H1012.75L1003.57 338.687C1000.77 330.656 993.195 325.276 984.689 325.276H947.664C956.17 325.276 963.745 330.656 966.548 338.687L975.729 365Z"/>
</mask>
<path d="M1012.75 365V376H1028.24L1023.14 361.376L1012.75 365ZM975.729 365L965.343 368.624L967.917 376H975.729V365ZM1003.57 338.687L1013.96 335.063L1013.96 335.063L1003.57 338.687ZM966.548 338.687L956.162 342.311L956.162 342.311L966.548 338.687ZM1012.75 354H975.729V376H1012.75V354ZM993.187 342.311L1002.37 368.624L1023.14 361.376L1013.96 335.063L993.187 342.311ZM984.689 336.276C988.517 336.276 991.926 338.697 993.187 342.311L1013.96 335.063C1009.62 322.615 997.874 314.276 984.689 314.276V336.276ZM947.664 336.276H984.689V314.276H947.664V336.276ZM947.664 336.276C951.492 336.276 954.901 338.697 956.162 342.311L976.933 335.063C972.59 322.615 960.848 314.276 947.664 314.276V336.276ZM956.162 342.311L965.343 368.624L986.115 361.376L976.933 335.063L956.162 342.311Z" fill="#F2F0EA" mask="url(#path-16-inside-2_793_3557)"/>
<rect x="624" y="109" width="423" height="170.246" rx="70" fill="#1C2323"/>
<rect x="651.396" y="110.305" width="400.604" height="167.635" rx="45" fill="#1C2323" stroke="#F2F0EA" stroke-width="10"/>
<rect x="1161.95" y="141.493" width="16.4729" height="52.9256" rx="8.23645" transform="rotate(90 1161.95 141.493)" fill="#1C2323"/>
<path d="M1080.19 230.222H1173.4V305.847H1080.19V230.222Z" fill="#ABA699"/>
<path d="M949.821 335.526C954.496 318.023 970.35 305.847 988.467 305.847H1201.93C1220.04 305.847 1235.9 318.023 1240.57 335.526L1248.44 365H941.949L949.821 335.526Z" fill="#F2F0EA"/>
<path d="M986.948 335.526C991.623 318.023 1007.48 305.847 1025.59 305.847H1239.05C1257.17 305.847 1273.02 318.023 1277.7 335.526L1285.57 365H979.076L986.948 335.526Z" fill="#F2F0EA"/>
<path d="M1002.91 332.963C1005.14 324.066 1013.14 317.828 1022.31 317.828H1242.34C1251.51 317.828 1259.51 324.066 1261.74 332.963L1269.77 365H994.875L1002.91 332.963Z" fill="#1C2323"/>
<mask id="path-25-inside-3_793_3557" fill="white">
<path fill-rule="evenodd" clip-rule="evenodd" d="M1238.18 365H1269.77L1261.74 332.963C1259.51 324.066 1251.51 317.828 1242.34 317.828H1210.74C1219.91 317.828 1227.91 324.066 1230.14 332.963L1238.18 365Z"/>
</mask>
<path d="M1269.77 365V376H1283.87L1280.44 362.324L1269.77 365ZM1238.18 365L1227.51 367.676L1229.59 376H1238.18V365ZM1261.74 332.963L1251.07 335.639L1251.07 335.639L1261.74 332.963ZM1230.14 332.963L1240.81 330.287L1240.81 330.287L1230.14 332.963ZM1269.77 354H1238.18V376H1269.77V354ZM1251.07 335.639L1259.1 367.676L1280.44 362.324L1272.41 330.287L1251.07 335.639ZM1242.34 328.828C1246.47 328.828 1250.07 331.635 1251.07 335.639L1272.41 330.287C1268.95 316.498 1256.56 306.828 1242.34 306.828V328.828ZM1210.74 328.828H1242.34V306.828H1210.74V328.828ZM1210.74 328.828C1214.87 328.828 1218.47 331.635 1219.47 335.639L1240.81 330.287C1237.35 316.498 1224.96 306.828 1210.74 306.828V328.828ZM1219.47 335.639L1227.51 367.676L1248.84 362.324L1240.81 330.287L1219.47 335.639Z" fill="#F2F0EA" mask="url(#path-25-inside-3_793_3557)"/>
<rect x="938" y="61" width="361" height="202.167" rx="70" fill="#1C2323"/>
<rect x="960.648" y="63.4877" width="343.352" height="197.192" rx="45" fill="#1C2323" stroke="#F2F0EA" stroke-width="10"/>
</svg>
