<?xml version="1.0" encoding="utf-8"?>
<!-- Generator: Adobe Illustrator 26.0.1, SVG Export Plug-In . SVG Version: 6.00 Build 0)  -->
<svg version="1.1" id="Layer_1" xmlns="http://www.w3.org/2000/svg" xmlns:xlink="http://www.w3.org/1999/xlink" x="0px" y="0px"
	 viewBox="0 0 200 200" style="enable-background:new 0 0 200 200;" xml:space="preserve">
<style type="text/css">
	.st0{fill:none;stroke:#000000;stroke-width:12;stroke-miterlimit:10;}
</style>
<g>
	<path d="M99.8,12.5c48.3,0,87.5,39.3,87.5,87.5s-39.3,87.5-87.5,87.5S12.3,148.2,12.3,100S51.5,12.5,99.8,12.5 M99.8,0.1
		c-55.2,0-100,44.8-100,100s44.8,100,100,100s100-44.8,100-100C199.8,44.8,155,0.1,99.8,0.1L99.8,0.1z"/>
</g>
<path class="st0" d="M55.4,67.3h41c7.4,0,13.5-6.1,13.5-13.5l0,0c0-7.4-6.1-13.5-13.5-13.5l0,0c-7.4,0-13.5,6.1-13.5,13.5v59.2
	c0,7.4-6.1,13.5-13.5,13.5l0,0c-7.4,0-13.5-6.1-13.5-13.5l0,0c0-7.4,6.1-13.5,13.5-13.5h61.3c7.4,0,13.5-6.1,13.5-13.5l0,0
	c0-7.4-6.1-13.5-13.5-13.5l0,0c-7.4,0-13.5,6.1-13.5,13.5v60.2c0,7.4-6.1,13.5-13.5,13.5l0,0c-7.4,0-13.5-6.1-13.5-13.5l0,0
	c0-7.4,6.1-13.5,13.5-13.5h37.2"/>
</svg>
