<svg width="200" height="200" viewBox="0 0 200 200" fill="none" xmlns="http://www.w3.org/2000/svg">
<g clip-path="url(#clip0_1428_4003)">
<path d="M55.4 67.2998H96.4C103.8 67.2998 109.9 61.1998 109.9 53.7998C109.9 46.3998 103.8 40.2998 96.4 40.2998C89 40.2998 82.9 46.3998 82.9 53.7998V113C82.9 120.4 76.8 126.5 69.4 126.5C62 126.5 55.9 120.4 55.9 113C55.9 105.6 62 99.4998 69.4 99.4998H130.7C138.1 99.4998 144.2 93.3998 144.2 85.9998C144.2 78.5998 138.1 72.4998 130.7 72.4998C123.3 72.4998 117.2 78.5998 117.2 85.9998V146.2C117.2 153.6 111.1 159.7 103.7 159.7C96.3 159.7 90.2 153.6 90.2 146.2C90.2 138.8 96.3 132.7 103.7 132.7H140.9" stroke="#004C4C" stroke-width="13" stroke-miterlimit="10"/>
<path d="M55.4 67.2998H96.4C103.8 67.2998 109.9 61.1998 109.9 53.7998C109.9 46.3998 103.8 40.2998 96.4 40.2998C89 40.2998 82.9 46.3998 82.9 53.7998V113C82.9 120.4 76.8 126.5 69.4 126.5C62 126.5 55.9 120.4 55.9 113C55.9 105.6 62 99.4998 69.4 99.4998H130.7C138.1 99.4998 144.2 93.3998 144.2 85.9998C144.2 78.5998 138.1 72.4998 130.7 72.4998C123.3 72.4998 117.2 78.5998 117.2 85.9998V146.2C117.2 153.6 111.1 159.7 103.7 159.7C96.3 159.7 90.2 153.6 90.2 146.2C90.2 138.8 96.3 132.7 103.7 132.7H140.9" stroke="black" stroke-opacity="0.2" stroke-width="13" stroke-miterlimit="10"/>
<path d="M100 13C148 13 187 52 187 100C187 148 148 187 100 187C52 187 13 148 13 100C13 52 52 13 100 13ZM100 0C44.8 0 0 44.8 0 100C0 155.2 44.8 200 100 200C155.2 200 200 155.2 200 100C200 44.8 155.2 0 100 0Z" fill="#004C4C"/>
<path d="M100 13C148 13 187 52 187 100C187 148 148 187 100 187C52 187 13 148 13 100C13 52 52 13 100 13ZM100 0C44.8 0 0 44.8 0 100C0 155.2 44.8 200 100 200C155.2 200 200 155.2 200 100C200 44.8 155.2 0 100 0Z" fill="black" fill-opacity="0.2"/>
</g>
<defs>
<clipPath id="clip0_1428_4003">
<rect width="200" height="200" fill="white"/>
</clipPath>
</defs>
</svg>
