<svg width="200" height="200" viewBox="0 0 200 200" fill="none" xmlns="http://www.w3.org/2000/svg">
<g clip-path="url(#clip0_1428_4003)">
<path d="M100 13C148 13 187 52 187 100C187 148 148 187 100 187C52 187 13 148 13 100C13 52 52 13 100 13ZM100 0C44.8 0 0 44.8 0 100C0 155.2 44.8 200 100 200C155.2 200 200 155.2 200 100C200 44.8 155.2 0 100 0Z" fill="#004C4C"/>
<path fill-rule="evenodd" clip-rule="evenodd" d="M100 195C152.467 195 195 152.467 195 100C195 47.5329 152.467 5 100 5C47.5329 5 5 47.5329 5 100C5 152.467 47.5329 195 100 195ZM96.4 33.7998C85.4101 33.7998 76.4 42.81 76.4 53.7998V60.7998H55.4V73.7998H76.4V92.9998H69.4C58.4101 92.9998 49.4 102.01 49.4 113C49.4 123.99 58.4101 133 69.4 133C80.3898 133 89.4 123.99 89.4 113V106H110.7V126.2H103.7C92.7101 126.2 83.7 135.21 83.7 146.2C83.7 157.19 92.7101 166.2 103.7 166.2C114.69 166.2 123.7 157.19 123.7 146.2V139.2H140.9V126.2H123.7V106H130.7C141.69 106 150.7 96.9897 150.7 85.9998C150.7 75.01 141.69 65.9998 130.7 65.9998C119.71 65.9998 110.7 75.01 110.7 85.9998V92.9998H89.4V73.7998H96.4C107.39 73.7998 116.4 64.7897 116.4 53.7998C116.4 42.81 107.39 33.7998 96.4 33.7998ZM96.4 60.7998H89.4V53.7998C89.4 49.9897 92.5898 46.7998 96.4 46.7998C100.21 46.7998 103.4 49.9897 103.4 53.7998C103.4 57.61 100.21 60.7998 96.4 60.7998ZM69.4 106H76.4V113C76.4 116.81 73.2101 120 69.4 120C65.5898 120 62.4 116.81 62.4 113C62.4 109.19 65.5898 106 69.4 106ZM103.7 139.2H110.7V146.2C110.7 150.01 107.51 153.2 103.7 153.2C99.8898 153.2 96.7 150.01 96.7 146.2C96.7 142.39 99.8898 139.2 103.7 139.2ZM130.7 92.9998H123.7V85.9998C123.7 82.1897 126.89 78.9998 130.7 78.9998C134.51 78.9998 137.7 82.1897 137.7 85.9998C137.7 89.81 134.51 92.9998 130.7 92.9998Z" fill="#004C4C"/>
</g>
<defs>
<clipPath id="clip0_1428_4003">
<rect width="200" height="200" fill="white"/>
</clipPath>
</defs>
</svg>
