<svg width="48" height="48" viewBox="0 0 48 48" fill="none" xmlns="http://www.w3.org/2000/svg">
<g clip-path="url(#clip0_1677_6365)">
<path d="M13.296 16.1521H23.136C24.912 16.1521 26.376 14.6881 26.376 12.9121C26.376 11.1361 24.912 9.67212 23.136 9.67212C21.36 9.67212 19.896 11.1361 19.896 12.9121V27.1201C19.896 28.8961 18.432 30.3601 16.656 30.3601C14.88 30.3601 13.416 28.8961 13.416 27.1201C13.416 25.3441 14.88 23.8801 16.656 23.8801H31.368C33.144 23.8801 34.608 22.4161 34.608 20.6401C34.608 18.8641 33.144 17.4001 31.368 17.4001C29.592 17.4001 28.128 18.8641 28.128 20.6401V35.0881C28.128 36.8641 26.664 38.3281 24.888 38.3281C23.112 38.3281 21.648 36.8641 21.648 35.0881C21.648 33.3121 23.112 31.8481 24.888 31.8481H33.816" stroke="#EB8612" stroke-width="3.12" stroke-miterlimit="10"/>
<path d="M24 3.12C35.52 3.12 44.88 12.48 44.88 24C44.88 35.52 35.52 44.88 24 44.88C12.48 44.88 3.12 35.52 3.12 24C3.12 12.48 12.48 3.12 24 3.12ZM24 0C10.752 0 0 10.752 0 24C0 37.248 10.752 48 24 48C37.248 48 48 37.248 48 24C48 10.752 37.248 0 24 0Z" fill="#EB8612"/>
</g>
<defs>
<clipPath id="clip0_1677_6365">
<rect width="48" height="48" fill="white"/>
</clipPath>
</defs>
</svg>
