<?xml version="1.0" encoding="utf-8"?>
<!-- Generator: Adobe Illustrator 26.0.1, SVG Export Plug-In . SVG Version: 6.00 Build 0)  -->
<svg version="1.1" id="Layer_1" xmlns="http://www.w3.org/2000/svg" xmlns:xlink="http://www.w3.org/1999/xlink" x="0px" y="0px"
	 viewBox="0 0 200 200" style="enable-background:new 0 0 200 200;" xml:space="preserve">
<style type="text/css">
	.st0{fill:none;stroke:#000000;stroke-width:13;stroke-miterlimit:10;}
</style>
<path class="st0" d="M55.4,67.3h41c7.4,0,13.5-6.1,13.5-13.5l0,0c0-7.4-6.1-13.5-13.5-13.5l0,0c-7.4,0-13.5,6.1-13.5,13.5v59.2
	c0,7.4-6.1,13.5-13.5,13.5l0,0c-7.4,0-13.5-6.1-13.5-13.5l0,0c0-7.4,6.1-13.5,13.5-13.5h61.3c7.4,0,13.5-6.1,13.5-13.5l0,0
	c0-7.4-6.1-13.5-13.5-13.5l0,0c-7.4,0-13.5,6.1-13.5,13.5v60.2c0,7.4-6.1,13.5-13.5,13.5l0,0c-7.4,0-13.5-6.1-13.5-13.5l0,0
	c0-7.4,6.1-13.5,13.5-13.5h37.2"/>
<g>
	<path d="M100,13c48,0,87,39,87,87s-39,87-87,87s-87-39-87-87S52,13,100,13 M100,0C44.8,0,0,44.8,0,100c0,55.2,44.8,100,100,100
		c55.2,0,100-44.8,100-100C200,44.8,155.2,0,100,0L100,0z"/>
</g>
</svg>
