<svg width="24" height="24" viewBox="0 0 24 24" fill="none" xmlns="http://www.w3.org/2000/svg">
<path d="M20.564 7.34531C21.4078 6.7125 22.1671 5.95313 22.7578 5.06719C21.9984 5.40469 21.1124 5.65781 20.2265 5.74219C21.1546 5.19375 21.8296 4.35 22.1671 3.29531C21.3234 3.80156 20.3531 4.18125 19.3828 4.39219C18.539 3.50625 17.4 3 16.1343 3C13.6875 3 11.7046 4.98281 11.7046 7.42969C11.7046 7.76719 11.7468 8.10469 11.8312 8.44219C8.16089 8.23125 4.87026 6.45938 2.67651 3.80156C2.29683 4.43438 2.08589 5.19375 2.08589 6.0375C2.08589 7.55625 2.84526 8.90625 4.0687 9.70781C3.35151 9.66563 2.63433 9.49688 2.0437 9.15938V9.20156C2.0437 11.3531 3.56245 13.125 5.58745 13.5469C5.24995 13.6313 4.82808 13.7156 4.44839 13.7156C4.15308 13.7156 3.89995 13.6734 3.60464 13.6313C4.15308 15.4031 5.79839 16.6688 7.73901 16.7109C6.22026 17.8922 4.32183 18.6094 2.25464 18.6094C1.87495 18.6094 1.53745 18.5672 1.19995 18.525C3.14058 19.7906 5.46089 20.5078 7.99214 20.5078C16.1343 20.5078 20.564 13.8 20.564 7.93594C20.564 7.725 20.564 7.55625 20.564 7.34531Z" fill="#2F9B9B"/>
</svg>
